%FSLAX25Y25*%
%MOIN*%
G70*
G01*
G75*
G04 Layer_Physical_Order=2*
G04 Layer_Color=16711680*
%ADD10C,0.03937*%
%ADD11C,0.03937*%
%ADD12R,0.03937X0.04724*%
%ADD13R,0.07874X0.11024*%
%ADD14R,0.06693X0.03740*%
%ADD15R,0.03740X0.06693*%
%ADD16R,0.05906X0.05118*%
%ADD17R,0.09213X0.08600*%
%ADD18R,0.04724X0.03937*%
G04:AMPARAMS|DCode=19|XSize=98.43mil|YSize=236.22mil|CornerRadius=0mil|HoleSize=0mil|Usage=FLASHONLY|Rotation=0.000|XOffset=0mil|YOffset=0mil|HoleType=Round|Shape=Octagon|*
%AMOCTAGOND19*
4,1,8,-0.02461,0.11811,0.02461,0.11811,0.04921,0.09350,0.04921,-0.09350,0.02461,-0.11811,-0.02461,-0.11811,-0.04921,-0.09350,-0.04921,0.09350,-0.02461,0.11811,0.0*
%
%ADD19OCTAGOND19*%

%ADD20O,0.09843X0.23622*%
%ADD21R,0.07874X0.07874*%
%ADD22R,0.01181X0.05512*%
%ADD23C,0.00800*%
%ADD24C,0.03000*%
%ADD25C,0.04000*%
%ADD26C,0.01000*%
%ADD27C,0.03200*%
%ADD28C,0.01600*%
%ADD29C,0.02000*%
%ADD30C,0.01500*%
%ADD31C,0.00500*%
%ADD32C,0.01969*%
%ADD33C,0.05906*%
%ADD34R,0.05906X0.05906*%
%ADD35C,0.24410*%
%ADD36C,0.20472*%
%ADD37C,0.05000*%
%ADD38O,0.05000X0.04000*%
%ADD39C,0.06299*%
%ADD40C,0.06000*%
%ADD41C,0.04331*%
%ADD42R,0.05118X0.05118*%
%ADD43C,0.05118*%
%ADD44C,0.02400*%
%ADD45C,0.03600*%
%ADD46R,0.11024X0.07874*%
%ADD47O,0.07480X0.02362*%
%ADD48O,0.06102X0.00984*%
%ADD49O,0.00984X0.06102*%
%ADD50R,0.05512X0.03937*%
G36*
X210518Y-53624D02*
X210455Y-53774D01*
X210278Y-55118D01*
X210455Y-56462D01*
X210974Y-57715D01*
X211800Y-58791D01*
X212875Y-59616D01*
X214128Y-60135D01*
X215472Y-60312D01*
X216817Y-60135D01*
X218070Y-59616D01*
X219145Y-58791D01*
X219971Y-57715D01*
X220000Y-57643D01*
X221129Y-57532D01*
X221902Y-58689D01*
X223540Y-59784D01*
X225472Y-60168D01*
X227405Y-59784D01*
X229043Y-58689D01*
X229291Y-58317D01*
X230291Y-58621D01*
Y-59362D01*
X245709D01*
X246329Y-60105D01*
Y-76341D01*
X238950D01*
X238356Y-75341D01*
X238364Y-75303D01*
X234077D01*
X234084Y-75341D01*
X233491Y-76341D01*
X185187D01*
Y-59362D01*
X186709D01*
Y-50638D01*
X176074D01*
X175619Y-49638D01*
X175872Y-49258D01*
X175944Y-48900D01*
X171656D01*
X171728Y-49258D01*
X171981Y-49638D01*
X171526Y-50638D01*
X171291D01*
Y-51698D01*
X170291Y-52001D01*
X169988Y-51547D01*
X168350Y-50453D01*
X166417Y-50068D01*
X164485Y-50453D01*
X162847Y-51547D01*
X162074Y-52704D01*
X160945Y-52593D01*
X160916Y-52521D01*
X160090Y-51445D01*
X159014Y-50620D01*
X157762Y-50101D01*
X156417Y-49924D01*
X155073Y-50101D01*
X153820Y-50620D01*
X152745Y-51445D01*
X151919Y-52521D01*
X151857Y-52671D01*
X146532D01*
X142462Y-48601D01*
X142545Y-47761D01*
X143096Y-46937D01*
X143289Y-45965D01*
Y-45853D01*
X171853D01*
X172143Y-46625D01*
X172188Y-46852D01*
X171728Y-47542D01*
X171656Y-47900D01*
X175944D01*
X175872Y-47542D01*
X175412Y-46852D01*
X175457Y-46625D01*
X175747Y-45853D01*
X202746D01*
X210518Y-53624D01*
D02*
G37*
G36*
X91863Y-29887D02*
X91286Y-30751D01*
X91220Y-31081D01*
X90500Y-30937D01*
X89251Y-31186D01*
X88193Y-31893D01*
X87486Y-32951D01*
X86860Y-33369D01*
X86700Y-33337D01*
X85451Y-33586D01*
X84393Y-34293D01*
X83686Y-35351D01*
X83563Y-35969D01*
X82400Y-35737D01*
X81151Y-35986D01*
X80093Y-36693D01*
X79386Y-37751D01*
X79137Y-39000D01*
X79386Y-40249D01*
X80093Y-41307D01*
X81151Y-42014D01*
X81263Y-42126D01*
Y-43323D01*
X80517Y-43611D01*
X80263Y-43663D01*
X79249Y-42986D01*
X78000Y-42737D01*
X76751Y-42986D01*
X75693Y-43693D01*
X75641Y-43771D01*
X71282D01*
X70501Y-43927D01*
X70345Y-43957D01*
X69552Y-44488D01*
X68524Y-45516D01*
X67824Y-45482D01*
X66943Y-45100D01*
X66772Y-44242D01*
X66286Y-43514D01*
X65558Y-43028D01*
X65200Y-42956D01*
Y-45100D01*
X64700D01*
Y-45600D01*
X62101D01*
X61647Y-46153D01*
X60143D01*
X59840Y-45153D01*
X60507Y-44707D01*
X61214Y-43649D01*
X61463Y-42400D01*
X61214Y-41151D01*
X60647Y-40302D01*
Y-37993D01*
X61567Y-37627D01*
X63310Y-39371D01*
X64104Y-39901D01*
X65038Y-40087D01*
Y-41609D01*
X73762D01*
Y-34128D01*
Y-27506D01*
X82148D01*
X82682Y-28506D01*
X82573Y-28669D01*
X82502Y-29028D01*
X86789D01*
X86718Y-28669D01*
X86609Y-28506D01*
X87144Y-27506D01*
X89483D01*
X91863Y-29887D01*
D02*
G37*
G36*
X269573Y-53624D02*
X269511Y-53774D01*
X269334Y-55118D01*
X269511Y-56462D01*
X270029Y-57715D01*
X270855Y-58791D01*
X271931Y-59616D01*
X273183Y-60135D01*
X274528Y-60312D01*
X275872Y-60135D01*
X277125Y-59616D01*
X278200Y-58791D01*
X279026Y-57715D01*
X279056Y-57643D01*
X280184Y-57532D01*
X280957Y-58689D01*
X282595Y-59784D01*
X284528Y-60168D01*
X286460Y-59784D01*
X288098Y-58689D01*
X288551Y-58011D01*
X289551Y-58314D01*
Y-59362D01*
X298553D01*
Y-75429D01*
X266047D01*
Y-74942D01*
X255353D01*
Y-75429D01*
X253671D01*
Y-55825D01*
X253874Y-54800D01*
X253579Y-53317D01*
X252740Y-52060D01*
X251483Y-51221D01*
X250000Y-50925D01*
X248517Y-51221D01*
X247260Y-52060D01*
X246931Y-52553D01*
X245709D01*
Y-50638D01*
X230291D01*
Y-51615D01*
X229291Y-51919D01*
X229043Y-51547D01*
X227405Y-50453D01*
X225472Y-50068D01*
X223540Y-50453D01*
X221902Y-51547D01*
X221129Y-52704D01*
X220000Y-52593D01*
X219971Y-52521D01*
X219145Y-51445D01*
X218070Y-50620D01*
X216817Y-50101D01*
X215472Y-49924D01*
X214128Y-50101D01*
X213978Y-50163D01*
X205490Y-41675D01*
X204696Y-41145D01*
X204541Y-41114D01*
X203760Y-40958D01*
X183675D01*
X183140Y-39959D01*
X183414Y-39549D01*
X183663Y-38300D01*
X183582Y-37896D01*
X184403Y-36896D01*
X234164D01*
X234432Y-37401D01*
X234560Y-37896D01*
X234148Y-38512D01*
X234077Y-38870D01*
X238364D01*
X238293Y-38512D01*
X237881Y-37896D01*
X238009Y-37401D01*
X238277Y-36896D01*
X252845D01*
X269573Y-53624D01*
D02*
G37*
G36*
X328628D02*
X328566Y-53774D01*
X328389Y-55118D01*
X328566Y-56462D01*
X329084Y-57715D01*
X329910Y-58791D01*
X330986Y-59616D01*
X332238Y-60135D01*
X333583Y-60312D01*
X334927Y-60135D01*
X336180Y-59616D01*
X337255Y-58791D01*
X338081Y-57715D01*
X338111Y-57643D01*
X339239Y-57532D01*
X340012Y-58689D01*
X341650Y-59784D01*
X343583Y-60168D01*
X345515Y-59784D01*
X347153Y-58689D01*
X348248Y-57051D01*
X348633Y-55118D01*
X348248Y-53186D01*
X347153Y-51547D01*
X345515Y-50453D01*
X343583Y-50068D01*
X342257Y-50332D01*
X337367Y-45441D01*
Y-43462D01*
X346369D01*
Y-43436D01*
X347292Y-43053D01*
X350253Y-46014D01*
Y-62500D01*
X350408Y-63281D01*
X350439Y-63436D01*
X350970Y-64230D01*
X351574Y-64835D01*
Y-65835D01*
X341980Y-75429D01*
X303447D01*
Y-59362D01*
X304969D01*
Y-50638D01*
X289551D01*
Y-51922D01*
X288551Y-52225D01*
X288098Y-51547D01*
X286460Y-50453D01*
X284528Y-50068D01*
X282595Y-50453D01*
X280957Y-51547D01*
X280184Y-52704D01*
X279056Y-52593D01*
X279026Y-52521D01*
X278200Y-51445D01*
X277125Y-50620D01*
X275872Y-50101D01*
X274528Y-49924D01*
X273183Y-50101D01*
X273033Y-50163D01*
X258721Y-35851D01*
X259104Y-34927D01*
X309931D01*
X328628Y-53624D01*
D02*
G37*
G36*
X610236Y-70753D02*
X609236Y-71099D01*
X607807Y-69358D01*
X605797Y-67708D01*
X603503Y-66482D01*
X601014Y-65727D01*
X598925Y-65521D01*
Y-78740D01*
Y-91960D01*
X601014Y-91754D01*
X603503Y-90999D01*
X605797Y-89773D01*
X607807Y-88122D01*
X609236Y-86382D01*
X610236Y-86728D01*
Y-110236D01*
X-0D01*
Y-19799D01*
X1000Y-19452D01*
X2429Y-21193D01*
X4439Y-22843D01*
X6733Y-24070D01*
X9222Y-24825D01*
X11311Y-25030D01*
Y-11811D01*
X11811D01*
Y-11311D01*
X25030D01*
X24825Y-9222D01*
X24070Y-6733D01*
X22843Y-4439D01*
X21193Y-2429D01*
X19452Y-1000D01*
X19799Y0D01*
X67281D01*
X67584Y-1000D01*
X67414Y-1114D01*
X66928Y-1842D01*
X66856Y-2200D01*
X71144D01*
X71072Y-1842D01*
X70586Y-1114D01*
X70416Y-1000D01*
X70719Y0D01*
X125762D01*
X126177Y-1000D01*
X125238Y-1939D01*
X125213Y-1976D01*
X124093Y-2270D01*
X123299Y-1739D01*
X123144Y-1708D01*
X122363Y-1553D01*
X111037D01*
X110101Y-1739D01*
X109837Y-1915D01*
X109307Y-2270D01*
X107813Y-3764D01*
X106038D01*
X105746Y-3327D01*
X104423Y-2443D01*
X102862Y-2133D01*
X101862D01*
X100469Y-2410D01*
X99468Y-1895D01*
Y-1638D01*
X91531D01*
Y-1863D01*
X90988Y-2638D01*
X90531Y-2638D01*
X88520D01*
Y-6000D01*
Y-9362D01*
X90531D01*
X90751Y-9362D01*
X91298Y-9875D01*
X91472Y-10162D01*
Y-10263D01*
X90928Y-11038D01*
X90472Y-11038D01*
X88460D01*
Y-14400D01*
X87960D01*
Y-14900D01*
X84991D01*
Y-17153D01*
X84991Y-17762D01*
X84153Y-18153D01*
X84153D01*
X79814D01*
X77070Y-15410D01*
X76277Y-14879D01*
X76121Y-14849D01*
X75762Y-14777D01*
Y-13172D01*
X75537D01*
X74762Y-12628D01*
X74762Y-12172D01*
Y-10160D01*
X68038D01*
Y-12172D01*
X68038Y-12628D01*
X67263Y-13172D01*
X67263Y-13172D01*
X67038D01*
Y-20063D01*
X66038Y-20477D01*
X63889Y-18329D01*
X63095Y-17798D01*
X62940Y-17767D01*
X62159Y-17612D01*
X61119D01*
X60296Y-17063D01*
X59301Y-16864D01*
X59292Y-16819D01*
X59261Y-16664D01*
X58890Y-16108D01*
Y-7449D01*
X43472D01*
Y-16173D01*
X44157D01*
X44639Y-17173D01*
X44186Y-17851D01*
X43937Y-19100D01*
X44186Y-20349D01*
X44893Y-21407D01*
X45951Y-22114D01*
X47200Y-22363D01*
X48449Y-22114D01*
X49507Y-21407D01*
X49842Y-20905D01*
X50904Y-21116D01*
X50941Y-21300D01*
X51644Y-22353D01*
Y-22766D01*
X50941Y-23818D01*
X50694Y-25059D01*
X50941Y-26300D01*
X51644Y-27352D01*
X51953Y-27559D01*
X52364Y-28487D01*
X51882Y-29208D01*
X51813Y-29559D01*
X56496D01*
Y-30559D01*
X51813D01*
X51882Y-30910D01*
X52364Y-31631D01*
X51953Y-32559D01*
X51644Y-32766D01*
X50941Y-33818D01*
X50694Y-35059D01*
X50941Y-36300D01*
X51644Y-37352D01*
X51771Y-37438D01*
X51468Y-38438D01*
X48772D01*
Y-38663D01*
X48228Y-39438D01*
X45760D01*
Y-42800D01*
X45260D01*
Y-43300D01*
X42291D01*
Y-44970D01*
X41291Y-45068D01*
X41132Y-44267D01*
X40027Y-42613D01*
X38373Y-41508D01*
X36422Y-41120D01*
X34471Y-41508D01*
X32817Y-42613D01*
X32044Y-43771D01*
X15201D01*
X14427Y-42613D01*
X12773Y-41508D01*
X10822Y-41120D01*
X8871Y-41508D01*
X7217Y-42613D01*
X6112Y-44267D01*
X5724Y-46218D01*
X6112Y-48169D01*
X7217Y-49823D01*
X8871Y-50928D01*
X10822Y-51316D01*
X12188Y-51044D01*
X15893Y-54750D01*
Y-69338D01*
X14372D01*
Y-69563D01*
X13828Y-70338D01*
X13372Y-70338D01*
X11360D01*
Y-73700D01*
Y-77062D01*
X13372D01*
X13828Y-77062D01*
X14372Y-77837D01*
X14372Y-77837D01*
Y-78062D01*
X22309D01*
Y-75947D01*
X24991D01*
Y-77862D01*
X40409D01*
Y-73852D01*
X43020Y-71240D01*
X43832Y-71842D01*
X42860Y-73663D01*
X42105Y-76152D01*
X41899Y-78240D01*
X68338D01*
X68132Y-76152D01*
X67472Y-73977D01*
X68357Y-73447D01*
X69905Y-74995D01*
X71530Y-76620D01*
Y-79900D01*
X71809Y-81305D01*
X72605Y-82495D01*
X80105Y-89995D01*
X81295Y-90791D01*
X82700Y-91070D01*
X125192D01*
X125461Y-91581D01*
X125587Y-92071D01*
X124820Y-93217D01*
X124525Y-94700D01*
X124820Y-96183D01*
X125660Y-97440D01*
X126917Y-98280D01*
X128400Y-98575D01*
X129425Y-98370D01*
X377275D01*
X378300Y-98575D01*
X379783Y-98280D01*
X381040Y-97440D01*
X381879Y-96183D01*
X382174Y-94700D01*
X381879Y-93217D01*
X381603Y-92804D01*
X382138Y-91804D01*
X383900D01*
X384973Y-91590D01*
X385883Y-90983D01*
X393361Y-83504D01*
X534836D01*
X535151Y-83714D01*
X536400Y-83963D01*
X537649Y-83714D01*
X538707Y-83007D01*
X539414Y-81949D01*
X539663Y-80700D01*
X539414Y-79451D01*
X538707Y-78393D01*
X537649Y-77686D01*
X536400Y-77437D01*
X535151Y-77686D01*
X534836Y-77896D01*
X508727D01*
X508629Y-76896D01*
X508732Y-76876D01*
X509460Y-76389D01*
X509946Y-75661D01*
X510018Y-75303D01*
X505730D01*
X505802Y-75661D01*
X506288Y-76389D01*
X507016Y-76876D01*
X507119Y-76896D01*
X507021Y-77896D01*
X489042D01*
X488944Y-76896D01*
X489047Y-76876D01*
X489775Y-76389D01*
X490261Y-75661D01*
X490333Y-75303D01*
X486045D01*
X486117Y-75661D01*
X486603Y-76389D01*
X487331Y-76876D01*
X487434Y-76896D01*
X487336Y-77896D01*
X469357D01*
X469259Y-76896D01*
X469362Y-76876D01*
X470090Y-76389D01*
X470576Y-75661D01*
X470648Y-75303D01*
X466360D01*
X466432Y-75661D01*
X466918Y-76389D01*
X467646Y-76876D01*
X467749Y-76896D01*
X467651Y-77896D01*
X445735D01*
X445637Y-76896D01*
X445740Y-76876D01*
X446468Y-76389D01*
X446954Y-75661D01*
X447025Y-75303D01*
X442738D01*
X442809Y-75661D01*
X443296Y-76389D01*
X444024Y-76876D01*
X444127Y-76896D01*
X444029Y-77896D01*
X426050D01*
X425952Y-76896D01*
X426055Y-76876D01*
X426783Y-76389D01*
X427269Y-75661D01*
X427341Y-75303D01*
X423053D01*
X423125Y-75661D01*
X423611Y-76389D01*
X424338Y-76876D01*
X424442Y-76896D01*
X424344Y-77896D01*
X392200D01*
X391127Y-78110D01*
X390217Y-78717D01*
X382739Y-86196D01*
X304661D01*
X302160Y-83694D01*
X302542Y-82771D01*
X343500D01*
X344905Y-82491D01*
X346095Y-81695D01*
X357920Y-69871D01*
X399775D01*
X400078Y-70871D01*
X399714Y-71114D01*
X399228Y-71842D01*
X399156Y-72200D01*
X403444D01*
X403372Y-71842D01*
X402886Y-71114D01*
X402522Y-70871D01*
X402825Y-69871D01*
X511811D01*
X513216Y-69591D01*
X514406Y-68796D01*
X515202Y-67605D01*
X515482Y-66200D01*
X515202Y-64795D01*
X514406Y-63604D01*
X513216Y-62809D01*
X511811Y-62529D01*
X356400D01*
X356225Y-62564D01*
X355147Y-61486D01*
Y-45000D01*
X354992Y-44219D01*
X354961Y-44064D01*
X354430Y-43270D01*
X348530Y-37370D01*
X347736Y-36839D01*
X347581Y-36808D01*
X346800Y-36653D01*
X346369D01*
Y-34738D01*
X330951D01*
Y-43462D01*
X332473D01*
Y-46455D01*
X332628Y-47236D01*
X332659Y-47392D01*
X333189Y-48185D01*
X333970Y-48967D01*
X333653Y-49749D01*
X333522Y-49932D01*
X332238Y-50101D01*
X332088Y-50163D01*
X314896Y-32971D01*
X315279Y-32047D01*
X348271D01*
X354955Y-38730D01*
X355749Y-39261D01*
X355904Y-39292D01*
X356685Y-39447D01*
X462965D01*
X463441Y-40159D01*
X464500Y-40866D01*
X465748Y-41115D01*
X466997Y-40866D01*
X468055Y-40159D01*
X468762Y-39101D01*
X469011Y-37852D01*
X468898Y-37285D01*
X468823Y-36575D01*
X469624Y-36199D01*
X470049Y-36114D01*
X471107Y-35407D01*
X471814Y-34349D01*
X472063Y-33100D01*
X471814Y-31851D01*
X471107Y-30793D01*
X471086Y-30575D01*
X473247Y-28414D01*
X474249Y-28214D01*
X475307Y-27507D01*
X476014Y-26449D01*
X476263Y-25200D01*
X476014Y-23951D01*
X475307Y-22893D01*
X475889Y-22101D01*
X476839Y-21912D01*
X477898Y-21205D01*
X478605Y-20146D01*
X478853Y-18898D01*
X478605Y-17649D01*
X478493Y-17482D01*
X478808Y-16400D01*
X479866Y-15693D01*
X480573Y-14634D01*
X480822Y-13386D01*
X480790Y-13226D01*
X481058Y-13172D01*
X481786Y-12686D01*
X482272Y-11958D01*
X482344Y-11600D01*
X480215D01*
X480200Y-11578D01*
Y-11100D01*
X479881D01*
X479866Y-11079D01*
X479700Y-10967D01*
Y-8956D01*
X479342Y-9028D01*
X478614Y-9514D01*
X478131Y-10237D01*
X477559Y-10123D01*
X476310Y-10372D01*
X475252Y-11079D01*
X474545Y-12137D01*
X474345Y-13139D01*
X460431Y-27053D01*
X359250D01*
X353666Y-21470D01*
X352872Y-20939D01*
X352717Y-20908D01*
X351936Y-20753D01*
X197269D01*
X196562Y-20046D01*
Y-18740D01*
X189838D01*
Y-20753D01*
X178569D01*
X177862Y-20046D01*
Y-18740D01*
X171138D01*
Y-20461D01*
X170138Y-20632D01*
X166563Y-17058D01*
X166854Y-16101D01*
X167110Y-16050D01*
X168599Y-15055D01*
X168822Y-14722D01*
X169178Y-14692D01*
X170138Y-14728D01*
D01*
X170963Y-15149D01*
X171138Y-15272D01*
Y-17740D01*
X177862D01*
Y-15272D01*
X178637Y-14728D01*
X178862D01*
Y-11786D01*
X179862Y-11313D01*
X180048Y-11465D01*
X179979Y-11811D01*
X180328Y-13567D01*
X181323Y-15055D01*
X182811Y-16050D01*
X184567Y-16399D01*
X186323Y-16050D01*
X187811Y-15055D01*
X187911Y-14906D01*
X188838Y-14728D01*
X188838Y-14728D01*
X189663Y-15149D01*
X189838Y-15272D01*
Y-17740D01*
X196562D01*
Y-15272D01*
X197337Y-14728D01*
X197562D01*
Y-6791D01*
X188838D01*
Y-8333D01*
X188159Y-8468D01*
X188004Y-8499D01*
X187882Y-8581D01*
X187811Y-8567D01*
X186323Y-7572D01*
X184567Y-7223D01*
X183626Y-7410D01*
X177216Y-1000D01*
X177631Y0D01*
X362681D01*
X362880Y-1000D01*
X360475Y-1996D01*
X358128Y-3797D01*
X356327Y-6144D01*
X355195Y-8878D01*
X354874Y-11311D01*
X377409D01*
X377089Y-8878D01*
X375957Y-6144D01*
X374155Y-3797D01*
X371808Y-1996D01*
X369403Y-1000D01*
X369602Y0D01*
X582564D01*
X582910Y-1000D01*
X581169Y-2429D01*
X579519Y-4439D01*
X578293Y-6733D01*
X577537Y-9222D01*
X577332Y-11311D01*
X603770D01*
X603565Y-9222D01*
X602810Y-6733D01*
X601584Y-4439D01*
X599933Y-2429D01*
X598193Y-1000D01*
X598539Y0D01*
X610236D01*
Y-70753D01*
D02*
G37*
G36*
X32817Y-49823D02*
X34471Y-50928D01*
X36422Y-51316D01*
X38373Y-50928D01*
X39069Y-50463D01*
X39664Y-50861D01*
X39819Y-50892D01*
X40165Y-50961D01*
Y-60071D01*
X41448D01*
Y-61718D01*
X41727Y-63123D01*
X42523Y-64314D01*
Y-64817D01*
X40451Y-66889D01*
X39674Y-66251D01*
X40190Y-65479D01*
X40401Y-64418D01*
X36922D01*
Y-67897D01*
X37983Y-67686D01*
X38755Y-67170D01*
X39393Y-67946D01*
X38202Y-69138D01*
X24991D01*
Y-71053D01*
X22309D01*
Y-69338D01*
X20787D01*
Y-53736D01*
X20632Y-52955D01*
X20601Y-52800D01*
X20071Y-52006D01*
X17654Y-49589D01*
X18036Y-48665D01*
X32044D01*
X32817Y-49823D01*
D02*
G37*
G36*
X143788Y-56848D02*
X144582Y-57379D01*
X145518Y-57565D01*
X151857D01*
X151919Y-57715D01*
X152745Y-58791D01*
X153820Y-59616D01*
X155073Y-60135D01*
X156417Y-60312D01*
X157762Y-60135D01*
X159014Y-59616D01*
X160090Y-58791D01*
X160916Y-57715D01*
X160945Y-57643D01*
X162074Y-57532D01*
X162847Y-58689D01*
X164485Y-59784D01*
X166417Y-60168D01*
X168350Y-59784D01*
X169988Y-58689D01*
X170291Y-58235D01*
X171291Y-58538D01*
Y-59362D01*
X180293D01*
Y-76341D01*
X175747D01*
Y-76142D01*
X165053D01*
Y-83882D01*
X165053Y-83882D01*
X165053D01*
X164927Y-84829D01*
X153320D01*
X153277Y-84786D01*
Y-82455D01*
X153868Y-82179D01*
X154277Y-82083D01*
X155701Y-83035D01*
X157480Y-83389D01*
X159259Y-83035D01*
X160767Y-82027D01*
X161775Y-80519D01*
X162129Y-78740D01*
X161775Y-76961D01*
X161417Y-76425D01*
X161951Y-75425D01*
X162039D01*
Y-66307D01*
X152921D01*
Y-67758D01*
X151921Y-68133D01*
X150995Y-67514D01*
X150106Y-67337D01*
Y-70866D01*
X149106D01*
Y-67337D01*
X148218Y-67514D01*
X147040Y-68300D01*
X146865Y-68563D01*
X145669Y-68552D01*
X145019Y-67579D01*
X143511Y-66572D01*
X141732Y-66218D01*
X139953Y-66572D01*
X138445Y-67579D01*
X137795Y-68552D01*
X136600Y-68563D01*
X136424Y-68300D01*
X135247Y-67514D01*
X134358Y-67337D01*
Y-70866D01*
X133358D01*
Y-67337D01*
X132470Y-67514D01*
X131292Y-68300D01*
X130506Y-69477D01*
X130431Y-69853D01*
X129411D01*
X129337Y-69477D01*
X128550Y-68300D01*
X128678Y-67183D01*
X132636Y-63225D01*
X132990Y-62694D01*
X133166Y-62431D01*
X133352Y-61494D01*
Y-61382D01*
X134353Y-60848D01*
X134751Y-61114D01*
X136000Y-61363D01*
X137249Y-61114D01*
X138307Y-60407D01*
X139014Y-59349D01*
X139263Y-58100D01*
X139180Y-57683D01*
X139258Y-57289D01*
Y-53625D01*
X140182Y-53242D01*
X143788Y-56848D01*
D02*
G37*
G36*
X127965Y-16619D02*
X128732Y-16772D01*
X129175Y-17436D01*
X131853Y-20114D01*
Y-22402D01*
X131286Y-23251D01*
X131037Y-24500D01*
X131286Y-25749D01*
X131993Y-26807D01*
X132779Y-27332D01*
X132904Y-28223D01*
X132848Y-28489D01*
X132693Y-28593D01*
X132130Y-29435D01*
X131238Y-29383D01*
X131090Y-29329D01*
X131072Y-29242D01*
X130586Y-28514D01*
X129858Y-28028D01*
X129500Y-27956D01*
Y-30100D01*
Y-32244D01*
X129858Y-32172D01*
X130586Y-31686D01*
X130808Y-31354D01*
X131870Y-31565D01*
X131986Y-32149D01*
X132693Y-33207D01*
X133751Y-33914D01*
X135000Y-34163D01*
X136249Y-33914D01*
X137307Y-33207D01*
X138014Y-32149D01*
X138214Y-31147D01*
X138541Y-30819D01*
X139072Y-30025D01*
X139258Y-29089D01*
Y-21794D01*
X139325Y-21752D01*
X140028Y-21561D01*
X140735Y-22297D01*
X140668Y-22638D01*
X140861Y-23610D01*
X140869Y-23622D01*
X140861Y-23634D01*
X140668Y-24606D01*
X140861Y-25579D01*
X140869Y-25591D01*
X140861Y-25602D01*
X140668Y-26575D01*
X140861Y-27547D01*
X140869Y-27559D01*
X140861Y-27571D01*
X140668Y-28543D01*
X140861Y-29516D01*
X140869Y-29528D01*
X140861Y-29539D01*
X140668Y-30512D01*
X140861Y-31484D01*
X140869Y-31496D01*
X140861Y-31508D01*
X140668Y-32480D01*
X140861Y-33453D01*
X140869Y-33465D01*
X140861Y-33476D01*
X140668Y-34449D01*
X140861Y-35421D01*
X141412Y-36246D01*
Y-36589D01*
X140861Y-37413D01*
X140681Y-38319D01*
X139776Y-38499D01*
X139764Y-38507D01*
X139752Y-38499D01*
X138779Y-38306D01*
X137807Y-38499D01*
X137795Y-38507D01*
X137783Y-38499D01*
X136811Y-38306D01*
X136320Y-38403D01*
X135447Y-37908D01*
X135287Y-37667D01*
X135135Y-36900D01*
X134959Y-36637D01*
X134604Y-36106D01*
X133668Y-35170D01*
X132874Y-34639D01*
X132718Y-34608D01*
X131937Y-34453D01*
X129798D01*
X128949Y-33886D01*
X127700Y-33637D01*
X126451Y-33886D01*
X125393Y-34593D01*
X125384Y-34607D01*
X124186Y-34614D01*
X124179Y-34609D01*
X123458Y-34128D01*
X123100Y-34056D01*
Y-36200D01*
X122600D01*
Y-36700D01*
X120456D01*
X120528Y-37058D01*
X121014Y-37786D01*
X120407Y-38541D01*
X120208Y-38593D01*
X120067Y-38499D01*
X119161Y-38319D01*
X118981Y-37413D01*
X118974Y-37402D01*
X118981Y-37390D01*
X119175Y-36417D01*
X118981Y-35445D01*
X118974Y-35433D01*
X118981Y-35421D01*
X119175Y-34449D01*
X118981Y-33476D01*
X118974Y-33465D01*
X118981Y-33453D01*
X119175Y-32480D01*
X118981Y-31508D01*
X118974Y-31496D01*
X118981Y-31484D01*
X119175Y-30512D01*
X118981Y-29539D01*
X118974Y-29528D01*
X118981Y-29516D01*
X119175Y-28543D01*
X118981Y-27571D01*
X118974Y-27559D01*
X118981Y-27547D01*
X119175Y-26575D01*
X118981Y-25602D01*
X118974Y-25591D01*
X118981Y-25579D01*
X119175Y-24606D01*
X118981Y-23634D01*
X118974Y-23622D01*
X118981Y-23610D01*
X119175Y-22638D01*
X119009Y-21806D01*
X119581Y-20900D01*
X120400Y-21063D01*
X121649Y-20814D01*
X122707Y-20107D01*
X123414Y-19049D01*
X123663Y-17800D01*
X123598Y-17476D01*
X123636Y-17401D01*
X124465Y-16706D01*
X125000Y-16813D01*
X125972Y-16619D01*
X125984Y-16611D01*
X125996Y-16619D01*
X126969Y-16813D01*
X127941Y-16619D01*
X127953Y-16611D01*
X127965Y-16619D01*
D02*
G37*
%LPC*%
G36*
X25766Y-83177D02*
X24122D01*
Y-84821D01*
X24480Y-84750D01*
X25208Y-84263D01*
X25694Y-83536D01*
X25766Y-83177D01*
D02*
G37*
G36*
X597925Y-65521D02*
X595837Y-65727D01*
X593348Y-66482D01*
X591054Y-67708D01*
X589043Y-69358D01*
X587393Y-71368D01*
X586167Y-73663D01*
X585412Y-76152D01*
X585206Y-78240D01*
X597925D01*
Y-65521D01*
D02*
G37*
G36*
X372866Y-71425D02*
X357842D01*
Y-83299D01*
X372866D01*
Y-80421D01*
X373916D01*
X374071Y-80654D01*
X375129Y-81361D01*
X376378Y-81609D01*
X377626Y-81361D01*
X378685Y-80654D01*
X379392Y-79595D01*
X379641Y-78347D01*
X379392Y-77098D01*
X378685Y-76039D01*
X377816Y-75459D01*
X377557Y-75199D01*
X376564Y-74536D01*
X375394Y-74303D01*
X372866D01*
Y-71425D01*
D02*
G37*
G36*
X23122Y-80533D02*
X22764Y-80605D01*
X22036Y-81091D01*
X21550Y-81819D01*
X21478Y-82177D01*
X23122D01*
Y-80533D01*
D02*
G37*
G36*
X24122D02*
Y-82177D01*
X25766D01*
X25694Y-81819D01*
X25208Y-81091D01*
X24480Y-80605D01*
X24122Y-80533D01*
D02*
G37*
G36*
X3437D02*
X3079Y-80605D01*
X2351Y-81091D01*
X1865Y-81819D01*
X1793Y-82177D01*
X3437D01*
Y-80533D01*
D02*
G37*
G36*
X4437D02*
Y-82177D01*
X6081D01*
X6009Y-81819D01*
X5523Y-81091D01*
X4795Y-80605D01*
X4437Y-80533D01*
D02*
G37*
G36*
X10360Y-74200D02*
X7891D01*
Y-77062D01*
X10360D01*
Y-74200D01*
D02*
G37*
G36*
X444382Y-72659D02*
X444024Y-72731D01*
X443296Y-73217D01*
X442809Y-73945D01*
X442738Y-74303D01*
X444382D01*
Y-72659D01*
D02*
G37*
G36*
X425697D02*
Y-74303D01*
X427341D01*
X427269Y-73945D01*
X426783Y-73217D01*
X426055Y-72731D01*
X425697Y-72659D01*
D02*
G37*
G36*
X468004D02*
X467646Y-72731D01*
X466918Y-73217D01*
X466432Y-73945D01*
X466360Y-74303D01*
X468004D01*
Y-72659D01*
D02*
G37*
G36*
X445382D02*
Y-74303D01*
X447025D01*
X446954Y-73945D01*
X446468Y-73217D01*
X445740Y-72731D01*
X445382Y-72659D01*
D02*
G37*
G36*
X424697D02*
X424338Y-72731D01*
X423611Y-73217D01*
X423125Y-73945D01*
X423053Y-74303D01*
X424697D01*
Y-72659D01*
D02*
G37*
G36*
X403444Y-73200D02*
X401800D01*
Y-74844D01*
X402158Y-74772D01*
X402886Y-74286D01*
X403372Y-73558D01*
X403444Y-73200D01*
D02*
G37*
G36*
X400800D02*
X399156D01*
X399228Y-73558D01*
X399714Y-74286D01*
X400442Y-74772D01*
X400800Y-74844D01*
Y-73200D01*
D02*
G37*
G36*
X236720Y-72659D02*
Y-74303D01*
X238364D01*
X238293Y-73945D01*
X237807Y-73217D01*
X237079Y-72731D01*
X236720Y-72659D01*
D02*
G37*
G36*
X235720D02*
X235362Y-72731D01*
X234634Y-73217D01*
X234148Y-73945D01*
X234077Y-74303D01*
X235720D01*
Y-72659D01*
D02*
G37*
G36*
X504437Y-100219D02*
Y-101862D01*
X506081D01*
X506009Y-101504D01*
X505523Y-100776D01*
X504795Y-100290D01*
X504437Y-100219D01*
D02*
G37*
G36*
X503437D02*
X503079Y-100290D01*
X502351Y-100776D01*
X501865Y-101504D01*
X501793Y-101862D01*
X503437D01*
Y-100219D01*
D02*
G37*
G36*
X527059D02*
X526701Y-100290D01*
X525973Y-100776D01*
X525487Y-101504D01*
X525415Y-101862D01*
X527059D01*
Y-100219D01*
D02*
G37*
G36*
X550681D02*
X550323Y-100290D01*
X549595Y-100776D01*
X549109Y-101504D01*
X549038Y-101862D01*
X550681D01*
Y-100219D01*
D02*
G37*
G36*
X528059D02*
Y-101862D01*
X529703D01*
X529631Y-101504D01*
X529145Y-100776D01*
X528417Y-100290D01*
X528059Y-100219D01*
D02*
G37*
G36*
X480815D02*
Y-101862D01*
X482459D01*
X482387Y-101504D01*
X481901Y-100776D01*
X481173Y-100290D01*
X480815Y-100219D01*
D02*
G37*
G36*
X433571D02*
Y-101862D01*
X435215D01*
X435143Y-101504D01*
X434657Y-100776D01*
X433929Y-100290D01*
X433571Y-100219D01*
D02*
G37*
G36*
X432571D02*
X432212Y-100290D01*
X431485Y-100776D01*
X430999Y-101504D01*
X430927Y-101862D01*
X432571D01*
Y-100219D01*
D02*
G37*
G36*
X456193D02*
X455834Y-100290D01*
X455107Y-100776D01*
X454621Y-101504D01*
X454549Y-101862D01*
X456193D01*
Y-100219D01*
D02*
G37*
G36*
X479815D02*
X479457Y-100290D01*
X478729Y-100776D01*
X478243Y-101504D01*
X478171Y-101862D01*
X479815D01*
Y-100219D01*
D02*
G37*
G36*
X457193D02*
Y-101862D01*
X458837D01*
X458765Y-101504D01*
X458279Y-100776D01*
X457551Y-100290D01*
X457193Y-100219D01*
D02*
G37*
G36*
X597925Y-79240D02*
X585206D01*
X585412Y-81329D01*
X586167Y-83818D01*
X587393Y-86112D01*
X589043Y-88122D01*
X591054Y-89773D01*
X593348Y-90999D01*
X595837Y-91754D01*
X597925Y-91960D01*
Y-79240D01*
D02*
G37*
G36*
X68338D02*
X55618D01*
Y-91960D01*
X57707Y-91754D01*
X60196Y-90999D01*
X62490Y-89773D01*
X64500Y-88122D01*
X66151Y-86112D01*
X67377Y-83818D01*
X68132Y-81329D01*
X68338Y-79240D01*
D02*
G37*
G36*
X3437Y-83177D02*
X1793D01*
X1865Y-83536D01*
X2351Y-84263D01*
X3079Y-84750D01*
X3437Y-84821D01*
Y-83177D01*
D02*
G37*
G36*
X23122D02*
X21478D01*
X21550Y-83536D01*
X22036Y-84263D01*
X22764Y-84750D01*
X23122Y-84821D01*
Y-83177D01*
D02*
G37*
G36*
X6081D02*
X4437D01*
Y-84821D01*
X4795Y-84750D01*
X5523Y-84263D01*
X6009Y-83536D01*
X6081Y-83177D01*
D02*
G37*
G36*
X54618Y-79240D02*
X41899D01*
X42105Y-81329D01*
X42860Y-83818D01*
X44086Y-86112D01*
X45736Y-88122D01*
X47747Y-89773D01*
X50040Y-90999D01*
X52530Y-91754D01*
X54618Y-91960D01*
Y-79240D01*
D02*
G37*
G36*
X574303Y-100219D02*
X573945Y-100290D01*
X573217Y-100776D01*
X572731Y-101504D01*
X572659Y-101862D01*
X574303D01*
Y-100219D01*
D02*
G37*
G36*
X551681D02*
Y-101862D01*
X553325D01*
X553253Y-101504D01*
X552767Y-100776D01*
X552039Y-100290D01*
X551681Y-100219D01*
D02*
G37*
G36*
X575303D02*
Y-101862D01*
X576947D01*
X576875Y-101504D01*
X576389Y-100776D01*
X575662Y-100290D01*
X575303Y-100219D01*
D02*
G37*
G36*
X598925D02*
Y-101862D01*
X600569D01*
X600497Y-101504D01*
X600011Y-100776D01*
X599284Y-100290D01*
X598925Y-100219D01*
D02*
G37*
G36*
X597925D02*
X597567Y-100290D01*
X596839Y-100776D01*
X596353Y-101504D01*
X596282Y-101862D01*
X597925D01*
Y-100219D01*
D02*
G37*
G36*
X469004Y-72659D02*
Y-74303D01*
X470648D01*
X470576Y-73945D01*
X470090Y-73217D01*
X469362Y-72731D01*
X469004Y-72659D01*
D02*
G37*
G36*
X174747Y-66118D02*
X170900D01*
Y-68488D01*
X174747D01*
Y-66118D01*
D02*
G37*
G36*
X169900D02*
X166053D01*
Y-68488D01*
X169900D01*
Y-66118D01*
D02*
G37*
G36*
X10322Y-64418D02*
X6843D01*
X7054Y-65479D01*
X7938Y-66802D01*
X9261Y-67686D01*
X10322Y-67897D01*
Y-64418D01*
D02*
G37*
G36*
X35922D02*
X32443D01*
X32654Y-65479D01*
X33538Y-66802D01*
X34861Y-67686D01*
X35922Y-67897D01*
Y-64418D01*
D02*
G37*
G36*
X14801D02*
X11322D01*
Y-67897D01*
X12383Y-67686D01*
X13706Y-66802D01*
X14590Y-65479D01*
X14801Y-64418D01*
D02*
G37*
G36*
X334800Y-67556D02*
X334442Y-67628D01*
X333714Y-68114D01*
X333228Y-68842D01*
X333156Y-69200D01*
X334800D01*
Y-67556D01*
D02*
G37*
G36*
X215400Y-67656D02*
Y-69300D01*
X217044D01*
X216972Y-68942D01*
X216486Y-68214D01*
X215758Y-67728D01*
X215400Y-67656D01*
D02*
G37*
G36*
X335800Y-67556D02*
Y-69200D01*
X337444D01*
X337372Y-68842D01*
X336886Y-68114D01*
X336158Y-67628D01*
X335800Y-67556D01*
D02*
G37*
G36*
X195057Y-67429D02*
X193413D01*
Y-69073D01*
X193772Y-69002D01*
X194500Y-68515D01*
X194986Y-67787D01*
X195057Y-67429D01*
D02*
G37*
G36*
X192413D02*
X190770D01*
X190841Y-67787D01*
X191327Y-68515D01*
X192055Y-69002D01*
X192413Y-69073D01*
Y-67429D01*
D02*
G37*
G36*
X260200Y-64918D02*
X256353D01*
Y-67288D01*
X260200D01*
Y-64918D01*
D02*
G37*
G36*
X10322Y-59939D02*
X9261Y-60150D01*
X7938Y-61034D01*
X7054Y-62357D01*
X6843Y-63418D01*
X10322D01*
Y-59939D01*
D02*
G37*
G36*
X321041Y-63492D02*
X319398D01*
Y-65136D01*
X319756Y-65065D01*
X320484Y-64578D01*
X320970Y-63850D01*
X321041Y-63492D01*
D02*
G37*
G36*
X11322Y-59939D02*
Y-63418D01*
X14801D01*
X14590Y-62357D01*
X13706Y-61034D01*
X12383Y-60150D01*
X11322Y-59939D01*
D02*
G37*
G36*
X36922D02*
Y-63418D01*
X40401D01*
X40190Y-62357D01*
X39306Y-61034D01*
X37983Y-60150D01*
X36922Y-59939D01*
D02*
G37*
G36*
X35922D02*
X34861Y-60150D01*
X33538Y-61034D01*
X32654Y-62357D01*
X32443Y-63418D01*
X35922D01*
Y-59939D01*
D02*
G37*
G36*
X555217Y-56571D02*
X553284Y-56955D01*
X551646Y-58050D01*
X550551Y-59688D01*
X550167Y-61620D01*
X550551Y-63553D01*
X551646Y-65191D01*
X553284Y-66286D01*
X555217Y-66670D01*
X557149Y-66286D01*
X558787Y-65191D01*
X559882Y-63553D01*
X560266Y-61620D01*
X559882Y-59688D01*
X558787Y-58050D01*
X557149Y-56955D01*
X555217Y-56571D01*
D02*
G37*
G36*
X265047Y-64918D02*
X261200D01*
Y-67288D01*
X265047D01*
Y-64918D01*
D02*
G37*
G36*
X192413Y-64785D02*
X192055Y-64857D01*
X191327Y-65343D01*
X190841Y-66071D01*
X190770Y-66429D01*
X192413D01*
Y-64785D01*
D02*
G37*
G36*
X318398Y-63492D02*
X316754D01*
X316825Y-63850D01*
X317312Y-64578D01*
X318039Y-65065D01*
X318398Y-65136D01*
Y-63492D01*
D02*
G37*
G36*
X193413Y-64785D02*
Y-66429D01*
X195057D01*
X194986Y-66071D01*
X194500Y-65343D01*
X193772Y-64857D01*
X193413Y-64785D01*
D02*
G37*
G36*
X214400Y-67656D02*
X214042Y-67728D01*
X213314Y-68214D01*
X212828Y-68942D01*
X212756Y-69300D01*
X214400D01*
Y-67656D01*
D02*
G37*
G36*
X281671Y-71366D02*
X280028D01*
Y-73010D01*
X280386Y-72939D01*
X281114Y-72452D01*
X281600Y-71724D01*
X281671Y-71366D01*
D02*
G37*
G36*
X279028D02*
X277384D01*
X277455Y-71724D01*
X277941Y-72452D01*
X278669Y-72939D01*
X279028Y-73010D01*
Y-71366D01*
D02*
G37*
G36*
X314461D02*
X312817D01*
X312888Y-71724D01*
X313374Y-72452D01*
X314102Y-72939D01*
X314461Y-73010D01*
Y-71366D01*
D02*
G37*
G36*
X214400Y-70300D02*
X212756D01*
X212828Y-70658D01*
X213314Y-71386D01*
X214042Y-71872D01*
X214400Y-71944D01*
Y-70300D01*
D02*
G37*
G36*
X317104Y-71366D02*
X315461D01*
Y-73010D01*
X315819Y-72939D01*
X316547Y-72452D01*
X317033Y-71724D01*
X317104Y-71366D01*
D02*
G37*
G36*
X488689Y-72659D02*
Y-74303D01*
X490333D01*
X490261Y-73945D01*
X489775Y-73217D01*
X489047Y-72731D01*
X488689Y-72659D01*
D02*
G37*
G36*
X487689D02*
X487331Y-72731D01*
X486603Y-73217D01*
X486117Y-73945D01*
X486045Y-74303D01*
X487689D01*
Y-72659D01*
D02*
G37*
G36*
X507374D02*
X507016Y-72731D01*
X506288Y-73217D01*
X505802Y-73945D01*
X505730Y-74303D01*
X507374D01*
Y-72659D01*
D02*
G37*
G36*
X10360Y-70338D02*
X7891D01*
Y-73200D01*
X10360D01*
Y-70338D01*
D02*
G37*
G36*
X508374Y-72659D02*
Y-74303D01*
X510018D01*
X509946Y-73945D01*
X509460Y-73217D01*
X508732Y-72731D01*
X508374Y-72659D01*
D02*
G37*
G36*
X217044Y-70300D02*
X215400D01*
Y-71944D01*
X215758Y-71872D01*
X216486Y-71386D01*
X216972Y-70658D01*
X217044Y-70300D01*
D02*
G37*
G36*
X279028Y-68722D02*
X278669Y-68794D01*
X277941Y-69280D01*
X277455Y-70008D01*
X277384Y-70366D01*
X279028D01*
Y-68722D01*
D02*
G37*
G36*
X265047Y-68288D02*
X261200D01*
Y-70658D01*
X265047D01*
Y-68288D01*
D02*
G37*
G36*
X280028Y-68722D02*
Y-70366D01*
X281671D01*
X281600Y-70008D01*
X281114Y-69280D01*
X280386Y-68794D01*
X280028Y-68722D01*
D02*
G37*
G36*
X315461D02*
Y-70366D01*
X317104D01*
X317033Y-70008D01*
X316547Y-69280D01*
X315819Y-68794D01*
X315461Y-68722D01*
D02*
G37*
G36*
X314461D02*
X314102Y-68794D01*
X313374Y-69280D01*
X312888Y-70008D01*
X312817Y-70366D01*
X314461D01*
Y-68722D01*
D02*
G37*
G36*
X174747Y-69488D02*
X170900D01*
Y-71858D01*
X174747D01*
Y-69488D01*
D02*
G37*
G36*
X169900D02*
X166053D01*
Y-71858D01*
X169900D01*
Y-69488D01*
D02*
G37*
G36*
X334800Y-70200D02*
X333156D01*
X333228Y-70558D01*
X333714Y-71286D01*
X334442Y-71772D01*
X334800Y-71844D01*
Y-70200D01*
D02*
G37*
G36*
X260200Y-68288D02*
X256353D01*
Y-70658D01*
X260200D01*
Y-68288D01*
D02*
G37*
G36*
X337444Y-70200D02*
X335800D01*
Y-71844D01*
X336158Y-71772D01*
X336886Y-71286D01*
X337372Y-70558D01*
X337444Y-70200D01*
D02*
G37*
G36*
X340726Y-102862D02*
X339083D01*
Y-104506D01*
X339441Y-104435D01*
X340169Y-103948D01*
X340655Y-103221D01*
X340726Y-102862D01*
D02*
G37*
G36*
X338083D02*
X336439D01*
X336510Y-103221D01*
X336997Y-103948D01*
X337724Y-104435D01*
X338083Y-104506D01*
Y-102862D01*
D02*
G37*
G36*
X361705D02*
X360061D01*
X360132Y-103221D01*
X360619Y-103948D01*
X361346Y-104435D01*
X361705Y-104506D01*
Y-102862D01*
D02*
G37*
G36*
X385327D02*
X383683D01*
X383754Y-103221D01*
X384241Y-103948D01*
X384968Y-104435D01*
X385327Y-104506D01*
Y-102862D01*
D02*
G37*
G36*
X364348D02*
X362705D01*
Y-104506D01*
X363063Y-104435D01*
X363791Y-103948D01*
X364277Y-103221D01*
X364348Y-102862D01*
D02*
G37*
G36*
X317104D02*
X315461D01*
Y-104506D01*
X315819Y-104435D01*
X316547Y-103948D01*
X317033Y-103221D01*
X317104Y-102862D01*
D02*
G37*
G36*
X269860D02*
X268216D01*
Y-104506D01*
X268575Y-104435D01*
X269303Y-103948D01*
X269789Y-103221D01*
X269860Y-102862D01*
D02*
G37*
G36*
X267216D02*
X265573D01*
X265644Y-103221D01*
X266130Y-103948D01*
X266858Y-104435D01*
X267216Y-104506D01*
Y-102862D01*
D02*
G37*
G36*
X290839D02*
X289195D01*
X289266Y-103221D01*
X289753Y-103948D01*
X290480Y-104435D01*
X290839Y-104506D01*
Y-102862D01*
D02*
G37*
G36*
X314461D02*
X312817D01*
X312888Y-103221D01*
X313374Y-103948D01*
X314102Y-104435D01*
X314461Y-104506D01*
Y-102862D01*
D02*
G37*
G36*
X293482D02*
X291839D01*
Y-104506D01*
X292197Y-104435D01*
X292925Y-103948D01*
X293411Y-103221D01*
X293482Y-102862D01*
D02*
G37*
G36*
X479815D02*
X478171D01*
X478243Y-103221D01*
X478729Y-103948D01*
X479457Y-104435D01*
X479815Y-104506D01*
Y-102862D01*
D02*
G37*
G36*
X458837D02*
X457193D01*
Y-104506D01*
X457551Y-104435D01*
X458279Y-103948D01*
X458765Y-103221D01*
X458837Y-102862D01*
D02*
G37*
G36*
X482459D02*
X480815D01*
Y-104506D01*
X481173Y-104435D01*
X481901Y-103948D01*
X482387Y-103221D01*
X482459Y-102862D01*
D02*
G37*
G36*
X506081D02*
X504437D01*
Y-104506D01*
X504795Y-104435D01*
X505523Y-103948D01*
X506009Y-103221D01*
X506081Y-102862D01*
D02*
G37*
G36*
X503437D02*
X501793D01*
X501865Y-103221D01*
X502351Y-103948D01*
X503079Y-104435D01*
X503437Y-104506D01*
Y-102862D01*
D02*
G37*
G36*
X456193D02*
X454549D01*
X454621Y-103221D01*
X455107Y-103948D01*
X455834Y-104435D01*
X456193Y-104506D01*
Y-102862D01*
D02*
G37*
G36*
X408949D02*
X407305D01*
X407376Y-103221D01*
X407863Y-103948D01*
X408590Y-104435D01*
X408949Y-104506D01*
Y-102862D01*
D02*
G37*
G36*
X387970D02*
X386327D01*
Y-104506D01*
X386685Y-104435D01*
X387413Y-103948D01*
X387899Y-103221D01*
X387970Y-102862D01*
D02*
G37*
G36*
X411592D02*
X409949D01*
Y-104506D01*
X410307Y-104435D01*
X411035Y-103948D01*
X411521Y-103221D01*
X411592Y-102862D01*
D02*
G37*
G36*
X435215D02*
X433571D01*
Y-104506D01*
X433929Y-104435D01*
X434657Y-103948D01*
X435143Y-103221D01*
X435215Y-102862D01*
D02*
G37*
G36*
X432571D02*
X430927D01*
X430999Y-103221D01*
X431485Y-103948D01*
X432212Y-104435D01*
X432571Y-104506D01*
Y-102862D01*
D02*
G37*
G36*
X80884D02*
X79240D01*
Y-104506D01*
X79599Y-104435D01*
X80326Y-103948D01*
X80813Y-103221D01*
X80884Y-102862D01*
D02*
G37*
G36*
X78240D02*
X76596D01*
X76668Y-103221D01*
X77154Y-103948D01*
X77882Y-104435D01*
X78240Y-104506D01*
Y-102862D01*
D02*
G37*
G36*
X101862D02*
X100219D01*
X100290Y-103221D01*
X100776Y-103948D01*
X101504Y-104435D01*
X101862Y-104506D01*
Y-102862D01*
D02*
G37*
G36*
X125484D02*
X123841D01*
X123912Y-103221D01*
X124398Y-103948D01*
X125126Y-104435D01*
X125484Y-104506D01*
Y-102862D01*
D02*
G37*
G36*
X104506D02*
X102862D01*
Y-104506D01*
X103221Y-104435D01*
X103948Y-103948D01*
X104435Y-103221D01*
X104506Y-102862D01*
D02*
G37*
G36*
X57262D02*
X55618D01*
Y-104506D01*
X55976Y-104435D01*
X56704Y-103948D01*
X57191Y-103221D01*
X57262Y-102862D01*
D02*
G37*
G36*
X10018D02*
X8374D01*
Y-104506D01*
X8732Y-104435D01*
X9460Y-103948D01*
X9946Y-103221D01*
X10018Y-102862D01*
D02*
G37*
G36*
X7374D02*
X5730D01*
X5802Y-103221D01*
X6288Y-103948D01*
X7016Y-104435D01*
X7374Y-104506D01*
Y-102862D01*
D02*
G37*
G36*
X30996D02*
X29352D01*
X29424Y-103221D01*
X29910Y-103948D01*
X30638Y-104435D01*
X30996Y-104506D01*
Y-102862D01*
D02*
G37*
G36*
X54618D02*
X52974D01*
X53046Y-103221D01*
X53532Y-103948D01*
X54260Y-104435D01*
X54618Y-104506D01*
Y-102862D01*
D02*
G37*
G36*
X33640D02*
X31996D01*
Y-104506D01*
X32355Y-104435D01*
X33082Y-103948D01*
X33568Y-103221D01*
X33640Y-102862D01*
D02*
G37*
G36*
X219972D02*
X218329D01*
X218400Y-103221D01*
X218886Y-103948D01*
X219614Y-104435D01*
X219972Y-104506D01*
Y-102862D01*
D02*
G37*
G36*
X198994D02*
X197350D01*
Y-104506D01*
X197709Y-104435D01*
X198436Y-103948D01*
X198923Y-103221D01*
X198994Y-102862D01*
D02*
G37*
G36*
X222616D02*
X220972D01*
Y-104506D01*
X221331Y-104435D01*
X222059Y-103948D01*
X222545Y-103221D01*
X222616Y-102862D01*
D02*
G37*
G36*
X246238D02*
X244595D01*
Y-104506D01*
X244953Y-104435D01*
X245681Y-103948D01*
X246167Y-103221D01*
X246238Y-102862D01*
D02*
G37*
G36*
X243595D02*
X241951D01*
X242022Y-103221D01*
X242508Y-103948D01*
X243236Y-104435D01*
X243595Y-104506D01*
Y-102862D01*
D02*
G37*
G36*
X196350D02*
X194707D01*
X194778Y-103221D01*
X195264Y-103948D01*
X195992Y-104435D01*
X196350Y-104506D01*
Y-102862D01*
D02*
G37*
G36*
X149106D02*
X147463D01*
X147534Y-103221D01*
X148020Y-103948D01*
X148748Y-104435D01*
X149106Y-104506D01*
Y-102862D01*
D02*
G37*
G36*
X128128D02*
X126484D01*
Y-104506D01*
X126843Y-104435D01*
X127570Y-103948D01*
X128057Y-103221D01*
X128128Y-102862D01*
D02*
G37*
G36*
X151750D02*
X150106D01*
Y-104506D01*
X150465Y-104435D01*
X151192Y-103948D01*
X151679Y-103221D01*
X151750Y-102862D01*
D02*
G37*
G36*
X175372D02*
X173728D01*
Y-104506D01*
X174087Y-104435D01*
X174814Y-103948D01*
X175301Y-103221D01*
X175372Y-102862D01*
D02*
G37*
G36*
X172728D02*
X171085D01*
X171156Y-103221D01*
X171642Y-103948D01*
X172370Y-104435D01*
X172728Y-104506D01*
Y-102862D01*
D02*
G37*
G36*
X244595Y-100219D02*
Y-101862D01*
X246238D01*
X246167Y-101504D01*
X245681Y-100776D01*
X244953Y-100290D01*
X244595Y-100219D01*
D02*
G37*
G36*
X243595D02*
X243236Y-100290D01*
X242508Y-100776D01*
X242022Y-101504D01*
X241951Y-101862D01*
X243595D01*
Y-100219D01*
D02*
G37*
G36*
X267216D02*
X266858Y-100290D01*
X266130Y-100776D01*
X265644Y-101504D01*
X265573Y-101862D01*
X267216D01*
Y-100219D01*
D02*
G37*
G36*
X290839D02*
X290480Y-100290D01*
X289753Y-100776D01*
X289266Y-101504D01*
X289195Y-101862D01*
X290839D01*
Y-100219D01*
D02*
G37*
G36*
X268216D02*
Y-101862D01*
X269860D01*
X269789Y-101504D01*
X269303Y-100776D01*
X268575Y-100290D01*
X268216Y-100219D01*
D02*
G37*
G36*
X220972D02*
Y-101862D01*
X222616D01*
X222545Y-101504D01*
X222059Y-100776D01*
X221331Y-100290D01*
X220972Y-100219D01*
D02*
G37*
G36*
X173728D02*
Y-101862D01*
X175372D01*
X175301Y-101504D01*
X174814Y-100776D01*
X174087Y-100290D01*
X173728Y-100219D01*
D02*
G37*
G36*
X172728D02*
X172370Y-100290D01*
X171642Y-100776D01*
X171156Y-101504D01*
X171085Y-101862D01*
X172728D01*
Y-100219D01*
D02*
G37*
G36*
X196350D02*
X195992Y-100290D01*
X195264Y-100776D01*
X194778Y-101504D01*
X194707Y-101862D01*
X196350D01*
Y-100219D01*
D02*
G37*
G36*
X219972D02*
X219614Y-100290D01*
X218886Y-100776D01*
X218400Y-101504D01*
X218329Y-101862D01*
X219972D01*
Y-100219D01*
D02*
G37*
G36*
X197350D02*
Y-101862D01*
X198994D01*
X198923Y-101504D01*
X198436Y-100776D01*
X197709Y-100290D01*
X197350Y-100219D01*
D02*
G37*
G36*
X385327D02*
X384968Y-100290D01*
X384241Y-100776D01*
X383754Y-101504D01*
X383683Y-101862D01*
X385327D01*
Y-100219D01*
D02*
G37*
G36*
X362705D02*
Y-101862D01*
X364348D01*
X364277Y-101504D01*
X363791Y-100776D01*
X363063Y-100290D01*
X362705Y-100219D01*
D02*
G37*
G36*
X386327D02*
Y-101862D01*
X387970D01*
X387899Y-101504D01*
X387413Y-100776D01*
X386685Y-100290D01*
X386327Y-100219D01*
D02*
G37*
G36*
X409949D02*
Y-101862D01*
X411592D01*
X411521Y-101504D01*
X411035Y-100776D01*
X410307Y-100290D01*
X409949Y-100219D01*
D02*
G37*
G36*
X408949D02*
X408590Y-100290D01*
X407863Y-100776D01*
X407376Y-101504D01*
X407305Y-101862D01*
X408949D01*
Y-100219D01*
D02*
G37*
G36*
X361705D02*
X361346Y-100290D01*
X360619Y-100776D01*
X360132Y-101504D01*
X360061Y-101862D01*
X361705D01*
Y-100219D01*
D02*
G37*
G36*
X314461D02*
X314102Y-100290D01*
X313374Y-100776D01*
X312888Y-101504D01*
X312817Y-101862D01*
X314461D01*
Y-100219D01*
D02*
G37*
G36*
X291839D02*
Y-101862D01*
X293482D01*
X293411Y-101504D01*
X292925Y-100776D01*
X292197Y-100290D01*
X291839Y-100219D01*
D02*
G37*
G36*
X315461D02*
Y-101862D01*
X317104D01*
X317033Y-101504D01*
X316547Y-100776D01*
X315819Y-100290D01*
X315461Y-100219D01*
D02*
G37*
G36*
X339083D02*
Y-101862D01*
X340726D01*
X340655Y-101504D01*
X340169Y-100776D01*
X339441Y-100290D01*
X339083Y-100219D01*
D02*
G37*
G36*
X338083D02*
X337724Y-100290D01*
X336997Y-100776D01*
X336510Y-101504D01*
X336439Y-101862D01*
X338083D01*
Y-100219D01*
D02*
G37*
G36*
X600569Y-102862D02*
X598925D01*
Y-104506D01*
X599284Y-104435D01*
X600011Y-103948D01*
X600497Y-103221D01*
X600569Y-102862D01*
D02*
G37*
G36*
X597925D02*
X596282D01*
X596353Y-103221D01*
X596839Y-103948D01*
X597567Y-104435D01*
X597925Y-104506D01*
Y-102862D01*
D02*
G37*
G36*
X7374Y-100219D02*
X7016Y-100290D01*
X6288Y-100776D01*
X5802Y-101504D01*
X5730Y-101862D01*
X7374D01*
Y-100219D01*
D02*
G37*
G36*
X30996D02*
X30638Y-100290D01*
X29910Y-100776D01*
X29424Y-101504D01*
X29352Y-101862D01*
X30996D01*
Y-100219D01*
D02*
G37*
G36*
X8374D02*
Y-101862D01*
X10018D01*
X9946Y-101504D01*
X9460Y-100776D01*
X8732Y-100290D01*
X8374Y-100219D01*
D02*
G37*
G36*
X576947Y-102862D02*
X575303D01*
Y-104506D01*
X575662Y-104435D01*
X576389Y-103948D01*
X576875Y-103221D01*
X576947Y-102862D01*
D02*
G37*
G36*
X529703D02*
X528059D01*
Y-104506D01*
X528417Y-104435D01*
X529145Y-103948D01*
X529631Y-103221D01*
X529703Y-102862D01*
D02*
G37*
G36*
X527059D02*
X525415D01*
X525487Y-103221D01*
X525973Y-103948D01*
X526701Y-104435D01*
X527059Y-104506D01*
Y-102862D01*
D02*
G37*
G36*
X550681D02*
X549038D01*
X549109Y-103221D01*
X549595Y-103948D01*
X550323Y-104435D01*
X550681Y-104506D01*
Y-102862D01*
D02*
G37*
G36*
X574303D02*
X572659D01*
X572731Y-103221D01*
X573217Y-103948D01*
X573945Y-104435D01*
X574303Y-104506D01*
Y-102862D01*
D02*
G37*
G36*
X553325D02*
X551681D01*
Y-104506D01*
X552039Y-104435D01*
X552767Y-103948D01*
X553253Y-103221D01*
X553325Y-102862D01*
D02*
G37*
G36*
X125484Y-100219D02*
X125126Y-100290D01*
X124398Y-100776D01*
X123912Y-101504D01*
X123841Y-101862D01*
X125484D01*
Y-100219D01*
D02*
G37*
G36*
X102862D02*
Y-101862D01*
X104506D01*
X104435Y-101504D01*
X103948Y-100776D01*
X103221Y-100290D01*
X102862Y-100219D01*
D02*
G37*
G36*
X126484D02*
Y-101862D01*
X128128D01*
X128057Y-101504D01*
X127570Y-100776D01*
X126843Y-100290D01*
X126484Y-100219D01*
D02*
G37*
G36*
X150106D02*
Y-101862D01*
X151750D01*
X151679Y-101504D01*
X151192Y-100776D01*
X150465Y-100290D01*
X150106Y-100219D01*
D02*
G37*
G36*
X149106D02*
X148748Y-100290D01*
X148020Y-100776D01*
X147534Y-101504D01*
X147463Y-101862D01*
X149106D01*
Y-100219D01*
D02*
G37*
G36*
X101862D02*
X101504Y-100290D01*
X100776Y-100776D01*
X100290Y-101504D01*
X100219Y-101862D01*
X101862D01*
Y-100219D01*
D02*
G37*
G36*
X54618D02*
X54260Y-100290D01*
X53532Y-100776D01*
X53046Y-101504D01*
X52974Y-101862D01*
X54618D01*
Y-100219D01*
D02*
G37*
G36*
X31996D02*
Y-101862D01*
X33640D01*
X33568Y-101504D01*
X33082Y-100776D01*
X32355Y-100290D01*
X31996Y-100219D01*
D02*
G37*
G36*
X55618D02*
Y-101862D01*
X57262D01*
X57191Y-101504D01*
X56704Y-100776D01*
X55976Y-100290D01*
X55618Y-100219D01*
D02*
G37*
G36*
X79240D02*
Y-101862D01*
X80884D01*
X80813Y-101504D01*
X80326Y-100776D01*
X79599Y-100290D01*
X79240Y-100219D01*
D02*
G37*
G36*
X78240D02*
X77882Y-100290D01*
X77154Y-100776D01*
X76668Y-101504D01*
X76596Y-101862D01*
X78240D01*
Y-100219D01*
D02*
G37*
G36*
X318398Y-60848D02*
X318039Y-60920D01*
X317312Y-61406D01*
X316825Y-62134D01*
X316754Y-62492D01*
X318398D01*
Y-60848D01*
D02*
G37*
G36*
X127200Y-24700D02*
X125556D01*
X125628Y-25058D01*
X126114Y-25786D01*
X126842Y-26272D01*
X127200Y-26344D01*
Y-24700D01*
D02*
G37*
G36*
X598925Y-25415D02*
Y-27059D01*
X600569D01*
X600497Y-26701D01*
X600011Y-25973D01*
X599284Y-25487D01*
X598925Y-25415D01*
D02*
G37*
G36*
X129844Y-24700D02*
X128200D01*
Y-26344D01*
X128558Y-26272D01*
X129286Y-25786D01*
X129772Y-25058D01*
X129844Y-24700D01*
D02*
G37*
G36*
X590051Y-12311D02*
X577332D01*
X577537Y-14400D01*
X578293Y-16889D01*
X579519Y-19183D01*
X581169Y-21193D01*
X583180Y-22843D01*
X585473Y-24070D01*
X587963Y-24825D01*
X590051Y-25030D01*
Y-12311D01*
D02*
G37*
G36*
X25030D02*
X12311D01*
Y-25030D01*
X14400Y-24825D01*
X16889Y-24070D01*
X19183Y-22843D01*
X21193Y-21193D01*
X22843Y-19183D01*
X24070Y-16889D01*
X24825Y-14400D01*
X25030Y-12311D01*
D02*
G37*
G36*
X600569Y-28059D02*
X598925D01*
Y-29703D01*
X599284Y-29631D01*
X600011Y-29145D01*
X600497Y-28418D01*
X600569Y-28059D01*
D02*
G37*
G36*
X597925D02*
X596282D01*
X596353Y-28418D01*
X596839Y-29145D01*
X597567Y-29631D01*
X597925Y-29703D01*
Y-28059D01*
D02*
G37*
G36*
X128500Y-27956D02*
X128142Y-28028D01*
X127414Y-28514D01*
X126928Y-29242D01*
X126856Y-29600D01*
X128500D01*
Y-27956D01*
D02*
G37*
G36*
X597925Y-25415D02*
X597567Y-25487D01*
X596839Y-25973D01*
X596353Y-26701D01*
X596282Y-27059D01*
X597925D01*
Y-25415D01*
D02*
G37*
G36*
X42676Y-25559D02*
X33309D01*
X33378Y-25910D01*
X33861Y-26632D01*
X34434Y-27014D01*
X34515Y-27559D01*
X34434Y-28104D01*
X33861Y-28487D01*
X33378Y-29208D01*
X33309Y-29559D01*
X42676D01*
X42606Y-29208D01*
X42124Y-28487D01*
X41551Y-28104D01*
X41469Y-27559D01*
X41551Y-27014D01*
X42124Y-26632D01*
X42606Y-25910D01*
X42676Y-25559D01*
D02*
G37*
G36*
X603770Y-12311D02*
X591051D01*
Y-25030D01*
X593140Y-24825D01*
X595629Y-24070D01*
X597923Y-22843D01*
X599933Y-21193D01*
X601584Y-19183D01*
X602810Y-16889D01*
X603565Y-14400D01*
X603770Y-12311D01*
D02*
G37*
G36*
X37492Y-17835D02*
X35433D01*
X34582Y-18004D01*
X33861Y-18487D01*
X33378Y-19208D01*
X33309Y-19559D01*
X37492D01*
Y-17835D01*
D02*
G37*
G36*
X451700Y-18737D02*
X450451Y-18986D01*
X449602Y-19553D01*
X412300D01*
X411939Y-19625D01*
X411500Y-19537D01*
X410251Y-19786D01*
X409193Y-20493D01*
X408486Y-21551D01*
X408237Y-22800D01*
X408486Y-24049D01*
X409193Y-25107D01*
X410251Y-25814D01*
X411500Y-26063D01*
X412749Y-25814D01*
X413807Y-25107D01*
X414248Y-24447D01*
X449602D01*
X450451Y-25014D01*
X451700Y-25263D01*
X452949Y-25014D01*
X454007Y-24307D01*
X454714Y-23249D01*
X454963Y-22000D01*
X454714Y-20751D01*
X454007Y-19693D01*
X452949Y-18986D01*
X451700Y-18737D01*
D02*
G37*
G36*
X40551Y-17835D02*
X38492D01*
Y-19559D01*
X42676D01*
X42606Y-19208D01*
X42124Y-18487D01*
X41402Y-18004D01*
X40551Y-17835D01*
D02*
G37*
G36*
X488600Y-13900D02*
X486956D01*
X487028Y-14258D01*
X487514Y-14986D01*
X488242Y-15472D01*
X488600Y-15544D01*
Y-13900D01*
D02*
G37*
G36*
X416700Y-7637D02*
X415451Y-7886D01*
X414393Y-8593D01*
X413686Y-9651D01*
X413437Y-10900D01*
X413686Y-12149D01*
X414393Y-13207D01*
X415451Y-13914D01*
X416453Y-14114D01*
X417062Y-14722D01*
X417856Y-15253D01*
X418792Y-15439D01*
X448690D01*
X449539Y-16006D01*
X450787Y-16255D01*
X452036Y-16006D01*
X453094Y-15299D01*
X453802Y-14241D01*
X454050Y-12992D01*
X453802Y-11744D01*
X453094Y-10685D01*
X452036Y-9978D01*
X450787Y-9729D01*
X449539Y-9978D01*
X448690Y-10545D01*
X419892D01*
X419714Y-9651D01*
X419007Y-8593D01*
X417949Y-7886D01*
X416700Y-7637D01*
D02*
G37*
G36*
X127200Y-22056D02*
X126842Y-22128D01*
X126114Y-22614D01*
X125628Y-23342D01*
X125556Y-23700D01*
X127200D01*
Y-22056D01*
D02*
G37*
G36*
X42676Y-20559D02*
X33309D01*
X33378Y-20910D01*
X33861Y-21632D01*
X34434Y-22014D01*
X34515Y-22559D01*
X34434Y-23104D01*
X33861Y-23487D01*
X33378Y-24208D01*
X33309Y-24559D01*
X42676D01*
X42606Y-24208D01*
X42124Y-23487D01*
X41551Y-23104D01*
X41469Y-22559D01*
X41551Y-22014D01*
X42124Y-21632D01*
X42606Y-20910D01*
X42676Y-20559D01*
D02*
G37*
G36*
X128200Y-22056D02*
Y-23700D01*
X129844D01*
X129772Y-23342D01*
X129286Y-22614D01*
X128558Y-22128D01*
X128200Y-22056D01*
D02*
G37*
G36*
X377409Y-12311D02*
X366642D01*
Y-23078D01*
X369075Y-22758D01*
X371808Y-21626D01*
X374155Y-19825D01*
X375957Y-17478D01*
X377089Y-14744D01*
X377409Y-12311D01*
D02*
G37*
G36*
X365642D02*
X354874D01*
X355195Y-14744D01*
X356327Y-17478D01*
X358128Y-19825D01*
X360475Y-21626D01*
X363209Y-22758D01*
X365642Y-23078D01*
Y-12311D01*
D02*
G37*
G36*
X20185Y-29352D02*
Y-30996D01*
X21829D01*
X21757Y-30638D01*
X21271Y-29910D01*
X20543Y-29424D01*
X20185Y-29352D01*
D02*
G37*
G36*
X483752Y-33289D02*
X483394Y-33361D01*
X482666Y-33847D01*
X482180Y-34575D01*
X482108Y-34933D01*
X483752D01*
Y-33289D01*
D02*
G37*
G36*
X327272D02*
Y-34933D01*
X328915D01*
X328844Y-34575D01*
X328358Y-33847D01*
X327630Y-33361D01*
X327272Y-33289D01*
D02*
G37*
G36*
X484752D02*
Y-34933D01*
X486396D01*
X486324Y-34575D01*
X485838Y-33847D01*
X485110Y-33361D01*
X484752Y-33289D01*
D02*
G37*
G36*
X496563D02*
Y-34933D01*
X498207D01*
X498135Y-34575D01*
X497649Y-33847D01*
X496921Y-33361D01*
X496563Y-33289D01*
D02*
G37*
G36*
X495563D02*
X495205Y-33361D01*
X494477Y-33847D01*
X493991Y-34575D01*
X493919Y-34933D01*
X495563D01*
Y-33289D01*
D02*
G37*
G36*
X42676Y-35559D02*
X38492D01*
Y-37283D01*
X40551D01*
X41402Y-37114D01*
X42124Y-36632D01*
X42606Y-35910D01*
X42676Y-35559D01*
D02*
G37*
G36*
X37492D02*
X33309D01*
X33378Y-35910D01*
X33861Y-36632D01*
X34582Y-37114D01*
X35433Y-37283D01*
X37492D01*
Y-35559D01*
D02*
G37*
G36*
X555118Y-27846D02*
X553493Y-28169D01*
X552115Y-29090D01*
X551194Y-30468D01*
X550871Y-32093D01*
X551194Y-33718D01*
X552115Y-35096D01*
X553493Y-36017D01*
X555118Y-36340D01*
X556743Y-36017D01*
X558121Y-35096D01*
X559042Y-33718D01*
X559365Y-32093D01*
X559042Y-30468D01*
X558121Y-29090D01*
X556743Y-28169D01*
X555118Y-27846D01*
D02*
G37*
G36*
X326272Y-33289D02*
X325913Y-33361D01*
X325185Y-33847D01*
X324699Y-34575D01*
X324628Y-34933D01*
X326272D01*
Y-33289D01*
D02*
G37*
G36*
X122100Y-34056D02*
X121742Y-34128D01*
X121014Y-34614D01*
X120528Y-35342D01*
X120456Y-35700D01*
X122100D01*
Y-34056D01*
D02*
G37*
G36*
X42676Y-30559D02*
X33309D01*
X33378Y-30910D01*
X33861Y-31631D01*
X34434Y-32014D01*
X34515Y-32559D01*
X34434Y-33104D01*
X33861Y-33487D01*
X33378Y-34208D01*
X33309Y-34559D01*
X42676D01*
X42606Y-34208D01*
X42124Y-33487D01*
X41551Y-33104D01*
X41469Y-32559D01*
X41551Y-32014D01*
X42124Y-31631D01*
X42606Y-30910D01*
X42676Y-30559D01*
D02*
G37*
G36*
X86789Y-30028D02*
X85146D01*
Y-31671D01*
X85504Y-31600D01*
X86232Y-31114D01*
X86718Y-30386D01*
X86789Y-30028D01*
D02*
G37*
G36*
X84146D02*
X82502D01*
X82573Y-30386D01*
X83060Y-31114D01*
X83787Y-31600D01*
X84146Y-31671D01*
Y-30028D01*
D02*
G37*
G36*
X7374Y-29352D02*
X7016Y-29424D01*
X6288Y-29910D01*
X5802Y-30638D01*
X5730Y-30996D01*
X7374D01*
Y-29352D01*
D02*
G37*
G36*
X19185D02*
X18827Y-29424D01*
X18099Y-29910D01*
X17613Y-30638D01*
X17541Y-30996D01*
X19185D01*
Y-29352D01*
D02*
G37*
G36*
X8374D02*
Y-30996D01*
X10018D01*
X9946Y-30638D01*
X9460Y-29910D01*
X8732Y-29424D01*
X8374Y-29352D01*
D02*
G37*
G36*
X10018Y-31996D02*
X8374D01*
Y-33640D01*
X8732Y-33568D01*
X9460Y-33082D01*
X9946Y-32355D01*
X10018Y-31996D01*
D02*
G37*
G36*
X7374D02*
X5730D01*
X5802Y-32355D01*
X6288Y-33082D01*
X7016Y-33568D01*
X7374Y-33640D01*
Y-31996D01*
D02*
G37*
G36*
X19185D02*
X17541D01*
X17613Y-32355D01*
X18099Y-33082D01*
X18827Y-33568D01*
X19185Y-33640D01*
Y-31996D01*
D02*
G37*
G36*
X128500Y-30600D02*
X126856D01*
X126928Y-30958D01*
X127414Y-31686D01*
X128142Y-32172D01*
X128500Y-32244D01*
Y-30600D01*
D02*
G37*
G36*
X21829Y-31996D02*
X20185D01*
Y-33640D01*
X20543Y-33568D01*
X21271Y-33082D01*
X21757Y-32355D01*
X21829Y-31996D01*
D02*
G37*
G36*
X538870Y-4437D02*
X537226D01*
X537298Y-4795D01*
X537784Y-5523D01*
X538512Y-6009D01*
X538870Y-6081D01*
Y-4437D01*
D02*
G37*
G36*
X37577D02*
X35933D01*
Y-6081D01*
X36292Y-6009D01*
X37019Y-5523D01*
X37505Y-4795D01*
X37577Y-4437D01*
D02*
G37*
G36*
X541514D02*
X539870D01*
Y-6081D01*
X540229Y-6009D01*
X540956Y-5523D01*
X541442Y-4795D01*
X541514Y-4437D01*
D02*
G37*
G36*
X573010D02*
X571366D01*
Y-6081D01*
X571725Y-6009D01*
X572452Y-5523D01*
X572938Y-4795D01*
X573010Y-4437D01*
D02*
G37*
G36*
X570366D02*
X568722D01*
X568794Y-4795D01*
X569280Y-5523D01*
X570008Y-6009D01*
X570366Y-6081D01*
Y-4437D01*
D02*
G37*
G36*
X311524Y-5730D02*
Y-7374D01*
X313167D01*
X313096Y-7016D01*
X312610Y-6288D01*
X311882Y-5802D01*
X311524Y-5730D01*
D02*
G37*
G36*
X310524D02*
X310165Y-5802D01*
X309437Y-6288D01*
X308951Y-7016D01*
X308880Y-7374D01*
X310524D01*
Y-5730D01*
D02*
G37*
G36*
X334146D02*
X333787Y-5802D01*
X333060Y-6288D01*
X332573Y-7016D01*
X332502Y-7374D01*
X334146D01*
Y-5730D01*
D02*
G37*
G36*
X34933Y-4437D02*
X33289D01*
X33361Y-4795D01*
X33847Y-5523D01*
X34575Y-6009D01*
X34933Y-6081D01*
Y-4437D01*
D02*
G37*
G36*
X335146Y-5730D02*
Y-7374D01*
X336789D01*
X336718Y-7016D01*
X336232Y-6288D01*
X335504Y-5802D01*
X335146Y-5730D01*
D02*
G37*
G36*
X87520Y-2638D02*
X85051D01*
Y-5500D01*
X87520D01*
Y-2638D01*
D02*
G37*
G36*
X538870Y-1793D02*
X538512Y-1865D01*
X537784Y-2351D01*
X537298Y-3079D01*
X537226Y-3437D01*
X538870D01*
Y-1793D01*
D02*
G37*
G36*
X35933D02*
Y-3437D01*
X37577D01*
X37505Y-3079D01*
X37019Y-2351D01*
X36292Y-1865D01*
X35933Y-1793D01*
D02*
G37*
G36*
X539870D02*
Y-3437D01*
X541514D01*
X541442Y-3079D01*
X540956Y-2351D01*
X540229Y-1865D01*
X539870Y-1793D01*
D02*
G37*
G36*
X571366D02*
Y-3437D01*
X573010D01*
X572938Y-3079D01*
X572452Y-2351D01*
X571725Y-1865D01*
X571366Y-1793D01*
D02*
G37*
G36*
X570366D02*
X570008Y-1865D01*
X569280Y-2351D01*
X568794Y-3079D01*
X568722Y-3437D01*
X570366D01*
Y-1793D01*
D02*
G37*
G36*
X441200Y-3556D02*
Y-5200D01*
X442844D01*
X442772Y-4842D01*
X442286Y-4114D01*
X441558Y-3628D01*
X441200Y-3556D01*
D02*
G37*
G36*
X440200D02*
X439842Y-3628D01*
X439114Y-4114D01*
X438628Y-4842D01*
X438556Y-5200D01*
X440200D01*
Y-3556D01*
D02*
G37*
G36*
X68500Y-3200D02*
X66856D01*
X66928Y-3558D01*
X67414Y-4286D01*
X68142Y-4772D01*
X68500Y-4844D01*
Y-3200D01*
D02*
G37*
G36*
X34933Y-1793D02*
X34575Y-1865D01*
X33847Y-2351D01*
X33361Y-3079D01*
X33289Y-3437D01*
X34933D01*
Y-1793D01*
D02*
G37*
G36*
X71144Y-3200D02*
X69500D01*
Y-4844D01*
X69858Y-4772D01*
X70586Y-4286D01*
X71072Y-3558D01*
X71144Y-3200D01*
D02*
G37*
G36*
X442844Y-6200D02*
X441200D01*
Y-7844D01*
X441558Y-7772D01*
X442286Y-7286D01*
X442772Y-6558D01*
X442844Y-6200D01*
D02*
G37*
G36*
X488600Y-11256D02*
X488242Y-11328D01*
X487514Y-11814D01*
X487028Y-12542D01*
X486956Y-12900D01*
X488600D01*
Y-11256D01*
D02*
G37*
G36*
X87460Y-11038D02*
X84991D01*
Y-13900D01*
X87460D01*
Y-11038D01*
D02*
G37*
G36*
X489600Y-11256D02*
Y-12900D01*
X491244D01*
X491172Y-12542D01*
X490686Y-11814D01*
X489958Y-11328D01*
X489600Y-11256D01*
D02*
G37*
G36*
X471500Y-9756D02*
Y-11400D01*
X473144D01*
X473072Y-11042D01*
X472586Y-10314D01*
X471858Y-9828D01*
X471500Y-9756D01*
D02*
G37*
G36*
X470500D02*
X470142Y-9828D01*
X469414Y-10314D01*
X468928Y-11042D01*
X468856Y-11400D01*
X470500D01*
Y-9756D01*
D02*
G37*
G36*
Y-12400D02*
X468856D01*
X468928Y-12758D01*
X469414Y-13486D01*
X470142Y-13972D01*
X470500Y-14044D01*
Y-12400D01*
D02*
G37*
G36*
X491244Y-13900D02*
X489600D01*
Y-15544D01*
X489958Y-15472D01*
X490686Y-14986D01*
X491172Y-14258D01*
X491244Y-13900D01*
D02*
G37*
G36*
X473144Y-12400D02*
X471500D01*
Y-14044D01*
X471858Y-13972D01*
X472586Y-13486D01*
X473072Y-12758D01*
X473144Y-12400D01*
D02*
G37*
G36*
X533640Y-12311D02*
X531996D01*
Y-13955D01*
X532354Y-13883D01*
X533082Y-13397D01*
X533568Y-12669D01*
X533640Y-12311D01*
D02*
G37*
G36*
X530996D02*
X529352D01*
X529424Y-12669D01*
X529910Y-13397D01*
X530638Y-13883D01*
X530996Y-13955D01*
Y-12311D01*
D02*
G37*
G36*
Y-9667D02*
X530638Y-9739D01*
X529910Y-10225D01*
X529424Y-10953D01*
X529352Y-11311D01*
X530996D01*
Y-9667D01*
D02*
G37*
G36*
X87520Y-6500D02*
X85051D01*
Y-9362D01*
X87520D01*
Y-6500D01*
D02*
G37*
G36*
X336789Y-8374D02*
X335146D01*
Y-10018D01*
X335504Y-9946D01*
X336232Y-9460D01*
X336718Y-8732D01*
X336789Y-8374D01*
D02*
G37*
G36*
X70900Y-6691D02*
X68038D01*
Y-9160D01*
X70900D01*
Y-6691D01*
D02*
G37*
G36*
X440200Y-6200D02*
X438556D01*
X438628Y-6558D01*
X439114Y-7286D01*
X439842Y-7772D01*
X440200Y-7844D01*
Y-6200D01*
D02*
G37*
G36*
X74762Y-6691D02*
X71900D01*
Y-9160D01*
X74762D01*
Y-6691D01*
D02*
G37*
G36*
X480700Y-8956D02*
Y-10600D01*
X482344D01*
X482272Y-10242D01*
X481786Y-9514D01*
X481058Y-9028D01*
X480700Y-8956D01*
D02*
G37*
G36*
X531996Y-9667D02*
Y-11311D01*
X533640D01*
X533568Y-10953D01*
X533082Y-10225D01*
X532354Y-9739D01*
X531996Y-9667D01*
D02*
G37*
G36*
X310524Y-8374D02*
X308880D01*
X308951Y-8732D01*
X309437Y-9460D01*
X310165Y-9946D01*
X310524Y-10018D01*
Y-8374D01*
D02*
G37*
G36*
X334146D02*
X332502D01*
X332573Y-8732D01*
X333060Y-9460D01*
X333787Y-9946D01*
X334146Y-10018D01*
Y-8374D01*
D02*
G37*
G36*
X313167D02*
X311524D01*
Y-10018D01*
X311882Y-9946D01*
X312610Y-9460D01*
X313096Y-8732D01*
X313167Y-8374D01*
D02*
G37*
G36*
X498207Y-35933D02*
X496563D01*
Y-37577D01*
X496921Y-37505D01*
X497649Y-37019D01*
X498135Y-36292D01*
X498207Y-35933D01*
D02*
G37*
G36*
X261986Y-55618D02*
X260343D01*
Y-57262D01*
X260701Y-57191D01*
X261429Y-56704D01*
X261915Y-55976D01*
X261986Y-55618D01*
D02*
G37*
G36*
X259343D02*
X257699D01*
X257770Y-55976D01*
X258256Y-56704D01*
X258984Y-57191D01*
X259343Y-57262D01*
Y-55618D01*
D02*
G37*
G36*
X405012D02*
X403368D01*
X403440Y-55976D01*
X403926Y-56704D01*
X404653Y-57191D01*
X405012Y-57262D01*
Y-55618D01*
D02*
G37*
G36*
X25600Y-54156D02*
X25242Y-54228D01*
X24514Y-54714D01*
X24028Y-55442D01*
X23956Y-55800D01*
X25600D01*
Y-54156D01*
D02*
G37*
G36*
X407655Y-55618D02*
X406012D01*
Y-57262D01*
X406370Y-57191D01*
X407098Y-56704D01*
X407584Y-55976D01*
X407655Y-55618D01*
D02*
G37*
G36*
X25600Y-56800D02*
X23956D01*
X24028Y-57158D01*
X24514Y-57886D01*
X25242Y-58372D01*
X25600Y-58444D01*
Y-56800D01*
D02*
G37*
G36*
X598925Y-56911D02*
Y-58555D01*
X600569D01*
X600497Y-58197D01*
X600011Y-57469D01*
X599284Y-56983D01*
X598925Y-56911D01*
D02*
G37*
G36*
X28244Y-56800D02*
X26600D01*
Y-58444D01*
X26958Y-58372D01*
X27686Y-57886D01*
X28172Y-57158D01*
X28244Y-56800D01*
D02*
G37*
G36*
X6081Y-55618D02*
X4437D01*
Y-57262D01*
X4795Y-57191D01*
X5523Y-56704D01*
X6009Y-55976D01*
X6081Y-55618D01*
D02*
G37*
G36*
X3437D02*
X1793D01*
X1865Y-55976D01*
X2351Y-56704D01*
X3079Y-57191D01*
X3437Y-57262D01*
Y-55618D01*
D02*
G37*
G36*
X26600Y-54156D02*
Y-55800D01*
X28244D01*
X28172Y-55442D01*
X27686Y-54714D01*
X26958Y-54228D01*
X26600Y-54156D01*
D02*
G37*
G36*
X405012Y-52974D02*
X404653Y-53046D01*
X403926Y-53532D01*
X403440Y-54260D01*
X403368Y-54618D01*
X405012D01*
Y-52974D01*
D02*
G37*
G36*
X260343D02*
Y-54618D01*
X261986D01*
X261915Y-54260D01*
X261429Y-53532D01*
X260701Y-53046D01*
X260343Y-52974D01*
D02*
G37*
G36*
X406012D02*
Y-54618D01*
X407655D01*
X407584Y-54260D01*
X407098Y-53532D01*
X406370Y-53046D01*
X406012Y-52974D01*
D02*
G37*
G36*
X371866Y-49984D02*
X365854D01*
Y-54421D01*
X371866D01*
Y-49984D01*
D02*
G37*
G36*
X364854D02*
X358842D01*
Y-54421D01*
X364854D01*
Y-49984D01*
D02*
G37*
G36*
X195044Y-53200D02*
X193400D01*
Y-54844D01*
X193758Y-54772D01*
X194486Y-54286D01*
X194972Y-53558D01*
X195044Y-53200D01*
D02*
G37*
G36*
X192400D02*
X190756D01*
X190828Y-53558D01*
X191314Y-54286D01*
X192042Y-54772D01*
X192400Y-54844D01*
Y-53200D01*
D02*
G37*
G36*
X3437Y-52974D02*
X3079Y-53046D01*
X2351Y-53532D01*
X1865Y-54260D01*
X1793Y-54618D01*
X3437D01*
Y-52974D01*
D02*
G37*
G36*
X259343D02*
X258984Y-53046D01*
X258256Y-53532D01*
X257770Y-54260D01*
X257699Y-54618D01*
X259343D01*
Y-52974D01*
D02*
G37*
G36*
X4437D02*
Y-54618D01*
X6081D01*
X6009Y-54260D01*
X5523Y-53532D01*
X4795Y-53046D01*
X4437Y-52974D01*
D02*
G37*
G36*
X597925Y-56911D02*
X597567Y-56983D01*
X596839Y-57469D01*
X596353Y-58197D01*
X596282Y-58555D01*
X597925D01*
Y-56911D01*
D02*
G37*
G36*
X470648Y-59555D02*
X469004D01*
Y-61199D01*
X469362Y-61128D01*
X470090Y-60641D01*
X470576Y-59913D01*
X470648Y-59555D01*
D02*
G37*
G36*
X468004D02*
X466360D01*
X466432Y-59913D01*
X466918Y-60641D01*
X467646Y-61128D01*
X468004Y-61199D01*
Y-59555D01*
D02*
G37*
G36*
X491626D02*
X489982D01*
X490054Y-59913D01*
X490540Y-60641D01*
X491268Y-61128D01*
X491626Y-61199D01*
Y-59555D01*
D02*
G37*
G36*
X597925D02*
X596282D01*
X596353Y-59913D01*
X596839Y-60641D01*
X597567Y-61128D01*
X597925Y-61199D01*
Y-59555D01*
D02*
G37*
G36*
X494270D02*
X492626D01*
Y-61199D01*
X492984Y-61128D01*
X493712Y-60641D01*
X494198Y-59913D01*
X494270Y-59555D01*
D02*
G37*
G36*
X141626Y-60736D02*
X139982D01*
X140054Y-61095D01*
X140540Y-61822D01*
X141268Y-62309D01*
X141626Y-62380D01*
Y-60736D01*
D02*
G37*
G36*
X319398Y-60848D02*
Y-62492D01*
X321041D01*
X320970Y-62134D01*
X320484Y-61406D01*
X319756Y-60920D01*
X319398Y-60848D01*
D02*
G37*
G36*
X144270Y-60736D02*
X142626D01*
Y-62380D01*
X142984Y-62309D01*
X143712Y-61822D01*
X144198Y-61095D01*
X144270Y-60736D01*
D02*
G37*
G36*
X447025Y-59555D02*
X445382D01*
Y-61199D01*
X445740Y-61128D01*
X446468Y-60641D01*
X446954Y-59913D01*
X447025Y-59555D01*
D02*
G37*
G36*
X444382D02*
X442738D01*
X442809Y-59913D01*
X443296Y-60641D01*
X444024Y-61128D01*
X444382Y-61199D01*
Y-59555D01*
D02*
G37*
G36*
X600569D02*
X598925D01*
Y-61199D01*
X599284Y-61128D01*
X600011Y-60641D01*
X600497Y-59913D01*
X600569Y-59555D01*
D02*
G37*
G36*
X468004Y-56911D02*
X467646Y-56983D01*
X466918Y-57469D01*
X466432Y-58197D01*
X466360Y-58555D01*
X468004D01*
Y-56911D01*
D02*
G37*
G36*
X445382D02*
Y-58555D01*
X447025D01*
X446954Y-58197D01*
X446468Y-57469D01*
X445740Y-56983D01*
X445382Y-56911D01*
D02*
G37*
G36*
X469004D02*
Y-58555D01*
X470648D01*
X470576Y-58197D01*
X470090Y-57469D01*
X469362Y-56983D01*
X469004Y-56911D01*
D02*
G37*
G36*
X492626D02*
Y-58555D01*
X494270D01*
X494198Y-58197D01*
X493712Y-57469D01*
X492984Y-56983D01*
X492626Y-56911D01*
D02*
G37*
G36*
X491626D02*
X491268Y-56983D01*
X490540Y-57469D01*
X490054Y-58197D01*
X489982Y-58555D01*
X491626D01*
Y-56911D01*
D02*
G37*
G36*
X371866Y-55421D02*
X365854D01*
Y-59858D01*
X371866D01*
Y-55421D01*
D02*
G37*
G36*
X364854D02*
X358842D01*
Y-59858D01*
X364854D01*
Y-55421D01*
D02*
G37*
G36*
X141626Y-58093D02*
X141268Y-58164D01*
X140540Y-58650D01*
X140054Y-59378D01*
X139982Y-59736D01*
X141626D01*
Y-58093D01*
D02*
G37*
G36*
X444382Y-56911D02*
X444024Y-56983D01*
X443296Y-57469D01*
X442809Y-58197D01*
X442738Y-58555D01*
X444382D01*
Y-56911D01*
D02*
G37*
G36*
X142626Y-58093D02*
Y-59736D01*
X144270D01*
X144198Y-59378D01*
X143712Y-58650D01*
X142984Y-58164D01*
X142626Y-58093D01*
D02*
G37*
G36*
X421760Y-41164D02*
Y-42807D01*
X423404D01*
X423332Y-42449D01*
X422846Y-41721D01*
X422118Y-41235D01*
X421760Y-41164D01*
D02*
G37*
G36*
X420760D02*
X420401Y-41235D01*
X419674Y-41721D01*
X419187Y-42449D01*
X419116Y-42807D01*
X420760D01*
Y-41164D01*
D02*
G37*
G36*
X597925D02*
X597567Y-41235D01*
X596839Y-41721D01*
X596353Y-42449D01*
X596282Y-42807D01*
X597925D01*
Y-41164D01*
D02*
G37*
G36*
X44760Y-39438D02*
X42291D01*
Y-42300D01*
X44760D01*
Y-39438D01*
D02*
G37*
G36*
X598925Y-41164D02*
Y-42807D01*
X600569D01*
X600497Y-42449D01*
X600011Y-41721D01*
X599284Y-41235D01*
X598925Y-41164D01*
D02*
G37*
G36*
X310524D02*
X310165Y-41235D01*
X309437Y-41721D01*
X308951Y-42449D01*
X308880Y-42807D01*
X310524D01*
Y-41164D01*
D02*
G37*
G36*
X64200Y-42956D02*
X63842Y-43028D01*
X63114Y-43514D01*
X62628Y-44242D01*
X62556Y-44600D01*
X64200D01*
Y-42956D01*
D02*
G37*
G36*
X311524Y-41164D02*
Y-42807D01*
X313167D01*
X313096Y-42449D01*
X312610Y-41721D01*
X311882Y-41235D01*
X311524Y-41164D01*
D02*
G37*
G36*
X378453D02*
Y-42807D01*
X380096D01*
X380025Y-42449D01*
X379539Y-41721D01*
X378811Y-41235D01*
X378453Y-41164D01*
D02*
G37*
G36*
X377453D02*
X377094Y-41235D01*
X376367Y-41721D01*
X375880Y-42449D01*
X375809Y-42807D01*
X377453D01*
Y-41164D01*
D02*
G37*
G36*
X235720Y-39870D02*
X234077D01*
X234148Y-40229D01*
X234634Y-40956D01*
X235362Y-41442D01*
X235720Y-41514D01*
Y-39870D01*
D02*
G37*
G36*
X328915Y-35933D02*
X327272D01*
Y-37577D01*
X327630Y-37505D01*
X328358Y-37019D01*
X328844Y-36292D01*
X328915Y-35933D01*
D02*
G37*
G36*
X326272D02*
X324628D01*
X324699Y-36292D01*
X325185Y-37019D01*
X325913Y-37505D01*
X326272Y-37577D01*
Y-35933D01*
D02*
G37*
G36*
X483752D02*
X482108D01*
X482180Y-36292D01*
X482666Y-37019D01*
X483394Y-37505D01*
X483752Y-37577D01*
Y-35933D01*
D02*
G37*
G36*
X495563D02*
X493919D01*
X493991Y-36292D01*
X494477Y-37019D01*
X495205Y-37505D01*
X495563Y-37577D01*
Y-35933D01*
D02*
G37*
G36*
X486396D02*
X484752D01*
Y-37577D01*
X485110Y-37505D01*
X485838Y-37019D01*
X486324Y-36292D01*
X486396Y-35933D01*
D02*
G37*
G36*
X279028Y-39870D02*
X277384D01*
X277455Y-40229D01*
X277941Y-40956D01*
X278669Y-41442D01*
X279028Y-41514D01*
Y-39870D01*
D02*
G37*
G36*
X238364D02*
X236720D01*
Y-41514D01*
X237079Y-41442D01*
X237807Y-40956D01*
X238293Y-40229D01*
X238364Y-39870D01*
D02*
G37*
G36*
X281671D02*
X280028D01*
Y-41514D01*
X280386Y-41442D01*
X281114Y-40956D01*
X281600Y-40229D01*
X281671Y-39870D01*
D02*
G37*
G36*
X280028Y-37226D02*
Y-38870D01*
X281671D01*
X281600Y-38512D01*
X281114Y-37784D01*
X280386Y-37298D01*
X280028Y-37226D01*
D02*
G37*
G36*
X279028D02*
X278669Y-37298D01*
X277941Y-37784D01*
X277455Y-38512D01*
X277384Y-38870D01*
X279028D01*
Y-37226D01*
D02*
G37*
G36*
X600569Y-43807D02*
X598925D01*
Y-45451D01*
X599284Y-45379D01*
X600011Y-44893D01*
X600497Y-44166D01*
X600569Y-43807D01*
D02*
G37*
G36*
X503437Y-47744D02*
X501793D01*
X501865Y-48103D01*
X502351Y-48830D01*
X503079Y-49316D01*
X503437Y-49388D01*
Y-47744D01*
D02*
G37*
G36*
X482459D02*
X480815D01*
Y-49388D01*
X481173Y-49316D01*
X481901Y-48830D01*
X482387Y-48103D01*
X482459Y-47744D01*
D02*
G37*
G36*
X506081D02*
X504437D01*
Y-49388D01*
X504795Y-49316D01*
X505523Y-48830D01*
X506009Y-48103D01*
X506081Y-47744D01*
D02*
G37*
G36*
X457193Y-45101D02*
Y-46744D01*
X458837D01*
X458765Y-46386D01*
X458279Y-45658D01*
X457551Y-45172D01*
X457193Y-45101D01*
D02*
G37*
G36*
X456193D02*
X455834Y-45172D01*
X455107Y-45658D01*
X454621Y-46386D01*
X454549Y-46744D01*
X456193D01*
Y-45101D01*
D02*
G37*
G36*
X193400Y-50556D02*
Y-52200D01*
X195044D01*
X194972Y-51842D01*
X194486Y-51114D01*
X193758Y-50628D01*
X193400Y-50556D01*
D02*
G37*
G36*
X192400D02*
X192042Y-50628D01*
X191314Y-51114D01*
X190828Y-51842D01*
X190756Y-52200D01*
X192400D01*
Y-50556D01*
D02*
G37*
G36*
X456193Y-47744D02*
X454549D01*
X454621Y-48103D01*
X455107Y-48830D01*
X455834Y-49316D01*
X456193Y-49388D01*
Y-47744D01*
D02*
G37*
G36*
X479815D02*
X478171D01*
X478243Y-48103D01*
X478729Y-48830D01*
X479457Y-49316D01*
X479815Y-49388D01*
Y-47744D01*
D02*
G37*
G36*
X458837D02*
X457193D01*
Y-49388D01*
X457551Y-49316D01*
X458279Y-48830D01*
X458765Y-48103D01*
X458837Y-47744D01*
D02*
G37*
G36*
X479815Y-45101D02*
X479457Y-45172D01*
X478729Y-45658D01*
X478243Y-46386D01*
X478171Y-46744D01*
X479815D01*
Y-45101D01*
D02*
G37*
G36*
X380096Y-43807D02*
X378453D01*
Y-45451D01*
X378811Y-45379D01*
X379539Y-44893D01*
X380025Y-44166D01*
X380096Y-43807D01*
D02*
G37*
G36*
X377453D02*
X375809D01*
X375880Y-44166D01*
X376367Y-44893D01*
X377094Y-45379D01*
X377453Y-45451D01*
Y-43807D01*
D02*
G37*
G36*
X420760D02*
X419116D01*
X419187Y-44166D01*
X419674Y-44893D01*
X420401Y-45379D01*
X420760Y-45451D01*
Y-43807D01*
D02*
G37*
G36*
X597925D02*
X596282D01*
X596353Y-44166D01*
X596839Y-44893D01*
X597567Y-45379D01*
X597925Y-45451D01*
Y-43807D01*
D02*
G37*
G36*
X423404D02*
X421760D01*
Y-45451D01*
X422118Y-45379D01*
X422846Y-44893D01*
X423332Y-44166D01*
X423404Y-43807D01*
D02*
G37*
G36*
X503437Y-45101D02*
X503079Y-45172D01*
X502351Y-45658D01*
X501865Y-46386D01*
X501793Y-46744D01*
X503437D01*
Y-45101D01*
D02*
G37*
G36*
X480815D02*
Y-46744D01*
X482459D01*
X482387Y-46386D01*
X481901Y-45658D01*
X481173Y-45172D01*
X480815Y-45101D01*
D02*
G37*
G36*
X504437D02*
Y-46744D01*
X506081D01*
X506009Y-46386D01*
X505523Y-45658D01*
X504795Y-45172D01*
X504437Y-45101D01*
D02*
G37*
G36*
X313167Y-43807D02*
X311524D01*
Y-45451D01*
X311882Y-45379D01*
X312610Y-44893D01*
X313096Y-44166D01*
X313167Y-43807D01*
D02*
G37*
G36*
X310524D02*
X308880D01*
X308951Y-44166D01*
X309437Y-44893D01*
X310165Y-45379D01*
X310524Y-45451D01*
Y-43807D01*
D02*
G37*
%LPD*%
D10*
X53150Y-122047D02*
G03*
X53150Y-122047I-5906J0D01*
G01*
D11*
X47244D02*
D03*
D12*
X293520Y-55000D02*
D03*
X301000D02*
D03*
X52740Y-42800D02*
D03*
X45260D02*
D03*
X88020Y-6000D02*
D03*
X95500D02*
D03*
X47441Y-11811D02*
D03*
X54921D02*
D03*
X87960Y-14400D02*
D03*
X95440D02*
D03*
X18340Y-73700D02*
D03*
X10860D02*
D03*
X28960Y-73500D02*
D03*
X36440D02*
D03*
X334920Y-39100D02*
D03*
X342400D02*
D03*
X234260Y-55000D02*
D03*
X241740D02*
D03*
X175260D02*
D03*
X182740D02*
D03*
D14*
X260700Y-78812D02*
D03*
Y-67788D02*
D03*
X170400Y-68988D02*
D03*
Y-80012D02*
D03*
D18*
X71400Y-17140D02*
D03*
Y-9660D02*
D03*
X193200Y-10760D02*
D03*
Y-18240D02*
D03*
X174500Y-10760D02*
D03*
Y-18240D02*
D03*
X69400Y-37640D02*
D03*
Y-30160D02*
D03*
D23*
X70763Y-49000D02*
X86937D01*
X69563Y-50200D02*
X70763Y-49000D01*
X69000Y-50200D02*
X69563D01*
X65118Y-54082D02*
X69000Y-50200D01*
X71282Y-46218D02*
X78782D01*
X68900Y-48600D02*
X71282Y-46218D01*
X40600Y-48600D02*
X68900D01*
X117895Y-18701D02*
X119395Y-20200D01*
X114075Y-18701D02*
X117895D01*
X174440Y-10700D02*
X174500Y-10760D01*
X169500Y-10700D02*
X174440D01*
X168389Y-11811D02*
X169500Y-10700D01*
X165354Y-11811D02*
X168389D01*
X188940Y-10760D02*
X193200D01*
X187889Y-11811D02*
X188940Y-10760D01*
X184567Y-11811D02*
X187889D01*
X350610Y-26400D02*
X357281Y-33071D01*
X349948Y-28000D02*
X356987Y-35039D01*
X161757Y-22500D02*
X167257Y-28000D01*
X167920Y-26400D02*
X350610D01*
X162420Y-20900D02*
X167920Y-26400D01*
X167257Y-28000D02*
X349948D01*
X349285Y-29600D02*
X356685Y-37000D01*
X166594Y-29600D02*
X349285D01*
X161169Y-24175D02*
X166594Y-29600D01*
X163082Y-19300D02*
X168582Y-24800D01*
X351273D02*
X357573Y-31100D01*
X168582Y-24800D02*
X351273D01*
X351936Y-23200D02*
X358236Y-29500D01*
X169245Y-23200D02*
X351936D01*
X163745Y-17700D02*
X169245Y-23200D01*
X156900Y-17700D02*
X163745D01*
X150913Y-11713D02*
X156900Y-17700D01*
X155037Y-20900D02*
X162420D01*
X152838Y-18701D02*
X155037Y-20900D01*
X155700Y-19300D02*
X163082D01*
X153132Y-16732D02*
X155700Y-19300D01*
X146199Y-24175D02*
X161169D01*
X154375Y-22500D02*
X161757D01*
X145768Y-26575D02*
X160175D01*
X310945Y-32480D02*
X333583Y-55118D01*
X145768Y-32480D02*
X310945D01*
X253858Y-34449D02*
X274528Y-55118D01*
X145768Y-34449D02*
X253858D01*
X145768Y-24606D02*
X146199Y-24175D01*
X140748Y-11713D02*
X150913D01*
X145768Y-16732D02*
X153132D01*
X145768Y-18701D02*
X152838D01*
X152544Y-20669D02*
X154375Y-22500D01*
X145768Y-20669D02*
X152544D01*
X129000Y-30500D02*
X134917Y-36417D01*
X129000Y-30500D02*
Y-30100D01*
X123700Y-20200D02*
X127700Y-24200D01*
X119395Y-20200D02*
X123700D01*
X134917Y-36417D02*
X145768D01*
X121063Y-37737D02*
X122600Y-36200D01*
X121063Y-43406D02*
Y-37737D01*
X102151Y-6000D02*
X102362Y-6211D01*
X95500Y-6000D02*
X102151D01*
X99773Y-14400D02*
X102362Y-11811D01*
X95440Y-14400D02*
X99773D01*
X121869Y-73731D02*
Y-68000D01*
X118110Y-77490D02*
X121869Y-73731D01*
X118110Y-78740D02*
Y-77490D01*
X136811Y-29089D02*
Y-11713D01*
X135000Y-30900D02*
X136811Y-29089D01*
X134300Y-24500D02*
Y-19100D01*
X130905Y-15706D02*
X134300Y-19100D01*
X130905Y-15706D02*
Y-11713D01*
X97047Y-51968D02*
Y-47053D01*
X102300Y-41800D01*
X108800D01*
X110406Y-43406D02*
X119095D01*
X108800Y-41800D02*
X110406Y-43406D01*
X123031Y-51669D02*
Y-43406D01*
X60100Y-60100D02*
X68500D01*
X75200Y-66800D01*
X107900D01*
X123031Y-51669D01*
X126969Y-54532D02*
Y-43406D01*
X118100Y-63400D02*
X126969Y-54532D01*
X120394Y-64500D02*
X125637D01*
X128937Y-61200D02*
Y-43406D01*
X125637Y-64500D02*
X128937Y-61200D01*
X130905Y-61494D02*
Y-43406D01*
X126300Y-66100D02*
X130905Y-61494D01*
X123769Y-66100D02*
X126300D01*
X125000Y-53106D02*
Y-43406D01*
X110236Y-67870D02*
X125000Y-53106D01*
X110236Y-70866D02*
Y-67870D01*
X114100Y-68600D02*
X116900Y-65800D01*
X114100Y-74876D02*
Y-68600D01*
X110236Y-78740D02*
X114100Y-74876D01*
X116900Y-65800D02*
X119094D01*
X120394Y-64500D01*
X121869Y-68000D02*
X123769Y-66100D01*
X103379Y-64400D02*
X105800D01*
X103279Y-64500D02*
X103379Y-64400D01*
X97047Y-58268D02*
X103279Y-64500D01*
X132874Y-43406D02*
Y-37837D01*
X131937Y-36900D02*
X132874Y-37837D01*
X127700Y-36900D02*
X131937D01*
X90496Y-25059D02*
X93981Y-28543D01*
X69400Y-25059D02*
X90496D01*
X93981Y-28543D02*
X114075D01*
X91019Y-23319D02*
X94275Y-26575D01*
X114075D01*
X65419Y-23319D02*
X91019D01*
X97603Y-24703D02*
X114075D01*
X93500Y-20600D02*
X97603Y-24703D01*
X78800Y-20600D02*
X93500D01*
X99700Y-40700D02*
X102014Y-38386D01*
X95237Y-40700D02*
X99700D01*
X96900Y-39000D02*
X99483Y-36417D01*
X82400Y-39000D02*
X96900D01*
X86937Y-49000D02*
X95237Y-40700D01*
X97037Y-36600D02*
X99188Y-34449D01*
X86700Y-36600D02*
X97037D01*
X96974Y-34400D02*
X98894Y-32480D01*
X90700Y-34400D02*
X96974D01*
X102014Y-38386D02*
X114075D01*
X97012Y-32100D02*
X98600Y-30512D01*
X94400Y-32100D02*
X97012D01*
X99483Y-36417D02*
X114075D01*
X99188Y-34449D02*
X114075D01*
X98894Y-32480D02*
X114075D01*
X98600Y-30512D02*
X114075D01*
X149086Y-38386D02*
X151500Y-40800D01*
X145768Y-38386D02*
X149086D01*
X301000Y-79100D02*
Y-55000D01*
X119332Y-16732D02*
X120400Y-17800D01*
X114075Y-16732D02*
X119332D01*
X72500Y-72400D02*
Y-72300D01*
X65040Y-37640D02*
X69400D01*
X62459Y-35059D02*
X65040Y-37640D01*
X56496Y-35059D02*
X62459D01*
X57800Y-42800D02*
X58200Y-42400D01*
X52740Y-42800D02*
X57800D01*
X56496Y-35059D02*
X58200Y-36763D01*
Y-42400D02*
Y-36763D01*
X47200Y-19100D02*
X47441Y-18859D01*
Y-11811D01*
X37300Y-73500D02*
X47100Y-63700D01*
X36440Y-73500D02*
X37300D01*
X240900Y-80012D02*
X241740Y-79172D01*
X10822Y-46218D02*
X36422D01*
X10822D02*
X18340Y-53736D01*
Y-73700D02*
Y-53736D01*
Y-73700D02*
X18540Y-73500D01*
X28960D01*
X249800Y-55000D02*
X250000Y-54800D01*
X241740Y-55000D02*
X249800D01*
X352700Y-62500D02*
X356400Y-66200D01*
X352700Y-62500D02*
Y-45000D01*
X346800Y-39100D02*
X352700Y-45000D01*
X342400Y-39100D02*
X346800D01*
X334920Y-46455D02*
X343583Y-55118D01*
X334920Y-46455D02*
Y-39100D01*
X182740Y-79572D02*
Y-55000D01*
X411500Y-22800D02*
X412300Y-22000D01*
X451700D01*
X416700Y-10900D02*
X418792Y-12992D01*
X450787D01*
X38218Y-46218D02*
X40600Y-48600D01*
X36422Y-46218D02*
X38218D01*
X75340Y-17140D02*
X78800Y-20600D01*
X71400Y-17140D02*
X75340D01*
X55118Y-55118D02*
X60100Y-60100D01*
X65118Y-55118D02*
Y-54082D01*
X114075Y-24703D02*
Y-24606D01*
X94300Y-32000D02*
X94400Y-32100D01*
X90500Y-34200D02*
X90700Y-34400D01*
X130100Y-3400D02*
X158000D01*
X128937Y-4563D02*
X130100Y-3400D01*
X128937Y-11713D02*
Y-4563D01*
X126969Y-3669D02*
X128837Y-1800D01*
X126969Y-11713D02*
Y-3669D01*
X128837Y-1800D02*
X174556D01*
X131800Y-5800D02*
X132874Y-6874D01*
X131600Y-5800D02*
X131800D01*
X132874Y-11713D02*
Y-6874D01*
X136100Y-6100D02*
X137100D01*
X134843Y-7357D02*
X136100Y-6100D01*
X134843Y-11713D02*
Y-7357D01*
X343583Y-55118D02*
X343701Y-55000D01*
X284528Y-55118D02*
X284646Y-55000D01*
X293520D01*
X225472Y-55118D02*
X225590Y-55000D01*
X234260D01*
X166417Y-55118D02*
X166535Y-55000D01*
X175260D01*
X102600Y-19300D02*
X103969Y-20669D01*
X114075D01*
X98938Y-22638D02*
X114075D01*
X98603Y-22303D02*
X98938Y-22638D01*
X139400Y-18100D02*
Y-16700D01*
X138779Y-16080D02*
X139400Y-16700D01*
X138779Y-16080D02*
Y-11713D01*
X107677Y-58268D02*
X111932D01*
X113600Y-56600D01*
X107677Y-51968D02*
X107946Y-51700D01*
X113800D01*
X134000Y-50000D02*
X134843Y-49158D01*
Y-43406D01*
X136000Y-58100D02*
X136811Y-57289D01*
Y-43406D01*
X62159Y-20059D02*
X65419Y-23319D01*
X56496Y-20059D02*
X62159D01*
X56496D02*
X57000Y-19555D01*
Y-17600D01*
X54921Y-15521D02*
X57000Y-17600D01*
X54921Y-15521D02*
Y-11811D01*
X56496Y-25059D02*
X69400D01*
Y-30160D02*
Y-25059D01*
X356685Y-37000D02*
X464500D01*
X468500Y-33100D02*
X468800D01*
X466561Y-35039D02*
X468500Y-33100D01*
X465129Y-33071D02*
X473000Y-25200D01*
X465352Y-37852D02*
X465748D01*
X464500Y-37000D02*
X465352Y-37852D01*
X356987Y-35039D02*
X466561D01*
X357281Y-33071D02*
X465129D01*
X463388Y-31100D02*
X475591Y-18898D01*
X357573Y-31100D02*
X463388D01*
X358236Y-29500D02*
X461445D01*
X477559Y-13386D01*
X102362Y-11811D02*
X105489D01*
X102362Y-6211D02*
X108826D01*
X105489Y-11811D02*
X111700Y-5600D01*
X108826Y-6211D02*
X111037Y-4000D01*
X111700Y-5600D02*
X121700D01*
X123031Y-6932D01*
Y-11713D02*
Y-6932D01*
X122363Y-4000D02*
X125000Y-6637D01*
X111037Y-4000D02*
X122363D01*
X125000Y-11713D02*
Y-6637D01*
X158000Y-3400D02*
X165354Y-10754D01*
X174556Y-1800D02*
X184567Y-11811D01*
X140748Y-43406D02*
X203760D01*
X215472Y-55118D01*
X138779Y-48379D02*
Y-43406D01*
Y-48379D02*
X145518Y-55118D01*
X156417D01*
X78564Y-46000D02*
X78782Y-46218D01*
X78000Y-46000D02*
X78564D01*
D26*
X114500Y-10400D02*
Y-8400D01*
Y-10400D02*
X115813Y-11713D01*
X119095D01*
D27*
X378100Y-94700D02*
X378200Y-94800D01*
X378300Y-94700D01*
X128400D02*
X378100D01*
X301000Y-79100D02*
X343500D01*
X250912D02*
X301000D01*
X343500D02*
X356400Y-66200D01*
X250000Y-80012D02*
X250912Y-79100D01*
X133858Y-83642D02*
Y-78740D01*
X130100Y-87400D02*
X133858Y-83642D01*
X82700Y-87400D02*
X130100D01*
X75200Y-79900D02*
X82700Y-87400D01*
X75200Y-79900D02*
Y-75100D01*
X182800Y-80012D02*
X240900D01*
X72500Y-72400D02*
X75200Y-75100D01*
X63800Y-63700D02*
X72500Y-72400D01*
X47100Y-63700D02*
X63800D01*
X45118Y-61718D02*
Y-55118D01*
Y-61718D02*
X47100Y-63700D01*
X240900Y-80012D02*
X250000D01*
Y-54800D01*
X356400Y-66200D02*
X511811D01*
X170400Y-80012D02*
X182300D01*
X141732Y-78740D02*
X149606D01*
X133858D02*
X141732D01*
X170400Y-87300D02*
Y-80012D01*
X169100Y-88600D02*
X170400Y-87300D01*
X169000Y-88500D02*
X169100Y-88600D01*
X151800Y-88500D02*
X169000D01*
X149606Y-86306D02*
X151800Y-88500D01*
X149606Y-86306D02*
Y-78740D01*
D28*
X154100Y-38400D02*
X180300D01*
X151500Y-40800D02*
X151700D01*
X154100Y-38400D01*
X180300D02*
X180400Y-38300D01*
X240900Y-55840D02*
X241740Y-55000D01*
D29*
X375394Y-77362D02*
X376378Y-78347D01*
X365354Y-77362D02*
X375394D01*
D30*
X297900Y-83400D02*
X303500Y-89000D01*
X383900D02*
X392200Y-80700D01*
X303500Y-89000D02*
X383900D01*
X392200Y-80700D02*
X536400D01*
D31*
X0Y0D02*
X610236D01*
Y-110236D02*
Y0D01*
X0Y-110236D02*
X610236D01*
X0D02*
Y0D01*
D32*
X598425Y-122047D02*
D03*
X15748D02*
D03*
D33*
X75118Y-55118D02*
D03*
X65118D02*
D03*
X55118D02*
D03*
X343583D02*
D03*
X284528D02*
D03*
X225472D02*
D03*
X166417D02*
D03*
X555217Y-61620D02*
D03*
D34*
X45118Y-55118D02*
D03*
D35*
X11811Y-11811D02*
D03*
X55118Y-78740D02*
D03*
X590551Y-11811D02*
D03*
X598425Y-78740D02*
D03*
D36*
X366142Y-11811D02*
D03*
D37*
X184567D02*
D03*
X165354D02*
D03*
D38*
X102362Y-6211D02*
D03*
Y-11811D02*
D03*
D39*
X333583Y-55118D02*
D03*
X274528D02*
D03*
X215472D02*
D03*
X156417D02*
D03*
D40*
X10822Y-46218D02*
D03*
X36422D02*
D03*
X10822Y-63918D02*
D03*
X36422D02*
D03*
D41*
X555118Y-32093D02*
D03*
D42*
X157480Y-70866D02*
D03*
D43*
X149606D02*
D03*
X141732D02*
D03*
X133858D02*
D03*
X125984D02*
D03*
X118110D02*
D03*
X110236D02*
D03*
X102362D02*
D03*
X94488D02*
D03*
X86614D02*
D03*
Y-78740D02*
D03*
X94488D02*
D03*
X102362D02*
D03*
X110236D02*
D03*
X118110D02*
D03*
X125984D02*
D03*
X133858D02*
D03*
X141732D02*
D03*
X149606D02*
D03*
X157480D02*
D03*
D44*
X26100Y-56300D02*
D03*
X489100Y-13400D02*
D03*
X480200Y-11100D02*
D03*
X471000Y-11900D02*
D03*
X440700Y-5700D02*
D03*
X64700Y-45100D02*
D03*
X160175Y-26575D02*
D03*
X129000Y-30100D02*
D03*
X127700Y-24200D02*
D03*
X122600Y-36200D02*
D03*
X135000Y-30900D02*
D03*
X134300Y-24500D02*
D03*
X108800Y-41800D02*
D03*
X118100Y-63400D02*
D03*
X105800Y-64400D02*
D03*
X127700Y-36900D02*
D03*
X151500Y-40800D02*
D03*
X401300Y-72700D02*
D03*
X335300Y-69700D02*
D03*
X214900Y-69800D02*
D03*
X192900Y-52700D02*
D03*
X173800Y-48400D02*
D03*
X425197Y-74803D02*
D03*
X444882D02*
D03*
X468504D02*
D03*
X488189D02*
D03*
X507874D02*
D03*
X484252Y-35433D02*
D03*
X496063D02*
D03*
X503937Y-47244D02*
D03*
X492126Y-59055D02*
D03*
X480315Y-47244D02*
D03*
X468504Y-59055D02*
D03*
X456693Y-47244D02*
D03*
X444882Y-59055D02*
D03*
X297900Y-83400D02*
D03*
X182800Y-79900D02*
D03*
X180400Y-38300D02*
D03*
X120400Y-17800D02*
D03*
X58200Y-42400D02*
D03*
X47200Y-19100D02*
D03*
X511500Y-66400D02*
D03*
X536400Y-80700D02*
D03*
X411500Y-22800D02*
D03*
X451700Y-22000D02*
D03*
X416700Y-10900D02*
D03*
X450787Y-12992D02*
D03*
X376378Y-78347D02*
D03*
X94300Y-32000D02*
D03*
X90500Y-34200D02*
D03*
X86700Y-36600D02*
D03*
X82400Y-39000D02*
D03*
X114500Y-8400D02*
D03*
X131600Y-5800D02*
D03*
X137100Y-6100D02*
D03*
X102600Y-19300D02*
D03*
X98603Y-22303D02*
D03*
X139400Y-18100D02*
D03*
X113600Y-56600D02*
D03*
X113800Y-51700D02*
D03*
X134000Y-50000D02*
D03*
X136000Y-58100D02*
D03*
X468800Y-33100D02*
D03*
X465748Y-37852D02*
D03*
X473000Y-25200D02*
D03*
X475591Y-18898D02*
D03*
X477559Y-13386D02*
D03*
X78000Y-46000D02*
D03*
X7874Y-102362D02*
D03*
X31496D02*
D03*
X55118D02*
D03*
X125984D02*
D03*
X102362D02*
D03*
X78740D02*
D03*
X149606D02*
D03*
X173228D02*
D03*
X196850D02*
D03*
X338583D02*
D03*
X314961D02*
D03*
X291339D02*
D03*
X220472D02*
D03*
X244094D02*
D03*
X267717D02*
D03*
X480315D02*
D03*
X456693D02*
D03*
X433071D02*
D03*
X362205D02*
D03*
X385827D02*
D03*
X409449D02*
D03*
X598425D02*
D03*
X574803D02*
D03*
X503937D02*
D03*
X527559D02*
D03*
X551181D02*
D03*
X598425Y-59055D02*
D03*
Y-43307D02*
D03*
Y-27559D02*
D03*
X570866Y-3937D02*
D03*
X539370D02*
D03*
X531496Y-11811D02*
D03*
X421260Y-43307D02*
D03*
X405512Y-55118D02*
D03*
X377953Y-43307D02*
D03*
X318898Y-62992D02*
D03*
X326772Y-35433D02*
D03*
X314961Y-70866D02*
D03*
X311024Y-43307D02*
D03*
X334646Y-7874D02*
D03*
X311024D02*
D03*
X259842Y-55118D02*
D03*
X279528Y-70866D02*
D03*
Y-39370D02*
D03*
X236221D02*
D03*
X192913Y-66929D02*
D03*
X236221Y-74803D02*
D03*
X19685Y-31496D02*
D03*
X35433Y-3937D02*
D03*
X7874Y-31496D02*
D03*
X3937Y-55118D02*
D03*
Y-82677D02*
D03*
X23622D02*
D03*
X84646Y-29528D02*
D03*
X142126Y-60236D02*
D03*
X69000Y-2700D02*
D03*
D45*
X378300Y-94700D02*
D03*
X128400D02*
D03*
X250000Y-54800D02*
D03*
D46*
X365354Y-77362D02*
D03*
Y-54921D02*
D03*
D47*
X56496Y-20059D02*
D03*
Y-25059D02*
D03*
Y-30059D02*
D03*
Y-35059D02*
D03*
X37992Y-20059D02*
D03*
Y-25059D02*
D03*
Y-30059D02*
D03*
Y-35059D02*
D03*
D48*
X114075Y-16732D02*
D03*
Y-18701D02*
D03*
Y-20669D02*
D03*
Y-22638D02*
D03*
Y-24606D02*
D03*
Y-26575D02*
D03*
Y-28543D02*
D03*
Y-30512D02*
D03*
Y-32480D02*
D03*
Y-34449D02*
D03*
Y-36417D02*
D03*
Y-38386D02*
D03*
X145768D02*
D03*
Y-36417D02*
D03*
Y-34449D02*
D03*
Y-32480D02*
D03*
Y-30512D02*
D03*
Y-28543D02*
D03*
Y-26575D02*
D03*
Y-24606D02*
D03*
Y-22638D02*
D03*
Y-20669D02*
D03*
Y-18701D02*
D03*
Y-16732D02*
D03*
D49*
X119095Y-43406D02*
D03*
X121063D02*
D03*
X123031D02*
D03*
X125000D02*
D03*
X126969D02*
D03*
X128937D02*
D03*
X130905D02*
D03*
X132874D02*
D03*
X134843D02*
D03*
X136811D02*
D03*
X138779D02*
D03*
X140748D02*
D03*
Y-11713D02*
D03*
X138779D02*
D03*
X136811D02*
D03*
X134843D02*
D03*
X132874D02*
D03*
X130905D02*
D03*
X128937D02*
D03*
X126969D02*
D03*
X125000D02*
D03*
X123031D02*
D03*
X121063D02*
D03*
X119095D02*
D03*
D50*
X107677Y-51968D02*
D03*
Y-58268D02*
D03*
X97047Y-51968D02*
D03*
Y-58268D02*
D03*
M02*
