M48
;Layer_Color=9474304
;FILE_FORMAT=2:5
INCH,LZ
;TYPE=PLATED
T1F00S00C0.01200
T2F00S00C0.01600
T3F00S00C0.01800
T4F00S00C0.02800
T5F00S00C0.03150
T6F00S00C0.03543
T7F00S00C0.04000
T8F00S00C0.12598
;TYPE=NON_PLATED
T9F00S00C0.04331
T10F00S00C0.05906
%
T01
X0442913Y0005906
X0462599
X0482283
X0501969
X0521654
X0541339
X0521654Y0025591
X0501969
X0482283
X0462599
X0442913
X043189Y0055118
X0465748Y0048425
X0477362Y0049409
X0483268Y0047441
X0501969Y0064961
X0521654
Y0045276
Y0084646
X0501969
X0482283
X0403543
X0383858
Y0045276
Y0025591
Y0005906
X0364173
X0344488
X0324803
X0305118
X030315Y0019685
X0299213Y0051181
X0305118Y0064961
X0295276Y0074803
X0324803Y0045276
X0364173
Y0025591
X0403543
Y0005906
X0423228
Y0025591
Y0045276
X0403543
X0255906Y0051181
Y0074803
X0271654
X0232283
X0220473Y0062992
Y0051181
Y003937
X0240158
X0200787
X01847Y0038978
X0186488Y0059166
X016894Y0066018
X015265Y0071928
X01482Y0071878
X0147638Y0081693
X01327Y0084878
X01232Y0074878
X0125984Y0062992
X0121672Y0043406
X01167Y0040378
X0129921Y0031496
X0128872Y0024606
X01345Y0019478
X0139764Y0018701
X0146654Y0022031
X0144Y0029678
X0146661Y0036417
X01598Y0039878
X01628Y0027378
X01671Y0028678
X0121949Y0011727
X01219Y0007278
X02147Y0003278
X02621Y0008578
X0113189Y0014764
X01115Y0027978
X01049
X0096746Y0022031
X00966Y0015778
X0070473Y0009843
X00624Y0010378
X00497Y0010678
X00447Y0023178
X00396Y0023278
X0019685Y0025591
X0009843Y0035433
X0032677Y0042913
X0031496Y0050394
Y0059055
X0055118
X00622Y0045878
X0074016Y003189
X01139Y0059478
X0019685Y0084646
X003937Y0104331
X007874
X0098425
X0114173Y0098425
X0127953Y0104331
X01331Y0095178
X0147638Y0091535
X0196851Y0104331
X0226378
X022441Y0090551
X0244095
X0246063Y0104331
X0265748
X0267717Y0090551
X0287402
X0285433Y0104331
X0305118
X0307087Y0090551
X0322835
X0324803Y0104331
X0383858
X0403543
X0423228
X0442913
X0462599
X0482283
X0501969
X0521654
X0541339
T02
X03393Y0024578
X03445Y0044478
X04237Y0062478
X02622Y0082878
X02621Y0018178
T03
X048874Y0066738
X01691Y0076078
X00568Y0070778
T04
X01802Y0014778
X0199413
X01029Y0012078
Y0006478
T05
X0274528Y0055118
X0284528
X0313898
X0323898
X0245158
X0235158
X0205787
X0195788
T06
X015748Y0086614
X016748
X017748
X018748
X019748
X0101181
X0091181
X0081181
X0071181
X0061181
X0051181
X0007874Y0074803
Y0064803
Y0054803
Y0044803
X0051181Y0096614
X0061181
X0071181
X0081181
X0091181
X0101181
X015748
X016748
X017748
X018748
X019748
T07
X0018696Y0046218
Y0063918
X0044296
Y0046218
X0069877
Y0063918
X0095477
Y0046218
T08
X0582677Y0011811
X0283465
X0011811
Y0098425
X0358268
X0582677
T09
X0559055Y0069876
T10
X0559154Y0040348
M30
