G04 Layer_Color=8388736*
%FSLAX25Y25*%
%MOIN*%
G70*
G01*
G75*
%ADD29C,0.00500*%
%ADD49R,0.05524X0.04737*%
%ADD50R,0.06706X0.05918*%
%ADD51R,0.04737X0.05524*%
%ADD52R,0.11824X0.08674*%
%ADD53R,0.10013X0.09400*%
%ADD54O,0.03162X0.08280*%
%ADD55O,0.06902X0.01784*%
%ADD56O,0.01784X0.06902*%
%ADD57R,0.07493X0.04540*%
%ADD58R,0.08674X0.08674*%
%ADD59R,0.01981X0.06312*%
G04:AMPARAMS|DCode=60|XSize=106.42mil|YSize=244.22mil|CornerRadius=0mil|HoleSize=0mil|Usage=FLASHONLY|Rotation=0.000|XOffset=0mil|YOffset=0mil|HoleType=Round|Shape=Octagon|*
%AMOCTAGOND60*
4,1,8,-0.02661,0.12211,0.02661,0.12211,0.05321,0.09550,0.05321,-0.09550,0.02661,-0.12211,-0.02661,-0.12211,-0.05321,-0.09550,-0.05321,0.09550,-0.02661,0.12211,0.0*
%
%ADD60OCTAGOND60*%

%ADD61O,0.10642X0.24422*%
%ADD62C,0.06706*%
%ADD63R,0.06706X0.06706*%
%ADD64C,0.21272*%
%ADD65R,0.06706X0.06706*%
%ADD66C,0.05800*%
%ADD67O,0.05800X0.04800*%
%ADD68C,0.07099*%
%ADD69C,0.06800*%
%ADD70C,0.05131*%
D29*
X0Y0D02*
Y110236D01*
X594488D01*
Y0D02*
Y110236D01*
X0Y0D02*
X594488D01*
D49*
X436500Y70638D02*
D03*
Y78118D02*
D03*
X160800Y66018D02*
D03*
Y58538D02*
D03*
X152650Y65918D02*
D03*
Y58438D02*
D03*
X144500Y65918D02*
D03*
Y58438D02*
D03*
X284400Y70238D02*
D03*
Y77718D02*
D03*
X323900Y70238D02*
D03*
Y77718D02*
D03*
X31600Y28818D02*
D03*
Y21338D02*
D03*
X31500Y6138D02*
D03*
Y13618D02*
D03*
X113900Y46838D02*
D03*
Y54318D02*
D03*
X244900Y70238D02*
D03*
Y77718D02*
D03*
X223600Y17018D02*
D03*
Y9538D02*
D03*
X232200Y17118D02*
D03*
Y9638D02*
D03*
X460900Y71138D02*
D03*
Y78618D02*
D03*
X480100Y66738D02*
D03*
Y74218D02*
D03*
D50*
X316709Y24606D02*
D03*
X330709D02*
D03*
Y14764D02*
D03*
X316709D02*
D03*
D51*
X256940Y8578D02*
D03*
X249460D02*
D03*
X256940Y18178D02*
D03*
X249460D02*
D03*
X62260Y18378D02*
D03*
X69740D02*
D03*
X82260Y19678D02*
D03*
X89740D02*
D03*
X166760Y38978D02*
D03*
X174240D02*
D03*
X205360Y68178D02*
D03*
X212840D02*
D03*
D52*
X424400Y72758D02*
D03*
Y95198D02*
D03*
X448700D02*
D03*
Y72758D02*
D03*
D53*
X80900Y9178D02*
D03*
D54*
X39700Y16926D02*
D03*
X44700D02*
D03*
X49700D02*
D03*
X54700D02*
D03*
X39700Y35430D02*
D03*
X44700D02*
D03*
X49700D02*
D03*
X54700D02*
D03*
D55*
X121949Y16732D02*
D03*
Y18701D02*
D03*
Y20669D02*
D03*
Y22638D02*
D03*
Y24606D02*
D03*
Y26575D02*
D03*
Y28543D02*
D03*
Y30512D02*
D03*
Y32480D02*
D03*
Y34449D02*
D03*
Y36417D02*
D03*
Y38386D02*
D03*
X153642D02*
D03*
Y36417D02*
D03*
Y34449D02*
D03*
Y32480D02*
D03*
Y30512D02*
D03*
Y28543D02*
D03*
Y26575D02*
D03*
Y24606D02*
D03*
Y22638D02*
D03*
Y20669D02*
D03*
Y18701D02*
D03*
Y16732D02*
D03*
D56*
X126969Y43406D02*
D03*
X128937D02*
D03*
X130906D02*
D03*
X132874D02*
D03*
X134843D02*
D03*
X136811D02*
D03*
X138780D02*
D03*
X140748D02*
D03*
X142717D02*
D03*
X144685D02*
D03*
X146654D02*
D03*
X148622D02*
D03*
Y11713D02*
D03*
X146654D02*
D03*
X144685D02*
D03*
X142717D02*
D03*
X140748D02*
D03*
X138780D02*
D03*
X136811D02*
D03*
X134843D02*
D03*
X132874D02*
D03*
X130906D02*
D03*
X128937D02*
D03*
X126969D02*
D03*
D57*
X177300Y59166D02*
D03*
Y70190D02*
D03*
X240800Y7866D02*
D03*
Y18890D02*
D03*
X471200Y67366D02*
D03*
Y78390D02*
D03*
D58*
X493105Y45518D02*
D03*
X435605D02*
D03*
D59*
X483268Y55118D02*
D03*
X485236D02*
D03*
X487205D02*
D03*
X473425D02*
D03*
X475394D02*
D03*
X477362D02*
D03*
X479331D02*
D03*
X481299D02*
D03*
X463583D02*
D03*
X465551D02*
D03*
X467520D02*
D03*
X469488D02*
D03*
X471457D02*
D03*
X453740D02*
D03*
X455709D02*
D03*
X457677D02*
D03*
X459646D02*
D03*
X461614D02*
D03*
X451772D02*
D03*
X449803D02*
D03*
X447835D02*
D03*
X445866D02*
D03*
X443898D02*
D03*
X441929D02*
D03*
D60*
X559055Y21253D02*
D03*
D61*
Y88970D02*
D03*
D62*
X7874Y44803D02*
D03*
Y54803D02*
D03*
Y64803D02*
D03*
X157480Y96614D02*
D03*
X167480Y86614D02*
D03*
Y96614D02*
D03*
X177480Y86614D02*
D03*
Y96614D02*
D03*
X187480Y86614D02*
D03*
Y96614D02*
D03*
X197480Y86614D02*
D03*
Y96614D02*
D03*
X51181D02*
D03*
X61181Y86614D02*
D03*
Y96614D02*
D03*
X71181Y86614D02*
D03*
Y96614D02*
D03*
X81181Y86614D02*
D03*
Y96614D02*
D03*
X91181Y86614D02*
D03*
Y96614D02*
D03*
X101181Y86614D02*
D03*
Y96614D02*
D03*
X323898Y55118D02*
D03*
X284528D02*
D03*
X245158D02*
D03*
X205787D02*
D03*
X559154Y40348D02*
D03*
D63*
X7874Y74803D02*
D03*
D64*
X11811Y98425D02*
D03*
Y11811D02*
D03*
X358268Y98425D02*
D03*
X283465Y11811D02*
D03*
X582677Y98425D02*
D03*
Y11811D02*
D03*
D65*
X157480Y86614D02*
D03*
X51181D02*
D03*
D66*
X180200Y14778D02*
D03*
X199413D02*
D03*
D67*
X102900Y12078D02*
D03*
Y6478D02*
D03*
D68*
X313898Y55118D02*
D03*
X274528D02*
D03*
X235158D02*
D03*
X195788D02*
D03*
D69*
X44296Y46218D02*
D03*
X18696D02*
D03*
X44296Y63918D02*
D03*
X18696D02*
D03*
X95477Y46218D02*
D03*
X69877D02*
D03*
X95477Y63918D02*
D03*
X69877D02*
D03*
D70*
X559055Y69876D02*
D03*
M02*
