G04 Layer_Color=65535*
%FSLAX25Y25*%
%MOIN*%
G70*
G01*
G75*
%ADD23C,0.00800*%
%ADD27C,0.01000*%
%ADD29C,0.00500*%
%ADD43C,0.00787*%
%ADD44C,0.01575*%
%ADD45C,0.00984*%
%ADD46C,0.02362*%
%ADD47C,0.00700*%
%ADD48R,0.01075X0.08000*%
D23*
X105700Y11478D02*
G03*
X102900Y14178I-2750J-50D01*
G01*
X102900Y3978D02*
G03*
X105700Y6878I-50J2850D01*
G01*
X76500Y3978D02*
Y14178D01*
X105700Y6878D02*
Y11478D01*
X76500Y3978D02*
X102900D01*
X76500Y14178D02*
X102900D01*
X219480Y94614D02*
X221146D01*
X220314D01*
Y99612D01*
X219480Y98779D01*
X223646D02*
X224479Y99612D01*
X226145D01*
X226978Y98779D01*
Y95447D01*
X226145Y94614D01*
X224479D01*
X223646Y95447D01*
Y98779D01*
X220480Y85447D02*
X221314Y84614D01*
X222980D01*
X223813Y85447D01*
Y88779D01*
X222980Y89613D01*
X221314D01*
X220480Y88779D01*
Y87946D01*
X221314Y87113D01*
X223813D01*
X133858Y74803D02*
X135524D01*
X134691D01*
Y79801D01*
X133858Y78969D01*
X134332Y103178D02*
X131000D01*
X134332Y106510D01*
Y107343D01*
X133499Y108176D01*
X131833D01*
X131000Y107343D01*
X123181Y95614D02*
X124847D01*
X124014D01*
Y100612D01*
X123181Y99779D01*
X130679Y95614D02*
X127347D01*
X130679Y98946D01*
Y99779D01*
X129846Y100612D01*
X128180D01*
X127347Y99779D01*
X124181Y85614D02*
X125847D01*
X125014D01*
Y90613D01*
X124181Y89780D01*
X128347Y85614D02*
X130013D01*
X129180D01*
Y90613D01*
X128347Y89780D01*
X27181Y84614D02*
X28847D01*
X28014D01*
Y89613D01*
X27181Y88779D01*
X29513Y95614D02*
X26181D01*
X29513Y98946D01*
Y99779D01*
X28680Y100612D01*
X27014D01*
X26181Y99779D01*
D27*
X203192Y4936D02*
G03*
X212505Y11593I0J9843D01*
G01*
X176421Y24621D02*
G03*
X167108Y17963I0J-9843D01*
G01*
X212505D02*
G03*
X203192Y24621I-9313J-3185D01*
G01*
X167108Y11593D02*
G03*
X176421Y4936I9313J3185D01*
G01*
X322709Y24606D02*
X326209Y21106D01*
Y28106D01*
X322709Y24606D02*
X326209Y28106D01*
X322709Y14764D02*
X326209Y18264D01*
Y11264D02*
Y18264D01*
X322709Y14764D02*
X326209Y11264D01*
X176400Y24620D02*
X203192Y24621D01*
X176420Y4935D02*
X203192Y4936D01*
X171001Y73536D02*
X173855D01*
X172379Y72060D02*
Y75013D01*
X234501Y22236D02*
X237355D01*
X235879Y20760D02*
Y23713D01*
X31496Y66929D02*
Y72927D01*
X34495D01*
X35495Y71927D01*
Y69928D01*
X34495Y68928D01*
X31496D01*
X37494Y66929D02*
X39494D01*
X38494D01*
Y72927D01*
X37494Y71927D01*
X468002Y85377D02*
X467002Y84377D01*
Y82378D01*
X468002Y81378D01*
X472000D01*
X473000Y82378D01*
Y84377D01*
X472000Y85377D01*
X473000Y91375D02*
Y87376D01*
X469001Y91375D01*
X468002D01*
X467002Y90375D01*
Y88376D01*
X468002Y87376D01*
X473000Y97373D02*
Y93374D01*
X469001Y97373D01*
X468002D01*
X467002Y96373D01*
Y94374D01*
X468002Y93374D01*
X184002Y62377D02*
X183002Y61377D01*
Y59378D01*
X184002Y58378D01*
X188000D01*
X189000Y59378D01*
Y61377D01*
X188000Y62377D01*
X184002Y64376D02*
X183002Y65376D01*
Y67375D01*
X184002Y68375D01*
X185001D01*
X186001Y67375D01*
X187001Y68375D01*
X188000D01*
X189000Y67375D01*
Y65376D01*
X188000Y64376D01*
X187001D01*
X186001Y65376D01*
X185001Y64376D01*
X184002D01*
X186001Y65376D02*
Y67375D01*
X239002Y28377D02*
X238002Y27377D01*
Y25378D01*
X239002Y24378D01*
X243000D01*
X244000Y25378D01*
Y27377D01*
X243000Y28377D01*
X238002Y34375D02*
Y30376D01*
X241001D01*
X240001Y32375D01*
Y33375D01*
X241001Y34375D01*
X243000D01*
X244000Y33375D01*
Y31376D01*
X243000Y30376D01*
X221000Y74378D02*
Y80376D01*
X223999D01*
X224999Y79376D01*
Y77377D01*
X223999Y76377D01*
X221000D01*
X230997Y74378D02*
X226998D01*
X230997Y78377D01*
Y79376D01*
X229997Y80376D01*
X227998D01*
X226998Y79376D01*
X3937Y31496D02*
Y37494D01*
X6936D01*
X7936Y36494D01*
Y34495D01*
X6936Y33495D01*
X3937D01*
X9935Y36494D02*
X10935Y37494D01*
X12934D01*
X13934Y36494D01*
Y35495D01*
X12934Y34495D01*
X11935D01*
X12934D01*
X13934Y33495D01*
Y32496D01*
X12934Y31496D01*
X10935D01*
X9935Y32496D01*
X195831Y32291D02*
Y31291D01*
X197830Y29292D01*
X199829Y31291D01*
Y32291D01*
X197830Y29292D02*
Y26293D01*
X205828D02*
X201829D01*
X205828Y30292D01*
Y31291D01*
X204828Y32291D01*
X202829D01*
X201829Y31291D01*
X45002Y42378D02*
X50000D01*
X51000Y43378D01*
Y45377D01*
X50000Y46377D01*
X45002D01*
X51000Y51375D02*
X45002D01*
X48001Y48376D01*
Y52375D01*
X100000Y40376D02*
Y35378D01*
X101000Y34378D01*
X102999D01*
X103999Y35378D01*
Y40376D01*
X105998Y39376D02*
X106998Y40376D01*
X108997D01*
X109997Y39376D01*
Y38377D01*
X108997Y37377D01*
X107998D01*
X108997D01*
X109997Y36377D01*
Y35378D01*
X108997Y34378D01*
X106998D01*
X105998Y35378D01*
X203000Y55378D02*
Y61376D01*
X205999D01*
X206999Y60376D01*
Y58377D01*
X205999Y57377D01*
X203000D01*
X204999D02*
X206999Y55378D01*
X211997D02*
Y61376D01*
X208998Y58377D01*
X212997D01*
X218995Y61376D02*
X214996D01*
Y58377D01*
X216996Y59377D01*
X217995D01*
X218995Y58377D01*
Y56378D01*
X217995Y55378D01*
X215996D01*
X214996Y56378D01*
X242000Y82378D02*
Y88376D01*
X244999D01*
X245999Y87376D01*
Y85377D01*
X244999Y84377D01*
X242000D01*
X243999D02*
X245999Y82378D01*
X250997D02*
Y88376D01*
X247998Y85377D01*
X251997D01*
X256995Y82378D02*
Y88376D01*
X253996Y85377D01*
X257995D01*
X282350Y82628D02*
Y88626D01*
X285349D01*
X286349Y87626D01*
Y85627D01*
X285349Y84627D01*
X282350D01*
X284349D02*
X286349Y82628D01*
X291347D02*
Y88626D01*
X288348Y85627D01*
X292347D01*
X294346Y87626D02*
X295346Y88626D01*
X297345D01*
X298345Y87626D01*
Y86627D01*
X297345Y85627D01*
X296346D01*
X297345D01*
X298345Y84627D01*
Y83628D01*
X297345Y82628D01*
X295346D01*
X294346Y83628D01*
X464000Y83378D02*
X458002D01*
Y86377D01*
X459002Y87377D01*
X461001D01*
X462001Y86377D01*
Y83378D01*
Y85377D02*
X464000Y87377D01*
Y92375D02*
X458002D01*
X461001Y89376D01*
Y93375D01*
X464000Y99373D02*
Y95374D01*
X460001Y99373D01*
X459002D01*
X458002Y98373D01*
Y96374D01*
X459002Y95374D01*
X320950Y84167D02*
Y90165D01*
X323949D01*
X324949Y89165D01*
Y87166D01*
X323949Y86166D01*
X320950D01*
X322949D02*
X324949Y84167D01*
X329947D02*
Y90165D01*
X326948Y87166D01*
X330946D01*
X332946Y84167D02*
X334945D01*
X333945D01*
Y90165D01*
X332946Y89165D01*
X131000Y54378D02*
X125002D01*
Y57377D01*
X126002Y58377D01*
X128001D01*
X129001Y57377D01*
Y54378D01*
Y56377D02*
X131000Y58377D01*
X126002Y60376D02*
X125002Y61376D01*
Y63375D01*
X126002Y64375D01*
X127001D01*
X128001Y63375D01*
Y62375D01*
Y63375D01*
X129001Y64375D01*
X130000D01*
X131000Y63375D01*
Y61376D01*
X130000Y60376D01*
Y66374D02*
X131000Y67374D01*
Y69373D01*
X130000Y70373D01*
X126002D01*
X125002Y69373D01*
Y67374D01*
X126002Y66374D01*
X127001D01*
X128001Y67374D01*
Y70373D01*
X139000Y54378D02*
X133002D01*
Y57377D01*
X134002Y58377D01*
X136001D01*
X137001Y57377D01*
Y54378D01*
Y56377D02*
X139000Y58377D01*
X134002Y60376D02*
X133002Y61376D01*
Y63375D01*
X134002Y64375D01*
X135001D01*
X136001Y63375D01*
Y62375D01*
Y63375D01*
X137001Y64375D01*
X138000D01*
X139000Y63375D01*
Y61376D01*
X138000Y60376D01*
X134002Y66374D02*
X133002Y67374D01*
Y69373D01*
X134002Y70373D01*
X135001D01*
X136001Y69373D01*
X137001Y70373D01*
X138000D01*
X139000Y69373D01*
Y67374D01*
X138000Y66374D01*
X137001D01*
X136001Y67374D01*
X135001Y66374D01*
X134002D01*
X136001Y67374D02*
Y69373D01*
X172000Y54378D02*
X166002D01*
Y57377D01*
X167002Y58377D01*
X169001D01*
X170001Y57377D01*
Y54378D01*
Y56377D02*
X172000Y58377D01*
X167002Y60376D02*
X166002Y61376D01*
Y63375D01*
X167002Y64375D01*
X168001D01*
X169001Y63375D01*
Y62375D01*
Y63375D01*
X170001Y64375D01*
X171000D01*
X172000Y63375D01*
Y61376D01*
X171000Y60376D01*
X166002Y66374D02*
Y70373D01*
X167002D01*
X171000Y66374D01*
X172000D01*
X252000Y23378D02*
Y29376D01*
X254999D01*
X255999Y28376D01*
Y26377D01*
X254999Y25377D01*
X252000D01*
X253999D02*
X255999Y23378D01*
X257998D02*
X259998D01*
X258998D01*
Y29376D01*
X257998Y28376D01*
X265996Y23378D02*
Y29376D01*
X262997Y26377D01*
X266995D01*
X252000Y31378D02*
Y37376D01*
X254999D01*
X255999Y36376D01*
Y34377D01*
X254999Y33377D01*
X252000D01*
X253999D02*
X255999Y31378D01*
X257998D02*
X259998D01*
X258998D01*
Y37376D01*
X257998Y36376D01*
X266995Y31378D02*
X262997D01*
X266995Y35377D01*
Y36376D01*
X265996Y37376D01*
X263996D01*
X262997Y36376D01*
X35433Y35433D02*
X29435D01*
Y38432D01*
X30435Y39432D01*
X32434D01*
X33434Y38432D01*
Y35433D01*
Y37432D02*
X35433Y39432D01*
Y41431D02*
Y43431D01*
Y42431D01*
X29435D01*
X30435Y41431D01*
X35433Y46429D02*
Y48429D01*
Y47429D01*
X29435D01*
X30435Y46429D01*
X38000Y3378D02*
Y9376D01*
X40999D01*
X41999Y8376D01*
Y6377D01*
X40999Y5377D01*
X38000D01*
X39999D02*
X41999Y3378D01*
X43998D02*
X45998D01*
X44998D01*
Y9376D01*
X43998Y8376D01*
X48996D02*
X49996Y9376D01*
X51996D01*
X52995Y8376D01*
Y4378D01*
X51996Y3378D01*
X49996D01*
X48996Y4378D01*
Y8376D01*
X302000Y27376D02*
Y21378D01*
X304999D01*
X305999Y22378D01*
Y26376D01*
X304999Y27376D01*
X302000D01*
X307998Y26376D02*
X308998Y27376D01*
X310997D01*
X311997Y26376D01*
Y25377D01*
X310997Y24377D01*
X309998D01*
X310997D01*
X311997Y23377D01*
Y22378D01*
X310997Y21378D01*
X308998D01*
X307998Y22378D01*
X434402Y90777D02*
X433402Y89777D01*
Y87778D01*
X434402Y86778D01*
X438400D01*
X439400Y87778D01*
Y89777D01*
X438400Y90777D01*
X439400Y96775D02*
Y92776D01*
X435401Y96775D01*
X434402D01*
X433402Y95775D01*
Y93776D01*
X434402Y92776D01*
X433402Y102773D02*
X434402Y100773D01*
X436401Y98774D01*
X438400D01*
X439400Y99774D01*
Y101773D01*
X438400Y102773D01*
X437401D01*
X436401Y101773D01*
Y98774D01*
X459999Y107376D02*
X458999Y108376D01*
X457000D01*
X456000Y107376D01*
Y103378D01*
X457000Y102378D01*
X458999D01*
X459999Y103378D01*
X465997Y102378D02*
X461998D01*
X465997Y106377D01*
Y107376D01*
X464997Y108376D01*
X462998D01*
X461998Y107376D01*
X471995Y108376D02*
X467996D01*
Y105377D01*
X469996Y106377D01*
X470995D01*
X471995Y105377D01*
Y103378D01*
X470995Y102378D01*
X468996D01*
X467996Y103378D01*
X410002Y81377D02*
X409002Y80377D01*
Y78378D01*
X410002Y77378D01*
X414000D01*
X415000Y78378D01*
Y80377D01*
X414000Y81377D01*
X415000Y87375D02*
Y83376D01*
X411001Y87375D01*
X410002D01*
X409002Y86375D01*
Y84376D01*
X410002Y83376D01*
X415000Y92373D02*
X409002D01*
X412001Y89374D01*
Y93373D01*
X478002Y83377D02*
X477002Y82377D01*
Y80378D01*
X478002Y79378D01*
X482000D01*
X483000Y80378D01*
Y82377D01*
X482000Y83377D01*
X483000Y89375D02*
Y85376D01*
X479001Y89375D01*
X478002D01*
X477002Y88375D01*
Y86376D01*
X478002Y85376D01*
Y91374D02*
X477002Y92374D01*
Y94373D01*
X478002Y95373D01*
X479001D01*
X480001Y94373D01*
Y93373D01*
Y94373D01*
X481001Y95373D01*
X482000D01*
X483000Y94373D01*
Y92374D01*
X482000Y91374D01*
X65999Y29376D02*
X64999Y30376D01*
X63000D01*
X62000Y29376D01*
Y25378D01*
X63000Y24378D01*
X64999D01*
X65999Y25378D01*
X67998Y24378D02*
X69998D01*
X68998D01*
Y30376D01*
X67998Y29376D01*
X72996Y30376D02*
X76995D01*
Y29376D01*
X72996Y25378D01*
Y24378D01*
X183999Y41376D02*
X182999Y42376D01*
X181000D01*
X180000Y41376D01*
Y37378D01*
X181000Y36378D01*
X182999D01*
X183999Y37378D01*
X185998Y36378D02*
X187997D01*
X186998D01*
Y42376D01*
X185998Y41376D01*
X190997Y36378D02*
X192996D01*
X191996D01*
Y42376D01*
X190997Y41376D01*
X103002Y54377D02*
X102002Y53377D01*
Y51378D01*
X103002Y50378D01*
X107000D01*
X108000Y51378D01*
Y53377D01*
X107000Y54377D01*
X108000Y56376D02*
Y58375D01*
Y57376D01*
X102002D01*
X103002Y56376D01*
Y61374D02*
X102002Y62374D01*
Y64373D01*
X103002Y65373D01*
X107000D01*
X108000Y64373D01*
Y62374D01*
X107000Y61374D01*
X103002D01*
X229002Y28377D02*
X228002Y27377D01*
Y25378D01*
X229002Y24378D01*
X233000D01*
X234000Y25378D01*
Y27377D01*
X233000Y28377D01*
X228002Y30376D02*
Y34375D01*
X229002D01*
X233000Y30376D01*
X234000D01*
X221002Y28377D02*
X220002Y27377D01*
Y25378D01*
X221002Y24378D01*
X225000D01*
X226000Y25378D01*
Y27377D01*
X225000Y28377D01*
X220002Y34375D02*
X221002Y32375D01*
X223001Y30376D01*
X225000D01*
X226000Y31376D01*
Y33375D01*
X225000Y34375D01*
X224001D01*
X223001Y33375D01*
Y30376D01*
X422999Y30376D02*
X421999Y31376D01*
X420000D01*
X419000Y30376D01*
Y26378D01*
X420000Y25378D01*
X421999D01*
X422999Y26378D01*
X424998Y25378D02*
Y31376D01*
X428997Y25378D01*
Y31376D01*
X434995Y25378D02*
X430996D01*
X434995Y29377D01*
Y30376D01*
X433995Y31376D01*
X431996D01*
X430996Y30376D01*
X85001D02*
X86001Y31376D01*
X88000D01*
X89000Y30376D01*
Y26378D01*
X88000Y25378D01*
X86001D01*
X85001Y26378D01*
X83002Y25378D02*
X81003D01*
X82002D01*
Y31376D01*
X83002Y30376D01*
X98000Y23376D02*
Y22376D01*
X99999Y20377D01*
X101999Y22376D01*
Y23376D01*
X99999Y20377D02*
Y17378D01*
X103998D02*
X105998D01*
X104998D01*
Y23376D01*
X103998Y22376D01*
X302109Y17762D02*
Y11764D01*
X305108D01*
X306107Y12764D01*
Y16762D01*
X305108Y17762D01*
X302109D01*
X312105Y11764D02*
X308107D01*
X312105Y15763D01*
Y16762D01*
X311106Y17762D01*
X309106D01*
X308107Y16762D01*
X510000Y86376D02*
Y80378D01*
X512999D01*
X513999Y81378D01*
Y82377D01*
X512999Y83377D01*
X510000D01*
X512999D01*
X513999Y84377D01*
Y85376D01*
X512999Y86376D01*
X510000D01*
X515998Y80378D02*
Y84377D01*
X517998Y86376D01*
X519997Y84377D01*
Y80378D01*
Y83377D01*
X515998D01*
X521996Y86376D02*
X525995D01*
X523996D01*
Y80378D01*
X527994D02*
X529994D01*
X528994D01*
Y86376D01*
X527994Y85376D01*
X471199Y63878D02*
Y59879D01*
X473199Y61879D02*
X469200D01*
D29*
X0Y0D02*
Y110236D01*
X594488D01*
Y0D02*
Y110236D01*
X0Y0D02*
X594488D01*
D43*
X23622Y98425D02*
G03*
X23622Y98425I-11811J0D01*
G01*
Y11811D02*
G03*
X23622Y11811I-11811J0D01*
G01*
X370079Y98425D02*
G03*
X370079Y98425I-11811J0D01*
G01*
X295276Y11811D02*
G03*
X295276Y11811I-11811J0D01*
G01*
X594488Y98425D02*
G03*
X594488Y98425I-11811J0D01*
G01*
Y11811D02*
G03*
X594488Y11811I-11811J0D01*
G01*
X2874Y79803D02*
X12874D01*
Y39803D02*
Y79803D01*
X2874Y39803D02*
Y79803D01*
Y39803D02*
X12874D01*
X217480Y76614D02*
Y106614D01*
X137480Y76614D02*
Y106614D01*
X217480D01*
X137480Y76614D02*
X217480D01*
X432957Y67587D02*
X440043D01*
X432957D02*
Y72606D01*
X440043Y67587D02*
Y72606D01*
Y76150D02*
Y81169D01*
X432957Y76150D02*
Y81169D01*
X440043D01*
X259991Y5035D02*
Y12121D01*
X246409Y5035D02*
Y12121D01*
X259991D01*
X246409Y5035D02*
X259991D01*
Y14635D02*
Y21721D01*
X246409Y14635D02*
Y21721D01*
X259991D01*
X246409Y14635D02*
X259991D01*
X59209Y14835D02*
Y21921D01*
X64228D01*
X59209Y14835D02*
X64228D01*
X67772D02*
X72791D01*
X67772Y21921D02*
X72791D01*
Y14835D02*
Y21921D01*
X157257Y69069D02*
X164343D01*
X157257Y55487D02*
X164343D01*
X157257D02*
Y69069D01*
X164343Y55487D02*
Y69069D01*
X149107Y68969D02*
X156193D01*
X149107Y55387D02*
X156193D01*
X149107D02*
Y68969D01*
X156193Y55387D02*
Y68969D01*
X140957D02*
X148043D01*
X140957Y55387D02*
X148043D01*
X140957D02*
Y68969D01*
X148043Y55387D02*
Y68969D01*
X417806Y89096D02*
Y100612D01*
X431093Y89096D02*
Y100612D01*
X417806D02*
X431093D01*
Y67344D02*
Y78761D01*
X417806Y67344D02*
Y78860D01*
Y67344D02*
X431093D01*
X442106D02*
X455393D01*
X442106D02*
Y78860D01*
X455393Y67344D02*
Y78761D01*
X442106Y100612D02*
X455393D01*
Y89096D02*
Y100612D01*
X442106Y89096D02*
Y100612D01*
X280857Y67187D02*
X287943D01*
X280857Y80769D02*
X287943D01*
Y67187D02*
Y80769D01*
X280857Y67187D02*
Y80769D01*
X320357Y67187D02*
X327443D01*
X320357Y80769D02*
X327443D01*
Y67187D02*
Y80769D01*
X320357Y67187D02*
Y80769D01*
X79209Y16135D02*
Y23221D01*
Y16135D02*
X84228D01*
X79209Y23221D02*
X84228D01*
X87772D02*
X92791D01*
X87772Y16135D02*
X92791D01*
Y23221D01*
X37161Y22241D02*
Y30115D01*
X57239Y22241D02*
Y30115D01*
X37161Y22241D02*
X57239D01*
X37161Y30115D02*
X57239D01*
X121181Y76614D02*
Y106614D01*
X31181Y76614D02*
Y106614D01*
X121181D01*
X31181Y76614D02*
X121181D01*
X28057Y31869D02*
X35143D01*
X28057Y18287D02*
X35143D01*
X28057D02*
Y31869D01*
X35143Y18287D02*
Y31869D01*
X27957Y3087D02*
X35043D01*
X27957Y16669D02*
X35043D01*
Y3087D02*
Y16669D01*
X27957Y3087D02*
Y16669D01*
X149016Y16339D02*
Y38780D01*
X126575Y16339D02*
Y38780D01*
X149016D01*
X126575Y16339D02*
X149016D01*
X163709Y35435D02*
Y42521D01*
X168728D01*
X163709Y35435D02*
X168728D01*
X172272D02*
X177291D01*
X172272Y42521D02*
X177291D01*
Y35435D02*
Y42521D01*
X110357Y43787D02*
X117443D01*
X110357D02*
Y48806D01*
X117443Y43787D02*
Y48806D01*
Y52350D02*
Y57369D01*
X110357Y52350D02*
Y57369D01*
X117443D01*
X174347Y62513D02*
Y66843D01*
X180253Y62513D02*
Y66843D01*
X202309Y64635D02*
Y71721D01*
X215891Y64635D02*
Y71721D01*
X202309Y64635D02*
X215891D01*
X202309Y71721D02*
X215891D01*
X241357Y67187D02*
X248443D01*
X241357Y80769D02*
X248443D01*
Y67187D02*
Y80769D01*
X241357Y67187D02*
Y80769D01*
X237847Y11213D02*
Y15543D01*
X243753Y11213D02*
Y15543D01*
X220057Y20069D02*
X227143D01*
Y15050D02*
Y20069D01*
X220057Y15050D02*
Y20069D01*
Y6487D02*
Y11506D01*
X227143Y6487D02*
Y11506D01*
X220057Y6487D02*
X227143D01*
X228657Y20169D02*
X235743D01*
Y15150D02*
Y20169D01*
X228657Y15150D02*
Y20169D01*
Y6587D02*
Y11606D01*
X235743Y6587D02*
Y11606D01*
X228657Y6587D02*
X235743D01*
X457357Y68087D02*
X464443D01*
X457357Y81669D02*
X464443D01*
Y68087D02*
Y81669D01*
X457357Y68087D02*
Y81669D01*
X468247Y70713D02*
Y75043D01*
X474153Y70713D02*
Y75043D01*
X476557Y63687D02*
X483643D01*
X476557D02*
Y68706D01*
X483643Y63687D02*
Y68706D01*
Y72250D02*
Y77269D01*
X476557Y72250D02*
Y77269D01*
X483643D01*
X428937Y41339D02*
X430906D01*
X498229D02*
X499803D01*
X440929D02*
X488386D01*
X428937Y53347D02*
X440158D01*
X428937Y35039D02*
Y53347D01*
X499803Y35039D02*
Y53347D01*
X488976D02*
X499803D01*
X428937Y35039D02*
X499803D01*
X424552Y64778D02*
Y60842D01*
X426520Y62810D02*
X422584D01*
X448896Y64687D02*
Y60751D01*
X450864Y62719D02*
X446928D01*
X493000Y59902D02*
X493450Y60127D01*
X494125Y60801D01*
Y56078D01*
X430343Y58323D02*
Y58548D01*
X430568Y58998D01*
X430793Y59223D01*
X431243Y59448D01*
X432143D01*
X432592Y59223D01*
X432817Y58998D01*
X433042Y58548D01*
Y58098D01*
X432817Y57648D01*
X432368Y56974D01*
X430118Y54724D01*
X433267D01*
X436574Y59448D02*
X434324Y56299D01*
X437698D01*
X436574Y59448D02*
Y54724D01*
D44*
X54877Y26965D02*
G03*
X54877Y26965I-787J0D01*
G01*
D45*
X58539Y35430D02*
G03*
X58539Y35430I-492J0D01*
G01*
X124803Y11713D02*
G03*
X124803Y11713I-492J0D01*
G01*
D46*
X131693Y20276D02*
G03*
X131693Y20276I-1181J0D01*
G01*
D47*
X562335Y25292D02*
G03*
X562335Y84932I-3280J29820D01*
G01*
X555775D02*
G03*
X529055Y55112I3280J-29820D01*
G01*
D02*
G03*
X555775Y25292I30000J0D01*
G01*
X544046Y67601D02*
G03*
X544036Y42634I15009J-12489D01*
G01*
X574055Y42612D02*
G03*
X574064Y67601I-15000J12500D01*
G01*
X530709Y25584D02*
X551181D01*
X530709D02*
Y37395D01*
X566929Y25584D02*
X587402D01*
Y37395D01*
X585138Y39659D02*
X587402Y37395D01*
X530709D02*
X533071Y39757D01*
D48*
X321172Y24606D02*
D03*
X321172Y14763D02*
D03*
M02*
