%FSLAX25Y25*%
%MOIN*%
G70*
G01*
G75*
G04 Layer_Color=65535*
%ADD10C,0.03937*%
%ADD11C,0.03937*%
%ADD12R,0.03937X0.04724*%
%ADD13R,0.07874X0.11024*%
%ADD14R,0.06693X0.03740*%
%ADD15R,0.03740X0.06693*%
%ADD16R,0.05906X0.05118*%
%ADD17R,0.09213X0.08600*%
%ADD18R,0.04724X0.03937*%
G04:AMPARAMS|DCode=19|XSize=98.43mil|YSize=236.22mil|CornerRadius=0mil|HoleSize=0mil|Usage=FLASHONLY|Rotation=0.000|XOffset=0mil|YOffset=0mil|HoleType=Round|Shape=Octagon|*
%AMOCTAGOND19*
4,1,8,-0.02461,0.11811,0.02461,0.11811,0.04921,0.09350,0.04921,-0.09350,0.02461,-0.11811,-0.02461,-0.11811,-0.04921,-0.09350,-0.04921,0.09350,-0.02461,0.11811,0.0*
%
%ADD19OCTAGOND19*%

%ADD20O,0.09843X0.23622*%
%ADD21R,0.07874X0.07874*%
%ADD22R,0.01181X0.05512*%
%ADD23C,0.00800*%
%ADD24C,0.03000*%
%ADD25C,0.04000*%
%ADD26C,0.01000*%
%ADD27C,0.03200*%
%ADD28C,0.01600*%
%ADD29C,0.02000*%
%ADD30C,0.01500*%
%ADD31C,0.00500*%
%ADD32C,0.01969*%
%ADD33C,0.05906*%
%ADD34R,0.05906X0.05906*%
%ADD35C,0.24410*%
%ADD36C,0.20472*%
%ADD37C,0.05000*%
%ADD38O,0.05000X0.04000*%
%ADD39C,0.06299*%
%ADD40C,0.06000*%
%ADD41C,0.04331*%
%ADD42R,0.05118X0.05118*%
%ADD43C,0.05118*%
%ADD44C,0.02400*%
%ADD45C,0.03600*%
%ADD46R,0.11024X0.07874*%
%ADD47O,0.07480X0.02362*%
%ADD48O,0.06102X0.00984*%
%ADD49O,0.00984X0.06102*%
%ADD50R,0.05512X0.03937*%
%ADD51C,0.00787*%
%ADD52C,0.00700*%
%ADD53R,0.01075X0.08000*%
G36*
X429501Y-58914D02*
X429638D01*
X429834Y-58933D01*
X430224Y-58992D01*
X430673Y-59089D01*
X431142Y-59226D01*
X431572Y-59422D01*
X431786Y-59558D01*
X431962Y-59695D01*
X431982D01*
X432001Y-59734D01*
X432119Y-59832D01*
X432255Y-60008D01*
X432431Y-60242D01*
X432607Y-60515D01*
X432763Y-60847D01*
X432861Y-61238D01*
X432880Y-61433D01*
X432900Y-61648D01*
Y-61668D01*
Y-61687D01*
Y-61804D01*
X432861Y-61980D01*
X432822Y-62214D01*
X432763Y-62488D01*
X432646Y-62781D01*
X432509Y-63093D01*
X432314Y-63425D01*
X432294Y-63464D01*
X432197Y-63562D01*
X432060Y-63718D01*
X431884Y-63914D01*
X431630Y-64148D01*
X431337Y-64363D01*
X430986Y-64597D01*
X430576Y-64812D01*
X430556D01*
X430517Y-64831D01*
X430458Y-64851D01*
X430380Y-64890D01*
X430263Y-64929D01*
X430146Y-64988D01*
X429834Y-65066D01*
X429462Y-65163D01*
X429052Y-65261D01*
X428584Y-65320D01*
X428095Y-65339D01*
X427939D01*
X427763Y-65320D01*
X427509Y-65300D01*
X427216Y-65261D01*
X426845Y-65222D01*
X426435Y-65144D01*
X425986Y-65046D01*
X424990Y-68484D01*
Y-68503D01*
X424970Y-68523D01*
X424951Y-68581D01*
X424931Y-68659D01*
X424892Y-68854D01*
X424834Y-69069D01*
X424756Y-69304D01*
X424717Y-69538D01*
X424678Y-69753D01*
X424658Y-69909D01*
Y-69929D01*
Y-69948D01*
X424697Y-70065D01*
X424756Y-70202D01*
X424814Y-70261D01*
X424892Y-70339D01*
X424912D01*
X424951Y-70358D01*
X425010Y-70397D01*
X425127Y-70437D01*
X425264Y-70476D01*
X425478Y-70495D01*
X425713Y-70534D01*
X426025Y-70554D01*
X425947Y-70866D01*
X421260D01*
X421357Y-70554D01*
X421514D01*
X421670Y-70534D01*
X421865Y-70515D01*
X422080Y-70476D01*
X422295Y-70417D01*
X422490Y-70339D01*
X422647Y-70241D01*
X422666Y-70222D01*
X422705Y-70163D01*
X422783Y-70065D01*
X422881Y-69890D01*
X422998Y-69655D01*
X423057Y-69519D01*
X423135Y-69343D01*
X423213Y-69147D01*
X423271Y-68933D01*
X423350Y-68698D01*
X423428Y-68444D01*
X425381Y-61628D01*
Y-61609D01*
X425400Y-61570D01*
X425420Y-61511D01*
X425439Y-61433D01*
X425498Y-61218D01*
X425556Y-60964D01*
X425615Y-60691D01*
X425674Y-60418D01*
X425713Y-60164D01*
X425732Y-59968D01*
Y-59949D01*
Y-59910D01*
X425693Y-59793D01*
X425635Y-59636D01*
X425556Y-59558D01*
X425478Y-59480D01*
X425459Y-59461D01*
X425420Y-59441D01*
X425361Y-59402D01*
X425264Y-59363D01*
X425107Y-59324D01*
X424912Y-59265D01*
X424678Y-59226D01*
X424385Y-59207D01*
X424482Y-58894D01*
X429365D01*
X429501Y-58914D01*
D02*
G37*
G36*
X486158Y-58699D02*
X486392Y-58738D01*
X486666Y-58816D01*
X486959Y-58914D01*
X487232Y-59070D01*
X487486Y-59285D01*
X487506Y-59304D01*
X487584Y-59402D01*
X487681Y-59539D01*
X487818Y-59715D01*
X487935Y-59949D01*
X488033Y-60222D01*
X488111Y-60515D01*
X488131Y-60867D01*
Y-60906D01*
Y-61004D01*
X488092Y-61160D01*
X488052Y-61355D01*
X487974Y-61609D01*
X487877Y-61863D01*
X487720Y-62136D01*
X487525Y-62429D01*
X487506Y-62468D01*
X487408Y-62546D01*
X487252Y-62703D01*
X487037Y-62878D01*
X486763Y-63074D01*
X486392Y-63308D01*
X485963Y-63523D01*
X485728Y-63640D01*
X485455Y-63757D01*
X485474D01*
X485494Y-63777D01*
X485611Y-63835D01*
X485767Y-63914D01*
X485982Y-64050D01*
X486197Y-64206D01*
X486432Y-64382D01*
X486646Y-64617D01*
X486842Y-64870D01*
X486861Y-64909D01*
X486920Y-64988D01*
X486998Y-65144D01*
X487076Y-65339D01*
X487154Y-65593D01*
X487232Y-65886D01*
X487291Y-66218D01*
X487310Y-66570D01*
Y-66589D01*
Y-66609D01*
Y-66687D01*
Y-66765D01*
X487271Y-66980D01*
X487232Y-67253D01*
X487154Y-67585D01*
X487037Y-67956D01*
X486881Y-68366D01*
X486666Y-68776D01*
Y-68796D01*
X486646Y-68815D01*
X486607Y-68874D01*
X486549Y-68952D01*
X486412Y-69167D01*
X486197Y-69401D01*
X485963Y-69694D01*
X485650Y-69968D01*
X485299Y-70241D01*
X484908Y-70495D01*
X484889D01*
X484869Y-70515D01*
X484791Y-70554D01*
X484713Y-70593D01*
X484615Y-70632D01*
X484498Y-70671D01*
X484205Y-70788D01*
X483853Y-70886D01*
X483463Y-70983D01*
X483033Y-71061D01*
X482584Y-71081D01*
X482408D01*
X482193Y-71061D01*
X481959Y-71042D01*
X481686Y-70983D01*
X481412Y-70925D01*
X481139Y-70827D01*
X480904Y-70710D01*
X480885Y-70690D01*
X480846Y-70651D01*
X480787Y-70612D01*
X480729Y-70534D01*
X480592Y-70339D01*
X480553Y-70222D01*
X480533Y-70085D01*
Y-70065D01*
Y-70026D01*
X480553Y-69968D01*
Y-69909D01*
X480631Y-69733D01*
X480670Y-69636D01*
X480748Y-69558D01*
X480768Y-69538D01*
X480787Y-69519D01*
X480904Y-69440D01*
X481080Y-69362D01*
X481178Y-69323D01*
X481451D01*
X481588Y-69362D01*
X481764Y-69401D01*
X481803Y-69421D01*
X481842D01*
X481901Y-69460D01*
X481998Y-69499D01*
X482115Y-69558D01*
X482252Y-69655D01*
X482447Y-69753D01*
X482467Y-69772D01*
X482545Y-69811D01*
X482643Y-69851D01*
X482760Y-69929D01*
X483053Y-70065D01*
X483189Y-70124D01*
X483307Y-70163D01*
X483326D01*
X483365Y-70183D01*
X483424Y-70202D01*
X483502D01*
X483717Y-70241D01*
X483951Y-70261D01*
X483990D01*
X484088Y-70241D01*
X484225Y-70202D01*
X484420Y-70144D01*
X484615Y-70026D01*
X484850Y-69870D01*
X485064Y-69636D01*
X485162Y-69499D01*
X485260Y-69343D01*
Y-69323D01*
X485279Y-69304D01*
X485338Y-69187D01*
X485435Y-68991D01*
X485533Y-68757D01*
X485611Y-68464D01*
X485709Y-68132D01*
X485767Y-67761D01*
X485787Y-67390D01*
Y-67370D01*
Y-67351D01*
Y-67253D01*
X485767Y-67077D01*
X485748Y-66882D01*
X485709Y-66648D01*
X485631Y-66374D01*
X485553Y-66120D01*
X485435Y-65867D01*
X485416Y-65827D01*
X485377Y-65749D01*
X485279Y-65632D01*
X485162Y-65476D01*
X485006Y-65320D01*
X484810Y-65124D01*
X484596Y-64949D01*
X484322Y-64792D01*
X484283Y-64773D01*
X484186Y-64734D01*
X484049Y-64656D01*
X483834Y-64578D01*
X483600Y-64499D01*
X483326Y-64421D01*
X483033Y-64363D01*
X482701Y-64324D01*
Y-64070D01*
X482721D01*
X482799Y-64050D01*
X482897Y-64031D01*
X483053Y-64011D01*
X483228Y-63972D01*
X483424Y-63914D01*
X483658Y-63855D01*
X483893Y-63796D01*
X484420Y-63621D01*
X484947Y-63406D01*
X485455Y-63132D01*
X485670Y-62976D01*
X485885Y-62800D01*
X485924Y-62761D01*
X486002Y-62683D01*
X486119Y-62546D01*
X486275Y-62351D01*
X486412Y-62117D01*
X486529Y-61843D01*
X486607Y-61550D01*
X486646Y-61218D01*
Y-61179D01*
Y-61101D01*
X486627Y-60964D01*
X486588Y-60808D01*
X486529Y-60632D01*
X486451Y-60437D01*
X486353Y-60242D01*
X486197Y-60066D01*
X486178Y-60046D01*
X486119Y-59988D01*
X486021Y-59910D01*
X485904Y-59832D01*
X485728Y-59754D01*
X485553Y-59676D01*
X485357Y-59617D01*
X485123Y-59597D01*
X485084D01*
X484967Y-59617D01*
X484771Y-59656D01*
X484537Y-59754D01*
X484264Y-59890D01*
X484127Y-59988D01*
X483971Y-60105D01*
X483834Y-60242D01*
X483678Y-60418D01*
X483522Y-60593D01*
X483385Y-60808D01*
X483053Y-60711D01*
Y-60691D01*
X483072Y-60672D01*
X483131Y-60554D01*
X483228Y-60359D01*
X483365Y-60144D01*
X483541Y-59910D01*
X483736Y-59656D01*
X483971Y-59402D01*
X484225Y-59187D01*
X484264Y-59168D01*
X484342Y-59109D01*
X484498Y-59011D01*
X484693Y-58914D01*
X484928Y-58836D01*
X485182Y-58738D01*
X485474Y-58679D01*
X485787Y-58660D01*
X485963D01*
X486158Y-58699D01*
D02*
G37*
G36*
X439277Y-82814D02*
X438896D01*
X442263Y-76402D01*
X442644D01*
X439277Y-82814D01*
D02*
G37*
G36*
X428853Y-76587D02*
X428951Y-76606D01*
X429087Y-76636D01*
X429234Y-76694D01*
X429400Y-76782D01*
X429478Y-76831D01*
X429556Y-76899D01*
X429634Y-76968D01*
X429712Y-77055D01*
Y-77065D01*
X429732Y-77075D01*
X429751Y-77104D01*
X429771Y-77143D01*
X429800Y-77192D01*
X429839Y-77260D01*
X429868Y-77329D01*
X429907Y-77416D01*
X429946Y-77514D01*
X429976Y-77622D01*
X430015Y-77748D01*
X430044Y-77885D01*
X430063Y-78031D01*
X430083Y-78188D01*
X430102Y-78363D01*
Y-78549D01*
Y-78558D01*
Y-78588D01*
Y-78636D01*
Y-78695D01*
X430093Y-78773D01*
X430083Y-78871D01*
Y-78978D01*
X430063Y-79095D01*
X430054Y-79222D01*
X430034Y-79369D01*
X429976Y-79661D01*
X429907Y-79983D01*
X429810Y-80325D01*
Y-80335D01*
X429800Y-80364D01*
X429780Y-80413D01*
X429761Y-80481D01*
X429732Y-80559D01*
X429693Y-80647D01*
X429653Y-80745D01*
X429605Y-80862D01*
X429488Y-81106D01*
X429351Y-81369D01*
X429185Y-81643D01*
X429000Y-81896D01*
Y-81906D01*
X428980Y-81916D01*
X428961Y-81945D01*
X428931Y-81984D01*
X428843Y-82072D01*
X428736Y-82189D01*
X428609Y-82316D01*
X428463Y-82443D01*
X428297Y-82560D01*
X428131Y-82658D01*
X428121Y-82667D01*
X428082Y-82677D01*
X428033Y-82697D01*
X427955Y-82716D01*
X427867Y-82745D01*
X427760Y-82765D01*
X427643Y-82775D01*
X427516Y-82784D01*
X427457D01*
X427418Y-82775D01*
X427321Y-82755D01*
X427184Y-82726D01*
X427038Y-82667D01*
X426872Y-82589D01*
X426716Y-82472D01*
X426638Y-82394D01*
X426559Y-82316D01*
Y-82306D01*
X426540Y-82297D01*
X426520Y-82267D01*
X426501Y-82228D01*
X426472Y-82179D01*
X426442Y-82111D01*
X426403Y-82043D01*
X426374Y-81955D01*
X426335Y-81857D01*
X426296Y-81750D01*
X426267Y-81623D01*
X426237Y-81486D01*
X426218Y-81340D01*
X426198Y-81184D01*
X426179Y-81008D01*
Y-80823D01*
Y-80813D01*
Y-80774D01*
Y-80725D01*
X426189Y-80647D01*
Y-80559D01*
X426198Y-80452D01*
X426208Y-80325D01*
X426228Y-80188D01*
X426247Y-80042D01*
X426276Y-79886D01*
X426335Y-79544D01*
X426433Y-79173D01*
X426559Y-78793D01*
X426569Y-78783D01*
X426579Y-78744D01*
X426608Y-78676D01*
X426647Y-78597D01*
X426686Y-78500D01*
X426745Y-78383D01*
X426803Y-78256D01*
X426882Y-78119D01*
X427047Y-77826D01*
X427243Y-77524D01*
X427467Y-77241D01*
X427594Y-77104D01*
X427721Y-76987D01*
X427731Y-76977D01*
X427740Y-76968D01*
X427770Y-76948D01*
X427799Y-76919D01*
X427897Y-76860D01*
X428023Y-76782D01*
X428180Y-76704D01*
X428355Y-76645D01*
X428551Y-76597D01*
X428756Y-76577D01*
X428814D01*
X428853Y-76587D01*
D02*
G37*
G36*
X450823Y-82814D02*
X450442D01*
X453809Y-76402D01*
X454190D01*
X450823Y-82814D01*
D02*
G37*
G36*
X459226Y-58679D02*
X459421Y-58719D01*
X459695Y-58777D01*
X459988Y-58894D01*
X460320Y-59070D01*
X460476Y-59168D01*
X460632Y-59304D01*
X460789Y-59441D01*
X460945Y-59617D01*
Y-59636D01*
X460984Y-59656D01*
X461023Y-59715D01*
X461062Y-59793D01*
X461121Y-59890D01*
X461199Y-60027D01*
X461257Y-60164D01*
X461335Y-60339D01*
X461413Y-60535D01*
X461472Y-60750D01*
X461550Y-61004D01*
X461609Y-61277D01*
X461648Y-61570D01*
X461687Y-61882D01*
X461726Y-62234D01*
Y-62605D01*
Y-62625D01*
Y-62683D01*
Y-62781D01*
Y-62898D01*
X461706Y-63054D01*
X461687Y-63249D01*
Y-63464D01*
X461648Y-63699D01*
X461628Y-63952D01*
X461589Y-64245D01*
X461472Y-64831D01*
X461335Y-65476D01*
X461140Y-66159D01*
Y-66179D01*
X461121Y-66237D01*
X461082Y-66335D01*
X461042Y-66472D01*
X460984Y-66628D01*
X460906Y-66804D01*
X460828Y-66999D01*
X460730Y-67234D01*
X460496Y-67722D01*
X460222Y-68249D01*
X459890Y-68796D01*
X459519Y-69304D01*
Y-69323D01*
X459480Y-69343D01*
X459441Y-69401D01*
X459382Y-69480D01*
X459207Y-69655D01*
X458992Y-69890D01*
X458738Y-70144D01*
X458445Y-70397D01*
X458113Y-70632D01*
X457781Y-70827D01*
X457761Y-70847D01*
X457683Y-70866D01*
X457586Y-70905D01*
X457429Y-70944D01*
X457254Y-71003D01*
X457039Y-71042D01*
X456804Y-71061D01*
X456551Y-71081D01*
X456433D01*
X456355Y-71061D01*
X456160Y-71022D01*
X455887Y-70964D01*
X455594Y-70847D01*
X455262Y-70690D01*
X454949Y-70456D01*
X454793Y-70300D01*
X454637Y-70144D01*
Y-70124D01*
X454598Y-70104D01*
X454559Y-70046D01*
X454519Y-69968D01*
X454461Y-69870D01*
X454402Y-69733D01*
X454324Y-69597D01*
X454265Y-69421D01*
X454187Y-69226D01*
X454109Y-69011D01*
X454051Y-68757D01*
X453992Y-68484D01*
X453953Y-68190D01*
X453914Y-67878D01*
X453875Y-67527D01*
Y-67155D01*
Y-67136D01*
Y-67058D01*
Y-66960D01*
X453895Y-66804D01*
Y-66628D01*
X453914Y-66413D01*
X453933Y-66159D01*
X453973Y-65886D01*
X454012Y-65593D01*
X454070Y-65281D01*
X454187Y-64597D01*
X454383Y-63855D01*
X454637Y-63093D01*
X454656Y-63074D01*
X454676Y-62996D01*
X454734Y-62859D01*
X454812Y-62703D01*
X454890Y-62507D01*
X455008Y-62273D01*
X455125Y-62019D01*
X455281Y-61746D01*
X455613Y-61160D01*
X456004Y-60554D01*
X456453Y-59988D01*
X456707Y-59715D01*
X456961Y-59480D01*
X456980Y-59461D01*
X457000Y-59441D01*
X457058Y-59402D01*
X457117Y-59343D01*
X457312Y-59226D01*
X457566Y-59070D01*
X457879Y-58914D01*
X458230Y-58797D01*
X458621Y-58699D01*
X459031Y-58660D01*
X459148D01*
X459226Y-58679D01*
D02*
G37*
G36*
X450184D02*
X450379Y-58719D01*
X450653Y-58777D01*
X450945Y-58894D01*
X451277Y-59070D01*
X451434Y-59168D01*
X451590Y-59304D01*
X451746Y-59441D01*
X451902Y-59617D01*
Y-59636D01*
X451941Y-59656D01*
X451980Y-59715D01*
X452020Y-59793D01*
X452078Y-59890D01*
X452156Y-60027D01*
X452215Y-60164D01*
X452293Y-60339D01*
X452371Y-60535D01*
X452430Y-60750D01*
X452508Y-61004D01*
X452566Y-61277D01*
X452605Y-61570D01*
X452644Y-61882D01*
X452684Y-62234D01*
Y-62605D01*
Y-62625D01*
Y-62683D01*
Y-62781D01*
Y-62898D01*
X452664Y-63054D01*
X452644Y-63249D01*
Y-63464D01*
X452605Y-63699D01*
X452586Y-63952D01*
X452547Y-64245D01*
X452430Y-64831D01*
X452293Y-65476D01*
X452098Y-66159D01*
Y-66179D01*
X452078Y-66237D01*
X452039Y-66335D01*
X452000Y-66472D01*
X451941Y-66628D01*
X451863Y-66804D01*
X451785Y-66999D01*
X451688Y-67234D01*
X451453Y-67722D01*
X451180Y-68249D01*
X450848Y-68796D01*
X450477Y-69304D01*
Y-69323D01*
X450438Y-69343D01*
X450399Y-69401D01*
X450340Y-69480D01*
X450164Y-69655D01*
X449949Y-69890D01*
X449695Y-70144D01*
X449403Y-70397D01*
X449071Y-70632D01*
X448739Y-70827D01*
X448719Y-70847D01*
X448641Y-70866D01*
X448543Y-70905D01*
X448387Y-70944D01*
X448211Y-71003D01*
X447996Y-71042D01*
X447762Y-71061D01*
X447508Y-71081D01*
X447391D01*
X447313Y-71061D01*
X447118Y-71022D01*
X446844Y-70964D01*
X446551Y-70847D01*
X446219Y-70690D01*
X445907Y-70456D01*
X445751Y-70300D01*
X445594Y-70144D01*
Y-70124D01*
X445555Y-70104D01*
X445516Y-70046D01*
X445477Y-69968D01*
X445419Y-69870D01*
X445360Y-69733D01*
X445282Y-69597D01*
X445223Y-69421D01*
X445145Y-69226D01*
X445067Y-69011D01*
X445008Y-68757D01*
X444950Y-68484D01*
X444911Y-68190D01*
X444872Y-67878D01*
X444833Y-67527D01*
Y-67155D01*
Y-67136D01*
Y-67058D01*
Y-66960D01*
X444852Y-66804D01*
Y-66628D01*
X444872Y-66413D01*
X444891Y-66159D01*
X444930Y-65886D01*
X444969Y-65593D01*
X445028Y-65281D01*
X445145Y-64597D01*
X445340Y-63855D01*
X445594Y-63093D01*
X445614Y-63074D01*
X445633Y-62996D01*
X445692Y-62859D01*
X445770Y-62703D01*
X445848Y-62507D01*
X445965Y-62273D01*
X446082Y-62019D01*
X446239Y-61746D01*
X446571Y-61160D01*
X446961Y-60554D01*
X447410Y-59988D01*
X447664Y-59715D01*
X447918Y-59480D01*
X447938Y-59461D01*
X447957Y-59441D01*
X448016Y-59402D01*
X448074Y-59343D01*
X448270Y-59226D01*
X448524Y-59070D01*
X448836Y-58914D01*
X449188Y-58797D01*
X449578Y-58699D01*
X449989Y-58660D01*
X450106D01*
X450184Y-58679D01*
D02*
G37*
G36*
X468268D02*
X468464Y-58719D01*
X468737Y-58777D01*
X469030Y-58894D01*
X469362Y-59070D01*
X469519Y-59168D01*
X469675Y-59304D01*
X469831Y-59441D01*
X469987Y-59617D01*
Y-59636D01*
X470026Y-59656D01*
X470065Y-59715D01*
X470104Y-59793D01*
X470163Y-59890D01*
X470241Y-60027D01*
X470300Y-60164D01*
X470378Y-60339D01*
X470456Y-60535D01*
X470514Y-60750D01*
X470593Y-61004D01*
X470651Y-61277D01*
X470690Y-61570D01*
X470729Y-61882D01*
X470768Y-62234D01*
Y-62605D01*
Y-62625D01*
Y-62683D01*
Y-62781D01*
Y-62898D01*
X470749Y-63054D01*
X470729Y-63249D01*
Y-63464D01*
X470690Y-63699D01*
X470671Y-63952D01*
X470632Y-64245D01*
X470514Y-64831D01*
X470378Y-65476D01*
X470183Y-66159D01*
Y-66179D01*
X470163Y-66237D01*
X470124Y-66335D01*
X470085Y-66472D01*
X470026Y-66628D01*
X469948Y-66804D01*
X469870Y-66999D01*
X469772Y-67234D01*
X469538Y-67722D01*
X469265Y-68249D01*
X468933Y-68796D01*
X468562Y-69304D01*
Y-69323D01*
X468522Y-69343D01*
X468483Y-69401D01*
X468425Y-69480D01*
X468249Y-69655D01*
X468034Y-69890D01*
X467780Y-70144D01*
X467487Y-70397D01*
X467155Y-70632D01*
X466823Y-70827D01*
X466804Y-70847D01*
X466726Y-70866D01*
X466628Y-70905D01*
X466472Y-70944D01*
X466296Y-71003D01*
X466081Y-71042D01*
X465847Y-71061D01*
X465593Y-71081D01*
X465476D01*
X465398Y-71061D01*
X465202Y-71022D01*
X464929Y-70964D01*
X464636Y-70847D01*
X464304Y-70690D01*
X463991Y-70456D01*
X463835Y-70300D01*
X463679Y-70144D01*
Y-70124D01*
X463640Y-70104D01*
X463601Y-70046D01*
X463562Y-69968D01*
X463503Y-69870D01*
X463445Y-69733D01*
X463367Y-69597D01*
X463308Y-69421D01*
X463230Y-69226D01*
X463152Y-69011D01*
X463093Y-68757D01*
X463034Y-68484D01*
X462995Y-68190D01*
X462956Y-67878D01*
X462917Y-67527D01*
Y-67155D01*
Y-67136D01*
Y-67058D01*
Y-66960D01*
X462937Y-66804D01*
Y-66628D01*
X462956Y-66413D01*
X462976Y-66159D01*
X463015Y-65886D01*
X463054Y-65593D01*
X463113Y-65281D01*
X463230Y-64597D01*
X463425Y-63855D01*
X463679Y-63093D01*
X463698Y-63074D01*
X463718Y-62996D01*
X463777Y-62859D01*
X463855Y-62703D01*
X463933Y-62507D01*
X464050Y-62273D01*
X464167Y-62019D01*
X464324Y-61746D01*
X464655Y-61160D01*
X465046Y-60554D01*
X465495Y-59988D01*
X465749Y-59715D01*
X466003Y-59480D01*
X466023Y-59461D01*
X466042Y-59441D01*
X466101Y-59402D01*
X466159Y-59343D01*
X466355Y-59226D01*
X466608Y-59070D01*
X466921Y-58914D01*
X467273Y-58797D01*
X467663Y-58699D01*
X468073Y-58660D01*
X468190D01*
X468268Y-58679D01*
D02*
G37*
G36*
X440145Y-58914D02*
X440399Y-58933D01*
X440692Y-58972D01*
X441024Y-59051D01*
X441337Y-59129D01*
X441669Y-59246D01*
X441688D01*
X441708Y-59265D01*
X441805Y-59304D01*
X441962Y-59382D01*
X442157Y-59480D01*
X442352Y-59617D01*
X442567Y-59773D01*
X442782Y-59968D01*
X442958Y-60183D01*
X442977Y-60203D01*
X443016Y-60281D01*
X443094Y-60398D01*
X443173Y-60554D01*
X443251Y-60750D01*
X443329Y-60964D01*
X443368Y-61199D01*
X443387Y-61453D01*
Y-61472D01*
Y-61492D01*
Y-61550D01*
X443368Y-61628D01*
X443348Y-61824D01*
X443290Y-62078D01*
X443192Y-62371D01*
X443055Y-62683D01*
X442860Y-62996D01*
X442587Y-63328D01*
X442548Y-63367D01*
X442509Y-63406D01*
X442430Y-63464D01*
X442352Y-63523D01*
X442255Y-63601D01*
X442118Y-63699D01*
X441981Y-63777D01*
X441805Y-63874D01*
X441610Y-63992D01*
X441415Y-64089D01*
X441180Y-64187D01*
X440927Y-64284D01*
X440653Y-64382D01*
X440341Y-64460D01*
X440028Y-64538D01*
X440048D01*
X440087Y-64558D01*
X440145Y-64578D01*
X440224Y-64617D01*
X440419Y-64695D01*
X440692Y-64831D01*
X440966Y-64988D01*
X441239Y-65163D01*
X441512Y-65398D01*
X441747Y-65632D01*
X441766Y-65671D01*
X441845Y-65749D01*
X441923Y-65886D01*
X442040Y-66062D01*
X442137Y-66277D01*
X442235Y-66531D01*
X442294Y-66804D01*
X442313Y-67097D01*
Y-67136D01*
Y-67253D01*
X442294Y-67429D01*
X442255Y-67644D01*
X442196Y-67917D01*
X442118Y-68190D01*
X442001Y-68503D01*
X441845Y-68815D01*
X441825Y-68854D01*
X441766Y-68952D01*
X441669Y-69089D01*
X441532Y-69265D01*
X441356Y-69480D01*
X441161Y-69675D01*
X440927Y-69890D01*
X440673Y-70065D01*
X440634Y-70085D01*
X440536Y-70144D01*
X440399Y-70222D01*
X440184Y-70319D01*
X439930Y-70417D01*
X439638Y-70534D01*
X439306Y-70632D01*
X438935Y-70729D01*
X438895D01*
X438798Y-70749D01*
X438622Y-70768D01*
X438388Y-70788D01*
X438075Y-70827D01*
X437685Y-70847D01*
X437216Y-70866D01*
X432314D01*
X432431Y-70554D01*
X432646D01*
X432802Y-70534D01*
X433095Y-70495D01*
X433232Y-70476D01*
X433349Y-70437D01*
X433368D01*
X433407Y-70417D01*
X433466Y-70378D01*
X433544Y-70319D01*
X433720Y-70202D01*
X433857Y-70026D01*
X433876Y-70007D01*
X433896Y-69948D01*
X433935Y-69851D01*
X434013Y-69714D01*
X434091Y-69499D01*
X434189Y-69226D01*
X434306Y-68894D01*
X434365Y-68698D01*
X434423Y-68484D01*
X436493Y-61218D01*
Y-61199D01*
X436513Y-61179D01*
X436532Y-61062D01*
X436571Y-60906D01*
X436630Y-60711D01*
X436728Y-60281D01*
X436747Y-60086D01*
X436767Y-59929D01*
Y-59910D01*
Y-59871D01*
X436747Y-59812D01*
X436728Y-59734D01*
X436669Y-59578D01*
X436591Y-59500D01*
X436513Y-59422D01*
X436493D01*
X436474Y-59382D01*
X436396Y-59363D01*
X436317Y-59324D01*
X436181Y-59285D01*
X436025Y-59265D01*
X435829Y-59226D01*
X435419D01*
X435321Y-59207D01*
X435439Y-58894D01*
X439930D01*
X440145Y-58914D01*
D02*
G37*
G36*
X477311Y-58679D02*
X477506Y-58719D01*
X477780Y-58777D01*
X478073Y-58894D01*
X478405Y-59070D01*
X478561Y-59168D01*
X478717Y-59304D01*
X478873Y-59441D01*
X479030Y-59617D01*
Y-59636D01*
X479069Y-59656D01*
X479108Y-59715D01*
X479147Y-59793D01*
X479205Y-59890D01*
X479284Y-60027D01*
X479342Y-60164D01*
X479420Y-60339D01*
X479498Y-60535D01*
X479557Y-60750D01*
X479635Y-61004D01*
X479694Y-61277D01*
X479733Y-61570D01*
X479772Y-61882D01*
X479811Y-62234D01*
Y-62605D01*
Y-62625D01*
Y-62683D01*
Y-62781D01*
Y-62898D01*
X479791Y-63054D01*
X479772Y-63249D01*
Y-63464D01*
X479733Y-63699D01*
X479713Y-63952D01*
X479674Y-64245D01*
X479557Y-64831D01*
X479420Y-65476D01*
X479225Y-66159D01*
Y-66179D01*
X479205Y-66237D01*
X479166Y-66335D01*
X479127Y-66472D01*
X479069Y-66628D01*
X478991Y-66804D01*
X478912Y-66999D01*
X478815Y-67234D01*
X478580Y-67722D01*
X478307Y-68249D01*
X477975Y-68796D01*
X477604Y-69304D01*
Y-69323D01*
X477565Y-69343D01*
X477526Y-69401D01*
X477467Y-69480D01*
X477291Y-69655D01*
X477077Y-69890D01*
X476823Y-70144D01*
X476530Y-70397D01*
X476198Y-70632D01*
X475866Y-70827D01*
X475846Y-70847D01*
X475768Y-70866D01*
X475670Y-70905D01*
X475514Y-70944D01*
X475338Y-71003D01*
X475124Y-71042D01*
X474889Y-71061D01*
X474635Y-71081D01*
X474518D01*
X474440Y-71061D01*
X474245Y-71022D01*
X473971Y-70964D01*
X473678Y-70847D01*
X473346Y-70690D01*
X473034Y-70456D01*
X472878Y-70300D01*
X472721Y-70144D01*
Y-70124D01*
X472682Y-70104D01*
X472643Y-70046D01*
X472604Y-69968D01*
X472546Y-69870D01*
X472487Y-69733D01*
X472409Y-69597D01*
X472350Y-69421D01*
X472272Y-69226D01*
X472194Y-69011D01*
X472135Y-68757D01*
X472077Y-68484D01*
X472038Y-68190D01*
X471999Y-67878D01*
X471960Y-67527D01*
Y-67155D01*
Y-67136D01*
Y-67058D01*
Y-66960D01*
X471979Y-66804D01*
Y-66628D01*
X471999Y-66413D01*
X472018Y-66159D01*
X472057Y-65886D01*
X472096Y-65593D01*
X472155Y-65281D01*
X472272Y-64597D01*
X472468Y-63855D01*
X472721Y-63093D01*
X472741Y-63074D01*
X472760Y-62996D01*
X472819Y-62859D01*
X472897Y-62703D01*
X472975Y-62507D01*
X473093Y-62273D01*
X473210Y-62019D01*
X473366Y-61746D01*
X473698Y-61160D01*
X474088Y-60554D01*
X474538Y-59988D01*
X474792Y-59715D01*
X475045Y-59480D01*
X475065Y-59461D01*
X475084Y-59441D01*
X475143Y-59402D01*
X475202Y-59343D01*
X475397Y-59226D01*
X475651Y-59070D01*
X475963Y-58914D01*
X476315Y-58797D01*
X476706Y-58699D01*
X477116Y-58660D01*
X477233D01*
X477311Y-58679D01*
D02*
G37*
G36*
X444918Y-76587D02*
X445016Y-76606D01*
X445152Y-76636D01*
X445299Y-76694D01*
X445465Y-76782D01*
X445543Y-76831D01*
X445621Y-76899D01*
X445699Y-76968D01*
X445777Y-77055D01*
Y-77065D01*
X445796Y-77075D01*
X445816Y-77104D01*
X445835Y-77143D01*
X445865Y-77192D01*
X445904Y-77260D01*
X445933Y-77329D01*
X445972Y-77416D01*
X446011Y-77514D01*
X446040Y-77622D01*
X446079Y-77748D01*
X446109Y-77885D01*
X446128Y-78031D01*
X446148Y-78188D01*
X446167Y-78363D01*
Y-78549D01*
Y-78558D01*
Y-78588D01*
Y-78636D01*
Y-78695D01*
X446158Y-78773D01*
X446148Y-78871D01*
Y-78978D01*
X446128Y-79095D01*
X446119Y-79222D01*
X446099Y-79369D01*
X446040Y-79661D01*
X445972Y-79983D01*
X445875Y-80325D01*
Y-80335D01*
X445865Y-80364D01*
X445845Y-80413D01*
X445826Y-80481D01*
X445796Y-80559D01*
X445757Y-80647D01*
X445718Y-80745D01*
X445670Y-80862D01*
X445552Y-81106D01*
X445416Y-81369D01*
X445250Y-81643D01*
X445064Y-81896D01*
Y-81906D01*
X445045Y-81916D01*
X445025Y-81945D01*
X444996Y-81984D01*
X444908Y-82072D01*
X444801Y-82189D01*
X444674Y-82316D01*
X444528Y-82443D01*
X444362Y-82560D01*
X444196Y-82658D01*
X444186Y-82667D01*
X444147Y-82677D01*
X444098Y-82697D01*
X444020Y-82716D01*
X443932Y-82745D01*
X443825Y-82765D01*
X443708Y-82775D01*
X443581Y-82784D01*
X443522D01*
X443483Y-82775D01*
X443386Y-82755D01*
X443249Y-82726D01*
X443103Y-82667D01*
X442937Y-82589D01*
X442781Y-82472D01*
X442703Y-82394D01*
X442625Y-82316D01*
Y-82306D01*
X442605Y-82297D01*
X442585Y-82267D01*
X442566Y-82228D01*
X442537Y-82179D01*
X442507Y-82111D01*
X442468Y-82043D01*
X442439Y-81955D01*
X442400Y-81857D01*
X442361Y-81750D01*
X442332Y-81623D01*
X442302Y-81486D01*
X442283Y-81340D01*
X442263Y-81184D01*
X442244Y-81008D01*
Y-80823D01*
Y-80813D01*
Y-80774D01*
Y-80725D01*
X442254Y-80647D01*
Y-80559D01*
X442263Y-80452D01*
X442273Y-80325D01*
X442293Y-80188D01*
X442312Y-80042D01*
X442341Y-79886D01*
X442400Y-79544D01*
X442498Y-79173D01*
X442625Y-78793D01*
X442634Y-78783D01*
X442644Y-78744D01*
X442673Y-78676D01*
X442712Y-78597D01*
X442751Y-78500D01*
X442810Y-78383D01*
X442869Y-78256D01*
X442947Y-78119D01*
X443113Y-77826D01*
X443308Y-77524D01*
X443532Y-77241D01*
X443659Y-77104D01*
X443786Y-76987D01*
X443796Y-76977D01*
X443805Y-76968D01*
X443835Y-76948D01*
X443864Y-76919D01*
X443962Y-76860D01*
X444089Y-76782D01*
X444245Y-76704D01*
X444420Y-76645D01*
X444616Y-76597D01*
X444820Y-76577D01*
X444879D01*
X444918Y-76587D01*
D02*
G37*
G36*
X438799Y-77426D02*
X436993D01*
X436671Y-78158D01*
X436681D01*
X436700Y-78168D01*
X436739D01*
X436788Y-78178D01*
X436847Y-78197D01*
X436915Y-78217D01*
X437081Y-78256D01*
X437256Y-78314D01*
X437442Y-78392D01*
X437618Y-78490D01*
X437783Y-78607D01*
X437793Y-78617D01*
X437813Y-78627D01*
X437842Y-78656D01*
X437881Y-78705D01*
X437930Y-78754D01*
X437979Y-78822D01*
X438037Y-78890D01*
X438096Y-78978D01*
X438154Y-79076D01*
X438213Y-79183D01*
X438262Y-79310D01*
X438311Y-79437D01*
X438350Y-79574D01*
X438379Y-79720D01*
X438398Y-79886D01*
X438408Y-80052D01*
Y-80062D01*
Y-80081D01*
Y-80110D01*
Y-80159D01*
X438398Y-80208D01*
Y-80276D01*
X438379Y-80423D01*
X438350Y-80589D01*
X438311Y-80784D01*
X438252Y-80969D01*
X438174Y-81164D01*
Y-81174D01*
X438164Y-81184D01*
X438135Y-81242D01*
X438086Y-81340D01*
X438018Y-81457D01*
X437940Y-81584D01*
X437842Y-81721D01*
X437735Y-81867D01*
X437618Y-81994D01*
X437598Y-82004D01*
X437559Y-82052D01*
X437491Y-82111D01*
X437403Y-82179D01*
X437305Y-82267D01*
X437178Y-82355D01*
X437051Y-82443D01*
X436915Y-82521D01*
X436905D01*
X436895Y-82531D01*
X436866Y-82541D01*
X436827Y-82560D01*
X436720Y-82609D01*
X436593Y-82648D01*
X436437Y-82697D01*
X436261Y-82745D01*
X436075Y-82775D01*
X435880Y-82784D01*
X435802D01*
X435724Y-82775D01*
X435627Y-82755D01*
X435509Y-82736D01*
X435392Y-82706D01*
X435285Y-82658D01*
X435178Y-82589D01*
X435168Y-82580D01*
X435148Y-82570D01*
X435119Y-82541D01*
X435090Y-82502D01*
X435031Y-82394D01*
X435012Y-82326D01*
X435002Y-82257D01*
Y-82248D01*
Y-82228D01*
X435012Y-82199D01*
Y-82170D01*
X435051Y-82082D01*
X435070Y-82033D01*
X435109Y-81994D01*
X435119Y-81984D01*
X435129Y-81975D01*
X435187Y-81935D01*
X435275Y-81896D01*
X435334Y-81877D01*
X435431D01*
X435480Y-81887D01*
X435548Y-81906D01*
X435627Y-81935D01*
X435714Y-81975D01*
X435812Y-82033D01*
X435919Y-82111D01*
X435929Y-82121D01*
X435949Y-82131D01*
X435978Y-82160D01*
X436027Y-82189D01*
X436115Y-82248D01*
X436163Y-82277D01*
X436212Y-82297D01*
X436232Y-82306D01*
X436271Y-82316D01*
X436339Y-82326D01*
X436427Y-82336D01*
X436476D01*
X436515Y-82326D01*
X436603Y-82306D01*
X436729Y-82277D01*
X436866Y-82218D01*
X437022Y-82131D01*
X437100Y-82072D01*
X437188Y-82004D01*
X437266Y-81935D01*
X437344Y-81848D01*
X437354Y-81838D01*
X437364Y-81828D01*
X437383Y-81799D01*
X437413Y-81760D01*
X437442Y-81711D01*
X437481Y-81652D01*
X437520Y-81574D01*
X437559Y-81496D01*
X437637Y-81311D01*
X437705Y-81086D01*
X437754Y-80832D01*
X437774Y-80696D01*
Y-80550D01*
Y-80540D01*
Y-80520D01*
Y-80501D01*
Y-80462D01*
X437764Y-80354D01*
X437745Y-80227D01*
X437715Y-80081D01*
X437676Y-79925D01*
X437627Y-79769D01*
X437549Y-79612D01*
X437539Y-79593D01*
X437510Y-79544D01*
X437461Y-79476D01*
X437393Y-79398D01*
X437315Y-79310D01*
X437208Y-79212D01*
X437100Y-79134D01*
X436973Y-79066D01*
X436954Y-79056D01*
X436915Y-79037D01*
X436837Y-79017D01*
X436729Y-78978D01*
X436603Y-78939D01*
X436446Y-78910D01*
X436261Y-78871D01*
X436056Y-78842D01*
X437012Y-76694D01*
X439004D01*
X438799Y-77426D01*
D02*
G37*
G36*
X432503Y-81525D02*
X432494Y-81545D01*
X432484Y-81594D01*
X432464Y-81672D01*
X432445Y-81770D01*
X432396Y-81975D01*
X432386Y-82072D01*
X432376Y-82160D01*
Y-82170D01*
Y-82189D01*
X432386Y-82218D01*
Y-82257D01*
X432425Y-82336D01*
X432445Y-82375D01*
X432484Y-82414D01*
X432494D01*
X432513Y-82423D01*
X432542Y-82443D01*
X432591Y-82453D01*
X432659Y-82472D01*
X432757Y-82492D01*
X432874Y-82511D01*
X433011Y-82521D01*
X432972Y-82677D01*
X430708D01*
X430766Y-82521D01*
X430893D01*
X430961Y-82511D01*
X431049D01*
X431127Y-82502D01*
X431195Y-82492D01*
X431244Y-82472D01*
X431254D01*
X431274Y-82453D01*
X431313Y-82433D01*
X431352Y-82414D01*
X431439Y-82345D01*
X431527Y-82257D01*
X431537Y-82248D01*
X431557Y-82218D01*
X431586Y-82160D01*
X431615Y-82092D01*
X431664Y-81984D01*
X431713Y-81857D01*
X431762Y-81711D01*
X431820Y-81525D01*
X432845Y-77963D01*
Y-77953D01*
X432855Y-77914D01*
X432874Y-77865D01*
X432894Y-77797D01*
X432903Y-77739D01*
X432923Y-77680D01*
X432933Y-77631D01*
X432943Y-77602D01*
Y-77582D01*
X432952Y-77543D01*
Y-77495D01*
Y-77426D01*
Y-77416D01*
Y-77397D01*
X432943Y-77338D01*
X432913Y-77260D01*
X432865Y-77182D01*
X432855Y-77172D01*
X432806Y-77134D01*
X432738Y-77104D01*
X432640Y-77094D01*
X432591D01*
X432552Y-77104D01*
X432503D01*
X432435Y-77114D01*
X432367Y-77124D01*
X432279Y-77143D01*
X432230Y-76987D01*
X433704Y-76577D01*
X433919D01*
X432503Y-81525D01*
D02*
G37*
G36*
X460114D02*
X460105Y-81545D01*
X460095Y-81594D01*
X460075Y-81672D01*
X460056Y-81770D01*
X460007Y-81975D01*
X459997Y-82072D01*
X459987Y-82160D01*
Y-82170D01*
Y-82189D01*
X459997Y-82218D01*
Y-82257D01*
X460036Y-82336D01*
X460056Y-82375D01*
X460095Y-82414D01*
X460105D01*
X460124Y-82423D01*
X460153Y-82443D01*
X460202Y-82453D01*
X460271Y-82472D01*
X460368Y-82492D01*
X460485Y-82511D01*
X460622Y-82521D01*
X460583Y-82677D01*
X458319D01*
X458377Y-82521D01*
X458504D01*
X458572Y-82511D01*
X458660D01*
X458738Y-82502D01*
X458807Y-82492D01*
X458855Y-82472D01*
X458865D01*
X458885Y-82453D01*
X458924Y-82433D01*
X458963Y-82414D01*
X459051Y-82345D01*
X459138Y-82257D01*
X459148Y-82248D01*
X459168Y-82218D01*
X459197Y-82160D01*
X459226Y-82092D01*
X459275Y-81984D01*
X459324Y-81857D01*
X459373Y-81711D01*
X459431Y-81525D01*
X460456Y-77963D01*
Y-77953D01*
X460466Y-77914D01*
X460485Y-77865D01*
X460505Y-77797D01*
X460515Y-77739D01*
X460534Y-77680D01*
X460544Y-77631D01*
X460554Y-77602D01*
Y-77582D01*
X460563Y-77543D01*
Y-77495D01*
Y-77426D01*
Y-77416D01*
Y-77397D01*
X460554Y-77338D01*
X460524Y-77260D01*
X460475Y-77182D01*
X460466Y-77172D01*
X460417Y-77134D01*
X460349Y-77104D01*
X460251Y-77094D01*
X460202D01*
X460163Y-77104D01*
X460114D01*
X460046Y-77114D01*
X459978Y-77124D01*
X459890Y-77143D01*
X459841Y-76987D01*
X461315Y-76577D01*
X461530D01*
X460114Y-81525D01*
D02*
G37*
G36*
X456464Y-76587D02*
X456562Y-76606D01*
X456698Y-76636D01*
X456845Y-76694D01*
X457011Y-76782D01*
X457089Y-76831D01*
X457167Y-76899D01*
X457245Y-76968D01*
X457323Y-77055D01*
Y-77065D01*
X457343Y-77075D01*
X457362Y-77104D01*
X457382Y-77143D01*
X457411Y-77192D01*
X457450Y-77260D01*
X457479Y-77329D01*
X457518Y-77416D01*
X457557Y-77514D01*
X457587Y-77622D01*
X457626Y-77748D01*
X457655Y-77885D01*
X457674Y-78031D01*
X457694Y-78188D01*
X457713Y-78363D01*
Y-78549D01*
Y-78558D01*
Y-78588D01*
Y-78636D01*
Y-78695D01*
X457704Y-78773D01*
X457694Y-78871D01*
Y-78978D01*
X457674Y-79095D01*
X457665Y-79222D01*
X457645Y-79369D01*
X457587Y-79661D01*
X457518Y-79983D01*
X457421Y-80325D01*
Y-80335D01*
X457411Y-80364D01*
X457391Y-80413D01*
X457372Y-80481D01*
X457343Y-80559D01*
X457303Y-80647D01*
X457265Y-80745D01*
X457216Y-80862D01*
X457099Y-81106D01*
X456962Y-81369D01*
X456796Y-81643D01*
X456611Y-81896D01*
Y-81906D01*
X456591Y-81916D01*
X456571Y-81945D01*
X456542Y-81984D01*
X456454Y-82072D01*
X456347Y-82189D01*
X456220Y-82316D01*
X456074Y-82443D01*
X455908Y-82560D01*
X455742Y-82658D01*
X455732Y-82667D01*
X455693Y-82677D01*
X455644Y-82697D01*
X455566Y-82716D01*
X455478Y-82745D01*
X455371Y-82765D01*
X455254Y-82775D01*
X455127Y-82784D01*
X455068D01*
X455029Y-82775D01*
X454932Y-82755D01*
X454795Y-82726D01*
X454649Y-82667D01*
X454483Y-82589D01*
X454327Y-82472D01*
X454249Y-82394D01*
X454171Y-82316D01*
Y-82306D01*
X454151Y-82297D01*
X454132Y-82267D01*
X454112Y-82228D01*
X454083Y-82179D01*
X454053Y-82111D01*
X454014Y-82043D01*
X453985Y-81955D01*
X453946Y-81857D01*
X453907Y-81750D01*
X453878Y-81623D01*
X453849Y-81486D01*
X453829Y-81340D01*
X453809Y-81184D01*
X453790Y-81008D01*
Y-80823D01*
Y-80813D01*
Y-80774D01*
Y-80725D01*
X453800Y-80647D01*
Y-80559D01*
X453809Y-80452D01*
X453819Y-80325D01*
X453839Y-80188D01*
X453858Y-80042D01*
X453888Y-79886D01*
X453946Y-79544D01*
X454044Y-79173D01*
X454171Y-78793D01*
X454180Y-78783D01*
X454190Y-78744D01*
X454219Y-78676D01*
X454258Y-78597D01*
X454297Y-78500D01*
X454356Y-78383D01*
X454415Y-78256D01*
X454493Y-78119D01*
X454659Y-77826D01*
X454854Y-77524D01*
X455078Y-77241D01*
X455205Y-77104D01*
X455332Y-76987D01*
X455342Y-76977D01*
X455351Y-76968D01*
X455381Y-76948D01*
X455410Y-76919D01*
X455508Y-76860D01*
X455635Y-76782D01*
X455791Y-76704D01*
X455966Y-76645D01*
X456162Y-76597D01*
X456367Y-76577D01*
X456425D01*
X456464Y-76587D01*
D02*
G37*
G36*
X449486Y-80628D02*
X450188D01*
X450032Y-81174D01*
X449320D01*
X448861Y-82784D01*
X448207D01*
X448676Y-81174D01*
X446499D01*
X446694Y-80559D01*
X450286Y-76694D01*
X450618D01*
X449486Y-80628D01*
D02*
G37*
G36*
X424100Y-76587D02*
X424207Y-76597D01*
X424344Y-76626D01*
X424490Y-76675D01*
X424656Y-76743D01*
X424813Y-76841D01*
X424969Y-76968D01*
X424988Y-76987D01*
X425027Y-77036D01*
X425096Y-77124D01*
X425164Y-77231D01*
X425232Y-77368D01*
X425301Y-77534D01*
X425340Y-77709D01*
X425359Y-77914D01*
Y-77934D01*
Y-77983D01*
X425349Y-78051D01*
X425340Y-78149D01*
X425330Y-78266D01*
X425301Y-78383D01*
X425271Y-78510D01*
X425222Y-78636D01*
Y-78646D01*
X425213Y-78656D01*
X425203Y-78685D01*
X425183Y-78724D01*
X425154Y-78773D01*
X425125Y-78832D01*
X425047Y-78978D01*
X424939Y-79144D01*
X424803Y-79339D01*
X424637Y-79554D01*
X424442Y-79788D01*
X424432Y-79798D01*
X424403Y-79837D01*
X424354Y-79886D01*
X424285Y-79964D01*
X424198Y-80052D01*
X424090Y-80169D01*
X423963Y-80296D01*
X423827Y-80432D01*
X423671Y-80598D01*
X423495Y-80764D01*
X423309Y-80950D01*
X423104Y-81155D01*
X422880Y-81360D01*
X422646Y-81574D01*
X422392Y-81809D01*
X422128Y-82043D01*
X423710D01*
X423778Y-82033D01*
X423856Y-82023D01*
X423954Y-82004D01*
X424051Y-81984D01*
X424149Y-81945D01*
X424237Y-81896D01*
X424246Y-81887D01*
X424276Y-81867D01*
X424315Y-81838D01*
X424364Y-81789D01*
X424422Y-81730D01*
X424481Y-81662D01*
X424529Y-81584D01*
X424578Y-81496D01*
X424754D01*
X424246Y-82677D01*
X421260D01*
Y-82521D01*
X421270Y-82511D01*
X421289Y-82502D01*
X421318Y-82472D01*
X421357Y-82433D01*
X421416Y-82384D01*
X421475Y-82326D01*
X421631Y-82189D01*
X421806Y-82023D01*
X422021Y-81828D01*
X422246Y-81613D01*
X422490Y-81379D01*
X422743Y-81135D01*
X422997Y-80881D01*
X423251Y-80628D01*
X423495Y-80364D01*
X423719Y-80110D01*
X423934Y-79856D01*
X424120Y-79622D01*
X424276Y-79398D01*
Y-79388D01*
X424295Y-79378D01*
X424305Y-79349D01*
X424334Y-79310D01*
X424383Y-79203D01*
X424451Y-79066D01*
X424510Y-78900D01*
X424569Y-78715D01*
X424608Y-78510D01*
X424617Y-78295D01*
Y-78285D01*
Y-78275D01*
Y-78217D01*
X424598Y-78139D01*
X424578Y-78031D01*
X424549Y-77914D01*
X424490Y-77787D01*
X424422Y-77661D01*
X424325Y-77543D01*
X424315Y-77534D01*
X424276Y-77495D01*
X424207Y-77446D01*
X424129Y-77397D01*
X424022Y-77338D01*
X423895Y-77299D01*
X423749Y-77260D01*
X423593Y-77251D01*
X423534D01*
X423485Y-77260D01*
X423378Y-77280D01*
X423231Y-77329D01*
X423065Y-77397D01*
X422978Y-77446D01*
X422890Y-77504D01*
X422802Y-77573D01*
X422724Y-77651D01*
X422636Y-77739D01*
X422558Y-77846D01*
X422411Y-77778D01*
Y-77768D01*
X422421Y-77748D01*
X422431Y-77719D01*
X422451Y-77680D01*
X422509Y-77582D01*
X422577Y-77456D01*
X422665Y-77319D01*
X422782Y-77172D01*
X422919Y-77026D01*
X423065Y-76899D01*
X423075D01*
X423085Y-76889D01*
X423143Y-76850D01*
X423231Y-76802D01*
X423349Y-76733D01*
X423485Y-76675D01*
X423651Y-76626D01*
X423817Y-76587D01*
X424002Y-76577D01*
X424061D01*
X424100Y-76587D01*
D02*
G37*
%LPC*%
G36*
X450008Y-59109D02*
X449930D01*
X449813Y-59129D01*
X449695Y-59168D01*
X449539Y-59207D01*
X449364Y-59285D01*
X449168Y-59382D01*
X448973Y-59519D01*
X448953Y-59539D01*
X448875Y-59597D01*
X448778Y-59715D01*
X448641Y-59890D01*
X448465Y-60105D01*
X448289Y-60398D01*
X448094Y-60769D01*
X447977Y-60964D01*
X447879Y-61199D01*
Y-61218D01*
X447860Y-61257D01*
X447821Y-61335D01*
X447782Y-61433D01*
X447743Y-61550D01*
X447684Y-61707D01*
X447606Y-61882D01*
X447547Y-62078D01*
X447469Y-62312D01*
X447371Y-62546D01*
X447293Y-62820D01*
X447196Y-63113D01*
X447098Y-63425D01*
X447000Y-63757D01*
X446805Y-64460D01*
Y-64499D01*
X446785Y-64578D01*
X446746Y-64714D01*
X446707Y-64909D01*
X446649Y-65124D01*
X446610Y-65398D01*
X446551Y-65691D01*
X446493Y-66003D01*
X446415Y-66355D01*
X446356Y-66706D01*
X446258Y-67468D01*
X446180Y-68210D01*
X446161Y-68933D01*
Y-68952D01*
Y-68972D01*
Y-69089D01*
X446180Y-69245D01*
X446219Y-69440D01*
X446258Y-69675D01*
X446317Y-69890D01*
X446415Y-70104D01*
X446551Y-70300D01*
X446571Y-70319D01*
X446629Y-70378D01*
X446707Y-70437D01*
X446825Y-70515D01*
X446961Y-70612D01*
X447118Y-70671D01*
X447313Y-70729D01*
X447508Y-70749D01*
X447606D01*
X447704Y-70729D01*
X447821Y-70710D01*
X447977Y-70671D01*
X448133Y-70593D01*
X448289Y-70515D01*
X448426Y-70397D01*
X448446Y-70378D01*
X448465Y-70358D01*
X448524Y-70300D01*
X448602Y-70222D01*
X448680Y-70104D01*
X448778Y-69987D01*
X448895Y-69831D01*
X449031Y-69636D01*
X449149Y-69421D01*
X449305Y-69187D01*
X449442Y-68933D01*
X449598Y-68640D01*
X449735Y-68308D01*
X449891Y-67956D01*
X450028Y-67566D01*
X450164Y-67155D01*
Y-67136D01*
X450184Y-67116D01*
X450203Y-67058D01*
X450223Y-66980D01*
X450281Y-66784D01*
X450359Y-66531D01*
X450438Y-66218D01*
X450535Y-65847D01*
X450653Y-65417D01*
X450770Y-64968D01*
X450867Y-64499D01*
X450984Y-63992D01*
X451180Y-62976D01*
X451238Y-62468D01*
X451297Y-61961D01*
X451336Y-61472D01*
X451356Y-61023D01*
Y-61004D01*
Y-60984D01*
Y-60867D01*
X451336Y-60691D01*
X451297Y-60476D01*
X451258Y-60242D01*
X451180Y-60008D01*
X451082Y-59773D01*
X450945Y-59578D01*
X450926Y-59558D01*
X450867Y-59500D01*
X450789Y-59422D01*
X450692Y-59343D01*
X450555Y-59265D01*
X450379Y-59187D01*
X450203Y-59129D01*
X450008Y-59109D01*
D02*
G37*
G36*
X428765Y-76802D02*
X428726D01*
X428668Y-76811D01*
X428609Y-76831D01*
X428531Y-76850D01*
X428443Y-76889D01*
X428346Y-76938D01*
X428248Y-77007D01*
X428238Y-77016D01*
X428199Y-77046D01*
X428150Y-77104D01*
X428082Y-77192D01*
X427994Y-77299D01*
X427906Y-77446D01*
X427809Y-77631D01*
X427750Y-77729D01*
X427701Y-77846D01*
Y-77856D01*
X427692Y-77875D01*
X427672Y-77914D01*
X427653Y-77963D01*
X427633Y-78022D01*
X427604Y-78100D01*
X427565Y-78188D01*
X427535Y-78285D01*
X427496Y-78402D01*
X427448Y-78519D01*
X427409Y-78656D01*
X427360Y-78802D01*
X427311Y-78959D01*
X427262Y-79124D01*
X427165Y-79476D01*
Y-79495D01*
X427155Y-79535D01*
X427135Y-79603D01*
X427116Y-79700D01*
X427087Y-79808D01*
X427067Y-79944D01*
X427038Y-80091D01*
X427008Y-80247D01*
X426969Y-80423D01*
X426940Y-80598D01*
X426891Y-80979D01*
X426852Y-81350D01*
X426843Y-81711D01*
Y-81721D01*
Y-81730D01*
Y-81789D01*
X426852Y-81867D01*
X426872Y-81965D01*
X426891Y-82082D01*
X426921Y-82189D01*
X426969Y-82297D01*
X427038Y-82394D01*
X427047Y-82404D01*
X427077Y-82433D01*
X427116Y-82463D01*
X427174Y-82502D01*
X427243Y-82550D01*
X427321Y-82580D01*
X427418Y-82609D01*
X427516Y-82619D01*
X427565D01*
X427614Y-82609D01*
X427672Y-82599D01*
X427750Y-82580D01*
X427828Y-82541D01*
X427906Y-82502D01*
X427975Y-82443D01*
X427985Y-82433D01*
X427994Y-82423D01*
X428023Y-82394D01*
X428063Y-82355D01*
X428102Y-82297D01*
X428150Y-82238D01*
X428209Y-82160D01*
X428277Y-82062D01*
X428336Y-81955D01*
X428414Y-81838D01*
X428482Y-81711D01*
X428560Y-81564D01*
X428629Y-81399D01*
X428707Y-81223D01*
X428775Y-81028D01*
X428843Y-80823D01*
Y-80813D01*
X428853Y-80803D01*
X428863Y-80774D01*
X428873Y-80735D01*
X428902Y-80637D01*
X428941Y-80510D01*
X428980Y-80354D01*
X429029Y-80169D01*
X429087Y-79954D01*
X429146Y-79730D01*
X429195Y-79495D01*
X429253Y-79242D01*
X429351Y-78734D01*
X429380Y-78480D01*
X429409Y-78227D01*
X429429Y-77983D01*
X429439Y-77758D01*
Y-77748D01*
Y-77739D01*
Y-77680D01*
X429429Y-77592D01*
X429409Y-77485D01*
X429390Y-77368D01*
X429351Y-77251D01*
X429302Y-77134D01*
X429234Y-77036D01*
X429224Y-77026D01*
X429195Y-76997D01*
X429156Y-76958D01*
X429107Y-76919D01*
X429039Y-76880D01*
X428951Y-76841D01*
X428863Y-76811D01*
X428765Y-76802D01*
D02*
G37*
G36*
X444830D02*
X444791D01*
X444733Y-76811D01*
X444674Y-76831D01*
X444596Y-76850D01*
X444508Y-76889D01*
X444411Y-76938D01*
X444313Y-77007D01*
X444303Y-77016D01*
X444264Y-77046D01*
X444215Y-77104D01*
X444147Y-77192D01*
X444059Y-77299D01*
X443971Y-77446D01*
X443874Y-77631D01*
X443815Y-77729D01*
X443766Y-77846D01*
Y-77856D01*
X443757Y-77875D01*
X443737Y-77914D01*
X443718Y-77963D01*
X443698Y-78022D01*
X443669Y-78100D01*
X443630Y-78188D01*
X443601Y-78285D01*
X443561Y-78402D01*
X443513Y-78519D01*
X443474Y-78656D01*
X443425Y-78802D01*
X443376Y-78959D01*
X443327Y-79124D01*
X443230Y-79476D01*
Y-79495D01*
X443220Y-79535D01*
X443200Y-79603D01*
X443181Y-79700D01*
X443152Y-79808D01*
X443132Y-79944D01*
X443103Y-80091D01*
X443073Y-80247D01*
X443034Y-80423D01*
X443005Y-80598D01*
X442956Y-80979D01*
X442917Y-81350D01*
X442907Y-81711D01*
Y-81721D01*
Y-81730D01*
Y-81789D01*
X442917Y-81867D01*
X442937Y-81965D01*
X442956Y-82082D01*
X442986Y-82189D01*
X443034Y-82297D01*
X443103Y-82394D01*
X443113Y-82404D01*
X443142Y-82433D01*
X443181Y-82463D01*
X443239Y-82502D01*
X443308Y-82550D01*
X443386Y-82580D01*
X443483Y-82609D01*
X443581Y-82619D01*
X443630D01*
X443679Y-82609D01*
X443737Y-82599D01*
X443815Y-82580D01*
X443893Y-82541D01*
X443971Y-82502D01*
X444040Y-82443D01*
X444049Y-82433D01*
X444059Y-82423D01*
X444089Y-82394D01*
X444128Y-82355D01*
X444167Y-82297D01*
X444215Y-82238D01*
X444274Y-82160D01*
X444342Y-82062D01*
X444401Y-81955D01*
X444479Y-81838D01*
X444547Y-81711D01*
X444625Y-81564D01*
X444694Y-81399D01*
X444772Y-81223D01*
X444840Y-81028D01*
X444908Y-80823D01*
Y-80813D01*
X444918Y-80803D01*
X444928Y-80774D01*
X444938Y-80735D01*
X444967Y-80637D01*
X445006Y-80510D01*
X445045Y-80354D01*
X445094Y-80169D01*
X445152Y-79954D01*
X445211Y-79730D01*
X445260Y-79495D01*
X445318Y-79242D01*
X445416Y-78734D01*
X445445Y-78480D01*
X445474Y-78227D01*
X445494Y-77983D01*
X445504Y-77758D01*
Y-77748D01*
Y-77739D01*
Y-77680D01*
X445494Y-77592D01*
X445474Y-77485D01*
X445455Y-77368D01*
X445416Y-77251D01*
X445367Y-77134D01*
X445299Y-77036D01*
X445289Y-77026D01*
X445260Y-76997D01*
X445221Y-76958D01*
X445172Y-76919D01*
X445104Y-76880D01*
X445016Y-76841D01*
X444928Y-76811D01*
X444830Y-76802D01*
D02*
G37*
G36*
X449642Y-77836D02*
X447065Y-80628D01*
X448832D01*
X449642Y-77836D01*
D02*
G37*
G36*
X456376Y-76802D02*
X456337D01*
X456279Y-76811D01*
X456220Y-76831D01*
X456142Y-76850D01*
X456054Y-76889D01*
X455957Y-76938D01*
X455859Y-77007D01*
X455849Y-77016D01*
X455810Y-77046D01*
X455761Y-77104D01*
X455693Y-77192D01*
X455605Y-77299D01*
X455517Y-77446D01*
X455420Y-77631D01*
X455361Y-77729D01*
X455312Y-77846D01*
Y-77856D01*
X455303Y-77875D01*
X455283Y-77914D01*
X455264Y-77963D01*
X455244Y-78022D01*
X455215Y-78100D01*
X455176Y-78188D01*
X455147Y-78285D01*
X455107Y-78402D01*
X455059Y-78519D01*
X455020Y-78656D01*
X454971Y-78802D01*
X454922Y-78959D01*
X454873Y-79124D01*
X454776Y-79476D01*
Y-79495D01*
X454766Y-79535D01*
X454746Y-79603D01*
X454727Y-79700D01*
X454698Y-79808D01*
X454678Y-79944D01*
X454649Y-80091D01*
X454620Y-80247D01*
X454580Y-80423D01*
X454551Y-80598D01*
X454502Y-80979D01*
X454463Y-81350D01*
X454454Y-81711D01*
Y-81721D01*
Y-81730D01*
Y-81789D01*
X454463Y-81867D01*
X454483Y-81965D01*
X454502Y-82082D01*
X454532Y-82189D01*
X454580Y-82297D01*
X454649Y-82394D01*
X454659Y-82404D01*
X454688Y-82433D01*
X454727Y-82463D01*
X454785Y-82502D01*
X454854Y-82550D01*
X454932Y-82580D01*
X455029Y-82609D01*
X455127Y-82619D01*
X455176D01*
X455225Y-82609D01*
X455283Y-82599D01*
X455361Y-82580D01*
X455439Y-82541D01*
X455517Y-82502D01*
X455586Y-82443D01*
X455595Y-82433D01*
X455605Y-82423D01*
X455635Y-82394D01*
X455674Y-82355D01*
X455713Y-82297D01*
X455761Y-82238D01*
X455820Y-82160D01*
X455888Y-82062D01*
X455947Y-81955D01*
X456025Y-81838D01*
X456093Y-81711D01*
X456171Y-81564D01*
X456240Y-81399D01*
X456318Y-81223D01*
X456386Y-81028D01*
X456454Y-80823D01*
Y-80813D01*
X456464Y-80803D01*
X456474Y-80774D01*
X456484Y-80735D01*
X456513Y-80637D01*
X456552Y-80510D01*
X456591Y-80354D01*
X456640Y-80169D01*
X456698Y-79954D01*
X456757Y-79730D01*
X456806Y-79495D01*
X456864Y-79242D01*
X456962Y-78734D01*
X456991Y-78480D01*
X457021Y-78227D01*
X457040Y-77983D01*
X457050Y-77758D01*
Y-77748D01*
Y-77739D01*
Y-77680D01*
X457040Y-77592D01*
X457021Y-77485D01*
X457001Y-77368D01*
X456962Y-77251D01*
X456913Y-77134D01*
X456845Y-77036D01*
X456835Y-77026D01*
X456806Y-76997D01*
X456767Y-76958D01*
X456718Y-76919D01*
X456650Y-76880D01*
X456562Y-76841D01*
X456474Y-76811D01*
X456376Y-76802D01*
D02*
G37*
G36*
X437665Y-64831D02*
X437255D01*
X436962Y-64851D01*
X435458Y-70104D01*
X435497D01*
X435614Y-70124D01*
X435790Y-70144D01*
X436005Y-70163D01*
X436239Y-70183D01*
X436493Y-70202D01*
X436747Y-70222D01*
X437099D01*
X437196Y-70202D01*
X437314D01*
X437470Y-70183D01*
X437802Y-70124D01*
X438192Y-70026D01*
X438602Y-69870D01*
X439032Y-69675D01*
X439442Y-69401D01*
X439462Y-69382D01*
X439481Y-69362D01*
X439618Y-69245D01*
X439794Y-69069D01*
X439989Y-68796D01*
X440184Y-68484D01*
X440360Y-68093D01*
X440497Y-67663D01*
X440516Y-67409D01*
X440536Y-67155D01*
Y-67136D01*
Y-67116D01*
Y-67058D01*
X440516Y-66980D01*
X440497Y-66784D01*
X440458Y-66531D01*
X440360Y-66257D01*
X440243Y-65984D01*
X440087Y-65710D01*
X439852Y-65456D01*
X439813Y-65437D01*
X439716Y-65359D01*
X439560Y-65261D01*
X439325Y-65144D01*
X439013Y-65027D01*
X438642Y-64929D01*
X438192Y-64851D01*
X437665Y-64831D01*
D02*
G37*
G36*
X428935Y-59558D02*
X428701D01*
X428545Y-59578D01*
X428330Y-59597D01*
X428095Y-59617D01*
X427822Y-59656D01*
X427509Y-59715D01*
X426142Y-64499D01*
X426181D01*
X426299Y-64538D01*
X426474Y-64578D01*
X426709Y-64617D01*
X426963Y-64656D01*
X427216Y-64695D01*
X427490Y-64714D01*
X427724Y-64734D01*
X427880D01*
X428076Y-64714D01*
X428291Y-64675D01*
X428564Y-64636D01*
X428857Y-64578D01*
X429150Y-64480D01*
X429443Y-64343D01*
X429482Y-64324D01*
X429580Y-64265D01*
X429716Y-64167D01*
X429892Y-64050D01*
X430087Y-63874D01*
X430283Y-63679D01*
X430498Y-63425D01*
X430673Y-63152D01*
X430693Y-63113D01*
X430751Y-63015D01*
X430810Y-62859D01*
X430908Y-62644D01*
X430986Y-62390D01*
X431044Y-62117D01*
X431103Y-61824D01*
X431122Y-61511D01*
Y-61492D01*
Y-61472D01*
Y-61355D01*
X431103Y-61199D01*
X431064Y-61004D01*
X430986Y-60769D01*
X430888Y-60535D01*
X430751Y-60300D01*
X430576Y-60086D01*
X430556Y-60066D01*
X430478Y-60008D01*
X430341Y-59910D01*
X430165Y-59812D01*
X429931Y-59734D01*
X429658Y-59636D01*
X429326Y-59578D01*
X428935Y-59558D01*
D02*
G37*
G36*
X439286Y-59500D02*
X439149D01*
X439052Y-59519D01*
X438935D01*
X438798Y-59539D01*
X438466Y-59617D01*
X437138Y-64187D01*
X437470D01*
X437743Y-64206D01*
X438153D01*
X438271Y-64187D01*
X438427D01*
X438602Y-64167D01*
X439013Y-64109D01*
X439462Y-64011D01*
X439911Y-63874D01*
X440341Y-63679D01*
X440536Y-63562D01*
X440712Y-63425D01*
X440731Y-63406D01*
X440751Y-63386D01*
X440848Y-63288D01*
X441005Y-63113D01*
X441161Y-62878D01*
X441317Y-62585D01*
X441473Y-62253D01*
X441571Y-61863D01*
X441610Y-61648D01*
Y-61433D01*
Y-61414D01*
Y-61394D01*
Y-61277D01*
X441591Y-61121D01*
X441532Y-60906D01*
X441473Y-60672D01*
X441376Y-60437D01*
X441239Y-60222D01*
X441044Y-60008D01*
X441024Y-59988D01*
X440946Y-59929D01*
X440809Y-59851D01*
X440614Y-59754D01*
X440380Y-59656D01*
X440067Y-59578D01*
X439716Y-59519D01*
X439286Y-59500D01*
D02*
G37*
G36*
X459050Y-59109D02*
X458972D01*
X458855Y-59129D01*
X458738Y-59168D01*
X458582Y-59207D01*
X458406Y-59285D01*
X458211Y-59382D01*
X458015Y-59519D01*
X457996Y-59539D01*
X457918Y-59597D01*
X457820Y-59715D01*
X457683Y-59890D01*
X457508Y-60105D01*
X457332Y-60398D01*
X457136Y-60769D01*
X457019Y-60964D01*
X456922Y-61199D01*
Y-61218D01*
X456902Y-61257D01*
X456863Y-61335D01*
X456824Y-61433D01*
X456785Y-61550D01*
X456726Y-61707D01*
X456648Y-61882D01*
X456590Y-62078D01*
X456511Y-62312D01*
X456414Y-62546D01*
X456336Y-62820D01*
X456238Y-63113D01*
X456140Y-63425D01*
X456043Y-63757D01*
X455848Y-64460D01*
Y-64499D01*
X455828Y-64578D01*
X455789Y-64714D01*
X455750Y-64909D01*
X455691Y-65124D01*
X455652Y-65398D01*
X455594Y-65691D01*
X455535Y-66003D01*
X455457Y-66355D01*
X455398Y-66706D01*
X455301Y-67468D01*
X455223Y-68210D01*
X455203Y-68933D01*
Y-68952D01*
Y-68972D01*
Y-69089D01*
X455223Y-69245D01*
X455262Y-69440D01*
X455301Y-69675D01*
X455359Y-69890D01*
X455457Y-70104D01*
X455594Y-70300D01*
X455613Y-70319D01*
X455672Y-70378D01*
X455750Y-70437D01*
X455867Y-70515D01*
X456004Y-70612D01*
X456160Y-70671D01*
X456355Y-70729D01*
X456551Y-70749D01*
X456648D01*
X456746Y-70729D01*
X456863Y-70710D01*
X457019Y-70671D01*
X457175Y-70593D01*
X457332Y-70515D01*
X457469Y-70397D01*
X457488Y-70378D01*
X457508Y-70358D01*
X457566Y-70300D01*
X457644Y-70222D01*
X457722Y-70104D01*
X457820Y-69987D01*
X457937Y-69831D01*
X458074Y-69636D01*
X458191Y-69421D01*
X458347Y-69187D01*
X458484Y-68933D01*
X458640Y-68640D01*
X458777Y-68308D01*
X458933Y-67956D01*
X459070Y-67566D01*
X459207Y-67155D01*
Y-67136D01*
X459226Y-67116D01*
X459246Y-67058D01*
X459265Y-66980D01*
X459324Y-66784D01*
X459402Y-66531D01*
X459480Y-66218D01*
X459578Y-65847D01*
X459695Y-65417D01*
X459812Y-64968D01*
X459910Y-64499D01*
X460027Y-63992D01*
X460222Y-62976D01*
X460281Y-62468D01*
X460339Y-61961D01*
X460378Y-61472D01*
X460398Y-61023D01*
Y-61004D01*
Y-60984D01*
Y-60867D01*
X460378Y-60691D01*
X460339Y-60476D01*
X460300Y-60242D01*
X460222Y-60008D01*
X460124Y-59773D01*
X459988Y-59578D01*
X459968Y-59558D01*
X459910Y-59500D01*
X459832Y-59422D01*
X459734Y-59343D01*
X459597Y-59265D01*
X459421Y-59187D01*
X459246Y-59129D01*
X459050Y-59109D01*
D02*
G37*
G36*
X468093D02*
X468015D01*
X467898Y-59129D01*
X467780Y-59168D01*
X467624Y-59207D01*
X467448Y-59285D01*
X467253Y-59382D01*
X467058Y-59519D01*
X467038Y-59539D01*
X466960Y-59597D01*
X466862Y-59715D01*
X466726Y-59890D01*
X466550Y-60105D01*
X466374Y-60398D01*
X466179Y-60769D01*
X466062Y-60964D01*
X465964Y-61199D01*
Y-61218D01*
X465944Y-61257D01*
X465905Y-61335D01*
X465866Y-61433D01*
X465827Y-61550D01*
X465769Y-61707D01*
X465691Y-61882D01*
X465632Y-62078D01*
X465554Y-62312D01*
X465456Y-62546D01*
X465378Y-62820D01*
X465280Y-63113D01*
X465183Y-63425D01*
X465085Y-63757D01*
X464890Y-64460D01*
Y-64499D01*
X464870Y-64578D01*
X464831Y-64714D01*
X464792Y-64909D01*
X464734Y-65124D01*
X464695Y-65398D01*
X464636Y-65691D01*
X464577Y-66003D01*
X464499Y-66355D01*
X464441Y-66706D01*
X464343Y-67468D01*
X464265Y-68210D01*
X464245Y-68933D01*
Y-68952D01*
Y-68972D01*
Y-69089D01*
X464265Y-69245D01*
X464304Y-69440D01*
X464343Y-69675D01*
X464402Y-69890D01*
X464499Y-70104D01*
X464636Y-70300D01*
X464655Y-70319D01*
X464714Y-70378D01*
X464792Y-70437D01*
X464909Y-70515D01*
X465046Y-70612D01*
X465202Y-70671D01*
X465398Y-70729D01*
X465593Y-70749D01*
X465691D01*
X465788Y-70729D01*
X465905Y-70710D01*
X466062Y-70671D01*
X466218Y-70593D01*
X466374Y-70515D01*
X466511Y-70397D01*
X466530Y-70378D01*
X466550Y-70358D01*
X466608Y-70300D01*
X466687Y-70222D01*
X466765Y-70104D01*
X466862Y-69987D01*
X466980Y-69831D01*
X467116Y-69636D01*
X467234Y-69421D01*
X467390Y-69187D01*
X467526Y-68933D01*
X467683Y-68640D01*
X467819Y-68308D01*
X467976Y-67956D01*
X468112Y-67566D01*
X468249Y-67155D01*
Y-67136D01*
X468268Y-67116D01*
X468288Y-67058D01*
X468308Y-66980D01*
X468366Y-66784D01*
X468444Y-66531D01*
X468522Y-66218D01*
X468620Y-65847D01*
X468737Y-65417D01*
X468854Y-64968D01*
X468952Y-64499D01*
X469069Y-63992D01*
X469265Y-62976D01*
X469323Y-62468D01*
X469382Y-61961D01*
X469421Y-61472D01*
X469440Y-61023D01*
Y-61004D01*
Y-60984D01*
Y-60867D01*
X469421Y-60691D01*
X469382Y-60476D01*
X469343Y-60242D01*
X469265Y-60008D01*
X469167Y-59773D01*
X469030Y-59578D01*
X469011Y-59558D01*
X468952Y-59500D01*
X468874Y-59422D01*
X468776Y-59343D01*
X468640Y-59265D01*
X468464Y-59187D01*
X468288Y-59129D01*
X468093Y-59109D01*
D02*
G37*
G36*
X477135D02*
X477057D01*
X476940Y-59129D01*
X476823Y-59168D01*
X476666Y-59207D01*
X476491Y-59285D01*
X476295Y-59382D01*
X476100Y-59519D01*
X476081Y-59539D01*
X476002Y-59597D01*
X475905Y-59715D01*
X475768Y-59890D01*
X475592Y-60105D01*
X475417Y-60398D01*
X475221Y-60769D01*
X475104Y-60964D01*
X475006Y-61199D01*
Y-61218D01*
X474987Y-61257D01*
X474948Y-61335D01*
X474909Y-61433D01*
X474870Y-61550D01*
X474811Y-61707D01*
X474733Y-61882D01*
X474674Y-62078D01*
X474596Y-62312D01*
X474499Y-62546D01*
X474420Y-62820D01*
X474323Y-63113D01*
X474225Y-63425D01*
X474127Y-63757D01*
X473932Y-64460D01*
Y-64499D01*
X473913Y-64578D01*
X473874Y-64714D01*
X473835Y-64909D01*
X473776Y-65124D01*
X473737Y-65398D01*
X473678Y-65691D01*
X473620Y-66003D01*
X473542Y-66355D01*
X473483Y-66706D01*
X473385Y-67468D01*
X473307Y-68210D01*
X473288Y-68933D01*
Y-68952D01*
Y-68972D01*
Y-69089D01*
X473307Y-69245D01*
X473346Y-69440D01*
X473385Y-69675D01*
X473444Y-69890D01*
X473542Y-70104D01*
X473678Y-70300D01*
X473698Y-70319D01*
X473757Y-70378D01*
X473835Y-70437D01*
X473952Y-70515D01*
X474088Y-70612D01*
X474245Y-70671D01*
X474440Y-70729D01*
X474635Y-70749D01*
X474733D01*
X474831Y-70729D01*
X474948Y-70710D01*
X475104Y-70671D01*
X475260Y-70593D01*
X475417Y-70515D01*
X475553Y-70397D01*
X475573Y-70378D01*
X475592Y-70358D01*
X475651Y-70300D01*
X475729Y-70222D01*
X475807Y-70104D01*
X475905Y-69987D01*
X476022Y-69831D01*
X476159Y-69636D01*
X476276Y-69421D01*
X476432Y-69187D01*
X476569Y-68933D01*
X476725Y-68640D01*
X476862Y-68308D01*
X477018Y-67956D01*
X477155Y-67566D01*
X477291Y-67155D01*
Y-67136D01*
X477311Y-67116D01*
X477330Y-67058D01*
X477350Y-66980D01*
X477409Y-66784D01*
X477487Y-66531D01*
X477565Y-66218D01*
X477663Y-65847D01*
X477780Y-65417D01*
X477897Y-64968D01*
X477994Y-64499D01*
X478112Y-63992D01*
X478307Y-62976D01*
X478366Y-62468D01*
X478424Y-61961D01*
X478463Y-61472D01*
X478483Y-61023D01*
Y-61004D01*
Y-60984D01*
Y-60867D01*
X478463Y-60691D01*
X478424Y-60476D01*
X478385Y-60242D01*
X478307Y-60008D01*
X478209Y-59773D01*
X478073Y-59578D01*
X478053Y-59558D01*
X477994Y-59500D01*
X477916Y-59422D01*
X477819Y-59343D01*
X477682Y-59265D01*
X477506Y-59187D01*
X477330Y-59129D01*
X477135Y-59109D01*
D02*
G37*
%LPD*%
D23*
X105162Y-6811D02*
G03*
X102362Y-4111I-2750J-50D01*
G01*
X102362Y-14311D02*
G03*
X105162Y-11411I-50J2850D01*
G01*
X75962Y-14311D02*
Y-4111D01*
X105162Y-11411D02*
Y-6811D01*
X75962Y-14311D02*
X102362D01*
X75962Y-4111D02*
X102362D01*
X74432Y-82500D02*
X71100D01*
X74432Y-79168D01*
Y-78335D01*
X73599Y-77502D01*
X71933D01*
X71100Y-78335D01*
X76098D02*
X76931Y-77502D01*
X78598D01*
X79431Y-78335D01*
Y-81667D01*
X78598Y-82500D01*
X76931D01*
X76098Y-81667D01*
Y-78335D01*
X71000Y-72400D02*
X72666D01*
X71833D01*
Y-67402D01*
X71000Y-68235D01*
X75165Y-71567D02*
X75998Y-72400D01*
X77665D01*
X78498Y-71567D01*
Y-68235D01*
X77665Y-67402D01*
X75998D01*
X75165Y-68235D01*
Y-69068D01*
X75998Y-69901D01*
X78498D01*
X171700Y-71600D02*
X173366D01*
X172533D01*
Y-66602D01*
X171700Y-67435D01*
X173032Y-82800D02*
X169700D01*
X173032Y-79468D01*
Y-78635D01*
X172199Y-77802D01*
X170533D01*
X169700Y-78635D01*
D26*
X161575Y-1969D02*
G03*
X152262Y-8626I0J-9843D01*
G01*
X188346Y-21654D02*
G03*
X197659Y-14996I0J9843D01*
G01*
X152262D02*
G03*
X161575Y-21654I9313J3185D01*
G01*
X197659Y-8626D02*
G03*
X188346Y-1969I-9313J-3185D01*
G01*
X275100Y-17200D02*
X278600Y-20700D01*
Y-13700D01*
X275100Y-17200D02*
X278600Y-13700D01*
X274900Y-7100D02*
X278400Y-3600D01*
Y-10600D02*
Y-3600D01*
X274900Y-7100D02*
X278400Y-10600D01*
X161575Y-21654D02*
X188367Y-21653D01*
X161575Y-1969D02*
X188347Y-1968D01*
X218276Y-3635D02*
X221130D01*
X219654Y-5111D02*
Y-2158D01*
X419999Y-29702D02*
X418999Y-28702D01*
X417000D01*
X416000Y-29702D01*
Y-33700D01*
X417000Y-34700D01*
X418999D01*
X419999Y-33700D01*
X425997Y-34700D02*
X421998D01*
X425997Y-30701D01*
Y-29702D01*
X424997Y-28702D01*
X422998D01*
X421998Y-29702D01*
X431995Y-28702D02*
X429995Y-29702D01*
X427996Y-31701D01*
Y-33700D01*
X428996Y-34700D01*
X430995D01*
X431995Y-33700D01*
Y-32701D01*
X430995Y-31701D01*
X427996D01*
X164900Y-94300D02*
Y-88302D01*
X167899D01*
X168899Y-89302D01*
Y-91301D01*
X167899Y-92301D01*
X164900D01*
X170898Y-94300D02*
X172897D01*
X171898D01*
Y-88302D01*
X170898Y-89302D01*
X508702Y-39801D02*
X507702Y-40801D01*
Y-42800D01*
X508702Y-43800D01*
X512700D01*
X513700Y-42800D01*
Y-40801D01*
X512700Y-39801D01*
X513700Y-33803D02*
Y-37802D01*
X509701Y-33803D01*
X508702D01*
X507702Y-34803D01*
Y-36802D01*
X508702Y-37802D01*
X513700Y-27805D02*
Y-31804D01*
X509701Y-27805D01*
X508702D01*
X507702Y-28805D01*
Y-30804D01*
X508702Y-31804D01*
X222902Y-29701D02*
X221902Y-30701D01*
Y-32700D01*
X222902Y-33700D01*
X226900D01*
X227900Y-32700D01*
Y-30701D01*
X226900Y-29701D01*
X221902Y-23703D02*
Y-27702D01*
X224901D01*
X223901Y-25703D01*
Y-24703D01*
X224901Y-23703D01*
X226900D01*
X227900Y-24703D01*
Y-26702D01*
X226900Y-27702D01*
X88425Y-59055D02*
X82427D01*
Y-56056D01*
X83427Y-55056D01*
X85426D01*
X86426Y-56056D01*
Y-59055D01*
X83427Y-53057D02*
X82427Y-52057D01*
Y-50058D01*
X83427Y-49058D01*
X84426D01*
X85426Y-50058D01*
Y-51058D01*
Y-50058D01*
X86426Y-49058D01*
X87426D01*
X88425Y-50058D01*
Y-52057D01*
X87426Y-53057D01*
X138200Y-8702D02*
Y-9702D01*
X140199Y-11701D01*
X142199Y-9702D01*
Y-8702D01*
X140199Y-11701D02*
Y-14700D01*
X148197D02*
X144198D01*
X148197Y-10701D01*
Y-9702D01*
X147197Y-8702D01*
X145198D01*
X144198Y-9702D01*
X393800Y-35100D02*
Y-29102D01*
X396799D01*
X397799Y-30102D01*
Y-32101D01*
X396799Y-33101D01*
X393800D01*
X395799D02*
X397799Y-35100D01*
X402797D02*
Y-29102D01*
X399798Y-32101D01*
X403797D01*
X409795Y-35100D02*
X405796D01*
X409795Y-31101D01*
Y-30102D01*
X408795Y-29102D01*
X406796D01*
X405796Y-30102D01*
X99200Y-45100D02*
Y-39102D01*
X102199D01*
X103199Y-40102D01*
Y-42101D01*
X102199Y-43101D01*
X99200D01*
X101199D02*
X103199Y-45100D01*
X105198Y-40102D02*
X106198Y-39102D01*
X108197D01*
X109197Y-40102D01*
Y-41101D01*
X108197Y-42101D01*
X107197D01*
X108197D01*
X109197Y-43101D01*
Y-44100D01*
X108197Y-45100D01*
X106198D01*
X105198Y-44100D01*
X111196D02*
X112196Y-45100D01*
X114195D01*
X115195Y-44100D01*
Y-40102D01*
X114195Y-39102D01*
X112196D01*
X111196Y-40102D01*
Y-41101D01*
X112196Y-42101D01*
X115195D01*
X99300Y-53700D02*
Y-47702D01*
X102299D01*
X103299Y-48702D01*
Y-50701D01*
X102299Y-51701D01*
X99300D01*
X101299D02*
X103299Y-53700D01*
X105298Y-48702D02*
X106298Y-47702D01*
X108297D01*
X109297Y-48702D01*
Y-49701D01*
X108297Y-50701D01*
X107297D01*
X108297D01*
X109297Y-51701D01*
Y-52700D01*
X108297Y-53700D01*
X106298D01*
X105298Y-52700D01*
X111296Y-48702D02*
X112296Y-47702D01*
X114295D01*
X115295Y-48702D01*
Y-49701D01*
X114295Y-50701D01*
X115295Y-51701D01*
Y-52700D01*
X114295Y-53700D01*
X112296D01*
X111296Y-52700D01*
Y-51701D01*
X112296Y-50701D01*
X111296Y-49701D01*
Y-48702D01*
X112296Y-50701D02*
X114295D01*
X99600Y-61300D02*
Y-55302D01*
X102599D01*
X103599Y-56302D01*
Y-58301D01*
X102599Y-59301D01*
X99600D01*
X101599D02*
X103599Y-61300D01*
X105598Y-56302D02*
X106598Y-55302D01*
X108597D01*
X109597Y-56302D01*
Y-57301D01*
X108597Y-58301D01*
X107597D01*
X108597D01*
X109597Y-59301D01*
Y-60300D01*
X108597Y-61300D01*
X106598D01*
X105598Y-60300D01*
X111596Y-55302D02*
X115595D01*
Y-56302D01*
X111596Y-60300D01*
Y-61300D01*
X233100Y-37600D02*
Y-31602D01*
X236099D01*
X237099Y-32602D01*
Y-34601D01*
X236099Y-35601D01*
X233100D01*
X235099D02*
X237099Y-37600D01*
X239098D02*
X241097D01*
X240098D01*
Y-31602D01*
X239098Y-32602D01*
X247095Y-37600D02*
Y-31602D01*
X244096Y-34601D01*
X248095D01*
X172600Y-39300D02*
Y-33302D01*
X175599D01*
X176599Y-34302D01*
Y-36301D01*
X175599Y-37301D01*
X172600D01*
X174599D02*
X176599Y-39300D01*
X178598D02*
X180597D01*
X179598D01*
Y-33302D01*
X178598Y-34302D01*
X183596D02*
X184596Y-33302D01*
X186595D01*
X187595Y-34302D01*
Y-35301D01*
X186595Y-36301D01*
X185596D01*
X186595D01*
X187595Y-37301D01*
Y-38300D01*
X186595Y-39300D01*
X184596D01*
X183596Y-38300D01*
X233100Y-29600D02*
Y-23602D01*
X236099D01*
X237099Y-24602D01*
Y-26601D01*
X236099Y-27601D01*
X233100D01*
X235099D02*
X237099Y-29600D01*
X239098D02*
X241097D01*
X240098D01*
Y-23602D01*
X239098Y-24602D01*
X248095Y-29600D02*
X244096D01*
X248095Y-25601D01*
Y-24602D01*
X247095Y-23602D01*
X245096D01*
X244096Y-24602D01*
X272800Y-32602D02*
Y-38600D01*
X275799D01*
X276799Y-37600D01*
Y-33602D01*
X275799Y-32602D01*
X272800D01*
X278798Y-33602D02*
X279798Y-32602D01*
X281797D01*
X282797Y-33602D01*
Y-34601D01*
X281797Y-35601D01*
X280797D01*
X281797D01*
X282797Y-36601D01*
Y-37600D01*
X281797Y-38600D01*
X279798D01*
X278798Y-37600D01*
X386202Y-15101D02*
X385202Y-16101D01*
Y-18100D01*
X386202Y-19100D01*
X390200D01*
X391200Y-18100D01*
Y-16101D01*
X390200Y-15101D01*
X391200Y-9103D02*
Y-13102D01*
X387201Y-9103D01*
X386202D01*
X385202Y-10103D01*
Y-12102D01*
X386202Y-13102D01*
X385202Y-3105D02*
Y-7104D01*
X388201D01*
X387201Y-5105D01*
Y-4105D01*
X388201Y-3105D01*
X390200D01*
X391200Y-4105D01*
Y-6104D01*
X390200Y-7104D01*
X518402Y-38601D02*
X517402Y-39601D01*
Y-41600D01*
X518402Y-42600D01*
X522400D01*
X523400Y-41600D01*
Y-39601D01*
X522400Y-38601D01*
X523400Y-32603D02*
Y-36602D01*
X519401Y-32603D01*
X518402D01*
X517402Y-33603D01*
Y-35602D01*
X518402Y-36602D01*
Y-30604D02*
X517402Y-29604D01*
Y-27605D01*
X518402Y-26605D01*
X519401D01*
X520401Y-27605D01*
Y-28605D01*
Y-27605D01*
X521401Y-26605D01*
X522400D01*
X523400Y-27605D01*
Y-29604D01*
X522400Y-30604D01*
X176599Y-42202D02*
X175599Y-41202D01*
X173600D01*
X172600Y-42202D01*
Y-46200D01*
X173600Y-47200D01*
X175599D01*
X176599Y-46200D01*
X178598Y-47200D02*
X180597D01*
X179598D01*
Y-41202D01*
X178598Y-42202D01*
X187595Y-41202D02*
X185596Y-42202D01*
X183596Y-44201D01*
Y-46200D01*
X184596Y-47200D01*
X186595D01*
X187595Y-46200D01*
Y-45201D01*
X186595Y-44201D01*
X183596D01*
X143102Y-48101D02*
X142102Y-49101D01*
Y-51100D01*
X143102Y-52100D01*
X147100D01*
X148100Y-51100D01*
Y-49101D01*
X147100Y-48101D01*
X148100Y-46102D02*
Y-44103D01*
Y-45102D01*
X142102D01*
X143102Y-46102D01*
X148100Y-41104D02*
Y-39104D01*
Y-40104D01*
X142102D01*
X143102Y-41104D01*
X97699Y-21102D02*
X96699Y-20102D01*
X94700D01*
X93700Y-21102D01*
Y-25100D01*
X94700Y-26100D01*
X96699D01*
X97699Y-25100D01*
X99698Y-26100D02*
X101697D01*
X100698D01*
Y-20102D01*
X99698Y-21102D01*
X104696D02*
X105696Y-20102D01*
X107695D01*
X108695Y-21102D01*
Y-25100D01*
X107695Y-26100D01*
X105696D01*
X104696Y-25100D01*
Y-21102D01*
X131399Y-30002D02*
X130399Y-29002D01*
X128400D01*
X127400Y-30002D01*
Y-34000D01*
X128400Y-35000D01*
X130399D01*
X131399Y-34000D01*
X133398D02*
X134398Y-35000D01*
X136397D01*
X137397Y-34000D01*
Y-30002D01*
X136397Y-29002D01*
X134398D01*
X133398Y-30002D01*
Y-31001D01*
X134398Y-32001D01*
X137397D01*
X214502Y-28701D02*
X213502Y-29701D01*
Y-31700D01*
X214502Y-32700D01*
X218500D01*
X219500Y-31700D01*
Y-29701D01*
X218500Y-28701D01*
X213502Y-26702D02*
Y-22703D01*
X214502D01*
X218500Y-26702D01*
X219500D01*
X204802Y-28501D02*
X203802Y-29501D01*
Y-31500D01*
X204802Y-32500D01*
X208800D01*
X209800Y-31500D01*
Y-29501D01*
X208800Y-28501D01*
X203802Y-22503D02*
X204802Y-24503D01*
X206801Y-26502D01*
X208800D01*
X209800Y-25502D01*
Y-23503D01*
X208800Y-22503D01*
X207801D01*
X206801Y-23503D01*
Y-26502D01*
X65100Y-6802D02*
Y-7802D01*
X67099Y-9801D01*
X69099Y-7802D01*
Y-6802D01*
X67099Y-9801D02*
Y-12800D01*
X71098D02*
X73097D01*
X72098D01*
Y-6802D01*
X71098Y-7802D01*
X273400Y-23902D02*
Y-29900D01*
X276399D01*
X277399Y-28900D01*
Y-24902D01*
X276399Y-23902D01*
X273400D01*
X283397Y-29900D02*
X279398D01*
X283397Y-25901D01*
Y-24902D01*
X282397Y-23902D01*
X280398D01*
X279398Y-24902D01*
X514602Y-75400D02*
X520600D01*
Y-72401D01*
X519600Y-71401D01*
X518601D01*
X517601Y-72401D01*
Y-75400D01*
Y-72401D01*
X516601Y-71401D01*
X515602D01*
X514602Y-72401D01*
Y-75400D01*
X520600Y-69402D02*
X516601D01*
X514602Y-67403D01*
X516601Y-65403D01*
X520600D01*
X517601D01*
Y-69402D01*
X514602Y-63404D02*
Y-59405D01*
Y-61405D01*
X520600D01*
Y-57406D02*
Y-55406D01*
Y-56406D01*
X514602D01*
X515602Y-57406D01*
X39599Y-18702D02*
X38599Y-17702D01*
X36600D01*
X35600Y-18702D01*
Y-22700D01*
X36600Y-23700D01*
X38599D01*
X39599Y-22700D01*
X44597Y-23700D02*
Y-17702D01*
X41598Y-20701D01*
X45597D01*
X464399Y-34302D02*
X463399Y-33302D01*
X461400D01*
X460400Y-34302D01*
Y-38300D01*
X461400Y-39300D01*
X463399D01*
X464399Y-38300D01*
X466398Y-39300D02*
Y-33302D01*
X470397Y-39300D01*
Y-33302D01*
X476395Y-39300D02*
X472396D01*
X476395Y-35301D01*
Y-34302D01*
X475395Y-33302D01*
X473396D01*
X472396Y-34302D01*
X511810Y-20811D02*
Y-24810D01*
X513809Y-22810D02*
X509811D01*
X54185Y-23440D02*
X58184D01*
X56184Y-21441D02*
Y-25440D01*
D31*
X0Y0D02*
X610236D01*
Y-110236D02*
Y0D01*
X0Y-110236D02*
X610236D01*
X0D02*
Y0D01*
D51*
X608276Y-122047D02*
G03*
X608276Y-122047I-9850J0D01*
G01*
X25598D02*
G03*
X25598Y-122047I-9850J0D01*
G01*
X23622Y-11811D02*
G03*
X23622Y-11811I-11811J0D01*
G01*
X66929Y-78740D02*
G03*
X66929Y-78740I-11811J0D01*
G01*
X377953Y-11811D02*
G03*
X377953Y-11811I-11811J0D01*
G01*
X602362D02*
G03*
X602362Y-11811I-11811J0D01*
G01*
X610236Y-78740D02*
G03*
X610236Y-78740I-11811J0D01*
G01*
X430807Y-26378D02*
Y-19291D01*
X425787Y-26378D02*
X430807D01*
X425787Y-19291D02*
X430807D01*
X417224D02*
X422244D01*
X417224Y-26378D02*
X422244D01*
X417224D02*
Y-19291D01*
X429035Y-17224D02*
Y-3937D01*
X417520Y-17224D02*
X429035D01*
X417618Y-3937D02*
X429035D01*
X395768Y-17224D02*
Y-3937D01*
X407283D01*
X395768Y-17224D02*
X407283D01*
X508858Y-13976D02*
Y-9646D01*
X514764Y-13976D02*
Y-9646D01*
X44835Y-25947D02*
X49165D01*
X44835Y-31853D02*
X49165D01*
X155849Y-47743D02*
Y-40657D01*
X160869D01*
X155849Y-47743D02*
X160869D01*
X164412D02*
X169431D01*
X164412Y-40657D02*
X169431D01*
Y-47743D02*
Y-40657D01*
X169491Y-39743D02*
Y-32657D01*
X155909Y-39743D02*
Y-32657D01*
X169491D01*
X155909Y-39743D02*
X169491D01*
X111369Y-35343D02*
Y-28257D01*
X116388D01*
X111369Y-35343D02*
X116388D01*
X119931D02*
X124951D01*
X119931Y-28257D02*
X124951D01*
Y-35343D02*
Y-28257D01*
X40118Y-60118D02*
Y-50118D01*
X80118D01*
X40118Y-60118D02*
X80118D01*
Y-50118D01*
X243766Y-20836D02*
Y-13750D01*
X230184Y-20836D02*
Y-13750D01*
X243766D01*
X230184Y-20836D02*
X243766D01*
Y-11236D02*
Y-4150D01*
X230184Y-11236D02*
Y-4150D01*
X243766D01*
X230184Y-11236D02*
X243766D01*
X117209Y-61543D02*
Y-54457D01*
X130791Y-61543D02*
Y-54457D01*
X117209Y-61543D02*
X130791D01*
X117209Y-54457D02*
X130791D01*
X117209Y-53543D02*
Y-46457D01*
X130791Y-53543D02*
Y-46457D01*
X117209Y-53543D02*
X130791D01*
X117209Y-46457D02*
X130791D01*
X117209Y-45543D02*
Y-38457D01*
X130791Y-45543D02*
Y-38457D01*
X117209Y-45543D02*
X130791D01*
X117209Y-38457D02*
X130791D01*
X142224Y-37500D02*
X149311D01*
X142224D02*
Y-32480D01*
X149311Y-37500D02*
Y-32480D01*
Y-28937D02*
Y-23917D01*
X142224Y-28937D02*
Y-23917D01*
X149311D01*
X111268Y-27243D02*
Y-20157D01*
X116288D01*
X111268Y-27243D02*
X116288D01*
X119832D02*
X124851D01*
X119832Y-20157D02*
X124851D01*
Y-27243D02*
Y-20157D01*
X221622Y-14658D02*
Y-10328D01*
X227528Y-14658D02*
Y-10328D01*
X203832Y-5802D02*
X210918D01*
Y-10821D02*
Y-5802D01*
X203832Y-10821D02*
Y-5802D01*
Y-19384D02*
Y-14365D01*
X210918Y-19384D02*
Y-14365D01*
X203832Y-19384D02*
X210918D01*
X212432Y-5702D02*
X219518D01*
Y-10721D02*
Y-5702D01*
X212432Y-10721D02*
Y-5702D01*
Y-19284D02*
Y-14265D01*
X219518Y-19284D02*
Y-14265D01*
X212432Y-19284D02*
X219518D01*
X409154Y-26378D02*
Y-19291D01*
X395571Y-26378D02*
Y-19291D01*
X409154D01*
X395571Y-26378D02*
X409154D01*
X516929Y-18602D02*
X524016D01*
X516929D02*
Y-13583D01*
X524016Y-18602D02*
Y-13583D01*
Y-10039D02*
Y-5020D01*
X516929Y-10039D02*
Y-5020D01*
X524016D01*
X115748Y-66535D02*
X128347D01*
X68504Y-85433D02*
Y-64173D01*
X175591Y-85433D02*
Y-64173D01*
X68504Y-85433D02*
X175591D01*
X128347Y-66535D02*
X130709Y-64173D01*
X175591D01*
X113386D02*
X115748Y-66535D01*
X68504Y-64173D02*
X113386D01*
X433034Y-19579D02*
X435002D01*
X502325D02*
X503900D01*
X445026D02*
X492483D01*
X433034Y-7572D02*
X444254D01*
X433034Y-25879D02*
Y-7572D01*
X503900Y-25879D02*
Y-7572D01*
X493073D02*
X503900D01*
X433034Y-25879D02*
X503900D01*
X430400Y-3848D02*
X434336D01*
X432368Y-1880D02*
Y-5816D01*
X495700Y-1976D02*
X496150Y-1751D01*
X496825Y-1077D01*
Y-5800D01*
X439025Y-2601D02*
Y-2376D01*
X439250Y-1926D01*
X439475Y-1702D01*
X439925Y-1477D01*
X440824D01*
X441274Y-1702D01*
X441499Y-1926D01*
X441724Y-2376D01*
Y-2826D01*
X441499Y-3276D01*
X441049Y-3951D01*
X438800Y-6200D01*
X441949D01*
X445255Y-1477D02*
X443006Y-4625D01*
X446380D01*
X445255Y-1477D02*
Y-6200D01*
D52*
X558398Y-76677D02*
G03*
X558398Y-17037I-3280J29820D01*
G01*
X551838D02*
G03*
X525118Y-46857I3280J-29820D01*
G01*
D02*
G03*
X551838Y-76677I30000J0D01*
G01*
X540109Y-34368D02*
G03*
X540099Y-59334I15009J-12489D01*
G01*
X570118Y-59357D02*
G03*
X570127Y-34368I-15000J12500D01*
G01*
X526772Y-76384D02*
X547244D01*
X526772D02*
Y-64573D01*
X562992Y-76384D02*
X583464D01*
Y-64573D01*
X581201Y-62310D02*
X583464Y-64573D01*
X526772D02*
X529134Y-62211D01*
D53*
X273563Y-17200D02*
D03*
X273363Y-7100D02*
D03*
M02*
