M48
;Layer_Color=9474304
;FILE_FORMAT=2:5
INCH,LZ
;TYPE=PLATED
T1F00S00C0.01200
T2F00S00C0.01800
T3F00S00C0.02800
T4F00S00C0.03150
T5F00S00C0.03543
T6F00S00C0.04000
T7F00S00C0.12598
T8F00S00C0.16535
;TYPE=NON_PLATED
T9F00S00C0.04331
T10F00S00C0.05906
T11F00S00C0.15748
%
T01
X0007874Y-0102362
X0031496
X0055118
X007874
X0102362
X01058Y-00644
X01181Y-00634
X01136Y-00566
X01138Y-00517
X01088Y-00418
X01226Y-00362
X01204Y-00178
X01145Y-00084
X01026Y-00193
X0098603Y-0022303
X00943Y-0032
X00905Y-00342
X00867Y-00366
X00824Y-0039
X0078Y-0046
X00647Y-00451
X00582Y-00424
X00472Y-00191
X0035433Y-0003937
X0069Y-00027
X0084646Y-0029528
X0019685Y-0031496
X0007874
X0003937Y-0055118
X00261Y-00563
X0023622Y-0082677
X0003937
X0125984Y-0102362
X0149606
X0173228
X019685
X0220472
X0244094
X0267717
X0279528Y-0070866
Y-003937
X0259842Y-0055118
X0236221Y-003937
Y-0074803
X02149Y-00698
X0192913Y-0066929
X01929Y-00527
X01738Y-00484
X01804Y-00383
X01515Y-00408
X0160175Y-0026575
X01343Y-00245
X01277Y-00242
X0129Y-00301
X0135Y-00309
X01277Y-00369
X0134Y-005
X0136Y-00581
X0142126Y-0060236
X01394Y-00181
X01371Y-00061
X01316Y-00058
X01828Y-00799
X02979Y-00834
X0291339Y-0102362
X0314961
X0338583
X0362205
X0385827
X0409449
X0433071
X0425197Y-0074803
X04013Y-00727
X0405512Y-0055118
X042126Y-0043307
X04115Y-00228
X04167Y-00109
X0377953Y-0043307
X0376378Y-0078347
X03353Y-00697
X0314961Y-0070866
X0318898Y-0062992
X0311024Y-0043307
X0326772Y-0035433
X0334646Y-0007874
X0311024
X04407Y-00057
X0450787Y-0012992
X04517Y-0022
X0473Y-00252
X0475591Y-0018898
X0477559Y-0013386
X04802Y-00111
X0471Y-00119
X04891Y-00134
X0484252Y-0035433
X0496063
X0503937Y-0047244
X0480315
X0492126Y-0059055
X0488189Y-0074803
X0468504
Y-0059055
X0444882
Y-0074803
X0456693Y-0047244
X0465748Y-0037852
X04688Y-00331
X05115Y-00664
X0507874Y-0074803
X0503937Y-0102362
X0527559
X0551181
X0574803
X05364Y-00807
X0531496Y-0011811
X053937Y-0003937
X0570866
X0480315Y-0102362
X0456693
X0598425
Y-0059055
Y-0043307
Y-0027559
T02
X01284Y-00947
X025Y-00548
X03783Y-00947
T03
X0102362Y-0011811
Y-0006211
X0165354Y-0011811
X0184567
T04
X0086614Y-007874
X0094488
Y-0070866
X0086614
X0102362
X0110236
X011811
Y-007874
X0110236
X0102362
X0125984
X0133858
Y-0070866
X0125984
X0141732
X0149606
X015748
Y-007874
X0149606
X0141732
X0156417Y-0055118
X0166417
X0215472
X0225472
X0274528
X0284528
X0333583
X0343583
T05
X0045118Y-0055118
X0055118
X0065118
X0075118
T06
X0010822Y-0063918
Y-0046218
X0036422
Y-0063918
T07
X0366142Y-0011811
T08
X0055118Y-007874
X0011811Y-0011811
X0590551
X0598425Y-007874
T09
X0555118Y-0032093
T10
X0555217Y-006162
T11
X0015748Y-0122047
X0598425
M30
