G04 Layer_Color=13278208*
%FSLAX25Y25*%
%MOIN*%
G70*
G01*
G75*
%ADD27C,0.01000*%
%ADD29C,0.00500*%
%ADD43C,0.00787*%
D27*
X539370Y15748D02*
Y94488D01*
X389764D02*
X539370D01*
X389764Y15748D02*
Y94488D01*
Y15748D02*
X539370D01*
X551181Y0D02*
Y110236D01*
X377953Y0D02*
X551181D01*
X377953Y55118D02*
X551181D01*
X377953Y110236D02*
X551181D01*
X377953Y0D02*
Y110236D01*
X464567Y0D02*
Y110236D01*
X153549Y46260D02*
X166148D01*
X153549Y63976D02*
X166148D01*
X153549Y46260D02*
Y63976D01*
X166148Y46260D02*
Y63976D01*
X74000Y26378D02*
Y32376D01*
X71001D01*
X70001Y31376D01*
Y29377D01*
X71001Y28377D01*
X74000D01*
X72001D02*
X70001Y26378D01*
X65003D02*
Y32376D01*
X68002Y29377D01*
X64003D01*
X62004Y31376D02*
X61004Y32376D01*
X59005D01*
X58005Y31376D01*
Y27378D01*
X59005Y26378D01*
X61004D01*
X62004Y27378D01*
Y31376D01*
X139450Y40967D02*
Y46965D01*
X136451D01*
X135451Y45965D01*
Y43966D01*
X136451Y42966D01*
X139450D01*
X137450D02*
X135451Y40967D01*
X133452D02*
X131452D01*
X132452D01*
Y46965D01*
X133452Y45965D01*
X128453D02*
X127454Y46965D01*
X125454D01*
X124455Y45965D01*
Y44966D01*
X125454Y43966D01*
X124455Y42966D01*
Y41967D01*
X125454Y40967D01*
X127454D01*
X128453Y41967D01*
Y42966D01*
X127454Y43966D01*
X128453Y44966D01*
Y45965D01*
X127454Y43966D02*
X125454D01*
X54000Y26378D02*
Y32376D01*
X51001D01*
X50001Y31376D01*
Y29377D01*
X51001Y28377D01*
X54000D01*
X52001D02*
X50001Y26378D01*
X48002D02*
X46003D01*
X47002D01*
Y32376D01*
X48002Y31376D01*
X43004D02*
X42004Y32376D01*
X40005D01*
X39005Y31376D01*
Y30377D01*
X40005Y29377D01*
X41004D01*
X40005D01*
X39005Y28377D01*
Y27378D01*
X40005Y26378D01*
X42004D01*
X43004Y27378D01*
X106000Y62376D02*
Y56378D01*
Y58377D01*
X102001Y62376D01*
X105000Y59377D01*
X102001Y56378D01*
X100002D02*
X98003D01*
X99002D01*
Y62376D01*
X100002Y61376D01*
X210000Y72376D02*
Y66378D01*
X207001D01*
X206001Y67378D01*
Y71376D01*
X207001Y72376D01*
X210000D01*
X200003Y66378D02*
X204002D01*
X200003Y70377D01*
Y71376D01*
X201003Y72376D01*
X203002D01*
X204002Y71376D01*
X198004D02*
X197004Y72376D01*
X195005D01*
X194005Y71376D01*
Y70377D01*
X195005Y69377D01*
X196005D01*
X195005D01*
X194005Y68377D01*
Y67378D01*
X195005Y66378D01*
X197004D01*
X198004Y67378D01*
X250000Y72376D02*
Y66378D01*
X247001D01*
X246001Y67378D01*
Y71376D01*
X247001Y72376D01*
X250000D01*
X240003Y66378D02*
X244002D01*
X240003Y70377D01*
Y71376D01*
X241003Y72376D01*
X243002D01*
X244002Y71376D01*
X234005Y66378D02*
X238004D01*
X234005Y70377D01*
Y71376D01*
X235005Y72376D01*
X237004D01*
X238004Y71376D01*
X290000Y72376D02*
Y66378D01*
X287001D01*
X286001Y67378D01*
Y71376D01*
X287001Y72376D01*
X290000D01*
X280003Y66378D02*
X284002D01*
X280003Y70377D01*
Y71376D01*
X281003Y72376D01*
X283002D01*
X284002Y71376D01*
X278004Y66378D02*
X276005D01*
X277004D01*
Y72376D01*
X278004Y71376D01*
X330000Y72376D02*
Y66378D01*
X327001D01*
X326001Y67378D01*
Y71376D01*
X327001Y72376D01*
X330000D01*
X320003Y66378D02*
X324002D01*
X320003Y70377D01*
Y71376D01*
X321003Y72376D01*
X323002D01*
X324002Y71376D01*
X318004D02*
X317004Y72376D01*
X315005D01*
X314005Y71376D01*
Y67378D01*
X315005Y66378D01*
X317004D01*
X318004Y67378D01*
Y71376D01*
X86001Y31376D02*
X87001Y32376D01*
X89000D01*
X90000Y31376D01*
Y27378D01*
X89000Y26378D01*
X87001D01*
X86001Y27378D01*
X80003Y26378D02*
X84002D01*
X80003Y30377D01*
Y31376D01*
X81003Y32376D01*
X83002D01*
X84002Y31376D01*
X78004Y26378D02*
X76005D01*
X77004D01*
Y32376D01*
X78004Y31376D01*
X30001D02*
X31001Y32376D01*
X33000D01*
X34000Y31376D01*
Y27378D01*
X33000Y26378D01*
X31001D01*
X30001Y27378D01*
X28002Y26378D02*
X26003D01*
X27002D01*
Y32376D01*
X28002Y31376D01*
X19005Y32376D02*
X21004Y31376D01*
X23004Y29377D01*
Y27378D01*
X22004Y26378D01*
X20005D01*
X19005Y27378D01*
Y28377D01*
X20005Y29377D01*
X23004D01*
X210599Y21880D02*
X209599Y20880D01*
X207600D01*
X206600Y21880D01*
Y25878D01*
X207600Y26878D01*
X209599D01*
X210599Y25878D01*
X212598Y26878D02*
X214598D01*
X213598D01*
Y20880D01*
X212598Y21880D01*
X221595Y20880D02*
X217597D01*
Y23879D01*
X219596Y22879D01*
X220596D01*
X221595Y23879D01*
Y25878D01*
X220596Y26878D01*
X218596D01*
X217597Y25878D01*
X162899Y22180D02*
X161899Y21180D01*
X159900D01*
X158900Y22180D01*
Y26178D01*
X159900Y27178D01*
X161899D01*
X162899Y26178D01*
X164898Y27178D02*
X166897D01*
X165898D01*
Y21180D01*
X164898Y22180D01*
X172896Y27178D02*
Y21180D01*
X169896Y24179D01*
X173895D01*
X150001Y11376D02*
X151001Y12376D01*
X153000D01*
X154000Y11376D01*
Y7378D01*
X153000Y6378D01*
X151001D01*
X150001Y7378D01*
X148002D02*
X147002Y6378D01*
X145003D01*
X144003Y7378D01*
Y11376D01*
X145003Y12376D01*
X147002D01*
X148002Y11376D01*
Y10377D01*
X147002Y9377D01*
X144003D01*
X54000Y60376D02*
Y54378D01*
X51001D01*
X50001Y55378D01*
Y56377D01*
X51001Y57377D01*
X54000D01*
X51001D01*
X50001Y58377D01*
Y59376D01*
X51001Y60376D01*
X54000D01*
X48002Y54378D02*
X46003D01*
X47002D01*
Y60376D01*
X48002Y59376D01*
X170000Y50380D02*
Y56378D01*
X172999D01*
X173999Y55378D01*
Y51380D01*
X172999Y50380D01*
X170000D01*
X175998Y56378D02*
X177998D01*
X176998D01*
Y50380D01*
X175998Y51380D01*
X180997Y55378D02*
X181996Y56378D01*
X183996D01*
X184995Y55378D01*
Y51380D01*
X183996Y50380D01*
X181996D01*
X180997Y51380D01*
Y52379D01*
X181996Y53379D01*
X184995D01*
X65601Y10676D02*
X66601Y11676D01*
X68600D01*
X69600Y10676D01*
Y6678D01*
X68600Y5678D01*
X66601D01*
X65601Y6678D01*
X59603Y5678D02*
X63602D01*
X59603Y9677D01*
Y10676D01*
X60603Y11676D01*
X62602D01*
X63602Y10676D01*
X26152Y87529D02*
X25152Y88529D01*
Y90528D01*
X26152Y91528D01*
X30150D01*
X31150Y90528D01*
Y88529D01*
X30150Y87529D01*
X26152Y85530D02*
X25152Y84530D01*
Y82531D01*
X26152Y81531D01*
X27151D01*
X28151Y82531D01*
Y83530D01*
Y82531D01*
X29151Y81531D01*
X30150D01*
X31150Y82531D01*
Y84530D01*
X30150Y85530D01*
X125648Y79427D02*
X126648Y78427D01*
Y76428D01*
X125648Y75428D01*
X121650D01*
X120650Y76428D01*
Y78427D01*
X121650Y79427D01*
X120650Y84425D02*
X126648D01*
X123649Y81426D01*
Y85425D01*
X162112Y42028D02*
Y44027D01*
Y43027D01*
X168110D01*
X167111Y42028D01*
X152900Y44277D02*
Y40278D01*
X156899Y44277D01*
X157898D01*
X158898Y43277D01*
Y41278D01*
X157898Y40278D01*
X166225Y65650D02*
X167225Y66649D01*
Y68649D01*
X166225Y69648D01*
X165225D01*
X164225Y68649D01*
Y67649D01*
Y68649D01*
X163226Y69648D01*
X162226D01*
X161226Y68649D01*
Y66649D01*
X162226Y65650D01*
X153156Y68845D02*
X159154D01*
X156155Y65847D01*
Y69845D01*
X43460Y97563D02*
Y101562D01*
X45459Y99562D02*
X41460D01*
X108340Y69393D02*
Y65394D01*
X106341Y67394D02*
X110340D01*
D29*
X0Y0D02*
Y110236D01*
X594488D01*
Y0D02*
Y110236D01*
X0Y0D02*
X594488D01*
D43*
X23622Y98425D02*
G03*
X23622Y98425I-11811J0D01*
G01*
Y11811D02*
G03*
X23622Y11811I-11811J0D01*
G01*
X370079Y98425D02*
G03*
X370079Y98425I-11811J0D01*
G01*
X295276Y11811D02*
G03*
X295276Y11811I-11811J0D01*
G01*
X594488Y98425D02*
G03*
X594488Y98425I-11811J0D01*
G01*
Y11811D02*
G03*
X594488Y11811I-11811J0D01*
G01*
X327387Y56836D02*
G03*
X327416Y56687I-8489J-1718D01*
G01*
X288017Y56836D02*
G03*
X288046Y56687I-8489J-1718D01*
G01*
X248647Y56836D02*
G03*
X248676Y56687I-8489J-1718D01*
G01*
X209277Y56836D02*
G03*
X209306Y56687I-8489J-1718D01*
G01*
X132957Y23987D02*
X140043D01*
X132957Y37569D02*
X140043D01*
X132957Y23987D02*
Y37569D01*
X140043Y23987D02*
Y37569D01*
X80709Y4835D02*
Y11921D01*
X85728D01*
X80709Y4835D02*
X85728D01*
X89272D02*
X94291D01*
X89272Y11921D02*
X94291D01*
Y4835D02*
Y11921D01*
X176009Y19835D02*
Y26921D01*
Y19835D02*
X181028D01*
X176009Y26921D02*
X181028D01*
X184572D02*
X189591D01*
X184572Y19835D02*
X189591D01*
Y26921D01*
X204391Y19835D02*
Y26921D01*
X199372D02*
X204391D01*
X199372Y19835D02*
X204391D01*
X190809D02*
X195828D01*
X190809Y26921D02*
X195828D01*
X190809Y19835D02*
Y26921D01*
X128209Y6835D02*
Y13921D01*
Y6835D02*
X133228D01*
X128209Y13921D02*
X133228D01*
X136772D02*
X141791D01*
X136772Y6835D02*
X141791D01*
Y13921D01*
X75209Y33835D02*
Y40921D01*
Y33835D02*
X80228D01*
X75209Y40921D02*
X80228D01*
X83772D02*
X88791D01*
X83772Y33835D02*
X88791D01*
Y40921D01*
X54791Y33835D02*
Y40921D01*
X41209Y33835D02*
Y40921D01*
Y33835D02*
X54791D01*
X41209Y40921D02*
X54791D01*
X15209Y33835D02*
Y40921D01*
Y33835D02*
X20228D01*
X15209Y40921D02*
X20228D01*
X23772D02*
X28791D01*
X23772Y33835D02*
X28791D01*
Y40921D01*
X72791Y33835D02*
Y40921D01*
X59209Y33835D02*
Y40921D01*
Y33835D02*
X72791D01*
X59209Y40921D02*
X72791D01*
X41346Y66888D02*
X43316Y64918D01*
X21656Y66888D02*
X41346D01*
X19686Y64918D02*
X21656Y66888D01*
X19686Y45238D02*
Y64918D01*
Y45238D02*
X21656Y43268D01*
X41346D01*
X43316Y45238D01*
Y64918D01*
X92527Y66888D02*
X94497Y64918D01*
X72837Y66888D02*
X92527D01*
X70867Y64918D02*
X72837Y66888D01*
X70867Y45238D02*
Y64918D01*
Y45238D02*
X72837Y43268D01*
X92527D01*
X94497Y45238D01*
Y64918D01*
X40953Y88213D02*
Y92543D01*
X35047Y88213D02*
Y92543D01*
X110847Y74413D02*
Y78743D01*
X116753Y74413D02*
Y78743D01*
X334589Y55286D02*
X329528D01*
X332058Y52756D02*
Y57817D01*
X295218Y55286D02*
X290158D01*
X292688Y52756D02*
Y57817D01*
X255848Y55286D02*
X250787D01*
X253318Y52756D02*
Y57817D01*
X216478Y55286D02*
X211418D01*
X213948Y52756D02*
Y57817D01*
X51034Y42845D02*
X49066D01*
X50050D01*
Y48748D01*
X51034Y47764D01*
X102215Y42845D02*
X100248D01*
X101231D01*
Y48748D01*
X102215Y47764D01*
M02*
