%FSLAX25Y25*%
%MOIN*%
G70*
G01*
G75*
G04 Layer_Color=32896*
%ADD10C,0.03937*%
%ADD11C,0.03937*%
%ADD12R,0.03937X0.04724*%
%ADD13R,0.07874X0.11024*%
%ADD14R,0.06693X0.03740*%
%ADD15R,0.03740X0.06693*%
%ADD16R,0.05906X0.05118*%
%ADD17R,0.09213X0.08600*%
%ADD18R,0.04724X0.03937*%
G04:AMPARAMS|DCode=19|XSize=98.43mil|YSize=236.22mil|CornerRadius=0mil|HoleSize=0mil|Usage=FLASHONLY|Rotation=0.000|XOffset=0mil|YOffset=0mil|HoleType=Round|Shape=Octagon|*
%AMOCTAGOND19*
4,1,8,-0.02461,0.11811,0.02461,0.11811,0.04921,0.09350,0.04921,-0.09350,0.02461,-0.11811,-0.02461,-0.11811,-0.04921,-0.09350,-0.04921,0.09350,-0.02461,0.11811,0.0*
%
%ADD19OCTAGOND19*%

%ADD20O,0.09843X0.23622*%
%ADD21R,0.07874X0.07874*%
%ADD22R,0.01181X0.05512*%
%ADD23C,0.00800*%
%ADD24C,0.03000*%
%ADD25C,0.04000*%
%ADD26C,0.01000*%
%ADD27C,0.03200*%
%ADD28C,0.01600*%
%ADD29C,0.02000*%
%ADD30C,0.01500*%
%ADD31C,0.00500*%
%ADD32C,0.01969*%
%ADD33C,0.05906*%
%ADD34R,0.05906X0.05906*%
%ADD35C,0.24410*%
%ADD36C,0.20472*%
%ADD37C,0.05000*%
%ADD38O,0.05000X0.04000*%
%ADD39C,0.06299*%
%ADD40C,0.06000*%
%ADD41C,0.04331*%
%ADD42R,0.05118X0.05118*%
%ADD43C,0.05118*%
%ADD44C,0.02400*%
%ADD45C,0.03600*%
%ADD46R,0.11024X0.07874*%
%ADD47O,0.07480X0.02362*%
%ADD48O,0.06102X0.00984*%
%ADD49O,0.00984X0.06102*%
%ADD50R,0.05512X0.03937*%
%ADD51C,0.00787*%
%ADD52C,0.00700*%
%ADD53R,0.01075X0.08000*%
%ADD54C,0.05906*%
%ADD55C,0.04737*%
%ADD56R,0.04737X0.05524*%
%ADD57R,0.08674X0.11824*%
%ADD58R,0.07493X0.04540*%
%ADD59R,0.04540X0.07493*%
%ADD60R,0.06706X0.05918*%
%ADD61R,0.10013X0.09400*%
%ADD62R,0.05524X0.04737*%
G04:AMPARAMS|DCode=63|XSize=106.42mil|YSize=244.22mil|CornerRadius=0mil|HoleSize=0mil|Usage=FLASHONLY|Rotation=0.000|XOffset=0mil|YOffset=0mil|HoleType=Round|Shape=Octagon|*
%AMOCTAGOND63*
4,1,8,-0.02661,0.12211,0.02661,0.12211,0.05321,0.09550,0.05321,-0.09550,0.02661,-0.12211,-0.02661,-0.12211,-0.05321,-0.09550,-0.05321,0.09550,-0.02661,0.12211,0.0*
%
%ADD63OCTAGOND63*%

%ADD64O,0.10642X0.24422*%
%ADD65R,0.08674X0.08674*%
%ADD66R,0.01981X0.06312*%
%ADD67C,0.02769*%
%ADD68C,0.06706*%
%ADD69R,0.06706X0.06706*%
%ADD70C,0.25210*%
%ADD71C,0.21272*%
%ADD72C,0.05800*%
%ADD73O,0.05800X0.04800*%
%ADD74C,0.07099*%
%ADD75C,0.06800*%
%ADD76C,0.05131*%
%ADD77R,0.05918X0.05918*%
%ADD78C,0.05918*%
%ADD79R,0.11824X0.08674*%
%ADD80O,0.08280X0.03162*%
%ADD81O,0.06902X0.01784*%
%ADD82O,0.01784X0.06902*%
%ADD83R,0.06312X0.04737*%
%ADD84C,0.01575*%
%ADD85C,0.00984*%
%ADD86C,0.02362*%
D26*
X164101Y-83358D02*
X166955D01*
X165479Y-84835D02*
Y-81882D01*
X93504Y-61417D02*
Y-48819D01*
X111221Y-61417D02*
Y-48819D01*
X93504D02*
X111221D01*
X93504Y-61417D02*
X111221D01*
X245302Y-75099D02*
X244302Y-74099D01*
Y-72100D01*
X245302Y-71100D01*
X249300D01*
X250300Y-72100D01*
Y-74099D01*
X249300Y-75099D01*
X245302Y-77098D02*
X244302Y-78098D01*
Y-80097D01*
X245302Y-81097D01*
X246301D01*
X247301Y-80097D01*
Y-79097D01*
Y-80097D01*
X248301Y-81097D01*
X249300D01*
X250300Y-80097D01*
Y-78098D01*
X249300Y-77098D01*
X177102Y-72199D02*
X176102Y-71199D01*
Y-69200D01*
X177102Y-68200D01*
X181100D01*
X182100Y-69200D01*
Y-71199D01*
X181100Y-72199D01*
X177102Y-74198D02*
X176102Y-75198D01*
Y-77197D01*
X177102Y-78197D01*
X178101D01*
X179101Y-77197D01*
X180101Y-78197D01*
X181100D01*
X182100Y-77197D01*
Y-75198D01*
X181100Y-74198D01*
X180101D01*
X179101Y-75198D01*
X178101Y-74198D01*
X177102D01*
X179101Y-75198D02*
Y-77197D01*
X25102Y-24900D02*
X30100D01*
X31100Y-25900D01*
Y-27899D01*
X30100Y-28899D01*
X25102D01*
X31100Y-33897D02*
X25102D01*
X28101Y-30898D01*
Y-34897D01*
X93100Y-26902D02*
Y-31900D01*
X94100Y-32900D01*
X96099D01*
X97099Y-31900D01*
Y-26902D01*
X99098Y-27902D02*
X100098Y-26902D01*
X102097D01*
X103097Y-27902D01*
Y-28901D01*
X102097Y-29901D01*
X101097D01*
X102097D01*
X103097Y-30901D01*
Y-31900D01*
X102097Y-32900D01*
X100098D01*
X99098Y-31900D01*
X203500Y-57700D02*
Y-51702D01*
X200501D01*
X199501Y-52702D01*
Y-54701D01*
X200501Y-55701D01*
X203500D01*
X201501D02*
X199501Y-57700D01*
X194503D02*
Y-51702D01*
X197502Y-54701D01*
X193503D01*
X187505Y-51702D02*
X191504D01*
Y-54701D01*
X189505Y-53701D01*
X188505D01*
X187505Y-54701D01*
Y-56700D01*
X188505Y-57700D01*
X190504D01*
X191504Y-56700D01*
X262800Y-58100D02*
Y-52102D01*
X259801D01*
X258801Y-53102D01*
Y-55101D01*
X259801Y-56101D01*
X262800D01*
X260801D02*
X258801Y-58100D01*
X253803D02*
Y-52102D01*
X256802Y-55101D01*
X252803D01*
X247805Y-58100D02*
Y-52102D01*
X250804Y-55101D01*
X246805D01*
X323100Y-57200D02*
Y-51202D01*
X320101D01*
X319101Y-52202D01*
Y-54201D01*
X320101Y-55201D01*
X323100D01*
X321101D02*
X319101Y-57200D01*
X314103D02*
Y-51202D01*
X317102Y-54201D01*
X313103D01*
X311104Y-52202D02*
X310104Y-51202D01*
X308105D01*
X307105Y-52202D01*
Y-53201D01*
X308105Y-54201D01*
X309104D01*
X308105D01*
X307105Y-55201D01*
Y-56200D01*
X308105Y-57200D01*
X310104D01*
X311104Y-56200D01*
X344813Y-32143D02*
Y-26144D01*
X341814D01*
X340814Y-27144D01*
Y-29144D01*
X341814Y-30143D01*
X344813D01*
X342813D02*
X340814Y-32143D01*
X335816D02*
Y-26144D01*
X338815Y-29144D01*
X334816D01*
X332817Y-32143D02*
X330817D01*
X331817D01*
Y-26144D01*
X332817Y-27144D01*
X34800Y-79300D02*
X28802D01*
Y-82299D01*
X29802Y-83299D01*
X31801D01*
X32801Y-82299D01*
Y-79300D01*
Y-81299D02*
X34800Y-83299D01*
Y-88297D02*
X28802D01*
X31801Y-85298D01*
Y-89297D01*
X29802Y-91296D02*
X28802Y-92296D01*
Y-94295D01*
X29802Y-95295D01*
X33800D01*
X34800Y-94295D01*
Y-92296D01*
X33800Y-91296D01*
X29802D01*
X66000Y-6500D02*
X60002D01*
Y-9499D01*
X61002Y-10499D01*
X63001D01*
X64001Y-9499D01*
Y-6500D01*
Y-8499D02*
X66000Y-10499D01*
Y-12498D02*
Y-14497D01*
Y-13498D01*
X60002D01*
X61002Y-12498D01*
Y-17496D02*
X60002Y-18496D01*
Y-20495D01*
X61002Y-21495D01*
X62001D01*
X63001Y-20495D01*
X64001Y-21495D01*
X65000D01*
X66000Y-20495D01*
Y-18496D01*
X65000Y-17496D01*
X64001D01*
X63001Y-18496D01*
X62001Y-17496D01*
X61002D01*
X63001Y-18496D02*
Y-20495D01*
X40826Y-15644D02*
Y-9646D01*
X37827D01*
X36827Y-10646D01*
Y-12645D01*
X37827Y-13645D01*
X40826D01*
X38827D02*
X36827Y-15644D01*
X34828D02*
X32829D01*
X33828D01*
Y-9646D01*
X34828Y-10646D01*
X29829Y-15644D02*
X27830D01*
X28830D01*
Y-9646D01*
X29829Y-10646D01*
X82100Y-26300D02*
X76102D01*
Y-29299D01*
X77102Y-30299D01*
X79101D01*
X80101Y-29299D01*
Y-26300D01*
Y-28299D02*
X82100Y-30299D01*
Y-32298D02*
Y-34297D01*
Y-33298D01*
X76102D01*
X77102Y-32298D01*
Y-37296D02*
X76102Y-38296D01*
Y-40295D01*
X77102Y-41295D01*
X81100D01*
X82100Y-40295D01*
Y-38296D01*
X81100Y-37296D01*
X77102D01*
X19700Y-57598D02*
Y-51600D01*
Y-53599D01*
X23699Y-57598D01*
X20700Y-54599D01*
X23699Y-51600D01*
X25698D02*
X27697D01*
X26698D01*
Y-57598D01*
X25698Y-56598D01*
X170630Y-37860D02*
Y-43858D01*
X167631D01*
X166631Y-42859D01*
Y-38860D01*
X167631Y-37860D01*
X170630D01*
X160633Y-43858D02*
X164632D01*
X160633Y-39860D01*
Y-38860D01*
X161633Y-37860D01*
X163632D01*
X164632Y-38860D01*
X158634D02*
X157634Y-37860D01*
X155635D01*
X154635Y-38860D01*
Y-39860D01*
X155635Y-40859D01*
X156634D01*
X155635D01*
X154635Y-41859D01*
Y-42859D01*
X155635Y-43858D01*
X157634D01*
X158634Y-42859D01*
X230315Y-37860D02*
Y-43858D01*
X227316D01*
X226316Y-42859D01*
Y-38860D01*
X227316Y-37860D01*
X230315D01*
X220318Y-43858D02*
X224317D01*
X220318Y-39860D01*
Y-38860D01*
X221318Y-37860D01*
X223317D01*
X224317Y-38860D01*
X214320Y-43858D02*
X218319D01*
X214320Y-39860D01*
Y-38860D01*
X215320Y-37860D01*
X217319D01*
X218319Y-38860D01*
X290000Y-37860D02*
Y-43858D01*
X287001D01*
X286001Y-42859D01*
Y-38860D01*
X287001Y-37860D01*
X290000D01*
X280003Y-43858D02*
X284002D01*
X280003Y-39860D01*
Y-38860D01*
X281003Y-37860D01*
X283002D01*
X284002Y-38860D01*
X278004Y-43858D02*
X276005D01*
X277004D01*
Y-37860D01*
X278004Y-38860D01*
X346100Y-68602D02*
Y-74600D01*
X343101D01*
X342101Y-73600D01*
Y-69602D01*
X343101Y-68602D01*
X346100D01*
X336103Y-74600D02*
X340102D01*
X336103Y-70601D01*
Y-69602D01*
X337103Y-68602D01*
X339102D01*
X340102Y-69602D01*
X334104D02*
X333104Y-68602D01*
X331105D01*
X330105Y-69602D01*
Y-73600D01*
X331105Y-74600D01*
X333104D01*
X334104Y-73600D01*
Y-69602D01*
X379753Y-68743D02*
X380752Y-69743D01*
Y-71742D01*
X379753Y-72742D01*
X375754D01*
X374754Y-71742D01*
Y-69743D01*
X375754Y-68743D01*
X374754Y-62745D02*
Y-66744D01*
X378753Y-62745D01*
X379753D01*
X380752Y-63745D01*
Y-65744D01*
X379753Y-66744D01*
X374754Y-57747D02*
X380752D01*
X377753Y-60746D01*
Y-56747D01*
X12102Y-84099D02*
X11102Y-83099D01*
Y-81100D01*
X12102Y-80100D01*
X16100D01*
X17100Y-81100D01*
Y-83099D01*
X16100Y-84099D01*
X17100Y-90097D02*
Y-86098D01*
X13101Y-90097D01*
X12102D01*
X11102Y-89097D01*
Y-87098D01*
X12102Y-86098D01*
X17100Y-92096D02*
Y-94095D01*
Y-93096D01*
X11102D01*
X12102Y-92096D01*
X62999Y-47198D02*
X61999Y-48198D01*
X60000D01*
X59000Y-47198D01*
Y-43200D01*
X60000Y-42200D01*
X61999D01*
X62999Y-43200D01*
X64998Y-42200D02*
X66997D01*
X65998D01*
Y-48198D01*
X64998Y-47198D01*
X69996Y-48198D02*
X73995D01*
Y-47198D01*
X69996Y-43200D01*
Y-42200D01*
X175999Y-29598D02*
X174999Y-30598D01*
X173000D01*
X172000Y-29598D01*
Y-25600D01*
X173000Y-24600D01*
X174999D01*
X175999Y-25600D01*
X177998Y-24600D02*
X179997D01*
X178998D01*
Y-30598D01*
X177998Y-29598D01*
X186995Y-30598D02*
X182996D01*
Y-27599D01*
X184996Y-28599D01*
X185995D01*
X186995Y-27599D01*
Y-25600D01*
X185995Y-24600D01*
X183996D01*
X182996Y-25600D01*
X197499Y-29898D02*
X196499Y-30898D01*
X194500D01*
X193500Y-29898D01*
Y-25900D01*
X194500Y-24900D01*
X196499D01*
X197499Y-25900D01*
X199498Y-24900D02*
X201497D01*
X200498D01*
Y-30898D01*
X199498Y-29898D01*
X207495Y-24900D02*
Y-30898D01*
X204496Y-27899D01*
X208495D01*
X120600Y-58398D02*
Y-52400D01*
X123599D01*
X124599Y-53400D01*
Y-57398D01*
X123599Y-58398D01*
X120600D01*
X126598Y-52400D02*
X128597D01*
X127598D01*
Y-58398D01*
X126598Y-57398D01*
X131596Y-53400D02*
X132596Y-52400D01*
X134596D01*
X135595Y-53400D01*
Y-57398D01*
X134596Y-58398D01*
X132596D01*
X131596Y-57398D01*
Y-56399D01*
X132596Y-55399D01*
X135595D01*
X105799Y-3802D02*
X104799Y-2802D01*
X102800D01*
X101800Y-3802D01*
Y-7800D01*
X102800Y-8800D01*
X104799D01*
X105799Y-7800D01*
X107798Y-8800D02*
X109797D01*
X108798D01*
Y-2802D01*
X107798Y-3802D01*
X77502Y-14799D02*
X76502Y-13799D01*
Y-11800D01*
X77502Y-10800D01*
X81500D01*
X82500Y-11800D01*
Y-13799D01*
X81500Y-14799D01*
X82500Y-20797D02*
Y-16798D01*
X78501Y-20797D01*
X77502D01*
X76502Y-19797D01*
Y-17798D01*
X77502Y-16798D01*
X255240Y-80485D02*
Y-84484D01*
X253241Y-82484D02*
X257240D01*
X89272Y-57382D02*
X91271D01*
X90271D01*
Y-63380D01*
X89272Y-62380D01*
X91521Y-48170D02*
X87522D01*
X91521Y-52168D01*
Y-53168D01*
X90521Y-54168D01*
X88522D01*
X87522Y-53168D01*
X112894Y-61494D02*
X113893Y-62494D01*
X115893D01*
X116892Y-61494D01*
Y-60495D01*
X115893Y-59495D01*
X114893D01*
X115893D01*
X116892Y-58495D01*
Y-57496D01*
X115893Y-56496D01*
X113893D01*
X112894Y-57496D01*
X116090Y-48425D02*
Y-54423D01*
X113091Y-51424D01*
X117089D01*
D31*
X0Y0D02*
X610236D01*
Y-110236D02*
Y0D01*
X0Y-110236D02*
X610236D01*
X0D02*
Y0D01*
D51*
X23622Y-11811D02*
G03*
X23622Y-11811I-11811J0D01*
G01*
X66929Y-78740D02*
G03*
X66929Y-78740I-11811J0D01*
G01*
X377953Y-11811D02*
G03*
X377953Y-11811I-11811J0D01*
G01*
X602362D02*
G03*
X602362Y-11811I-11811J0D01*
G01*
X610236Y-78740D02*
G03*
X610236Y-78740I-11811J0D01*
G01*
X347072Y-53400D02*
G03*
X347101Y-53549I-8489J-1718D01*
G01*
X288017Y-53400D02*
G03*
X288046Y-53549I-8489J-1718D01*
G01*
X228962Y-53400D02*
G03*
X228991Y-53549I-8489J-1718D01*
G01*
X169907Y-53400D02*
G03*
X169935Y-53549I-8489J-1718D01*
G01*
X290469Y-58543D02*
Y-51457D01*
X304051Y-58543D02*
Y-51457D01*
X290469D02*
X304051D01*
X290469Y-58543D02*
X304051D01*
X67857Y-20191D02*
X74943D01*
X67857Y-6609D02*
X74943D01*
X67857Y-20191D02*
Y-6609D01*
X74943Y-20191D02*
Y-6609D01*
X189657Y-7709D02*
X196743D01*
X189657Y-12728D02*
Y-7709D01*
X196743Y-12728D02*
Y-7709D01*
Y-21291D02*
Y-16272D01*
X189657Y-21291D02*
Y-16272D01*
Y-21291D02*
X196743D01*
X170957Y-7709D02*
X178043D01*
X170957Y-12728D02*
Y-7709D01*
X178043Y-12728D02*
Y-7709D01*
Y-21291D02*
Y-16272D01*
X170957Y-21291D02*
Y-16272D01*
Y-21291D02*
X178043D01*
X263653Y-75465D02*
Y-71135D01*
X257747Y-75465D02*
Y-71135D01*
X371949Y-61024D02*
Y-49508D01*
X358661Y-61024D02*
Y-49508D01*
X371949D01*
X358661Y-82776D02*
Y-71358D01*
X371949Y-82776D02*
Y-71260D01*
X358661Y-82776D02*
X371949D01*
X167447Y-76665D02*
Y-72335D01*
X173353Y-76665D02*
Y-72335D01*
X55791Y-46343D02*
Y-39257D01*
X50772D02*
X55791D01*
X50772Y-46343D02*
X55791D01*
X42209D02*
X47228D01*
X42209Y-39257D02*
X47228D01*
X42209Y-46343D02*
Y-39257D01*
X84969Y-9543D02*
Y-2457D01*
X89988D01*
X84969Y-9543D02*
X89988D01*
X93532D02*
X98551D01*
X93532Y-2457D02*
X98551D01*
Y-9543D02*
Y-2457D01*
X44390Y-15354D02*
Y-8268D01*
X57972Y-15354D02*
Y-8268D01*
X44390D02*
X57972D01*
X44390Y-15354D02*
X57972D01*
X65857Y-40691D02*
X72943D01*
X65857Y-27109D02*
X72943D01*
X65857Y-40691D02*
Y-27109D01*
X72943Y-40691D02*
Y-27109D01*
X43307Y-17520D02*
X51181D01*
X43307Y-37598D02*
X51181D01*
Y-17520D01*
X43307Y-37598D02*
Y-17520D01*
X141142Y-38780D02*
Y-16339D01*
X118701Y-38780D02*
Y-16339D01*
Y-38780D02*
X141142D01*
X118701Y-16339D02*
X141142D01*
X84909Y-17943D02*
Y-10857D01*
X89928D01*
X84909Y-17943D02*
X89928D01*
X93472D02*
X98491D01*
X93472Y-10857D02*
X98491D01*
Y-17943D02*
Y-10857D01*
X21391Y-77243D02*
Y-70157D01*
X16372D02*
X21391D01*
X16372Y-77243D02*
X21391D01*
X7809D02*
X12828D01*
X7809Y-70157D02*
X12828D01*
X7809Y-77243D02*
Y-70157D01*
X25909Y-77043D02*
Y-69957D01*
X39491Y-77043D02*
Y-69957D01*
X25909D02*
X39491D01*
X25909Y-77043D02*
X39491D01*
X11802Y-64918D02*
X13772Y-66888D01*
X33462D01*
X35432Y-64918D01*
Y-45238D01*
X33462Y-43268D02*
X35432Y-45238D01*
X13772Y-43268D02*
X33462D01*
X11802Y-45238D02*
X13772Y-43268D01*
X11802Y-64918D02*
Y-45238D01*
X331869Y-42643D02*
Y-35557D01*
X345451Y-42643D02*
Y-35557D01*
X331869D02*
X345451D01*
X331869Y-42643D02*
X345451D01*
X231209Y-58543D02*
Y-51457D01*
X244791Y-58543D02*
Y-51457D01*
X231209D02*
X244791D01*
X231209Y-58543D02*
X244791D01*
X172209D02*
Y-51457D01*
X185791Y-58543D02*
Y-51457D01*
X172209D02*
X185791D01*
X172209Y-58543D02*
X185791D01*
X365202Y-85342D02*
Y-89277D01*
X363235Y-87310D02*
X367170D01*
X354273Y-54950D02*
X349213D01*
X351743Y-57480D02*
Y-52420D01*
X294561Y-47570D02*
X289500D01*
X292030Y-50100D02*
Y-45039D01*
X235761Y-46570D02*
X230700D01*
X233230Y-49100D02*
Y-44039D01*
X177261Y-47170D02*
X172200D01*
X174730Y-49700D02*
Y-44639D01*
X4084Y-42845D02*
X6052D01*
X5068D01*
Y-48748D01*
X4084Y-47764D01*
D84*
X47244Y-34449D02*
G03*
X47244Y-34449I-787J0D01*
G01*
D85*
X38484Y-38405D02*
G03*
X38484Y-38405I-492J0D01*
G01*
X116929Y-11713D02*
G03*
X116929Y-11713I-492J0D01*
G01*
D86*
X123819Y-20276D02*
G03*
X123819Y-20276I-1181J0D01*
G01*
M02*
