G04 Layer_Color=8421504*
%FSLAX25Y25*%
%MOIN*%
G70*
G01*
G75*
%ADD10R,0.04724X0.03937*%
%ADD11R,0.05906X0.05118*%
%ADD12R,0.03937X0.04724*%
%ADD13R,0.11024X0.07874*%
%ADD14R,0.09213X0.08600*%
%ADD15O,0.02362X0.07480*%
%ADD16O,0.06102X0.00984*%
%ADD17O,0.00984X0.06102*%
%ADD18R,0.06693X0.03740*%
%ADD19R,0.07874X0.07874*%
%ADD20R,0.01181X0.05512*%
G04:AMPARAMS|DCode=21|XSize=98.43mil|YSize=236.22mil|CornerRadius=0mil|HoleSize=0mil|Usage=FLASHONLY|Rotation=0.000|XOffset=0mil|YOffset=0mil|HoleType=Round|Shape=Octagon|*
%AMOCTAGOND21*
4,1,8,-0.02461,0.11811,0.02461,0.11811,0.04921,0.09350,0.04921,-0.09350,0.02461,-0.11811,-0.02461,-0.11811,-0.04921,-0.09350,-0.04921,0.09350,-0.02461,0.11811,0.0*
%
%ADD21OCTAGOND21*%

%ADD22O,0.09843X0.23622*%
%ADD29C,0.00500*%
D10*
X436500Y70638D02*
D03*
Y78118D02*
D03*
X160800Y66018D02*
D03*
Y58538D02*
D03*
X152650Y65918D02*
D03*
Y58438D02*
D03*
X144500Y65918D02*
D03*
Y58438D02*
D03*
X284400Y70238D02*
D03*
Y77718D02*
D03*
X323900Y70238D02*
D03*
Y77718D02*
D03*
X31600Y28818D02*
D03*
Y21338D02*
D03*
X31500Y6138D02*
D03*
Y13618D02*
D03*
X113900Y46838D02*
D03*
Y54318D02*
D03*
X244900Y70238D02*
D03*
Y77718D02*
D03*
X223600Y17018D02*
D03*
Y9538D02*
D03*
X232200Y17118D02*
D03*
Y9638D02*
D03*
X460900Y71138D02*
D03*
Y78618D02*
D03*
X480100Y66738D02*
D03*
Y74218D02*
D03*
D11*
X316709Y24606D02*
D03*
X330709D02*
D03*
Y14764D02*
D03*
X316709D02*
D03*
D12*
X256940Y8578D02*
D03*
X249460D02*
D03*
X256940Y18178D02*
D03*
X249460D02*
D03*
X62260Y18378D02*
D03*
X69740D02*
D03*
X82260Y19678D02*
D03*
X89740D02*
D03*
X166760Y38978D02*
D03*
X174240D02*
D03*
X205360Y68178D02*
D03*
X212840D02*
D03*
D13*
X424400Y72758D02*
D03*
Y95198D02*
D03*
X448700D02*
D03*
Y72758D02*
D03*
D14*
X80900Y9178D02*
D03*
D15*
X39700Y16926D02*
D03*
X44700D02*
D03*
X49700D02*
D03*
X54700D02*
D03*
X39700Y35430D02*
D03*
X44700D02*
D03*
X49700D02*
D03*
X54700D02*
D03*
D16*
X121949Y16732D02*
D03*
Y18701D02*
D03*
Y20669D02*
D03*
Y22638D02*
D03*
Y24606D02*
D03*
Y26575D02*
D03*
Y28543D02*
D03*
Y30512D02*
D03*
Y32480D02*
D03*
Y34449D02*
D03*
Y36417D02*
D03*
Y38386D02*
D03*
X153642D02*
D03*
Y36417D02*
D03*
Y34449D02*
D03*
Y32480D02*
D03*
Y30512D02*
D03*
Y28543D02*
D03*
Y26575D02*
D03*
Y24606D02*
D03*
Y22638D02*
D03*
Y20669D02*
D03*
Y18701D02*
D03*
Y16732D02*
D03*
D17*
X126969Y43406D02*
D03*
X128937D02*
D03*
X130906D02*
D03*
X132874D02*
D03*
X134843D02*
D03*
X136811D02*
D03*
X138780D02*
D03*
X140748D02*
D03*
X142717D02*
D03*
X144685D02*
D03*
X146654D02*
D03*
X148622D02*
D03*
Y11713D02*
D03*
X146654D02*
D03*
X144685D02*
D03*
X142717D02*
D03*
X140748D02*
D03*
X138780D02*
D03*
X136811D02*
D03*
X134843D02*
D03*
X132874D02*
D03*
X130906D02*
D03*
X128937D02*
D03*
X126969D02*
D03*
D18*
X177300Y59166D02*
D03*
Y70190D02*
D03*
X240800Y7866D02*
D03*
Y18890D02*
D03*
X471200Y67366D02*
D03*
Y78390D02*
D03*
D19*
X493105Y45518D02*
D03*
X435605D02*
D03*
D20*
X483268Y55118D02*
D03*
X485236D02*
D03*
X487205D02*
D03*
X473425D02*
D03*
X475394D02*
D03*
X477362D02*
D03*
X479331D02*
D03*
X481299D02*
D03*
X463583D02*
D03*
X465551D02*
D03*
X467520D02*
D03*
X469488D02*
D03*
X471457D02*
D03*
X453740D02*
D03*
X455709D02*
D03*
X457677D02*
D03*
X459646D02*
D03*
X461614D02*
D03*
X451772D02*
D03*
X449803D02*
D03*
X447835D02*
D03*
X445866D02*
D03*
X443898D02*
D03*
X441929D02*
D03*
D21*
X559055Y21253D02*
D03*
D22*
Y88970D02*
D03*
D29*
X0Y0D02*
Y110236D01*
X594488D01*
Y0D02*
Y110236D01*
X0Y0D02*
X594488D01*
M02*
