%FSLAX25Y25*%
%MOIN*%
G70*
G01*
G75*
G04 Layer_Color=65535*
%ADD10C,0.03937*%
%ADD11R,0.07874X0.11024*%
%ADD12C,0.03937*%
%ADD13R,0.03937X0.09055*%
%ADD14R,0.09055X0.11024*%
%ADD15R,0.04724X0.03937*%
%ADD16R,0.03937X0.04724*%
%ADD17R,0.04724X0.05512*%
%ADD18R,0.06693X0.03740*%
%ADD19R,0.09843X0.07087*%
%ADD20C,0.03000*%
%ADD21C,0.00800*%
%ADD22C,0.06000*%
%ADD23C,0.04000*%
%ADD24C,0.01000*%
%ADD25C,0.02000*%
%ADD26C,0.11000*%
%ADD27C,0.00500*%
%ADD28C,0.01969*%
%ADD29R,0.06693X0.06693*%
%ADD30C,0.06693*%
%ADD31O,0.19685X0.15748*%
%ADD32C,0.06102*%
%ADD33R,0.06299X0.06299*%
%ADD34C,0.06299*%
%ADD35C,0.07087*%
%ADD36C,0.07874*%
%ADD37C,0.10630*%
%ADD38R,0.10630X0.10630*%
%ADD39R,0.05118X0.05118*%
%ADD40C,0.05118*%
%ADD41C,0.03600*%
%ADD42C,0.02400*%
%ADD43R,0.05512X0.04724*%
%ADD44R,0.01575X0.03937*%
%ADD45R,0.07874X0.01575*%
%ADD46R,0.03937X0.11811*%
%ADD47R,0.18898X0.20079*%
%ADD48R,0.04724X0.03150*%
%ADD49R,0.02953X0.02362*%
%ADD50R,0.03740X0.06693*%
%ADD51O,0.07874X0.02402*%
%ADD52O,0.07874X0.02400*%
%ADD53C,0.01500*%
%ADD54C,0.00787*%
%ADD55C,0.00984*%
%ADD56C,0.11811*%
%ADD57R,0.17323X0.01378*%
G36*
X-484767Y99577D02*
X-484777Y99557D01*
X-484787Y99509D01*
X-484806Y99431D01*
X-484826Y99333D01*
X-484875Y99128D01*
X-484885Y99030D01*
X-484894Y98943D01*
Y98933D01*
Y98913D01*
X-484885Y98884D01*
Y98845D01*
X-484846Y98767D01*
X-484826Y98728D01*
X-484787Y98689D01*
X-484777D01*
X-484758Y98679D01*
X-484728Y98659D01*
X-484680Y98650D01*
X-484611Y98630D01*
X-484514Y98611D01*
X-484397Y98591D01*
X-484260Y98581D01*
X-484299Y98425D01*
X-486563D01*
X-486505Y98581D01*
X-486378D01*
X-486310Y98591D01*
X-486222D01*
X-486144Y98601D01*
X-486075Y98611D01*
X-486026Y98630D01*
X-486017D01*
X-485997Y98650D01*
X-485958Y98669D01*
X-485919Y98689D01*
X-485831Y98757D01*
X-485744Y98845D01*
X-485734Y98855D01*
X-485714Y98884D01*
X-485685Y98943D01*
X-485656Y99011D01*
X-485607Y99118D01*
X-485558Y99245D01*
X-485509Y99391D01*
X-485451Y99577D01*
X-484426Y103139D01*
Y103149D01*
X-484416Y103188D01*
X-484397Y103237D01*
X-484377Y103305D01*
X-484367Y103364D01*
X-484348Y103422D01*
X-484338Y103471D01*
X-484328Y103500D01*
Y103520D01*
X-484318Y103559D01*
Y103608D01*
Y103676D01*
Y103686D01*
Y103705D01*
X-484328Y103764D01*
X-484358Y103842D01*
X-484406Y103920D01*
X-484416Y103930D01*
X-484465Y103969D01*
X-484533Y103998D01*
X-484631Y104008D01*
X-484680D01*
X-484719Y103998D01*
X-484767D01*
X-484836Y103988D01*
X-484904Y103979D01*
X-484992Y103959D01*
X-485041Y104115D01*
X-483567Y104525D01*
X-483352D01*
X-484767Y99577D01*
D02*
G37*
G36*
X-512379D02*
X-512388Y99557D01*
X-512398Y99509D01*
X-512418Y99431D01*
X-512437Y99333D01*
X-512486Y99128D01*
X-512496Y99030D01*
X-512505Y98943D01*
Y98933D01*
Y98913D01*
X-512496Y98884D01*
Y98845D01*
X-512457Y98767D01*
X-512437Y98728D01*
X-512398Y98689D01*
X-512388D01*
X-512369Y98679D01*
X-512339Y98659D01*
X-512291Y98650D01*
X-512222Y98630D01*
X-512125Y98611D01*
X-512008Y98591D01*
X-511871Y98581D01*
X-511910Y98425D01*
X-514174D01*
X-514116Y98581D01*
X-513989D01*
X-513921Y98591D01*
X-513833D01*
X-513755Y98601D01*
X-513686Y98611D01*
X-513638Y98630D01*
X-513628D01*
X-513608Y98650D01*
X-513569Y98669D01*
X-513530Y98689D01*
X-513442Y98757D01*
X-513354Y98845D01*
X-513345Y98855D01*
X-513325Y98884D01*
X-513296Y98943D01*
X-513267Y99011D01*
X-513218Y99118D01*
X-513169Y99245D01*
X-513120Y99391D01*
X-513062Y99577D01*
X-512037Y103139D01*
Y103149D01*
X-512027Y103188D01*
X-512008Y103237D01*
X-511988Y103305D01*
X-511978Y103364D01*
X-511959Y103422D01*
X-511949Y103471D01*
X-511939Y103500D01*
Y103520D01*
X-511930Y103559D01*
Y103608D01*
Y103676D01*
Y103686D01*
Y103705D01*
X-511939Y103764D01*
X-511969Y103842D01*
X-512017Y103920D01*
X-512027Y103930D01*
X-512076Y103969D01*
X-512144Y103998D01*
X-512242Y104008D01*
X-512291D01*
X-512330Y103998D01*
X-512379D01*
X-512447Y103988D01*
X-512515Y103979D01*
X-512603Y103959D01*
X-512652Y104115D01*
X-511178Y104525D01*
X-510963D01*
X-512379Y99577D01*
D02*
G37*
G36*
X-520782Y104515D02*
X-520675Y104506D01*
X-520538Y104476D01*
X-520392Y104428D01*
X-520226Y104359D01*
X-520069Y104262D01*
X-519913Y104135D01*
X-519894Y104115D01*
X-519855Y104067D01*
X-519786Y103979D01*
X-519718Y103871D01*
X-519650Y103735D01*
X-519581Y103569D01*
X-519542Y103393D01*
X-519523Y103188D01*
Y103169D01*
Y103120D01*
X-519533Y103051D01*
X-519542Y102954D01*
X-519552Y102837D01*
X-519581Y102720D01*
X-519611Y102593D01*
X-519660Y102466D01*
Y102456D01*
X-519669Y102446D01*
X-519679Y102417D01*
X-519698Y102378D01*
X-519728Y102329D01*
X-519757Y102271D01*
X-519835Y102124D01*
X-519943Y101958D01*
X-520079Y101763D01*
X-520245Y101548D01*
X-520440Y101314D01*
X-520450Y101304D01*
X-520479Y101265D01*
X-520528Y101216D01*
X-520597Y101138D01*
X-520684Y101051D01*
X-520792Y100934D01*
X-520919Y100807D01*
X-521055Y100670D01*
X-521211Y100504D01*
X-521387Y100338D01*
X-521572Y100153D01*
X-521777Y99948D01*
X-522002Y99743D01*
X-522236Y99528D01*
X-522490Y99294D01*
X-522753Y99060D01*
X-521172D01*
X-521104Y99069D01*
X-521026Y99079D01*
X-520928Y99099D01*
X-520831Y99118D01*
X-520733Y99157D01*
X-520645Y99206D01*
X-520636Y99216D01*
X-520606Y99235D01*
X-520567Y99265D01*
X-520518Y99313D01*
X-520460Y99372D01*
X-520401Y99440D01*
X-520353Y99518D01*
X-520304Y99606D01*
X-520128D01*
X-520636Y98425D01*
X-523622D01*
Y98581D01*
X-523612Y98591D01*
X-523593Y98601D01*
X-523563Y98630D01*
X-523524Y98669D01*
X-523466Y98718D01*
X-523407Y98777D01*
X-523251Y98913D01*
X-523075Y99079D01*
X-522861Y99274D01*
X-522636Y99489D01*
X-522392Y99723D01*
X-522139Y99967D01*
X-521885Y100221D01*
X-521631Y100475D01*
X-521387Y100738D01*
X-521163Y100992D01*
X-520948Y101246D01*
X-520762Y101480D01*
X-520606Y101705D01*
Y101714D01*
X-520587Y101724D01*
X-520577Y101753D01*
X-520548Y101792D01*
X-520499Y101900D01*
X-520431Y102036D01*
X-520372Y102202D01*
X-520313Y102388D01*
X-520274Y102593D01*
X-520265Y102807D01*
Y102817D01*
Y102827D01*
Y102885D01*
X-520284Y102964D01*
X-520304Y103071D01*
X-520333Y103188D01*
X-520392Y103315D01*
X-520460Y103442D01*
X-520557Y103559D01*
X-520567Y103569D01*
X-520606Y103608D01*
X-520675Y103656D01*
X-520753Y103705D01*
X-520860Y103764D01*
X-520987Y103803D01*
X-521133Y103842D01*
X-521289Y103852D01*
X-521348D01*
X-521397Y103842D01*
X-521504Y103823D01*
X-521651Y103774D01*
X-521816Y103705D01*
X-521904Y103656D01*
X-521992Y103598D01*
X-522080Y103530D01*
X-522158Y103452D01*
X-522246Y103364D01*
X-522324Y103256D01*
X-522470Y103325D01*
Y103334D01*
X-522461Y103354D01*
X-522451Y103383D01*
X-522431Y103422D01*
X-522373Y103520D01*
X-522304Y103647D01*
X-522217Y103783D01*
X-522099Y103930D01*
X-521963Y104076D01*
X-521816Y104203D01*
X-521807D01*
X-521797Y104213D01*
X-521738Y104252D01*
X-521651Y104301D01*
X-521533Y104369D01*
X-521397Y104428D01*
X-521231Y104476D01*
X-521065Y104515D01*
X-520880Y104525D01*
X-520821D01*
X-520782Y104515D01*
D02*
G37*
G36*
X-485656Y122423D02*
X-485460Y122384D01*
X-485187Y122325D01*
X-484894Y122208D01*
X-484562Y122032D01*
X-484406Y121935D01*
X-484250Y121798D01*
X-484093Y121661D01*
X-483937Y121485D01*
Y121466D01*
X-483898Y121446D01*
X-483859Y121388D01*
X-483820Y121310D01*
X-483761Y121212D01*
X-483683Y121075D01*
X-483625Y120939D01*
X-483546Y120763D01*
X-483468Y120568D01*
X-483410Y120353D01*
X-483332Y120099D01*
X-483273Y119825D01*
X-483234Y119533D01*
X-483195Y119220D01*
X-483156Y118869D01*
Y118497D01*
Y118478D01*
Y118419D01*
Y118322D01*
Y118204D01*
X-483175Y118048D01*
X-483195Y117853D01*
Y117638D01*
X-483234Y117404D01*
X-483253Y117150D01*
X-483293Y116857D01*
X-483410Y116271D01*
X-483546Y115627D01*
X-483742Y114943D01*
Y114923D01*
X-483761Y114865D01*
X-483800Y114767D01*
X-483839Y114630D01*
X-483898Y114474D01*
X-483976Y114298D01*
X-484054Y114103D01*
X-484152Y113869D01*
X-484386Y113381D01*
X-484660Y112853D01*
X-484992Y112306D01*
X-485363Y111799D01*
Y111779D01*
X-485402Y111760D01*
X-485441Y111701D01*
X-485499Y111623D01*
X-485675Y111447D01*
X-485890Y111213D01*
X-486144Y110959D01*
X-486437Y110705D01*
X-486769Y110471D01*
X-487101Y110275D01*
X-487120Y110256D01*
X-487199Y110236D01*
X-487296Y110197D01*
X-487453Y110158D01*
X-487628Y110099D01*
X-487843Y110060D01*
X-488077Y110041D01*
X-488331Y110021D01*
X-488448D01*
X-488527Y110041D01*
X-488722Y110080D01*
X-488995Y110139D01*
X-489288Y110256D01*
X-489620Y110412D01*
X-489933Y110646D01*
X-490089Y110803D01*
X-490245Y110959D01*
Y110978D01*
X-490284Y110998D01*
X-490323Y111056D01*
X-490363Y111135D01*
X-490421Y111232D01*
X-490480Y111369D01*
X-490558Y111506D01*
X-490616Y111681D01*
X-490695Y111877D01*
X-490773Y112092D01*
X-490831Y112346D01*
X-490890Y112619D01*
X-490929Y112912D01*
X-490968Y113224D01*
X-491007Y113576D01*
Y113947D01*
Y113967D01*
Y114045D01*
Y114142D01*
X-490987Y114298D01*
Y114474D01*
X-490968Y114689D01*
X-490948Y114943D01*
X-490909Y115216D01*
X-490870Y115509D01*
X-490812Y115822D01*
X-490695Y116505D01*
X-490499Y117247D01*
X-490245Y118009D01*
X-490226Y118029D01*
X-490206Y118107D01*
X-490148Y118244D01*
X-490069Y118400D01*
X-489991Y118595D01*
X-489874Y118829D01*
X-489757Y119083D01*
X-489601Y119357D01*
X-489269Y119943D01*
X-488878Y120548D01*
X-488429Y121114D01*
X-488175Y121388D01*
X-487921Y121622D01*
X-487902Y121642D01*
X-487882Y121661D01*
X-487824Y121700D01*
X-487765Y121759D01*
X-487570Y121876D01*
X-487316Y122032D01*
X-487003Y122189D01*
X-486652Y122306D01*
X-486261Y122403D01*
X-485851Y122442D01*
X-485734D01*
X-485656Y122423D01*
D02*
G37*
G36*
X-494698D02*
X-494503Y122384D01*
X-494229Y122325D01*
X-493936Y122208D01*
X-493604Y122032D01*
X-493448Y121935D01*
X-493292Y121798D01*
X-493136Y121661D01*
X-492979Y121485D01*
Y121466D01*
X-492940Y121446D01*
X-492901Y121388D01*
X-492862Y121310D01*
X-492804Y121212D01*
X-492726Y121075D01*
X-492667Y120939D01*
X-492589Y120763D01*
X-492511Y120568D01*
X-492452Y120353D01*
X-492374Y120099D01*
X-492315Y119825D01*
X-492276Y119533D01*
X-492237Y119220D01*
X-492198Y118869D01*
Y118497D01*
Y118478D01*
Y118419D01*
Y118322D01*
Y118204D01*
X-492218Y118048D01*
X-492237Y117853D01*
Y117638D01*
X-492276Y117404D01*
X-492296Y117150D01*
X-492335Y116857D01*
X-492452Y116271D01*
X-492589Y115627D01*
X-492784Y114943D01*
Y114923D01*
X-492804Y114865D01*
X-492843Y114767D01*
X-492882Y114630D01*
X-492940Y114474D01*
X-493018Y114298D01*
X-493097Y114103D01*
X-493194Y113869D01*
X-493429Y113381D01*
X-493702Y112853D01*
X-494034Y112306D01*
X-494405Y111799D01*
Y111779D01*
X-494444Y111760D01*
X-494483Y111701D01*
X-494542Y111623D01*
X-494718Y111447D01*
X-494933Y111213D01*
X-495186Y110959D01*
X-495479Y110705D01*
X-495811Y110471D01*
X-496143Y110275D01*
X-496163Y110256D01*
X-496241Y110236D01*
X-496339Y110197D01*
X-496495Y110158D01*
X-496671Y110099D01*
X-496885Y110060D01*
X-497120Y110041D01*
X-497374Y110021D01*
X-497491D01*
X-497569Y110041D01*
X-497764Y110080D01*
X-498038Y110139D01*
X-498331Y110256D01*
X-498663Y110412D01*
X-498975Y110646D01*
X-499131Y110803D01*
X-499288Y110959D01*
Y110978D01*
X-499327Y110998D01*
X-499366Y111056D01*
X-499405Y111135D01*
X-499463Y111232D01*
X-499522Y111369D01*
X-499600Y111506D01*
X-499659Y111681D01*
X-499737Y111877D01*
X-499815Y112092D01*
X-499874Y112346D01*
X-499932Y112619D01*
X-499971Y112912D01*
X-500010Y113224D01*
X-500049Y113576D01*
Y113947D01*
Y113967D01*
Y114045D01*
Y114142D01*
X-500030Y114298D01*
Y114474D01*
X-500010Y114689D01*
X-499991Y114943D01*
X-499952Y115216D01*
X-499913Y115509D01*
X-499854Y115822D01*
X-499737Y116505D01*
X-499542Y117247D01*
X-499288Y118009D01*
X-499268Y118029D01*
X-499249Y118107D01*
X-499190Y118244D01*
X-499112Y118400D01*
X-499034Y118595D01*
X-498917Y118829D01*
X-498799Y119083D01*
X-498643Y119357D01*
X-498311Y119943D01*
X-497921Y120548D01*
X-497471Y121114D01*
X-497218Y121388D01*
X-496964Y121622D01*
X-496944Y121642D01*
X-496924Y121661D01*
X-496866Y121700D01*
X-496807Y121759D01*
X-496612Y121876D01*
X-496358Y122032D01*
X-496046Y122189D01*
X-495694Y122306D01*
X-495303Y122403D01*
X-494893Y122442D01*
X-494776D01*
X-494698Y122423D01*
D02*
G37*
G36*
X-506083Y103676D02*
X-507889D01*
X-508211Y102944D01*
X-508201D01*
X-508182Y102934D01*
X-508143D01*
X-508094Y102925D01*
X-508035Y102905D01*
X-507967Y102885D01*
X-507801Y102847D01*
X-507625Y102788D01*
X-507440Y102710D01*
X-507264Y102612D01*
X-507098Y102495D01*
X-507089Y102485D01*
X-507069Y102476D01*
X-507040Y102446D01*
X-507001Y102398D01*
X-506952Y102349D01*
X-506903Y102280D01*
X-506845Y102212D01*
X-506786Y102124D01*
X-506728Y102027D01*
X-506669Y101919D01*
X-506620Y101792D01*
X-506571Y101665D01*
X-506532Y101529D01*
X-506503Y101383D01*
X-506484Y101216D01*
X-506474Y101051D01*
Y101041D01*
Y101021D01*
Y100992D01*
Y100943D01*
X-506484Y100894D01*
Y100826D01*
X-506503Y100680D01*
X-506532Y100514D01*
X-506571Y100319D01*
X-506630Y100133D01*
X-506708Y99938D01*
Y99928D01*
X-506718Y99919D01*
X-506747Y99860D01*
X-506796Y99762D01*
X-506864Y99645D01*
X-506942Y99518D01*
X-507040Y99382D01*
X-507147Y99235D01*
X-507264Y99108D01*
X-507284Y99099D01*
X-507323Y99050D01*
X-507391Y98991D01*
X-507479Y98923D01*
X-507577Y98835D01*
X-507703Y98747D01*
X-507830Y98659D01*
X-507967Y98581D01*
X-507977D01*
X-507986Y98572D01*
X-508016Y98562D01*
X-508055Y98542D01*
X-508162Y98493D01*
X-508289Y98454D01*
X-508445Y98406D01*
X-508621Y98357D01*
X-508806Y98328D01*
X-509002Y98318D01*
X-509080D01*
X-509158Y98328D01*
X-509255Y98347D01*
X-509373Y98367D01*
X-509490Y98396D01*
X-509597Y98445D01*
X-509704Y98513D01*
X-509714Y98523D01*
X-509734Y98533D01*
X-509763Y98562D01*
X-509792Y98601D01*
X-509851Y98708D01*
X-509870Y98777D01*
X-509880Y98845D01*
Y98855D01*
Y98874D01*
X-509870Y98903D01*
Y98933D01*
X-509831Y99021D01*
X-509812Y99069D01*
X-509773Y99108D01*
X-509763Y99118D01*
X-509753Y99128D01*
X-509694Y99167D01*
X-509607Y99206D01*
X-509548Y99225D01*
X-509450D01*
X-509402Y99216D01*
X-509333Y99196D01*
X-509255Y99167D01*
X-509167Y99128D01*
X-509070Y99069D01*
X-508962Y98991D01*
X-508953Y98981D01*
X-508933Y98972D01*
X-508904Y98943D01*
X-508855Y98913D01*
X-508767Y98855D01*
X-508718Y98825D01*
X-508670Y98806D01*
X-508650Y98796D01*
X-508611Y98786D01*
X-508543Y98777D01*
X-508455Y98767D01*
X-508406D01*
X-508367Y98777D01*
X-508279Y98796D01*
X-508152Y98825D01*
X-508016Y98884D01*
X-507860Y98972D01*
X-507782Y99030D01*
X-507694Y99099D01*
X-507616Y99167D01*
X-507538Y99255D01*
X-507528Y99265D01*
X-507518Y99274D01*
X-507499Y99304D01*
X-507469Y99343D01*
X-507440Y99391D01*
X-507401Y99450D01*
X-507362Y99528D01*
X-507323Y99606D01*
X-507245Y99792D01*
X-507176Y100016D01*
X-507128Y100270D01*
X-507108Y100407D01*
Y100553D01*
Y100563D01*
Y100582D01*
Y100602D01*
Y100641D01*
X-507118Y100748D01*
X-507137Y100875D01*
X-507167Y101021D01*
X-507206Y101178D01*
X-507255Y101334D01*
X-507333Y101490D01*
X-507342Y101509D01*
X-507372Y101558D01*
X-507420Y101627D01*
X-507489Y101705D01*
X-507567Y101792D01*
X-507674Y101890D01*
X-507782Y101968D01*
X-507908Y102036D01*
X-507928Y102046D01*
X-507967Y102066D01*
X-508045Y102085D01*
X-508152Y102124D01*
X-508279Y102163D01*
X-508435Y102193D01*
X-508621Y102232D01*
X-508826Y102261D01*
X-507869Y104408D01*
X-505878D01*
X-506083Y103676D01*
D02*
G37*
G36*
X-516029Y104515D02*
X-515931Y104496D01*
X-515795Y104467D01*
X-515648Y104408D01*
X-515482Y104320D01*
X-515404Y104271D01*
X-515326Y104203D01*
X-515248Y104135D01*
X-515170Y104047D01*
Y104037D01*
X-515150Y104027D01*
X-515131Y103998D01*
X-515111Y103959D01*
X-515082Y103910D01*
X-515043Y103842D01*
X-515014Y103774D01*
X-514975Y103686D01*
X-514936Y103588D01*
X-514906Y103481D01*
X-514867Y103354D01*
X-514838Y103217D01*
X-514818Y103071D01*
X-514799Y102915D01*
X-514780Y102739D01*
Y102554D01*
Y102544D01*
Y102515D01*
Y102466D01*
Y102407D01*
X-514789Y102329D01*
X-514799Y102232D01*
Y102124D01*
X-514818Y102007D01*
X-514828Y101880D01*
X-514848Y101734D01*
X-514906Y101441D01*
X-514975Y101119D01*
X-515072Y100777D01*
Y100768D01*
X-515082Y100738D01*
X-515102Y100689D01*
X-515121Y100621D01*
X-515150Y100543D01*
X-515189Y100455D01*
X-515228Y100358D01*
X-515277Y100241D01*
X-515394Y99997D01*
X-515531Y99733D01*
X-515697Y99460D01*
X-515882Y99206D01*
Y99196D01*
X-515902Y99186D01*
X-515921Y99157D01*
X-515951Y99118D01*
X-516039Y99030D01*
X-516146Y98913D01*
X-516273Y98786D01*
X-516419Y98659D01*
X-516585Y98542D01*
X-516751Y98445D01*
X-516761Y98435D01*
X-516800Y98425D01*
X-516849Y98406D01*
X-516927Y98386D01*
X-517015Y98357D01*
X-517122Y98337D01*
X-517239Y98328D01*
X-517366Y98318D01*
X-517424D01*
X-517463Y98328D01*
X-517561Y98347D01*
X-517698Y98376D01*
X-517844Y98435D01*
X-518010Y98513D01*
X-518166Y98630D01*
X-518244Y98708D01*
X-518322Y98786D01*
Y98796D01*
X-518342Y98806D01*
X-518361Y98835D01*
X-518381Y98874D01*
X-518410Y98923D01*
X-518439Y98991D01*
X-518478Y99060D01*
X-518508Y99147D01*
X-518547Y99245D01*
X-518586Y99352D01*
X-518615Y99479D01*
X-518644Y99616D01*
X-518664Y99762D01*
X-518683Y99919D01*
X-518703Y100094D01*
Y100280D01*
Y100289D01*
Y100328D01*
Y100377D01*
X-518693Y100455D01*
Y100543D01*
X-518683Y100651D01*
X-518674Y100777D01*
X-518654Y100914D01*
X-518635Y101060D01*
X-518605Y101216D01*
X-518547Y101558D01*
X-518449Y101929D01*
X-518322Y102310D01*
X-518313Y102319D01*
X-518303Y102358D01*
X-518274Y102427D01*
X-518234Y102505D01*
X-518195Y102603D01*
X-518137Y102720D01*
X-518078Y102847D01*
X-518000Y102983D01*
X-517834Y103276D01*
X-517639Y103578D01*
X-517415Y103861D01*
X-517288Y103998D01*
X-517161Y104115D01*
X-517151Y104125D01*
X-517141Y104135D01*
X-517112Y104154D01*
X-517083Y104184D01*
X-516985Y104242D01*
X-516858Y104320D01*
X-516702Y104398D01*
X-516527Y104457D01*
X-516331Y104506D01*
X-516126Y104525D01*
X-516068D01*
X-516029Y104515D01*
D02*
G37*
G36*
X-494059Y98289D02*
X-494440D01*
X-491073Y104701D01*
X-490692D01*
X-494059Y98289D01*
D02*
G37*
G36*
X-505605D02*
X-505986D01*
X-502619Y104701D01*
X-502238D01*
X-505605Y98289D01*
D02*
G37*
G36*
X-488418Y104515D02*
X-488320Y104496D01*
X-488183Y104467D01*
X-488037Y104408D01*
X-487871Y104320D01*
X-487793Y104271D01*
X-487715Y104203D01*
X-487637Y104135D01*
X-487559Y104047D01*
Y104037D01*
X-487539Y104027D01*
X-487520Y103998D01*
X-487500Y103959D01*
X-487471Y103910D01*
X-487432Y103842D01*
X-487403Y103774D01*
X-487364Y103686D01*
X-487325Y103588D01*
X-487295Y103481D01*
X-487256Y103354D01*
X-487227Y103217D01*
X-487208Y103071D01*
X-487188Y102915D01*
X-487169Y102739D01*
Y102554D01*
Y102544D01*
Y102515D01*
Y102466D01*
Y102407D01*
X-487178Y102329D01*
X-487188Y102232D01*
Y102124D01*
X-487208Y102007D01*
X-487217Y101880D01*
X-487237Y101734D01*
X-487295Y101441D01*
X-487364Y101119D01*
X-487461Y100777D01*
Y100768D01*
X-487471Y100738D01*
X-487491Y100689D01*
X-487510Y100621D01*
X-487539Y100543D01*
X-487578Y100455D01*
X-487617Y100358D01*
X-487666Y100241D01*
X-487783Y99997D01*
X-487920Y99733D01*
X-488086Y99460D01*
X-488271Y99206D01*
Y99196D01*
X-488291Y99186D01*
X-488310Y99157D01*
X-488340Y99118D01*
X-488427Y99030D01*
X-488535Y98913D01*
X-488662Y98786D01*
X-488808Y98659D01*
X-488974Y98542D01*
X-489140Y98445D01*
X-489150Y98435D01*
X-489189Y98425D01*
X-489238Y98406D01*
X-489316Y98386D01*
X-489403Y98357D01*
X-489511Y98337D01*
X-489628Y98328D01*
X-489755Y98318D01*
X-489813D01*
X-489853Y98328D01*
X-489950Y98347D01*
X-490087Y98376D01*
X-490233Y98435D01*
X-490399Y98513D01*
X-490555Y98630D01*
X-490633Y98708D01*
X-490711Y98786D01*
Y98796D01*
X-490731Y98806D01*
X-490750Y98835D01*
X-490770Y98874D01*
X-490799Y98923D01*
X-490828Y98991D01*
X-490868Y99060D01*
X-490897Y99147D01*
X-490936Y99245D01*
X-490975Y99352D01*
X-491004Y99479D01*
X-491033Y99616D01*
X-491053Y99762D01*
X-491073Y99919D01*
X-491092Y100094D01*
Y100280D01*
Y100289D01*
Y100328D01*
Y100377D01*
X-491082Y100455D01*
Y100543D01*
X-491073Y100651D01*
X-491063Y100777D01*
X-491043Y100914D01*
X-491024Y101060D01*
X-490994Y101216D01*
X-490936Y101558D01*
X-490838Y101929D01*
X-490711Y102310D01*
X-490702Y102319D01*
X-490692Y102358D01*
X-490662Y102427D01*
X-490624Y102505D01*
X-490585Y102603D01*
X-490526Y102720D01*
X-490467Y102847D01*
X-490389Y102983D01*
X-490223Y103276D01*
X-490028Y103578D01*
X-489804Y103861D01*
X-489677Y103998D01*
X-489550Y104115D01*
X-489540Y104125D01*
X-489530Y104135D01*
X-489501Y104154D01*
X-489472Y104184D01*
X-489374Y104242D01*
X-489247Y104320D01*
X-489091Y104398D01*
X-488915Y104457D01*
X-488720Y104506D01*
X-488515Y104525D01*
X-488457D01*
X-488418Y104515D01*
D02*
G37*
G36*
X-495396Y100475D02*
X-494693D01*
X-494850Y99928D01*
X-495562D01*
X-496021Y98318D01*
X-496675D01*
X-496206Y99928D01*
X-498383D01*
X-498187Y100543D01*
X-494596Y104408D01*
X-494264D01*
X-495396Y100475D01*
D02*
G37*
G36*
X-499964Y104515D02*
X-499866Y104496D01*
X-499730Y104467D01*
X-499583Y104408D01*
X-499417Y104320D01*
X-499339Y104271D01*
X-499261Y104203D01*
X-499183Y104135D01*
X-499105Y104047D01*
Y104037D01*
X-499085Y104027D01*
X-499066Y103998D01*
X-499046Y103959D01*
X-499017Y103910D01*
X-498978Y103842D01*
X-498949Y103774D01*
X-498910Y103686D01*
X-498871Y103588D01*
X-498841Y103481D01*
X-498802Y103354D01*
X-498773Y103217D01*
X-498754Y103071D01*
X-498734Y102915D01*
X-498714Y102739D01*
Y102554D01*
Y102544D01*
Y102515D01*
Y102466D01*
Y102407D01*
X-498724Y102329D01*
X-498734Y102232D01*
Y102124D01*
X-498754Y102007D01*
X-498763Y101880D01*
X-498783Y101734D01*
X-498841Y101441D01*
X-498910Y101119D01*
X-499007Y100777D01*
Y100768D01*
X-499017Y100738D01*
X-499037Y100689D01*
X-499056Y100621D01*
X-499085Y100543D01*
X-499124Y100455D01*
X-499163Y100358D01*
X-499212Y100241D01*
X-499329Y99997D01*
X-499466Y99733D01*
X-499632Y99460D01*
X-499817Y99206D01*
Y99196D01*
X-499837Y99186D01*
X-499857Y99157D01*
X-499886Y99118D01*
X-499974Y99030D01*
X-500081Y98913D01*
X-500208Y98786D01*
X-500354Y98659D01*
X-500520Y98542D01*
X-500686Y98445D01*
X-500696Y98435D01*
X-500735Y98425D01*
X-500784Y98406D01*
X-500862Y98386D01*
X-500950Y98357D01*
X-501057Y98337D01*
X-501174Y98328D01*
X-501301Y98318D01*
X-501360D01*
X-501399Y98328D01*
X-501496Y98347D01*
X-501633Y98376D01*
X-501779Y98435D01*
X-501945Y98513D01*
X-502101Y98630D01*
X-502179Y98708D01*
X-502257Y98786D01*
Y98796D01*
X-502277Y98806D01*
X-502296Y98835D01*
X-502316Y98874D01*
X-502345Y98923D01*
X-502375Y98991D01*
X-502414Y99060D01*
X-502443Y99147D01*
X-502482Y99245D01*
X-502521Y99352D01*
X-502550Y99479D01*
X-502579Y99616D01*
X-502599Y99762D01*
X-502619Y99919D01*
X-502638Y100094D01*
Y100280D01*
Y100289D01*
Y100328D01*
Y100377D01*
X-502628Y100455D01*
Y100543D01*
X-502619Y100651D01*
X-502609Y100777D01*
X-502589Y100914D01*
X-502570Y101060D01*
X-502540Y101216D01*
X-502482Y101558D01*
X-502384Y101929D01*
X-502257Y102310D01*
X-502248Y102319D01*
X-502238Y102358D01*
X-502209Y102427D01*
X-502170Y102505D01*
X-502131Y102603D01*
X-502072Y102720D01*
X-502013Y102847D01*
X-501935Y102983D01*
X-501769Y103276D01*
X-501574Y103578D01*
X-501350Y103861D01*
X-501223Y103998D01*
X-501096Y104115D01*
X-501086Y104125D01*
X-501077Y104135D01*
X-501047Y104154D01*
X-501018Y104184D01*
X-500920Y104242D01*
X-500793Y104320D01*
X-500637Y104398D01*
X-500462Y104457D01*
X-500266Y104506D01*
X-500061Y104525D01*
X-500003D01*
X-499964Y104515D01*
D02*
G37*
G36*
X-476613Y122423D02*
X-476418Y122384D01*
X-476145Y122325D01*
X-475852Y122208D01*
X-475520Y122032D01*
X-475363Y121935D01*
X-475207Y121798D01*
X-475051Y121661D01*
X-474895Y121485D01*
Y121466D01*
X-474856Y121446D01*
X-474817Y121388D01*
X-474778Y121310D01*
X-474719Y121212D01*
X-474641Y121075D01*
X-474582Y120939D01*
X-474504Y120763D01*
X-474426Y120568D01*
X-474367Y120353D01*
X-474289Y120099D01*
X-474231Y119825D01*
X-474192Y119533D01*
X-474153Y119220D01*
X-474114Y118869D01*
Y118497D01*
Y118478D01*
Y118419D01*
Y118322D01*
Y118204D01*
X-474133Y118048D01*
X-474153Y117853D01*
Y117638D01*
X-474192Y117404D01*
X-474211Y117150D01*
X-474250Y116857D01*
X-474367Y116271D01*
X-474504Y115627D01*
X-474699Y114943D01*
Y114923D01*
X-474719Y114865D01*
X-474758Y114767D01*
X-474797Y114630D01*
X-474856Y114474D01*
X-474934Y114298D01*
X-475012Y114103D01*
X-475109Y113869D01*
X-475344Y113381D01*
X-475617Y112853D01*
X-475949Y112306D01*
X-476320Y111799D01*
Y111779D01*
X-476360Y111760D01*
X-476399Y111701D01*
X-476457Y111623D01*
X-476633Y111447D01*
X-476848Y111213D01*
X-477102Y110959D01*
X-477394Y110705D01*
X-477727Y110471D01*
X-478059Y110275D01*
X-478078Y110256D01*
X-478156Y110236D01*
X-478254Y110197D01*
X-478410Y110158D01*
X-478586Y110099D01*
X-478801Y110060D01*
X-479035Y110041D01*
X-479289Y110021D01*
X-479406D01*
X-479484Y110041D01*
X-479680Y110080D01*
X-479953Y110139D01*
X-480246Y110256D01*
X-480578Y110412D01*
X-480890Y110646D01*
X-481047Y110803D01*
X-481203Y110959D01*
Y110978D01*
X-481242Y110998D01*
X-481281Y111056D01*
X-481320Y111135D01*
X-481379Y111232D01*
X-481437Y111369D01*
X-481515Y111506D01*
X-481574Y111681D01*
X-481652Y111877D01*
X-481730Y112092D01*
X-481789Y112346D01*
X-481847Y112619D01*
X-481886Y112912D01*
X-481925Y113224D01*
X-481965Y113576D01*
Y113947D01*
Y113967D01*
Y114045D01*
Y114142D01*
X-481945Y114298D01*
Y114474D01*
X-481925Y114689D01*
X-481906Y114943D01*
X-481867Y115216D01*
X-481828Y115509D01*
X-481769Y115822D01*
X-481652Y116505D01*
X-481457Y117247D01*
X-481203Y118009D01*
X-481183Y118029D01*
X-481164Y118107D01*
X-481105Y118244D01*
X-481027Y118400D01*
X-480949Y118595D01*
X-480832Y118829D01*
X-480715Y119083D01*
X-480558Y119357D01*
X-480226Y119943D01*
X-479836Y120548D01*
X-479387Y121114D01*
X-479133Y121388D01*
X-478879Y121622D01*
X-478859Y121642D01*
X-478840Y121661D01*
X-478781Y121700D01*
X-478723Y121759D01*
X-478527Y121876D01*
X-478273Y122032D01*
X-477961Y122189D01*
X-477609Y122306D01*
X-477219Y122403D01*
X-476809Y122442D01*
X-476691D01*
X-476613Y122423D01*
D02*
G37*
G36*
X-515380Y122189D02*
X-515244D01*
X-515048Y122169D01*
X-514658Y122110D01*
X-514209Y122013D01*
X-513740Y121876D01*
X-513310Y121681D01*
X-513095Y121544D01*
X-512920Y121407D01*
X-512900D01*
X-512881Y121368D01*
X-512763Y121271D01*
X-512627Y121095D01*
X-512451Y120861D01*
X-512275Y120587D01*
X-512119Y120255D01*
X-512021Y119864D01*
X-512002Y119669D01*
X-511982Y119454D01*
Y119435D01*
Y119415D01*
Y119298D01*
X-512021Y119122D01*
X-512060Y118888D01*
X-512119Y118615D01*
X-512236Y118322D01*
X-512373Y118009D01*
X-512568Y117677D01*
X-512588Y117638D01*
X-512685Y117540D01*
X-512822Y117384D01*
X-512998Y117189D01*
X-513252Y116955D01*
X-513545Y116740D01*
X-513896Y116505D01*
X-514306Y116290D01*
X-514326D01*
X-514365Y116271D01*
X-514423Y116252D01*
X-514501Y116212D01*
X-514619Y116173D01*
X-514736Y116115D01*
X-515048Y116037D01*
X-515419Y115939D01*
X-515830Y115841D01*
X-516298Y115783D01*
X-516786Y115763D01*
X-516943D01*
X-517119Y115783D01*
X-517373Y115802D01*
X-517665Y115841D01*
X-518037Y115880D01*
X-518447Y115958D01*
X-518896Y116056D01*
X-519892Y112619D01*
Y112599D01*
X-519911Y112580D01*
X-519931Y112521D01*
X-519950Y112443D01*
X-519989Y112248D01*
X-520048Y112033D01*
X-520126Y111799D01*
X-520165Y111564D01*
X-520204Y111349D01*
X-520224Y111193D01*
Y111174D01*
Y111154D01*
X-520185Y111037D01*
X-520126Y110900D01*
X-520068Y110842D01*
X-519989Y110764D01*
X-519970D01*
X-519931Y110744D01*
X-519872Y110705D01*
X-519755Y110666D01*
X-519618Y110627D01*
X-519404Y110607D01*
X-519169Y110568D01*
X-518857Y110549D01*
X-518935Y110236D01*
X-523622D01*
X-523524Y110549D01*
X-523368D01*
X-523212Y110568D01*
X-523017Y110588D01*
X-522802Y110627D01*
X-522587Y110685D01*
X-522392Y110764D01*
X-522235Y110861D01*
X-522216Y110881D01*
X-522177Y110939D01*
X-522099Y111037D01*
X-522001Y111213D01*
X-521884Y111447D01*
X-521825Y111584D01*
X-521747Y111760D01*
X-521669Y111955D01*
X-521610Y112170D01*
X-521532Y112404D01*
X-521454Y112658D01*
X-519501Y119474D01*
Y119493D01*
X-519482Y119533D01*
X-519462Y119591D01*
X-519443Y119669D01*
X-519384Y119884D01*
X-519325Y120138D01*
X-519267Y120411D01*
X-519208Y120685D01*
X-519169Y120939D01*
X-519150Y121134D01*
Y121153D01*
Y121193D01*
X-519189Y121310D01*
X-519247Y121466D01*
X-519325Y121544D01*
X-519404Y121622D01*
X-519423Y121642D01*
X-519462Y121661D01*
X-519521Y121700D01*
X-519618Y121739D01*
X-519775Y121778D01*
X-519970Y121837D01*
X-520204Y121876D01*
X-520497Y121896D01*
X-520400Y122208D01*
X-515517D01*
X-515380Y122189D01*
D02*
G37*
G36*
X-504737D02*
X-504483Y122169D01*
X-504190Y122130D01*
X-503858Y122052D01*
X-503545Y121974D01*
X-503213Y121857D01*
X-503194D01*
X-503174Y121837D01*
X-503077Y121798D01*
X-502920Y121720D01*
X-502725Y121622D01*
X-502530Y121485D01*
X-502315Y121329D01*
X-502100Y121134D01*
X-501924Y120919D01*
X-501905Y120900D01*
X-501866Y120821D01*
X-501788Y120704D01*
X-501709Y120548D01*
X-501631Y120353D01*
X-501553Y120138D01*
X-501514Y119904D01*
X-501495Y119650D01*
Y119630D01*
Y119611D01*
Y119552D01*
X-501514Y119474D01*
X-501534Y119279D01*
X-501592Y119025D01*
X-501690Y118732D01*
X-501827Y118419D01*
X-502022Y118107D01*
X-502295Y117775D01*
X-502334Y117736D01*
X-502373Y117697D01*
X-502452Y117638D01*
X-502530Y117579D01*
X-502627Y117501D01*
X-502764Y117404D01*
X-502901Y117326D01*
X-503077Y117228D01*
X-503272Y117111D01*
X-503467Y117013D01*
X-503701Y116916D01*
X-503955Y116818D01*
X-504229Y116720D01*
X-504541Y116642D01*
X-504854Y116564D01*
X-504834D01*
X-504795Y116544D01*
X-504737Y116525D01*
X-504658Y116486D01*
X-504463Y116408D01*
X-504190Y116271D01*
X-503916Y116115D01*
X-503643Y115939D01*
X-503369Y115705D01*
X-503135Y115470D01*
X-503116Y115431D01*
X-503037Y115353D01*
X-502959Y115216D01*
X-502842Y115041D01*
X-502744Y114826D01*
X-502647Y114572D01*
X-502588Y114298D01*
X-502569Y114005D01*
Y113967D01*
Y113849D01*
X-502588Y113673D01*
X-502627Y113459D01*
X-502686Y113185D01*
X-502764Y112912D01*
X-502881Y112599D01*
X-503037Y112287D01*
X-503057Y112248D01*
X-503116Y112150D01*
X-503213Y112013D01*
X-503350Y111838D01*
X-503526Y111623D01*
X-503721Y111427D01*
X-503955Y111213D01*
X-504209Y111037D01*
X-504248Y111017D01*
X-504346Y110959D01*
X-504483Y110881D01*
X-504698Y110783D01*
X-504951Y110685D01*
X-505244Y110568D01*
X-505576Y110471D01*
X-505947Y110373D01*
X-505986D01*
X-506084Y110353D01*
X-506260Y110334D01*
X-506494Y110314D01*
X-506807Y110275D01*
X-507197Y110256D01*
X-507666Y110236D01*
X-512568D01*
X-512451Y110549D01*
X-512236D01*
X-512080Y110568D01*
X-511787Y110607D01*
X-511650Y110627D01*
X-511533Y110666D01*
X-511514D01*
X-511474Y110685D01*
X-511416Y110724D01*
X-511338Y110783D01*
X-511162Y110900D01*
X-511025Y111076D01*
X-511006Y111095D01*
X-510986Y111154D01*
X-510947Y111252D01*
X-510869Y111389D01*
X-510791Y111603D01*
X-510693Y111877D01*
X-510576Y112209D01*
X-510517Y112404D01*
X-510459Y112619D01*
X-508389Y119884D01*
Y119904D01*
X-508369Y119923D01*
X-508350Y120040D01*
X-508311Y120196D01*
X-508252Y120392D01*
X-508154Y120821D01*
X-508135Y121017D01*
X-508115Y121173D01*
Y121193D01*
Y121232D01*
X-508135Y121290D01*
X-508154Y121368D01*
X-508213Y121525D01*
X-508291Y121603D01*
X-508369Y121681D01*
X-508389D01*
X-508408Y121720D01*
X-508486Y121739D01*
X-508564Y121778D01*
X-508701Y121818D01*
X-508857Y121837D01*
X-509053Y121876D01*
X-509463D01*
X-509560Y121896D01*
X-509443Y122208D01*
X-504951D01*
X-504737Y122189D01*
D02*
G37*
G36*
X-467571Y122423D02*
X-467376Y122384D01*
X-467102Y122325D01*
X-466809Y122208D01*
X-466477Y122032D01*
X-466321Y121935D01*
X-466165Y121798D01*
X-466009Y121661D01*
X-465852Y121485D01*
Y121466D01*
X-465813Y121446D01*
X-465774Y121388D01*
X-465735Y121310D01*
X-465676Y121212D01*
X-465598Y121075D01*
X-465540Y120939D01*
X-465462Y120763D01*
X-465384Y120568D01*
X-465325Y120353D01*
X-465247Y120099D01*
X-465188Y119825D01*
X-465149Y119533D01*
X-465110Y119220D01*
X-465071Y118869D01*
Y118497D01*
Y118478D01*
Y118419D01*
Y118322D01*
Y118204D01*
X-465091Y118048D01*
X-465110Y117853D01*
Y117638D01*
X-465149Y117404D01*
X-465169Y117150D01*
X-465208Y116857D01*
X-465325Y116271D01*
X-465462Y115627D01*
X-465657Y114943D01*
Y114923D01*
X-465676Y114865D01*
X-465716Y114767D01*
X-465755Y114630D01*
X-465813Y114474D01*
X-465891Y114298D01*
X-465970Y114103D01*
X-466067Y113869D01*
X-466301Y113381D01*
X-466575Y112853D01*
X-466907Y112306D01*
X-467278Y111799D01*
Y111779D01*
X-467317Y111760D01*
X-467356Y111701D01*
X-467415Y111623D01*
X-467591Y111447D01*
X-467805Y111213D01*
X-468059Y110959D01*
X-468352Y110705D01*
X-468684Y110471D01*
X-469016Y110275D01*
X-469036Y110256D01*
X-469114Y110236D01*
X-469211Y110197D01*
X-469368Y110158D01*
X-469544Y110099D01*
X-469758Y110060D01*
X-469993Y110041D01*
X-470247Y110021D01*
X-470364D01*
X-470442Y110041D01*
X-470637Y110080D01*
X-470911Y110139D01*
X-471204Y110256D01*
X-471535Y110412D01*
X-471848Y110646D01*
X-472004Y110803D01*
X-472160Y110959D01*
Y110978D01*
X-472200Y110998D01*
X-472239Y111056D01*
X-472278Y111135D01*
X-472336Y111232D01*
X-472395Y111369D01*
X-472473Y111506D01*
X-472532Y111681D01*
X-472610Y111877D01*
X-472688Y112092D01*
X-472746Y112346D01*
X-472805Y112619D01*
X-472844Y112912D01*
X-472883Y113224D01*
X-472922Y113576D01*
Y113947D01*
Y113967D01*
Y114045D01*
Y114142D01*
X-472903Y114298D01*
Y114474D01*
X-472883Y114689D01*
X-472864Y114943D01*
X-472824Y115216D01*
X-472786Y115509D01*
X-472727Y115822D01*
X-472610Y116505D01*
X-472414Y117247D01*
X-472160Y118009D01*
X-472141Y118029D01*
X-472121Y118107D01*
X-472063Y118244D01*
X-471985Y118400D01*
X-471907Y118595D01*
X-471789Y118829D01*
X-471672Y119083D01*
X-471516Y119357D01*
X-471184Y119943D01*
X-470793Y120548D01*
X-470344Y121114D01*
X-470090Y121388D01*
X-469836Y121622D01*
X-469817Y121642D01*
X-469797Y121661D01*
X-469739Y121700D01*
X-469680Y121759D01*
X-469485Y121876D01*
X-469231Y122032D01*
X-468919Y122189D01*
X-468567Y122306D01*
X-468176Y122403D01*
X-467766Y122442D01*
X-467649D01*
X-467571Y122423D01*
D02*
G37*
G36*
X-458431Y114338D02*
X-457025D01*
X-457337Y113244D01*
X-458763D01*
X-459681Y110021D01*
X-460989D01*
X-460052Y113244D01*
X-464407D01*
X-464016Y114474D01*
X-456829Y122208D01*
X-456165D01*
X-458431Y114338D01*
D02*
G37*
%LPC*%
G36*
X-507217Y116271D02*
X-507627D01*
X-507920Y116252D01*
X-509424Y110998D01*
X-509385D01*
X-509268Y110978D01*
X-509092Y110959D01*
X-508877Y110939D01*
X-508642Y110920D01*
X-508389Y110900D01*
X-508135Y110881D01*
X-507783D01*
X-507686Y110900D01*
X-507568D01*
X-507412Y110920D01*
X-507080Y110978D01*
X-506690Y111076D01*
X-506279Y111232D01*
X-505850Y111427D01*
X-505440Y111701D01*
X-505420Y111721D01*
X-505401Y111740D01*
X-505264Y111857D01*
X-505088Y112033D01*
X-504893Y112306D01*
X-504698Y112619D01*
X-504522Y113010D01*
X-504385Y113439D01*
X-504365Y113693D01*
X-504346Y113947D01*
Y113967D01*
Y113986D01*
Y114045D01*
X-504365Y114123D01*
X-504385Y114318D01*
X-504424Y114572D01*
X-504522Y114845D01*
X-504639Y115119D01*
X-504795Y115392D01*
X-505029Y115646D01*
X-505068Y115666D01*
X-505166Y115744D01*
X-505322Y115841D01*
X-505557Y115958D01*
X-505869Y116076D01*
X-506240Y116173D01*
X-506690Y116252D01*
X-507217Y116271D01*
D02*
G37*
G36*
X-467747Y121993D02*
X-467825D01*
X-467942Y121974D01*
X-468059Y121935D01*
X-468215Y121896D01*
X-468391Y121818D01*
X-468586Y121720D01*
X-468782Y121583D01*
X-468801Y121564D01*
X-468880Y121505D01*
X-468977Y121388D01*
X-469114Y121212D01*
X-469290Y120997D01*
X-469465Y120704D01*
X-469661Y120333D01*
X-469778Y120138D01*
X-469875Y119904D01*
Y119884D01*
X-469895Y119845D01*
X-469934Y119767D01*
X-469973Y119669D01*
X-470012Y119552D01*
X-470071Y119396D01*
X-470149Y119220D01*
X-470208Y119025D01*
X-470286Y118790D01*
X-470383Y118556D01*
X-470461Y118283D01*
X-470559Y117990D01*
X-470657Y117677D01*
X-470754Y117345D01*
X-470950Y116642D01*
Y116603D01*
X-470969Y116525D01*
X-471008Y116388D01*
X-471047Y116193D01*
X-471106Y115978D01*
X-471145Y115705D01*
X-471204Y115412D01*
X-471262Y115099D01*
X-471340Y114748D01*
X-471399Y114396D01*
X-471496Y113634D01*
X-471575Y112892D01*
X-471594Y112170D01*
Y112150D01*
Y112131D01*
Y112013D01*
X-471575Y111857D01*
X-471535Y111662D01*
X-471496Y111427D01*
X-471438Y111213D01*
X-471340Y110998D01*
X-471204Y110803D01*
X-471184Y110783D01*
X-471125Y110724D01*
X-471047Y110666D01*
X-470930Y110588D01*
X-470793Y110490D01*
X-470637Y110432D01*
X-470442Y110373D01*
X-470247Y110353D01*
X-470149D01*
X-470051Y110373D01*
X-469934Y110392D01*
X-469778Y110432D01*
X-469622Y110510D01*
X-469465Y110588D01*
X-469329Y110705D01*
X-469309Y110724D01*
X-469290Y110744D01*
X-469231Y110803D01*
X-469153Y110881D01*
X-469075Y110998D01*
X-468977Y111115D01*
X-468860Y111271D01*
X-468723Y111467D01*
X-468606Y111681D01*
X-468450Y111916D01*
X-468313Y112170D01*
X-468157Y112463D01*
X-468020Y112795D01*
X-467864Y113146D01*
X-467727Y113537D01*
X-467591Y113947D01*
Y113967D01*
X-467571Y113986D01*
X-467551Y114045D01*
X-467532Y114123D01*
X-467473Y114318D01*
X-467395Y114572D01*
X-467317Y114884D01*
X-467219Y115255D01*
X-467102Y115685D01*
X-466985Y116134D01*
X-466887Y116603D01*
X-466770Y117111D01*
X-466575Y118126D01*
X-466516Y118634D01*
X-466458Y119142D01*
X-466419Y119630D01*
X-466399Y120079D01*
Y120099D01*
Y120118D01*
Y120236D01*
X-466419Y120411D01*
X-466458Y120626D01*
X-466497Y120861D01*
X-466575Y121095D01*
X-466673Y121329D01*
X-466809Y121525D01*
X-466829Y121544D01*
X-466887Y121603D01*
X-466965Y121681D01*
X-467063Y121759D01*
X-467200Y121837D01*
X-467376Y121915D01*
X-467551Y121974D01*
X-467747Y121993D01*
D02*
G37*
G36*
X-458118Y119923D02*
X-463274Y114338D01*
X-459739D01*
X-458118Y119923D01*
D02*
G37*
G36*
X-505596Y121603D02*
X-505733D01*
X-505830Y121583D01*
X-505947D01*
X-506084Y121564D01*
X-506416Y121485D01*
X-507744Y116916D01*
X-507412D01*
X-507139Y116896D01*
X-506729D01*
X-506611Y116916D01*
X-506455D01*
X-506279Y116935D01*
X-505869Y116994D01*
X-505420Y117091D01*
X-504971Y117228D01*
X-504541Y117423D01*
X-504346Y117540D01*
X-504170Y117677D01*
X-504151Y117697D01*
X-504131Y117716D01*
X-504034Y117814D01*
X-503877Y117990D01*
X-503721Y118224D01*
X-503565Y118517D01*
X-503408Y118849D01*
X-503311Y119240D01*
X-503272Y119454D01*
Y119669D01*
Y119689D01*
Y119708D01*
Y119825D01*
X-503291Y119982D01*
X-503350Y120196D01*
X-503408Y120431D01*
X-503506Y120665D01*
X-503643Y120880D01*
X-503838Y121095D01*
X-503858Y121114D01*
X-503936Y121173D01*
X-504073Y121251D01*
X-504268Y121349D01*
X-504502Y121446D01*
X-504815Y121525D01*
X-505166Y121583D01*
X-505596Y121603D01*
D02*
G37*
G36*
X-515947Y121544D02*
X-516181D01*
X-516337Y121525D01*
X-516552Y121505D01*
X-516786Y121485D01*
X-517060Y121446D01*
X-517373Y121388D01*
X-518740Y116603D01*
X-518701D01*
X-518583Y116564D01*
X-518407Y116525D01*
X-518173Y116486D01*
X-517919Y116447D01*
X-517665Y116408D01*
X-517392Y116388D01*
X-517158Y116369D01*
X-517001D01*
X-516806Y116388D01*
X-516591Y116427D01*
X-516318Y116466D01*
X-516025Y116525D01*
X-515732Y116622D01*
X-515439Y116759D01*
X-515400Y116779D01*
X-515302Y116837D01*
X-515166Y116935D01*
X-514990Y117052D01*
X-514794Y117228D01*
X-514599Y117423D01*
X-514384Y117677D01*
X-514209Y117951D01*
X-514189Y117990D01*
X-514130Y118087D01*
X-514072Y118244D01*
X-513974Y118458D01*
X-513896Y118712D01*
X-513837Y118986D01*
X-513779Y119279D01*
X-513759Y119591D01*
Y119611D01*
Y119630D01*
Y119747D01*
X-513779Y119904D01*
X-513818Y120099D01*
X-513896Y120333D01*
X-513994Y120568D01*
X-514130Y120802D01*
X-514306Y121017D01*
X-514326Y121036D01*
X-514404Y121095D01*
X-514541Y121193D01*
X-514716Y121290D01*
X-514951Y121368D01*
X-515224Y121466D01*
X-515556Y121525D01*
X-515947Y121544D01*
D02*
G37*
G36*
X-476789Y121993D02*
X-476867D01*
X-476984Y121974D01*
X-477102Y121935D01*
X-477258Y121896D01*
X-477434Y121818D01*
X-477629Y121720D01*
X-477824Y121583D01*
X-477844Y121564D01*
X-477922Y121505D01*
X-478020Y121388D01*
X-478156Y121212D01*
X-478332Y120997D01*
X-478508Y120704D01*
X-478703Y120333D01*
X-478820Y120138D01*
X-478918Y119904D01*
Y119884D01*
X-478937Y119845D01*
X-478976Y119767D01*
X-479015Y119669D01*
X-479055Y119552D01*
X-479113Y119396D01*
X-479191Y119220D01*
X-479250Y119025D01*
X-479328Y118790D01*
X-479426Y118556D01*
X-479504Y118283D01*
X-479601Y117990D01*
X-479699Y117677D01*
X-479797Y117345D01*
X-479992Y116642D01*
Y116603D01*
X-480012Y116525D01*
X-480051Y116388D01*
X-480090Y116193D01*
X-480148Y115978D01*
X-480187Y115705D01*
X-480246Y115412D01*
X-480304Y115099D01*
X-480383Y114748D01*
X-480441Y114396D01*
X-480539Y113634D01*
X-480617Y112892D01*
X-480637Y112170D01*
Y112150D01*
Y112131D01*
Y112013D01*
X-480617Y111857D01*
X-480578Y111662D01*
X-480539Y111427D01*
X-480480Y111213D01*
X-480383Y110998D01*
X-480246Y110803D01*
X-480226Y110783D01*
X-480168Y110724D01*
X-480090Y110666D01*
X-479973Y110588D01*
X-479836Y110490D01*
X-479680Y110432D01*
X-479484Y110373D01*
X-479289Y110353D01*
X-479191D01*
X-479094Y110373D01*
X-478976Y110392D01*
X-478820Y110432D01*
X-478664Y110510D01*
X-478508Y110588D01*
X-478371Y110705D01*
X-478351Y110724D01*
X-478332Y110744D01*
X-478273Y110803D01*
X-478195Y110881D01*
X-478117Y110998D01*
X-478020Y111115D01*
X-477902Y111271D01*
X-477766Y111467D01*
X-477648Y111681D01*
X-477492Y111916D01*
X-477355Y112170D01*
X-477199Y112463D01*
X-477063Y112795D01*
X-476906Y113146D01*
X-476770Y113537D01*
X-476633Y113947D01*
Y113967D01*
X-476613Y113986D01*
X-476594Y114045D01*
X-476574Y114123D01*
X-476516Y114318D01*
X-476438Y114572D01*
X-476360Y114884D01*
X-476262Y115255D01*
X-476145Y115685D01*
X-476027Y116134D01*
X-475930Y116603D01*
X-475813Y117111D01*
X-475617Y118126D01*
X-475559Y118634D01*
X-475500Y119142D01*
X-475461Y119630D01*
X-475442Y120079D01*
Y120099D01*
Y120118D01*
Y120236D01*
X-475461Y120411D01*
X-475500Y120626D01*
X-475539Y120861D01*
X-475617Y121095D01*
X-475715Y121329D01*
X-475852Y121525D01*
X-475871Y121544D01*
X-475930Y121603D01*
X-476008Y121681D01*
X-476106Y121759D01*
X-476242Y121837D01*
X-476418Y121915D01*
X-476594Y121974D01*
X-476789Y121993D01*
D02*
G37*
G36*
X-500052Y104301D02*
X-500091D01*
X-500149Y104291D01*
X-500208Y104271D01*
X-500286Y104252D01*
X-500374Y104213D01*
X-500471Y104164D01*
X-500569Y104096D01*
X-500579Y104086D01*
X-500618Y104057D01*
X-500667Y103998D01*
X-500735Y103910D01*
X-500823Y103803D01*
X-500911Y103656D01*
X-501008Y103471D01*
X-501067Y103374D01*
X-501116Y103256D01*
Y103247D01*
X-501125Y103227D01*
X-501145Y103188D01*
X-501164Y103139D01*
X-501184Y103081D01*
X-501213Y103003D01*
X-501252Y102915D01*
X-501281Y102817D01*
X-501320Y102700D01*
X-501369Y102583D01*
X-501408Y102446D01*
X-501457Y102300D01*
X-501506Y102144D01*
X-501555Y101978D01*
X-501652Y101627D01*
Y101607D01*
X-501662Y101568D01*
X-501682Y101500D01*
X-501701Y101402D01*
X-501730Y101295D01*
X-501750Y101158D01*
X-501779Y101012D01*
X-501808Y100855D01*
X-501848Y100680D01*
X-501877Y100504D01*
X-501926Y100123D01*
X-501965Y99752D01*
X-501974Y99391D01*
Y99382D01*
Y99372D01*
Y99313D01*
X-501965Y99235D01*
X-501945Y99138D01*
X-501926Y99021D01*
X-501896Y98913D01*
X-501848Y98806D01*
X-501779Y98708D01*
X-501769Y98699D01*
X-501740Y98669D01*
X-501701Y98640D01*
X-501643Y98601D01*
X-501574Y98552D01*
X-501496Y98523D01*
X-501399Y98493D01*
X-501301Y98484D01*
X-501252D01*
X-501203Y98493D01*
X-501145Y98503D01*
X-501067Y98523D01*
X-500989Y98562D01*
X-500911Y98601D01*
X-500842Y98659D01*
X-500832Y98669D01*
X-500823Y98679D01*
X-500793Y98708D01*
X-500754Y98747D01*
X-500715Y98806D01*
X-500667Y98864D01*
X-500608Y98943D01*
X-500540Y99040D01*
X-500481Y99147D01*
X-500403Y99265D01*
X-500335Y99391D01*
X-500257Y99538D01*
X-500188Y99704D01*
X-500110Y99879D01*
X-500042Y100075D01*
X-499974Y100280D01*
Y100289D01*
X-499964Y100299D01*
X-499954Y100328D01*
X-499944Y100367D01*
X-499915Y100465D01*
X-499876Y100592D01*
X-499837Y100748D01*
X-499788Y100934D01*
X-499730Y101148D01*
X-499671Y101373D01*
X-499622Y101607D01*
X-499564Y101861D01*
X-499466Y102368D01*
X-499437Y102622D01*
X-499407Y102876D01*
X-499388Y103120D01*
X-499378Y103344D01*
Y103354D01*
Y103364D01*
Y103422D01*
X-499388Y103510D01*
X-499407Y103618D01*
X-499427Y103735D01*
X-499466Y103852D01*
X-499515Y103969D01*
X-499583Y104067D01*
X-499593Y104076D01*
X-499622Y104105D01*
X-499661Y104145D01*
X-499710Y104184D01*
X-499778Y104223D01*
X-499866Y104262D01*
X-499954Y104291D01*
X-500052Y104301D01*
D02*
G37*
G36*
X-488506D02*
X-488545D01*
X-488603Y104291D01*
X-488662Y104271D01*
X-488740Y104252D01*
X-488828Y104213D01*
X-488925Y104164D01*
X-489023Y104096D01*
X-489033Y104086D01*
X-489072Y104057D01*
X-489120Y103998D01*
X-489189Y103910D01*
X-489277Y103803D01*
X-489364Y103656D01*
X-489462Y103471D01*
X-489521Y103374D01*
X-489569Y103256D01*
Y103247D01*
X-489579Y103227D01*
X-489599Y103188D01*
X-489618Y103139D01*
X-489638Y103081D01*
X-489667Y103003D01*
X-489706Y102915D01*
X-489735Y102817D01*
X-489774Y102700D01*
X-489823Y102583D01*
X-489862Y102446D01*
X-489911Y102300D01*
X-489960Y102144D01*
X-490009Y101978D01*
X-490106Y101627D01*
Y101607D01*
X-490116Y101568D01*
X-490135Y101500D01*
X-490155Y101402D01*
X-490184Y101295D01*
X-490204Y101158D01*
X-490233Y101012D01*
X-490262Y100855D01*
X-490301Y100680D01*
X-490331Y100504D01*
X-490379Y100123D01*
X-490418Y99752D01*
X-490428Y99391D01*
Y99382D01*
Y99372D01*
Y99313D01*
X-490418Y99235D01*
X-490399Y99138D01*
X-490379Y99021D01*
X-490350Y98913D01*
X-490301Y98806D01*
X-490233Y98708D01*
X-490223Y98699D01*
X-490194Y98669D01*
X-490155Y98640D01*
X-490097Y98601D01*
X-490028Y98552D01*
X-489950Y98523D01*
X-489853Y98493D01*
X-489755Y98484D01*
X-489706D01*
X-489657Y98493D01*
X-489599Y98503D01*
X-489521Y98523D01*
X-489442Y98562D01*
X-489364Y98601D01*
X-489296Y98659D01*
X-489286Y98669D01*
X-489277Y98679D01*
X-489247Y98708D01*
X-489208Y98747D01*
X-489169Y98806D01*
X-489120Y98864D01*
X-489062Y98943D01*
X-488994Y99040D01*
X-488935Y99147D01*
X-488857Y99265D01*
X-488789Y99391D01*
X-488710Y99538D01*
X-488642Y99704D01*
X-488564Y99879D01*
X-488496Y100075D01*
X-488427Y100280D01*
Y100289D01*
X-488418Y100299D01*
X-488408Y100328D01*
X-488398Y100367D01*
X-488369Y100465D01*
X-488330Y100592D01*
X-488291Y100748D01*
X-488242Y100934D01*
X-488183Y101148D01*
X-488125Y101373D01*
X-488076Y101607D01*
X-488018Y101861D01*
X-487920Y102368D01*
X-487891Y102622D01*
X-487861Y102876D01*
X-487842Y103120D01*
X-487832Y103344D01*
Y103354D01*
Y103364D01*
Y103422D01*
X-487842Y103510D01*
X-487861Y103618D01*
X-487881Y103735D01*
X-487920Y103852D01*
X-487969Y103969D01*
X-488037Y104067D01*
X-488047Y104076D01*
X-488076Y104105D01*
X-488115Y104145D01*
X-488164Y104184D01*
X-488232Y104223D01*
X-488320Y104262D01*
X-488408Y104291D01*
X-488506Y104301D01*
D02*
G37*
G36*
X-495240Y103266D02*
X-497817Y100475D01*
X-496050D01*
X-495240Y103266D01*
D02*
G37*
G36*
X-485831Y121993D02*
X-485910D01*
X-486027Y121974D01*
X-486144Y121935D01*
X-486300Y121896D01*
X-486476Y121818D01*
X-486671Y121720D01*
X-486867Y121583D01*
X-486886Y121564D01*
X-486964Y121505D01*
X-487062Y121388D01*
X-487199Y121212D01*
X-487374Y120997D01*
X-487550Y120704D01*
X-487745Y120333D01*
X-487863Y120138D01*
X-487960Y119904D01*
Y119884D01*
X-487980Y119845D01*
X-488019Y119767D01*
X-488058Y119669D01*
X-488097Y119552D01*
X-488156Y119396D01*
X-488234Y119220D01*
X-488292Y119025D01*
X-488370Y118790D01*
X-488468Y118556D01*
X-488546Y118283D01*
X-488644Y117990D01*
X-488741Y117677D01*
X-488839Y117345D01*
X-489034Y116642D01*
Y116603D01*
X-489054Y116525D01*
X-489093Y116388D01*
X-489132Y116193D01*
X-489191Y115978D01*
X-489230Y115705D01*
X-489288Y115412D01*
X-489347Y115099D01*
X-489425Y114748D01*
X-489484Y114396D01*
X-489581Y113634D01*
X-489659Y112892D01*
X-489679Y112170D01*
Y112150D01*
Y112131D01*
Y112013D01*
X-489659Y111857D01*
X-489620Y111662D01*
X-489581Y111427D01*
X-489523Y111213D01*
X-489425Y110998D01*
X-489288Y110803D01*
X-489269Y110783D01*
X-489210Y110724D01*
X-489132Y110666D01*
X-489015Y110588D01*
X-488878Y110490D01*
X-488722Y110432D01*
X-488527Y110373D01*
X-488331Y110353D01*
X-488234D01*
X-488136Y110373D01*
X-488019Y110392D01*
X-487863Y110432D01*
X-487706Y110510D01*
X-487550Y110588D01*
X-487413Y110705D01*
X-487394Y110724D01*
X-487374Y110744D01*
X-487316Y110803D01*
X-487238Y110881D01*
X-487159Y110998D01*
X-487062Y111115D01*
X-486945Y111271D01*
X-486808Y111467D01*
X-486691Y111681D01*
X-486535Y111916D01*
X-486398Y112170D01*
X-486242Y112463D01*
X-486105Y112795D01*
X-485949Y113146D01*
X-485812Y113537D01*
X-485675Y113947D01*
Y113967D01*
X-485656Y113986D01*
X-485636Y114045D01*
X-485617Y114123D01*
X-485558Y114318D01*
X-485480Y114572D01*
X-485402Y114884D01*
X-485304Y115255D01*
X-485187Y115685D01*
X-485070Y116134D01*
X-484972Y116603D01*
X-484855Y117111D01*
X-484660Y118126D01*
X-484601Y118634D01*
X-484543Y119142D01*
X-484504Y119630D01*
X-484484Y120079D01*
Y120099D01*
Y120118D01*
Y120236D01*
X-484504Y120411D01*
X-484543Y120626D01*
X-484582Y120861D01*
X-484660Y121095D01*
X-484757Y121329D01*
X-484894Y121525D01*
X-484914Y121544D01*
X-484972Y121603D01*
X-485050Y121681D01*
X-485148Y121759D01*
X-485285Y121837D01*
X-485460Y121915D01*
X-485636Y121974D01*
X-485831Y121993D01*
D02*
G37*
G36*
X-494874D02*
X-494952D01*
X-495069Y121974D01*
X-495186Y121935D01*
X-495343Y121896D01*
X-495518Y121818D01*
X-495714Y121720D01*
X-495909Y121583D01*
X-495928Y121564D01*
X-496007Y121505D01*
X-496104Y121388D01*
X-496241Y121212D01*
X-496417Y120997D01*
X-496593Y120704D01*
X-496788Y120333D01*
X-496905Y120138D01*
X-497003Y119904D01*
Y119884D01*
X-497022Y119845D01*
X-497061Y119767D01*
X-497100Y119669D01*
X-497139Y119552D01*
X-497198Y119396D01*
X-497276Y119220D01*
X-497335Y119025D01*
X-497413Y118790D01*
X-497510Y118556D01*
X-497589Y118283D01*
X-497686Y117990D01*
X-497784Y117677D01*
X-497882Y117345D01*
X-498077Y116642D01*
Y116603D01*
X-498096Y116525D01*
X-498135Y116388D01*
X-498174Y116193D01*
X-498233Y115978D01*
X-498272Y115705D01*
X-498331Y115412D01*
X-498389Y115099D01*
X-498467Y114748D01*
X-498526Y114396D01*
X-498624Y113634D01*
X-498702Y112892D01*
X-498721Y112170D01*
Y112150D01*
Y112131D01*
Y112013D01*
X-498702Y111857D01*
X-498663Y111662D01*
X-498624Y111427D01*
X-498565Y111213D01*
X-498467Y110998D01*
X-498331Y110803D01*
X-498311Y110783D01*
X-498253Y110724D01*
X-498174Y110666D01*
X-498057Y110588D01*
X-497921Y110490D01*
X-497764Y110432D01*
X-497569Y110373D01*
X-497374Y110353D01*
X-497276D01*
X-497178Y110373D01*
X-497061Y110392D01*
X-496905Y110432D01*
X-496749Y110510D01*
X-496593Y110588D01*
X-496456Y110705D01*
X-496436Y110724D01*
X-496417Y110744D01*
X-496358Y110803D01*
X-496280Y110881D01*
X-496202Y110998D01*
X-496104Y111115D01*
X-495987Y111271D01*
X-495850Y111467D01*
X-495733Y111681D01*
X-495577Y111916D01*
X-495440Y112170D01*
X-495284Y112463D01*
X-495147Y112795D01*
X-494991Y113146D01*
X-494854Y113537D01*
X-494718Y113947D01*
Y113967D01*
X-494698Y113986D01*
X-494679Y114045D01*
X-494659Y114123D01*
X-494600Y114318D01*
X-494522Y114572D01*
X-494444Y114884D01*
X-494347Y115255D01*
X-494229Y115685D01*
X-494112Y116134D01*
X-494015Y116603D01*
X-493897Y117111D01*
X-493702Y118126D01*
X-493644Y118634D01*
X-493585Y119142D01*
X-493546Y119630D01*
X-493526Y120079D01*
Y120099D01*
Y120118D01*
Y120236D01*
X-493546Y120411D01*
X-493585Y120626D01*
X-493624Y120861D01*
X-493702Y121095D01*
X-493800Y121329D01*
X-493936Y121525D01*
X-493956Y121544D01*
X-494015Y121603D01*
X-494093Y121681D01*
X-494190Y121759D01*
X-494327Y121837D01*
X-494503Y121915D01*
X-494679Y121974D01*
X-494874Y121993D01*
D02*
G37*
G36*
X-516117Y104301D02*
X-516156D01*
X-516214Y104291D01*
X-516273Y104271D01*
X-516351Y104252D01*
X-516439Y104213D01*
X-516536Y104164D01*
X-516634Y104096D01*
X-516644Y104086D01*
X-516683Y104057D01*
X-516732Y103998D01*
X-516800Y103910D01*
X-516888Y103803D01*
X-516975Y103656D01*
X-517073Y103471D01*
X-517132Y103374D01*
X-517180Y103256D01*
Y103247D01*
X-517190Y103227D01*
X-517210Y103188D01*
X-517229Y103139D01*
X-517249Y103081D01*
X-517278Y103003D01*
X-517317Y102915D01*
X-517346Y102817D01*
X-517385Y102700D01*
X-517434Y102583D01*
X-517473Y102446D01*
X-517522Y102300D01*
X-517571Y102144D01*
X-517620Y101978D01*
X-517717Y101627D01*
Y101607D01*
X-517727Y101568D01*
X-517746Y101500D01*
X-517766Y101402D01*
X-517795Y101295D01*
X-517815Y101158D01*
X-517844Y101012D01*
X-517873Y100855D01*
X-517912Y100680D01*
X-517942Y100504D01*
X-517990Y100123D01*
X-518030Y99752D01*
X-518039Y99391D01*
Y99382D01*
Y99372D01*
Y99313D01*
X-518030Y99235D01*
X-518010Y99138D01*
X-517990Y99021D01*
X-517961Y98913D01*
X-517912Y98806D01*
X-517844Y98708D01*
X-517834Y98699D01*
X-517805Y98669D01*
X-517766Y98640D01*
X-517707Y98601D01*
X-517639Y98552D01*
X-517561Y98523D01*
X-517463Y98493D01*
X-517366Y98484D01*
X-517317D01*
X-517268Y98493D01*
X-517210Y98503D01*
X-517132Y98523D01*
X-517054Y98562D01*
X-516975Y98601D01*
X-516907Y98659D01*
X-516897Y98669D01*
X-516888Y98679D01*
X-516858Y98708D01*
X-516819Y98747D01*
X-516780Y98806D01*
X-516732Y98864D01*
X-516673Y98943D01*
X-516605Y99040D01*
X-516546Y99147D01*
X-516468Y99265D01*
X-516400Y99391D01*
X-516322Y99538D01*
X-516253Y99704D01*
X-516175Y99879D01*
X-516107Y100075D01*
X-516039Y100280D01*
Y100289D01*
X-516029Y100299D01*
X-516019Y100328D01*
X-516009Y100367D01*
X-515980Y100465D01*
X-515941Y100592D01*
X-515902Y100748D01*
X-515853Y100934D01*
X-515795Y101148D01*
X-515736Y101373D01*
X-515687Y101607D01*
X-515629Y101861D01*
X-515531Y102368D01*
X-515502Y102622D01*
X-515473Y102876D01*
X-515453Y103120D01*
X-515443Y103344D01*
Y103354D01*
Y103364D01*
Y103422D01*
X-515453Y103510D01*
X-515473Y103618D01*
X-515492Y103735D01*
X-515531Y103852D01*
X-515580Y103969D01*
X-515648Y104067D01*
X-515658Y104076D01*
X-515687Y104105D01*
X-515726Y104145D01*
X-515775Y104184D01*
X-515843Y104223D01*
X-515931Y104262D01*
X-516019Y104291D01*
X-516117Y104301D01*
D02*
G37*
%LPD*%
D20*
X-77982Y69756D02*
G03*
X-63982Y69756I7000J20330D01*
G01*
D21*
X-611674Y31496D02*
Y36494D01*
X-614173Y33995D01*
X-610841D01*
X-610236Y75032D02*
X-609403Y75864D01*
X-607737D01*
X-606904Y75032D01*
Y74198D01*
X-607737Y73365D01*
X-606904Y72532D01*
Y71699D01*
X-607737Y70866D01*
X-609403D01*
X-610236Y71699D01*
Y72532D01*
X-609403Y73365D01*
X-610236Y74198D01*
Y75032D01*
X-609403Y73365D02*
X-607737D01*
X-545092Y46844D02*
X-546758D01*
X-545925D01*
Y41846D01*
X-545092Y42679D01*
X-547524Y54746D02*
X-544192D01*
Y57245D01*
X-545858Y56412D01*
X-546691D01*
X-547524Y57245D01*
Y58911D01*
X-546691Y59744D01*
X-545025D01*
X-544192Y58911D01*
X-539232Y14600D02*
X-535900D01*
X-539232Y11268D01*
Y10435D01*
X-538399Y9602D01*
X-536733D01*
X-535900Y10435D01*
X-540898D02*
X-541731Y9602D01*
X-543398D01*
X-544231Y10435D01*
Y13767D01*
X-543398Y14600D01*
X-541731D01*
X-540898Y13767D01*
Y10435D01*
X-536800Y26500D02*
X-538466D01*
X-537633D01*
Y21502D01*
X-536800Y22335D01*
X-540965Y25667D02*
X-541798Y26500D01*
X-543465D01*
X-544298Y25667D01*
Y22335D01*
X-543465Y21502D01*
X-541798D01*
X-540965Y22335D01*
Y23168D01*
X-541798Y24001D01*
X-544298D01*
X-444200Y26500D02*
X-445866D01*
X-445033D01*
Y21502D01*
X-444200Y22335D01*
X-447332Y14200D02*
X-444000D01*
X-447332Y10868D01*
Y10035D01*
X-446499Y9202D01*
X-444833D01*
X-444000Y10035D01*
D24*
X-539500Y56000D02*
X-537500Y54000D01*
X-535500D01*
X-539500Y58000D02*
X-535500Y54000D01*
X-539500D02*
Y70000D01*
X-525500D01*
Y54000D02*
Y70000D01*
X-539500Y54000D02*
X-525500D01*
X-48774Y114300D02*
X-33026D01*
X-48774Y34300D02*
X-33026D01*
X-48774D02*
Y114300D01*
X-33026Y34300D02*
Y114300D01*
X-581100Y37550D02*
X-566100D01*
Y26300D02*
Y37550D01*
X-581100Y6300D02*
Y26300D01*
Y6300D02*
X-566100D01*
Y26200D01*
X-581100Y26300D02*
Y37550D01*
X-606500D02*
X-591500D01*
Y26300D02*
Y37550D01*
X-606500Y6300D02*
Y26300D01*
Y6300D02*
X-591500D01*
Y26200D01*
X-606500Y26300D02*
Y37550D01*
X-420901Y94998D02*
X-421901Y95998D01*
X-423900D01*
X-424900Y94998D01*
Y91000D01*
X-423900Y90000D01*
X-421901D01*
X-420901Y91000D01*
X-418902Y94998D02*
X-417902Y95998D01*
X-415903D01*
X-414903Y94998D01*
Y93999D01*
X-415903Y92999D01*
X-416903D01*
X-415903D01*
X-414903Y91999D01*
Y91000D01*
X-415903Y90000D01*
X-417902D01*
X-418902Y91000D01*
X-613900Y44200D02*
X-619898D01*
Y47199D01*
X-618898Y48199D01*
X-616899D01*
X-615899Y47199D01*
Y44200D01*
X-618898Y50198D02*
X-619898Y51198D01*
Y53197D01*
X-618898Y54197D01*
X-617899D01*
X-615899Y52197D01*
X-614900D02*
X-613900D01*
X-49291Y12030D02*
Y6032D01*
X-45293D01*
X-43293D02*
X-41294D01*
X-42294D01*
Y10030D01*
X-43293D01*
X-38295Y6032D02*
Y10030D01*
X-35296D01*
X-34296Y9031D01*
Y6032D01*
X-141732Y11904D02*
Y5906D01*
X-137734D01*
X-131736Y11904D02*
X-133735Y10904D01*
X-135734Y8905D01*
Y6905D01*
X-134735Y5906D01*
X-132735D01*
X-131736Y6905D01*
Y7905D01*
X-132735Y8905D01*
X-135734D01*
X-192913Y11904D02*
Y5906D01*
X-188915D01*
X-182917Y11904D02*
X-186915D01*
Y8905D01*
X-184916Y9904D01*
X-183916D01*
X-182917Y8905D01*
Y6905D01*
X-183916Y5906D01*
X-185916D01*
X-186915Y6905D01*
X-244094Y11904D02*
Y5906D01*
X-240096D01*
X-235097D02*
Y11904D01*
X-238096Y8905D01*
X-234098D01*
X-295276Y11904D02*
Y5906D01*
X-291277D01*
X-289278Y10904D02*
X-288278Y11904D01*
X-286279D01*
X-285279Y10904D01*
Y9904D01*
X-286279Y8905D01*
X-287278D01*
X-286279D01*
X-285279Y7905D01*
Y6905D01*
X-286279Y5906D01*
X-288278D01*
X-289278Y6905D01*
X-346457Y11904D02*
Y5906D01*
X-342458D01*
X-336460D02*
X-340459D01*
X-336460Y9904D01*
Y10904D01*
X-337460Y11904D01*
X-339459D01*
X-340459Y10904D01*
X-397638Y11904D02*
Y5906D01*
X-393639D01*
X-391640D02*
X-389640D01*
X-390640D01*
Y11904D01*
X-391640Y10904D01*
X-514901Y66398D02*
X-515901Y67398D01*
X-517900D01*
X-518900Y66398D01*
Y62400D01*
X-517900Y61400D01*
X-515901D01*
X-514901Y62400D01*
X-512902Y66398D02*
X-511902Y67398D01*
X-509903D01*
X-508903Y66398D01*
Y65399D01*
X-509903Y64399D01*
X-508903Y63399D01*
Y62400D01*
X-509903Y61400D01*
X-511902D01*
X-512902Y62400D01*
Y63399D01*
X-511902Y64399D01*
X-512902Y65399D01*
Y66398D01*
X-511902Y64399D02*
X-509903D01*
X-589698Y14900D02*
X-583700D01*
Y17899D01*
X-584700Y18899D01*
X-588698D01*
X-589698Y17899D01*
Y14900D01*
X-583700Y23897D02*
X-589698D01*
X-586699Y20898D01*
Y24897D01*
X-615698Y15200D02*
X-609700D01*
Y18199D01*
X-610700Y19199D01*
X-614698D01*
X-615698Y18199D01*
Y15200D01*
X-614698Y21198D02*
X-615698Y22198D01*
Y24197D01*
X-614698Y25197D01*
X-613699D01*
X-612699Y24197D01*
Y23197D01*
Y24197D01*
X-611699Y25197D01*
X-610700D01*
X-609700Y24197D01*
Y22198D01*
X-610700Y21198D01*
X-72290Y52030D02*
X-73289Y51031D01*
Y49031D01*
X-72290Y48032D01*
X-68291D01*
X-67291Y49031D01*
Y51031D01*
X-68291Y52030D01*
X-67291Y58028D02*
Y54030D01*
X-71290Y58028D01*
X-72290D01*
X-73289Y57029D01*
Y55029D01*
X-72290Y54030D01*
Y60028D02*
X-73289Y61027D01*
Y63027D01*
X-72290Y64026D01*
X-71290D01*
X-70290Y63027D01*
X-69291Y64026D01*
X-68291D01*
X-67291Y63027D01*
Y61027D01*
X-68291Y60028D01*
X-69291D01*
X-70290Y61027D01*
X-71290Y60028D01*
X-72290D01*
X-70290Y61027D02*
Y63027D01*
X-44401Y122298D02*
X-45401Y123298D01*
X-47400D01*
X-48400Y122298D01*
Y118300D01*
X-47400Y117300D01*
X-45401D01*
X-44401Y118300D01*
X-42402Y117300D02*
Y123298D01*
X-38403Y117300D01*
Y123298D01*
X-36404Y117300D02*
X-34405D01*
X-35404D01*
Y123298D01*
X-36404Y122298D01*
X-563800Y133798D02*
Y127800D01*
X-560801D01*
X-559801Y128800D01*
Y132798D01*
X-560801Y133798D01*
X-563800D01*
X-557802Y127800D02*
X-555803D01*
X-556802D01*
Y133798D01*
X-557802Y132798D01*
X-552804Y133798D02*
X-548805D01*
Y132798D01*
X-552804Y128800D01*
Y127800D01*
X-609300Y123998D02*
Y118000D01*
X-606301D01*
X-605301Y119000D01*
Y122998D01*
X-606301Y123998D01*
X-609300D01*
X-603302Y118000D02*
X-601303D01*
X-602302D01*
Y123998D01*
X-603302Y122998D01*
X-598304D02*
X-597304Y123998D01*
X-595304D01*
X-594305Y122998D01*
Y121999D01*
X-595304Y120999D01*
X-594305Y119999D01*
Y119000D01*
X-595304Y118000D01*
X-597304D01*
X-598304Y119000D01*
Y119999D01*
X-597304Y120999D01*
X-598304Y121999D01*
Y122998D01*
X-597304Y120999D02*
X-595304D01*
X-29300Y121798D02*
Y115800D01*
X-26301D01*
X-25301Y116800D01*
Y120798D01*
X-26301Y121798D01*
X-29300D01*
X-23302Y115800D02*
X-21303D01*
X-22302D01*
Y121798D01*
X-23302Y120798D01*
X-14305Y115800D02*
X-18304D01*
X-14305Y119799D01*
Y120798D01*
X-15304Y121798D01*
X-17304D01*
X-18304Y120798D01*
X-580001Y127300D02*
Y131298D01*
X-581001Y132298D01*
X-583000D01*
X-584000Y131298D01*
Y127300D01*
X-583000Y126300D01*
X-581001D01*
X-582001Y128299D02*
X-580001Y126300D01*
X-581001D02*
X-580001Y127300D01*
X-578002Y132298D02*
X-574003D01*
Y131298D01*
X-578002Y127300D01*
Y126300D01*
X-519300Y33900D02*
Y39898D01*
X-516301D01*
X-515301Y38898D01*
Y36899D01*
X-516301Y35899D01*
X-519300D01*
X-517301D02*
X-515301Y33900D01*
X-513302Y38898D02*
X-512302Y39898D01*
X-510303D01*
X-509303Y38898D01*
Y37899D01*
X-510303Y36899D01*
X-511303D01*
X-510303D01*
X-509303Y35899D01*
Y34900D01*
X-510303Y33900D01*
X-512302D01*
X-513302Y34900D01*
X-503305Y39898D02*
X-507304D01*
Y36899D01*
X-505304Y37899D01*
X-504305D01*
X-503305Y36899D01*
Y34900D01*
X-504305Y33900D01*
X-506304D01*
X-507304Y34900D01*
X-381890Y64961D02*
Y70959D01*
X-378891D01*
X-377891Y69959D01*
Y67960D01*
X-378891Y66960D01*
X-381890D01*
X-379890D02*
X-377891Y64961D01*
X-371893Y70959D02*
X-375892D01*
Y64961D01*
X-371893D01*
X-375892Y67960D02*
X-373892D01*
X-369894Y64961D02*
X-367894D01*
X-368894D01*
Y70959D01*
X-369894Y69959D01*
X-330709Y64961D02*
Y70959D01*
X-327710D01*
X-326710Y69959D01*
Y67960D01*
X-327710Y66960D01*
X-330709D01*
X-328709D02*
X-326710Y64961D01*
X-320712Y70959D02*
X-324711D01*
Y64961D01*
X-320712D01*
X-324711Y67960D02*
X-322711D01*
X-314714Y64961D02*
X-318713D01*
X-314714Y68959D01*
Y69959D01*
X-315714Y70959D01*
X-317713D01*
X-318713Y69959D01*
X-279528Y64961D02*
Y70959D01*
X-276529D01*
X-275529Y69959D01*
Y67960D01*
X-276529Y66960D01*
X-279528D01*
X-277528D02*
X-275529Y64961D01*
X-269531Y70959D02*
X-273530D01*
Y64961D01*
X-269531D01*
X-273530Y67960D02*
X-271530D01*
X-267531Y69959D02*
X-266532Y70959D01*
X-264532D01*
X-263533Y69959D01*
Y68959D01*
X-264532Y67960D01*
X-265532D01*
X-264532D01*
X-263533Y66960D01*
Y65960D01*
X-264532Y64961D01*
X-266532D01*
X-267531Y65960D01*
X-232283Y64961D02*
Y70959D01*
X-229285D01*
X-228285Y69959D01*
Y67960D01*
X-229285Y66960D01*
X-232283D01*
X-230284D02*
X-228285Y64961D01*
X-222287Y70959D02*
X-226285D01*
Y64961D01*
X-222287D01*
X-226285Y67960D02*
X-224286D01*
X-217288Y64961D02*
Y70959D01*
X-220287Y67960D01*
X-216289D01*
X-181102Y64961D02*
Y70959D01*
X-178103D01*
X-177104Y69959D01*
Y67960D01*
X-178103Y66960D01*
X-181102D01*
X-179103D02*
X-177104Y64961D01*
X-171106Y70959D02*
X-175104D01*
Y64961D01*
X-171106D01*
X-175104Y67960D02*
X-173105D01*
X-165108Y70959D02*
X-169106D01*
Y67960D01*
X-167107Y68959D01*
X-166107D01*
X-165108Y67960D01*
Y65960D01*
X-166107Y64961D01*
X-168107D01*
X-169106Y65960D01*
X-129921Y64961D02*
Y70959D01*
X-126922D01*
X-125923Y69959D01*
Y67960D01*
X-126922Y66960D01*
X-129921D01*
X-127922D02*
X-125923Y64961D01*
X-119924Y70959D02*
X-123923D01*
Y64961D01*
X-119924D01*
X-123923Y67960D02*
X-121924D01*
X-113926Y70959D02*
X-115926Y69959D01*
X-117925Y67960D01*
Y65960D01*
X-116926Y64961D01*
X-114926D01*
X-113926Y65960D01*
Y66960D01*
X-114926Y67960D01*
X-117925D01*
X-520300Y79998D02*
Y75000D01*
X-519300Y74000D01*
X-517301D01*
X-516301Y75000D01*
Y79998D01*
X-510303D02*
X-514302D01*
Y76999D01*
X-512303Y77999D01*
X-511303D01*
X-510303Y76999D01*
Y75000D01*
X-511303Y74000D01*
X-513302D01*
X-514302Y75000D01*
X-443400Y41560D02*
Y35562D01*
X-446399D01*
X-447399Y36562D01*
Y38561D01*
X-446399Y39560D01*
X-443400D01*
X-445399D02*
X-447399Y41560D01*
X-449398Y36562D02*
X-450398Y35562D01*
X-452397D01*
X-453397Y36562D01*
Y37561D01*
X-452397Y38561D01*
X-453397Y39560D01*
Y40560D01*
X-452397Y41560D01*
X-450398D01*
X-449398Y40560D01*
Y39560D01*
X-450398Y38561D01*
X-449398Y37561D01*
Y36562D01*
X-450398Y38561D02*
X-452397D01*
X-557001Y19398D02*
X-558001Y20398D01*
X-560000D01*
X-561000Y19398D01*
Y15400D01*
X-560000Y14400D01*
X-558001D01*
X-557001Y15400D01*
X-551003Y14400D02*
X-555002D01*
X-551003Y18399D01*
Y19398D01*
X-552003Y20398D01*
X-554002D01*
X-555002Y19398D01*
X-420301Y133198D02*
X-421301Y134198D01*
X-423300D01*
X-424300Y133198D01*
Y129200D01*
X-423300Y128200D01*
X-421301D01*
X-420301Y129200D01*
X-414303Y134198D02*
X-418302D01*
Y131199D01*
X-416303Y132199D01*
X-415303D01*
X-414303Y131199D01*
Y129200D01*
X-415303Y128200D01*
X-417302D01*
X-418302Y129200D01*
X-493600Y34100D02*
Y40098D01*
X-490601D01*
X-489601Y39098D01*
Y37099D01*
X-490601Y36099D01*
X-493600D01*
X-487602Y39098D02*
X-486602Y40098D01*
X-484603D01*
X-483603Y39098D01*
Y38099D01*
X-484603Y37099D01*
X-485603D01*
X-484603D01*
X-483603Y36099D01*
Y35100D01*
X-484603Y34100D01*
X-486602D01*
X-487602Y35100D01*
X-562499Y32400D02*
Y36399D01*
X-564498Y34399D02*
X-560500D01*
D27*
X-545669Y82800D02*
Y136614D01*
X-438583Y82800D02*
Y135700D01*
X-545669Y82677D02*
X-438780D01*
X-629921Y0D02*
Y135827D01*
X-0Y0D02*
X0Y0D01*
X-629921Y135827D02*
X0D01*
Y0D02*
Y135827D01*
X-629921Y0D02*
X-0D01*
D54*
X-9835Y-11811D02*
G03*
X-9835Y-11811I-9850J0D01*
G01*
X-604323D02*
G03*
X-604323Y-11811I-9850J0D01*
G01*
X-50197Y87756D02*
G03*
X-50197Y87756I-19685J0D01*
G01*
X-377441Y112205D02*
G03*
X-369567Y112205I3937J0D01*
G01*
D02*
G03*
X-361693Y112205I3937J0D01*
G01*
X-385315D02*
G03*
X-377441Y112205I3937J0D01*
G01*
X-326260D02*
G03*
X-318386Y112205I3937J0D01*
G01*
D02*
G03*
X-310512Y112205I3937J0D01*
G01*
X-334134D02*
G03*
X-326260Y112205I3937J0D01*
G01*
X-275079D02*
G03*
X-267205Y112205I3937J0D01*
G01*
D02*
G03*
X-259331Y112205I3937J0D01*
G01*
X-282953D02*
G03*
X-275079Y112205I3937J0D01*
G01*
X-223898D02*
G03*
X-216024Y112205I3937J0D01*
G01*
D02*
G03*
X-208150Y112205I3937J0D01*
G01*
X-231772D02*
G03*
X-223898Y112205I3937J0D01*
G01*
X-172716D02*
G03*
X-164842Y112205I3937J0D01*
G01*
D02*
G03*
X-156968Y112205I3937J0D01*
G01*
X-180590D02*
G03*
X-172716Y112205I3937J0D01*
G01*
X-121535D02*
G03*
X-113661Y112205I3937J0D01*
G01*
D02*
G03*
X-105787Y112205I3937J0D01*
G01*
X-129409D02*
G03*
X-121535Y112205I3937J0D01*
G01*
X-402246Y98805D02*
Y112093D01*
X-413761Y98805D02*
X-402246D01*
X-413663Y112093D02*
X-402246D01*
X-435513Y98805D02*
Y112093D01*
X-423998D01*
X-435513Y98805D02*
X-423998D01*
X-545669Y7480D02*
Y28740D01*
X-500787D01*
X-549803Y38661D02*
Y67638D01*
X-611614Y38661D02*
X-549803D01*
X-611614Y67638D02*
X-549803D01*
X-31061Y78955D02*
X-13739D01*
X-31061Y110845D02*
X-13739D01*
Y78955D02*
Y112026D01*
X-31061D02*
X-13739D01*
X-31061Y78955D02*
Y112026D01*
X-465543Y34468D02*
X-458457D01*
X-465543Y48051D02*
X-458457D01*
Y34468D02*
Y48051D01*
X-465543Y34468D02*
Y48051D01*
X-520651Y51557D02*
Y58643D01*
Y51557D02*
X-515631D01*
X-520651Y58643D02*
X-515631D01*
X-512088D02*
X-507068D01*
X-512088Y51557D02*
X-507068D01*
Y58643D01*
X-435413Y113206D02*
X-423898D01*
X-435413Y126493D02*
X-423898D01*
X-435413Y113206D02*
Y126493D01*
X-413563D02*
X-402146D01*
X-413661Y113206D02*
X-402146D01*
Y126493D01*
X-611614Y38661D02*
Y67638D01*
X-575092Y67661D02*
Y72913D01*
X-587092Y67761D02*
Y72913D01*
X-575092D01*
X-559602Y107889D02*
X-547398D01*
X-553500Y112889D02*
Y117889D01*
Y81511D02*
Y86511D01*
X-559602D02*
X-547398D01*
X-559602D02*
Y112889D01*
X-547398D01*
Y86511D02*
Y112889D01*
X-588981Y120376D02*
X-569690D01*
X-588981Y79824D02*
X-569690D01*
X-588981D02*
Y120376D01*
X-569690Y79824D02*
Y120376D01*
X-571658Y79824D02*
Y120376D01*
X-610761Y79555D02*
X-593439D01*
X-610761Y111445D02*
X-593439D01*
Y79555D02*
Y112626D01*
X-610761D02*
X-593439D01*
X-610761Y79555D02*
Y112626D01*
X-63976Y77756D02*
X-53150D01*
X-64370Y75788D02*
X-54528D01*
X-64961Y73819D02*
X-56102D01*
X-83661D02*
X-73819D01*
X-85236Y75788D02*
X-75394D01*
X-86614Y77756D02*
X-75787D01*
X-361693Y112205D02*
X-358543Y112205D01*
Y118110D01*
X-388071Y112205D02*
X-385315Y112205D01*
X-388071Y112205D02*
Y118110D01*
X-348031Y18898D02*
Y133071D01*
X-398031Y18898D02*
Y133071D01*
Y18898D02*
X-348031D01*
X-398031Y133071D02*
X-348031D01*
X-382095Y45061D02*
X-363795D01*
X-358395Y30546D02*
Y34046D01*
X-357995Y35946D02*
X-353027Y30978D01*
X-357995Y35946D02*
Y40546D01*
X-381895Y25161D02*
X-363595D01*
X-310512Y112205D02*
X-307362Y112205D01*
Y118110D01*
X-336890Y112205D02*
X-334134Y112205D01*
X-336890Y112205D02*
Y118110D01*
X-296850Y18898D02*
Y133071D01*
X-346850Y18898D02*
Y133071D01*
Y18898D02*
X-296850D01*
X-346850Y133071D02*
X-296850D01*
X-330914Y45061D02*
X-312614D01*
X-307214Y30546D02*
Y34046D01*
X-306814Y35946D02*
X-301846Y30978D01*
X-306814Y35946D02*
Y40546D01*
X-330714Y25161D02*
X-312414D01*
X-259331Y112205D02*
X-256181Y112205D01*
Y118110D01*
X-285709Y112205D02*
X-282953Y112205D01*
X-285709Y112205D02*
Y118110D01*
X-245669Y18898D02*
Y133071D01*
X-295669Y18898D02*
Y133071D01*
Y18898D02*
X-245669D01*
X-295669Y133071D02*
X-245669D01*
X-279733Y45061D02*
X-261433D01*
X-256033Y30546D02*
Y34046D01*
X-255633Y35946D02*
X-250665Y30978D01*
X-255633Y35946D02*
Y40546D01*
X-279533Y25161D02*
X-261233D01*
X-208150Y112205D02*
X-205000Y112205D01*
Y118110D01*
X-234528Y112205D02*
X-231772Y112205D01*
X-234528Y112205D02*
Y118110D01*
X-194488Y18898D02*
Y133071D01*
X-244488Y18898D02*
Y133071D01*
Y18898D02*
X-194488D01*
X-244488Y133071D02*
X-194488D01*
X-228552Y45061D02*
X-210252D01*
X-204852Y30546D02*
Y34046D01*
X-204452Y35946D02*
X-199484Y30978D01*
X-204452Y35946D02*
Y40546D01*
X-228352Y25161D02*
X-210052D01*
X-156968Y112205D02*
X-153819Y112205D01*
Y118110D01*
X-183346Y112205D02*
X-180590Y112205D01*
X-183346Y112205D02*
Y118110D01*
X-143307Y18898D02*
Y133071D01*
X-193307Y18898D02*
Y133071D01*
Y18898D02*
X-143307D01*
X-193307Y133071D02*
X-143307D01*
X-177371Y45061D02*
X-159071D01*
X-153671Y30546D02*
Y34046D01*
X-153271Y35946D02*
X-148303Y30978D01*
X-153271Y35946D02*
Y40546D01*
X-177171Y25161D02*
X-158871D01*
X-105787Y112205D02*
X-102638Y112205D01*
Y118110D01*
X-132165Y112205D02*
X-129409Y112205D01*
X-132165Y112205D02*
Y118110D01*
X-92126Y18898D02*
Y133071D01*
X-142126Y18898D02*
Y133071D01*
Y18898D02*
X-92126D01*
X-142126Y133071D02*
X-92126D01*
X-126190Y45061D02*
X-107890D01*
X-102490Y30546D02*
Y34046D01*
X-102090Y35946D02*
X-97122Y30978D01*
X-102090Y35946D02*
Y40546D01*
X-125990Y25161D02*
X-107690D01*
X-522647Y32863D02*
Y40737D01*
X-540953Y32863D02*
Y40737D01*
Y32863D02*
X-522647D01*
X-540953Y40737D02*
X-522647D01*
X-559153Y25235D02*
Y29565D01*
X-553247Y25235D02*
Y29565D01*
X-581086Y35980D02*
X-566486D01*
X-580800Y35300D02*
X-566100D01*
X-581000Y36700D02*
X-566300D01*
X-606486Y35980D02*
X-591886D01*
X-606200Y35300D02*
X-591500D01*
X-606400Y36700D02*
X-591700D01*
X-498425Y26378D02*
X-485827D01*
X-438583Y7480D02*
Y28740D01*
X-545669Y7480D02*
X-438583D01*
X-485827Y26378D02*
X-483465Y28740D01*
X-438583D01*
X-500787D02*
X-498425Y26378D01*
X-399588Y105596D02*
X-395653D01*
X-397620Y107564D02*
Y103628D01*
X-403700Y130052D02*
X-399764D01*
X-401732Y132020D02*
Y128084D01*
D55*
X-579808Y122935D02*
G03*
X-579808Y122935I-492J0D01*
G01*
D56*
X-5906Y76772D02*
Y129921D01*
X-624016Y74803D02*
Y127953D01*
D57*
X-22400Y111337D02*
D03*
X-602101Y111937D02*
D03*
M02*
