%FSLAX25Y25*%
%MOIN*%
G70*
G01*
G75*
G04 Layer_Color=128*
%ADD10C,0.03937*%
%ADD11R,0.07874X0.11024*%
%ADD12C,0.03937*%
%ADD13R,0.03937X0.09055*%
%ADD14R,0.09055X0.11024*%
%ADD15R,0.04724X0.03937*%
%ADD16R,0.03937X0.04724*%
%ADD17R,0.04724X0.05512*%
%ADD18R,0.06693X0.03740*%
%ADD19R,0.09843X0.07087*%
%ADD20C,0.03000*%
%ADD21C,0.00800*%
%ADD22C,0.06000*%
%ADD23C,0.04000*%
%ADD24C,0.01000*%
%ADD25C,0.02000*%
%ADD26C,0.11000*%
%ADD27C,0.00500*%
%ADD28C,0.01969*%
%ADD29R,0.06693X0.06693*%
%ADD30C,0.06693*%
%ADD31O,0.19685X0.15748*%
%ADD32C,0.06102*%
%ADD33R,0.06299X0.06299*%
%ADD34C,0.06299*%
%ADD35C,0.07087*%
%ADD36C,0.07874*%
%ADD37C,0.10630*%
%ADD38R,0.10630X0.10630*%
%ADD39R,0.05118X0.05118*%
%ADD40C,0.05118*%
%ADD41C,0.03600*%
%ADD42C,0.02400*%
%ADD43R,0.05512X0.04724*%
%ADD44R,0.01575X0.03937*%
%ADD45R,0.07874X0.01575*%
%ADD46R,0.03937X0.11811*%
%ADD47R,0.18898X0.20079*%
%ADD48R,0.04724X0.03150*%
%ADD49R,0.02953X0.02362*%
%ADD50R,0.03740X0.06693*%
%ADD51O,0.07874X0.02402*%
%ADD52O,0.07874X0.02400*%
%ADD53C,0.01500*%
%ADD54C,0.00787*%
%ADD55C,0.00984*%
%ADD56C,0.11811*%
%ADD57R,0.17323X0.01378*%
%ADD58C,0.05906*%
%ADD59R,0.08674X0.11824*%
%ADD60C,0.04737*%
%ADD61R,0.04737X0.09855*%
%ADD62R,0.09855X0.11824*%
%ADD63R,0.05524X0.04737*%
%ADD64R,0.04737X0.05524*%
%ADD65R,0.05524X0.06312*%
%ADD66R,0.07493X0.04540*%
%ADD67R,0.10642X0.07887*%
%ADD68C,0.02769*%
%ADD69R,0.07493X0.07493*%
%ADD70C,0.07493*%
%ADD71O,0.20485X0.16548*%
%ADD72C,0.06902*%
%ADD73R,0.07099X0.07099*%
%ADD74C,0.07099*%
%ADD75C,0.07887*%
%ADD76C,0.08674*%
%ADD77C,0.11430*%
%ADD78R,0.11430X0.11430*%
%ADD79R,0.05918X0.05918*%
%ADD80C,0.05918*%
%ADD81R,0.06312X0.05524*%
%ADD82R,0.02375X0.04737*%
%ADD83R,0.08674X0.02375*%
%ADD84R,0.04737X0.12611*%
%ADD85R,0.19698X0.20879*%
%ADD86R,0.05524X0.03950*%
%ADD87R,0.03753X0.03162*%
%ADD88R,0.04540X0.07493*%
%ADD89O,0.08674X0.03202*%
%ADD90O,0.08674X0.03200*%
%ADD91C,0.06800*%
%ADD92C,0.11800*%
D12*
X-582677Y-11811D02*
D03*
D15*
X-482600Y98140D02*
D03*
Y90660D02*
D03*
X-144291Y113772D02*
D03*
Y106291D02*
D03*
X-203791Y113772D02*
D03*
Y106291D02*
D03*
X-477800Y127140D02*
D03*
Y119660D02*
D03*
X-598400Y29560D02*
D03*
Y37040D02*
D03*
X-152291Y106291D02*
D03*
Y113772D02*
D03*
X-195791Y106291D02*
D03*
Y113772D02*
D03*
X-246791D02*
D03*
Y106291D02*
D03*
X-254791D02*
D03*
Y113772D02*
D03*
X-297791D02*
D03*
Y106291D02*
D03*
X-305791D02*
D03*
Y113772D02*
D03*
X-345791D02*
D03*
Y106291D02*
D03*
X-353791D02*
D03*
Y113772D02*
D03*
X-396291D02*
D03*
Y106291D02*
D03*
X-404291D02*
D03*
Y113772D02*
D03*
X-568500Y97440D02*
D03*
Y89960D02*
D03*
X-578000Y29160D02*
D03*
Y36640D02*
D03*
X-606800Y29560D02*
D03*
Y37040D02*
D03*
X-569700Y29160D02*
D03*
Y36640D02*
D03*
D16*
X-21060Y45400D02*
D03*
X-28540D02*
D03*
X-152032Y98532D02*
D03*
X-144551D02*
D03*
X-203532Y98732D02*
D03*
X-196051D02*
D03*
X-254532Y98532D02*
D03*
X-247051D02*
D03*
X-305532D02*
D03*
X-298051D02*
D03*
X-353031D02*
D03*
X-345551D02*
D03*
X-404032D02*
D03*
X-396551D02*
D03*
X-453940Y62900D02*
D03*
X-446460D02*
D03*
X-438760Y32100D02*
D03*
X-446240D02*
D03*
X-463700Y78000D02*
D03*
X-471180D02*
D03*
D18*
X-435100Y24512D02*
D03*
Y13488D02*
D03*
D27*
X-629921Y0D02*
Y135827D01*
X-0Y0D02*
X0Y0D01*
X-629921Y135827D02*
X0D01*
Y0D02*
Y135827D01*
X-629921Y0D02*
X-0D01*
D43*
X-544700Y88009D02*
D03*
Y76591D02*
D03*
X-558200Y88191D02*
D03*
Y99609D02*
D03*
D44*
X-446457Y90945D02*
D03*
X-466929D02*
D03*
D45*
X-456693Y88189D02*
D03*
D46*
X-447697Y124409D02*
D03*
X-465689D02*
D03*
D47*
X-456693Y99016D02*
D03*
D48*
X-19075Y59400D02*
D03*
X-27737Y55660D02*
D03*
Y63140D02*
D03*
X-113386Y118032D02*
D03*
X-122047Y114292D02*
D03*
Y121772D02*
D03*
X-164567Y118032D02*
D03*
X-173228Y114292D02*
D03*
Y121772D02*
D03*
X-215748Y118032D02*
D03*
X-224409Y114292D02*
D03*
Y121772D02*
D03*
X-266929Y118032D02*
D03*
X-275590Y114292D02*
D03*
Y121772D02*
D03*
X-316567Y118032D02*
D03*
X-325228Y114292D02*
D03*
Y121772D02*
D03*
X-366567Y118032D02*
D03*
X-375228Y114292D02*
D03*
Y121772D02*
D03*
D49*
X-138189Y106291D02*
D03*
Y113772D02*
D03*
X-129528Y110032D02*
D03*
X-189370Y106291D02*
D03*
Y113772D02*
D03*
X-180709Y110032D02*
D03*
X-240551Y106291D02*
D03*
Y113772D02*
D03*
X-231890Y110032D02*
D03*
X-291732Y106291D02*
D03*
Y113772D02*
D03*
X-283071Y110032D02*
D03*
X-339122Y106291D02*
D03*
Y113772D02*
D03*
X-330461Y110032D02*
D03*
X-389622Y106291D02*
D03*
Y113772D02*
D03*
X-380961Y110032D02*
D03*
D50*
X-445076Y78100D02*
D03*
X-456100D02*
D03*
D51*
X-438378Y40000D02*
D03*
X-462000Y45000D02*
D03*
D52*
X-438378D02*
D03*
Y50000D02*
D03*
Y55000D02*
D03*
X-462000D02*
D03*
Y50000D02*
D03*
Y40000D02*
D03*
M02*
