%FSLAX25Y25*%
%MOIN*%
G70*
G01*
G75*
G04 Layer_Color=8388736*
%ADD10C,0.03937*%
%ADD11R,0.07874X0.11024*%
%ADD12C,0.03937*%
%ADD13R,0.03937X0.09055*%
%ADD14R,0.09055X0.11024*%
%ADD15R,0.04724X0.03937*%
%ADD16R,0.03937X0.04724*%
%ADD17R,0.04724X0.05512*%
%ADD18R,0.06693X0.03740*%
%ADD19R,0.09843X0.07087*%
%ADD20C,0.03000*%
%ADD21C,0.00800*%
%ADD22C,0.06000*%
%ADD23C,0.04000*%
%ADD24C,0.01000*%
%ADD25C,0.02000*%
%ADD26C,0.11000*%
%ADD27C,0.00500*%
%ADD28C,0.01969*%
%ADD29R,0.06693X0.06693*%
%ADD30C,0.06693*%
%ADD31O,0.19685X0.15748*%
%ADD32C,0.06102*%
%ADD33R,0.06299X0.06299*%
%ADD34C,0.06299*%
%ADD35C,0.07087*%
%ADD36C,0.07874*%
%ADD37C,0.10630*%
%ADD38R,0.10630X0.10630*%
%ADD39R,0.05118X0.05118*%
%ADD40C,0.05118*%
%ADD41C,0.03600*%
%ADD42C,0.02400*%
%ADD43R,0.05512X0.04724*%
%ADD44R,0.01575X0.03937*%
%ADD45R,0.07874X0.01575*%
%ADD46R,0.03937X0.11811*%
%ADD47R,0.18898X0.20079*%
%ADD48R,0.04724X0.03150*%
%ADD49R,0.02953X0.02362*%
%ADD50R,0.03740X0.06693*%
%ADD51O,0.07874X0.02402*%
%ADD52O,0.07874X0.02400*%
%ADD53C,0.01500*%
%ADD54C,0.00787*%
%ADD55C,0.00984*%
%ADD56C,0.11811*%
%ADD57R,0.17323X0.01378*%
%ADD58C,0.05906*%
%ADD59R,0.08674X0.11824*%
%ADD60C,0.04737*%
%ADD61R,0.04737X0.09855*%
%ADD62R,0.09855X0.11824*%
%ADD63R,0.05524X0.04737*%
%ADD64R,0.04737X0.05524*%
%ADD65R,0.05524X0.06312*%
%ADD66R,0.07493X0.04540*%
%ADD67R,0.10642X0.07887*%
%ADD68C,0.02769*%
%ADD69R,0.07493X0.07493*%
%ADD70C,0.07493*%
%ADD71O,0.20485X0.16548*%
%ADD72C,0.06902*%
%ADD73R,0.07099X0.07099*%
%ADD74C,0.07099*%
%ADD75C,0.07887*%
%ADD76C,0.08674*%
%ADD77C,0.11430*%
%ADD78R,0.11430X0.11430*%
%ADD79R,0.05918X0.05918*%
%ADD80C,0.05918*%
D27*
X-629921Y0D02*
Y135827D01*
X-0Y0D02*
X0Y0D01*
X-629921Y135827D02*
X0D01*
Y0D02*
Y135827D01*
X-629921Y0D02*
X-0D01*
D58*
X-581693Y-11811D02*
G03*
X-581693Y-11811I-984J0D01*
G01*
D59*
X-430100Y105400D02*
D03*
X-407659D02*
D03*
X-407559Y119800D02*
D03*
X-430000D02*
D03*
D60*
X-582677Y-11811D02*
D03*
D61*
X-537500Y76000D02*
D03*
X-527500D02*
D03*
Y48000D02*
D03*
X-537500D02*
D03*
D62*
X-22400Y85451D02*
D03*
Y104349D02*
D03*
X-602100Y86051D02*
D03*
Y104949D02*
D03*
D63*
X-462000Y37520D02*
D03*
Y45000D02*
D03*
D64*
X-517600Y55100D02*
D03*
X-510120D02*
D03*
D65*
X-526091Y36800D02*
D03*
X-537509D02*
D03*
D66*
X-556200Y21888D02*
D03*
Y32912D02*
D03*
D67*
X-573600Y12835D02*
D03*
Y29765D02*
D03*
X-599000Y12835D02*
D03*
Y29765D02*
D03*
D68*
X-19685Y-11811D02*
D03*
X-614173D02*
D03*
D69*
X-562992Y47244D02*
D03*
D70*
X-574803D02*
D03*
X-586614D02*
D03*
X-598425D02*
D03*
Y59055D02*
D03*
X-586614D02*
D03*
X-574803D02*
D03*
X-562992D02*
D03*
X-551181Y62756D02*
D03*
X-610236D02*
D03*
D71*
X-216535Y9843D02*
D03*
X-165354D02*
D03*
X-318898D02*
D03*
X-267717D02*
D03*
X-114173D02*
D03*
X-62992D02*
D03*
X-370079D02*
D03*
D72*
X-553500Y122515D02*
D03*
Y76885D02*
D03*
D73*
X-580300Y110100D02*
D03*
D74*
Y100100D02*
D03*
Y90100D02*
D03*
D75*
X-69882Y97441D02*
D03*
Y77756D02*
D03*
D76*
X-358268Y25591D02*
D03*
X-387795Y45276D02*
D03*
X-358268D02*
D03*
X-387795Y124016D02*
D03*
Y25591D02*
D03*
X-358268Y124016D02*
D03*
X-307087Y25591D02*
D03*
X-336614Y45276D02*
D03*
X-307087D02*
D03*
X-336614Y124016D02*
D03*
Y25591D02*
D03*
X-307087Y124016D02*
D03*
X-255906Y25591D02*
D03*
X-285433Y45276D02*
D03*
X-255906D02*
D03*
X-285433Y124016D02*
D03*
Y25591D02*
D03*
X-255906Y124016D02*
D03*
X-204724Y25591D02*
D03*
X-234252Y45276D02*
D03*
X-204724D02*
D03*
X-234252Y124016D02*
D03*
Y25591D02*
D03*
X-204724Y124016D02*
D03*
X-153543Y25591D02*
D03*
X-183071Y45276D02*
D03*
X-153543D02*
D03*
X-183071Y124016D02*
D03*
Y25591D02*
D03*
X-153543Y124016D02*
D03*
X-102362Y25591D02*
D03*
X-131890Y45276D02*
D03*
X-102362D02*
D03*
X-131890Y124016D02*
D03*
Y25591D02*
D03*
X-102362Y124016D02*
D03*
D77*
X-40900Y84300D02*
D03*
Y64300D02*
D03*
Y44300D02*
D03*
D78*
Y104300D02*
D03*
D79*
X-456693Y22047D02*
D03*
D80*
X-464567D02*
D03*
X-472441D02*
D03*
X-480315D02*
D03*
X-488189D02*
D03*
X-496063D02*
D03*
X-503937D02*
D03*
X-511811D02*
D03*
X-519685D02*
D03*
X-527559D02*
D03*
Y14173D02*
D03*
X-519685D02*
D03*
X-511811D02*
D03*
X-503937D02*
D03*
X-496063D02*
D03*
X-488189D02*
D03*
X-480315D02*
D03*
X-472441D02*
D03*
X-464567D02*
D03*
X-456693D02*
D03*
M02*
