G04 Layer_Color=65535*
%FSLAX25Y25*%
%MOIN*%
G70*
G01*
G75*
%ADD20C,0.03000*%
%ADD21C,0.01000*%
%ADD27C,0.00500*%
%ADD49C,0.00800*%
%ADD51C,0.00787*%
%ADD52C,0.00984*%
%ADD53C,0.00591*%
%ADD54R,0.17323X0.01378*%
D20*
X98299Y116368D02*
G03*
X98299Y102368I20330J-7000D01*
G01*
X591309Y71724D02*
G03*
X605309Y71724I7000J20330D01*
G01*
X175071Y71092D02*
G03*
X175071Y57092I20330J-7000D01*
G01*
D21*
X145543Y15559D02*
X147543Y17559D01*
Y19559D01*
X143543Y15559D02*
X147543Y19559D01*
X131543Y15559D02*
X147543D01*
X131543D02*
Y29559D01*
X147543D01*
Y15559D02*
Y29559D01*
X0Y5748D02*
Y65748D01*
X47244Y5748D02*
Y65748D01*
X0D02*
X47244D01*
X0Y5748D02*
X47244D01*
X622047Y124173D02*
X669291D01*
X622047Y44173D02*
X669291D01*
X622047D02*
Y124173D01*
X669291Y44173D02*
Y124173D01*
X3937Y72927D02*
X7936D01*
X5936D01*
Y66929D01*
X9935D02*
X11934D01*
X10935D01*
Y72927D01*
X9935Y71927D01*
X3937Y135919D02*
X7936D01*
X5936D01*
Y129921D01*
X13934D02*
X9935D01*
X13934Y133920D01*
Y134920D01*
X12934Y135919D01*
X10935D01*
X9935Y134920D01*
X620000Y13998D02*
Y8000D01*
X623999D01*
X625998D02*
X627997D01*
X626998D01*
Y11999D01*
X625998D01*
X630996Y8000D02*
Y11999D01*
X633995D01*
X634995Y10999D01*
Y8000D01*
X527559Y13872D02*
Y7874D01*
X531558D01*
X537556Y13872D02*
X535557Y12872D01*
X533557Y10873D01*
Y8874D01*
X534557Y7874D01*
X536556D01*
X537556Y8874D01*
Y9873D01*
X536556Y10873D01*
X533557D01*
X476378Y13872D02*
Y7874D01*
X480377D01*
X486375Y13872D02*
X482376D01*
Y10873D01*
X484375Y11873D01*
X485375D01*
X486375Y10873D01*
Y8874D01*
X485375Y7874D01*
X483376D01*
X482376Y8874D01*
X425197Y13872D02*
Y7874D01*
X429196D01*
X434194D02*
Y13872D01*
X431195Y10873D01*
X435194D01*
X374016Y13872D02*
Y7874D01*
X378014D01*
X380014Y12872D02*
X381013Y13872D01*
X383013D01*
X384013Y12872D01*
Y11873D01*
X383013Y10873D01*
X382013D01*
X383013D01*
X384013Y9873D01*
Y8874D01*
X383013Y7874D01*
X381013D01*
X380014Y8874D01*
X322835Y13872D02*
Y7874D01*
X326833D01*
X332831D02*
X328833D01*
X332831Y11873D01*
Y12872D01*
X331832Y13872D01*
X329832D01*
X328833Y12872D01*
X271654Y13872D02*
Y7874D01*
X275652D01*
X277652D02*
X279651D01*
X278651D01*
Y13872D01*
X277652Y12872D01*
X143999Y38998D02*
X142999Y39998D01*
X141000D01*
X140000Y38998D01*
Y35000D01*
X141000Y34000D01*
X142999D01*
X143999Y35000D01*
X145998Y38998D02*
X146998Y39998D01*
X148997D01*
X149997Y38998D01*
Y37999D01*
X148997Y36999D01*
X149997Y35999D01*
Y35000D01*
X148997Y34000D01*
X146998D01*
X145998Y35000D01*
Y35999D01*
X146998Y36999D01*
X145998Y37999D01*
Y38998D01*
X146998Y36999D02*
X148997D01*
X133999Y130998D02*
X132999Y131998D01*
X131000D01*
X130000Y130998D01*
Y127000D01*
X131000Y126000D01*
X132999D01*
X133999Y127000D01*
X135998Y131998D02*
X139997D01*
Y130998D01*
X135998Y127000D01*
Y126000D01*
X191002Y35999D02*
X190002Y34999D01*
Y33000D01*
X191002Y32000D01*
X195000D01*
X196000Y33000D01*
Y34999D01*
X195000Y35999D01*
X191002Y37998D02*
X190002Y38998D01*
Y40997D01*
X191002Y41997D01*
X192001D01*
X193001Y40997D01*
Y39997D01*
Y40997D01*
X194001Y41997D01*
X195000D01*
X196000Y40997D01*
Y38998D01*
X195000Y37998D01*
X171999Y36998D02*
X170999Y37998D01*
X169000D01*
X168000Y36998D01*
Y33000D01*
X169000Y32000D01*
X170999D01*
X171999Y33000D01*
X176997Y32000D02*
Y37998D01*
X173998Y34999D01*
X177997D01*
X597002Y53999D02*
X596002Y52999D01*
Y51000D01*
X597002Y50000D01*
X601000D01*
X602000Y51000D01*
Y52999D01*
X601000Y53999D01*
X602000Y59997D02*
Y55998D01*
X598001Y59997D01*
X597002D01*
X596002Y58997D01*
Y56998D01*
X597002Y55998D01*
Y61996D02*
X596002Y62996D01*
Y64995D01*
X597002Y65995D01*
X598001D01*
X599001Y64995D01*
X600001Y65995D01*
X601000D01*
X602000Y64995D01*
Y62996D01*
X601000Y61996D01*
X600001D01*
X599001Y62996D01*
X598001Y61996D01*
X597002D01*
X599001Y62996D02*
Y64995D01*
X641999Y132998D02*
X640999Y133998D01*
X639000D01*
X638000Y132998D01*
Y129000D01*
X639000Y128000D01*
X640999D01*
X641999Y129000D01*
X643998Y128000D02*
Y133998D01*
X647997Y128000D01*
Y133998D01*
X649996Y128000D02*
X651996D01*
X650996D01*
Y133998D01*
X649996Y132998D01*
X78000Y27998D02*
Y22000D01*
X80999D01*
X81999Y23000D01*
Y26998D01*
X80999Y27998D01*
X78000D01*
X83998Y22000D02*
X85997D01*
X84998D01*
Y27998D01*
X83998Y26998D01*
X88996Y27998D02*
X92995D01*
Y26998D01*
X88996Y23000D01*
Y22000D01*
X86002Y82000D02*
X92000D01*
Y84999D01*
X91000Y85999D01*
X87002D01*
X86002Y84999D01*
Y82000D01*
X92000Y87998D02*
Y89997D01*
Y88998D01*
X86002D01*
X87002Y87998D01*
Y92996D02*
X86002Y93996D01*
Y95995D01*
X87002Y96995D01*
X88001D01*
X89001Y95995D01*
X90001Y96995D01*
X91000D01*
X92000Y95995D01*
Y93996D01*
X91000Y92996D01*
X90001D01*
X89001Y93996D01*
X88001Y92996D01*
X87002D01*
X89001Y93996D02*
Y95995D01*
X57000Y51999D02*
X53002D01*
X52002Y50999D01*
Y49000D01*
X53002Y48000D01*
X57000D01*
X58000Y49000D01*
Y50999D01*
X56001Y49999D02*
X58000Y51999D01*
Y50999D02*
X57000Y51999D01*
X52002Y53998D02*
Y57997D01*
X53002D01*
X57000Y53998D01*
X58000D01*
X100000Y22000D02*
Y27998D01*
X102999D01*
X103999Y26998D01*
Y24999D01*
X102999Y23999D01*
X100000D01*
X101999D02*
X103999Y22000D01*
X105998Y26998D02*
X106998Y27998D01*
X108997D01*
X109997Y26998D01*
Y25999D01*
X108997Y24999D01*
X107997D01*
X108997D01*
X109997Y23999D01*
Y23000D01*
X108997Y22000D01*
X106998D01*
X105998Y23000D01*
X114995Y22000D02*
Y27998D01*
X111996Y24999D01*
X115995D01*
X162000Y6000D02*
Y11998D01*
X164999D01*
X165999Y10998D01*
Y8999D01*
X164999Y7999D01*
X162000D01*
X163999D02*
X165999Y6000D01*
X167998Y10998D02*
X168998Y11998D01*
X170997D01*
X171997Y10998D01*
Y9999D01*
X170997Y8999D01*
X169997D01*
X170997D01*
X171997Y7999D01*
Y7000D01*
X170997Y6000D01*
X168998D01*
X167998Y7000D01*
X177995Y11998D02*
X173996D01*
Y8999D01*
X175996Y9999D01*
X176995D01*
X177995Y8999D01*
Y7000D01*
X176995Y6000D01*
X174996D01*
X173996Y7000D01*
X124000Y54000D02*
X118002D01*
Y56999D01*
X119002Y57999D01*
X121001D01*
X122001Y56999D01*
Y54000D01*
Y55999D02*
X124000Y57999D01*
X119002Y59998D02*
X118002Y60998D01*
Y62997D01*
X119002Y63997D01*
X120001D01*
X121001Y62997D01*
Y61997D01*
Y62997D01*
X122001Y63997D01*
X123000D01*
X124000Y62997D01*
Y60998D01*
X123000Y59998D01*
X118002Y69995D02*
X119002Y67996D01*
X121001Y65996D01*
X123000D01*
X124000Y66996D01*
Y68995D01*
X123000Y69995D01*
X122001D01*
X121001Y68995D01*
Y65996D01*
X287402Y66929D02*
Y72927D01*
X290401D01*
X291400Y71927D01*
Y69928D01*
X290401Y68928D01*
X287402D01*
X289401D02*
X291400Y66929D01*
X297398Y72927D02*
X293400D01*
Y66929D01*
X297398D01*
X293400Y69928D02*
X295399D01*
X299398Y66929D02*
X301397D01*
X300397D01*
Y72927D01*
X299398Y71927D01*
X338583Y66929D02*
Y72927D01*
X341582D01*
X342581Y71927D01*
Y69928D01*
X341582Y68928D01*
X338583D01*
X340582D02*
X342581Y66929D01*
X348579Y72927D02*
X344581D01*
Y66929D01*
X348579D01*
X344581Y69928D02*
X346580D01*
X354577Y66929D02*
X350579D01*
X354577Y70928D01*
Y71927D01*
X353578Y72927D01*
X351578D01*
X350579Y71927D01*
X389764Y66929D02*
Y72927D01*
X392763D01*
X393762Y71927D01*
Y69928D01*
X392763Y68928D01*
X389764D01*
X391763D02*
X393762Y66929D01*
X399761Y72927D02*
X395762D01*
Y66929D01*
X399761D01*
X395762Y69928D02*
X397761D01*
X401760Y71927D02*
X402760Y72927D01*
X404759D01*
X405759Y71927D01*
Y70928D01*
X404759Y69928D01*
X403759D01*
X404759D01*
X405759Y68928D01*
Y67929D01*
X404759Y66929D01*
X402760D01*
X401760Y67929D01*
X437008Y66929D02*
Y72927D01*
X440007D01*
X441007Y71927D01*
Y69928D01*
X440007Y68928D01*
X437008D01*
X439007D02*
X441007Y66929D01*
X447005Y72927D02*
X443006D01*
Y66929D01*
X447005D01*
X443006Y69928D02*
X445005D01*
X452003Y66929D02*
Y72927D01*
X449004Y69928D01*
X453003D01*
X488189Y66929D02*
Y72927D01*
X491188D01*
X492188Y71927D01*
Y69928D01*
X491188Y68928D01*
X488189D01*
X490188D02*
X492188Y66929D01*
X498186Y72927D02*
X494187D01*
Y66929D01*
X498186D01*
X494187Y69928D02*
X496186D01*
X504184Y72927D02*
X500185D01*
Y69928D01*
X502184Y70928D01*
X503184D01*
X504184Y69928D01*
Y67929D01*
X503184Y66929D01*
X501185D01*
X500185Y67929D01*
X539370Y66929D02*
Y72927D01*
X542369D01*
X543369Y71927D01*
Y69928D01*
X542369Y68928D01*
X539370D01*
X541369D02*
X543369Y66929D01*
X549367Y72927D02*
X545368D01*
Y66929D01*
X549367D01*
X545368Y69928D02*
X547367D01*
X555365Y72927D02*
X553366Y71927D01*
X551366Y69928D01*
Y67929D01*
X552366Y66929D01*
X554365D01*
X555365Y67929D01*
Y68928D01*
X554365Y69928D01*
X551366D01*
X210000Y133998D02*
Y129000D01*
X211000Y128000D01*
X212999D01*
X213999Y129000D01*
Y133998D01*
X219997Y128000D02*
X215998D01*
X219997Y131999D01*
Y132998D01*
X218997Y133998D01*
X216998D01*
X215998Y132998D01*
X121624Y39085D02*
Y34086D01*
X122623Y33087D01*
X124623D01*
X125622Y34086D01*
Y39085D01*
X131621D02*
X127622D01*
Y36086D01*
X129621Y37085D01*
X130621D01*
X131621Y36086D01*
Y34086D01*
X130621Y33087D01*
X128621D01*
X127622Y34086D01*
X23622Y66929D02*
Y72927D01*
X26621D01*
X27621Y71927D01*
Y69928D01*
X26621Y68928D01*
X23622D01*
X29620Y72927D02*
Y66929D01*
X31620Y68928D01*
X33619Y66929D01*
Y72927D01*
X35618Y66929D02*
Y72927D01*
X37617Y70928D01*
X39617Y72927D01*
Y66929D01*
X41616D02*
X43616D01*
X42616D01*
Y72927D01*
X41616Y71927D01*
X248000Y74000D02*
X253998D01*
Y71001D01*
X252998Y70001D01*
X250999D01*
X249999Y71001D01*
Y74000D01*
X248000Y68002D02*
Y66003D01*
Y67002D01*
X253998D01*
X252998Y68002D01*
X138000Y76000D02*
X132002D01*
Y78999D01*
X133002Y79999D01*
X135001D01*
X136001Y78999D01*
Y76000D01*
X138000Y85997D02*
Y81998D01*
X134001Y85997D01*
X133002D01*
X132002Y84997D01*
Y82998D01*
X133002Y81998D01*
X59002Y95999D02*
X58002Y94999D01*
Y93000D01*
X59002Y92000D01*
X63000D01*
X64000Y93000D01*
Y94999D01*
X63000Y95999D01*
X64000Y101997D02*
Y97998D01*
X60001Y101997D01*
X59002D01*
X58002Y100997D01*
Y98998D01*
X59002Y97998D01*
X56260Y87515D02*
Y83516D01*
X58259Y85516D02*
X54260D01*
D27*
X-0Y-0D02*
Y137795D01*
X669291D01*
X669291Y137795D01*
Y-0D02*
Y137795D01*
X669291Y-0D02*
X669291Y-0D01*
X-0Y-0D02*
X669291D01*
D49*
X233410Y124030D02*
Y127362D01*
X236742Y124030D01*
X237575D01*
X238408Y124863D01*
Y126529D01*
X237575Y127362D01*
X222410Y126362D02*
Y124696D01*
Y125529D01*
X227408D01*
X226575Y126362D01*
X223410Y29362D02*
Y27696D01*
Y28529D01*
X228408D01*
X227575Y29362D01*
X223410Y25197D02*
Y23531D01*
Y24364D01*
X228408D01*
X227575Y25197D01*
X233410Y30362D02*
Y28696D01*
Y29529D01*
X238408D01*
X237575Y30362D01*
X233410Y22865D02*
Y26197D01*
X236742Y22865D01*
X237575D01*
X238408Y23698D01*
Y25364D01*
X237575Y26197D01*
X153417Y124992D02*
Y126658D01*
Y125825D01*
X148419D01*
X149252Y124992D01*
Y129157D02*
X148419Y129990D01*
Y131657D01*
X149252Y132490D01*
X152584D01*
X153417Y131657D01*
Y129990D01*
X152584Y129157D01*
X149252D01*
X162584Y125992D02*
X163417Y126825D01*
Y128491D01*
X162584Y129324D01*
X159252D01*
X158419Y128491D01*
Y126825D01*
X159252Y125992D01*
X160085D01*
X160918Y126825D01*
Y129324D01*
X180000Y44000D02*
Y45666D01*
Y44833D01*
X175002D01*
X175835Y44000D01*
X138000Y49332D02*
Y46000D01*
X134668Y49332D01*
X133835D01*
X133002Y48499D01*
Y46833D01*
X133835Y46000D01*
D51*
X610236Y125984D02*
G03*
X610236Y125984I-11811J0D01*
G01*
X135984Y108268D02*
G03*
X135984Y108268I-19685J0D01*
G01*
X619095Y89724D02*
G03*
X619095Y89724I-19685J0D01*
G01*
X259842Y11811D02*
G03*
X259842Y11811I-11811J0D01*
G01*
X90551Y125984D02*
G03*
X90551Y125984I-11811J0D01*
G01*
X669291Y11811D02*
G03*
X669291Y11811I-11811J0D01*
G01*
X78740D02*
G03*
X78740Y11811I-11811J0D01*
G01*
X291850Y114173D02*
G03*
X299724Y114173I3937J0D01*
G01*
D02*
G03*
X307598Y114173I3937J0D01*
G01*
X283976D02*
G03*
X291850Y114173I3937J0D01*
G01*
X343032D02*
G03*
X350905Y114173I3937J0D01*
G01*
D02*
G03*
X358780Y114173I3937J0D01*
G01*
X335157D02*
G03*
X343032Y114173I3937J0D01*
G01*
X394213D02*
G03*
X402087Y114173I3937J0D01*
G01*
D02*
G03*
X409961Y114173I3937J0D01*
G01*
X386339D02*
G03*
X394213Y114173I3937J0D01*
G01*
X445394D02*
G03*
X453268Y114173I3937J0D01*
G01*
D02*
G03*
X461142Y114173I3937J0D01*
G01*
X437520D02*
G03*
X445394Y114173I3937J0D01*
G01*
X496575D02*
G03*
X504449Y114173I3937J0D01*
G01*
D02*
G03*
X512323Y114173I3937J0D01*
G01*
X488701D02*
G03*
X496575Y114173I3937J0D01*
G01*
X547756D02*
G03*
X555630Y114173I3937J0D01*
G01*
D02*
G03*
X563504Y114173I3937J0D01*
G01*
X539882D02*
G03*
X547756Y114173I3937J0D01*
G01*
X212756Y62992D02*
G03*
X212756Y62992I-19685J0D01*
G01*
X0Y102362D02*
Y125984D01*
X29921Y102362D02*
Y125984D01*
X0Y102362D02*
X29921D01*
X0Y125984D02*
X29921D01*
X0Y74803D02*
Y98425D01*
X29921Y74803D02*
Y98425D01*
X0Y74803D02*
X29921D01*
X0Y98425D02*
X29921D01*
X106299Y114173D02*
Y125000D01*
X104331Y113779D02*
Y123622D01*
X102362Y112205D02*
Y122047D01*
Y94488D02*
Y103346D01*
X104331Y92913D02*
Y102756D01*
X106299Y91535D02*
Y102362D01*
X83811Y29898D02*
Y42102D01*
X73811Y36000D02*
X78811D01*
X105189D02*
X110189D01*
X105189Y29898D02*
Y42102D01*
X78811Y29898D02*
X105189D01*
X78811D02*
Y42102D01*
X105189D01*
X63390Y45724D02*
X82681D01*
X63390Y86276D02*
X82681D01*
Y45724D02*
Y86276D01*
X63390Y45724D02*
Y86276D01*
X65358Y45724D02*
Y86276D01*
X87339Y79945D02*
X104661D01*
X87339Y48055D02*
X104661D01*
X87339Y46874D02*
Y79945D01*
Y46874D02*
X104661D01*
Y79945D01*
X605315Y79724D02*
X616142D01*
X604921Y77756D02*
X614764D01*
X604331Y75787D02*
X613189D01*
X585630D02*
X595472D01*
X584055Y77756D02*
X593898D01*
X582677Y79724D02*
X593504D01*
X151209Y32457D02*
Y39543D01*
Y32457D02*
X156228D01*
X151209Y39543D02*
X156228D01*
X159772D02*
X164791D01*
X159772Y32457D02*
X164791D01*
Y39543D01*
X244409Y32362D02*
Y122362D01*
X214409D02*
X244409D01*
X214409Y32362D02*
X244409D01*
X214409Y87362D02*
Y122362D01*
Y32362D02*
Y67362D01*
X171417Y92992D02*
Y122992D01*
Y42992D02*
Y72992D01*
X141417Y122992D02*
X171417D01*
X141417Y42992D02*
X171417D01*
X141417D02*
Y122992D01*
X307598Y114173D02*
X310748Y114173D01*
Y120079D01*
X281221Y114173D02*
X283976Y114173D01*
X281221Y114173D02*
Y120079D01*
X321260Y20866D02*
Y135039D01*
X271260Y20866D02*
Y135039D01*
Y20866D02*
X321260D01*
X271260Y135039D02*
X321260D01*
X287196Y47029D02*
X305496D01*
X310896Y32514D02*
Y36014D01*
X311296Y37914D02*
X316264Y32946D01*
X311296Y37914D02*
Y42514D01*
X287396Y27129D02*
X305696D01*
X358780Y114173D02*
X361929Y114173D01*
Y120079D01*
X332402Y114173D02*
X335157Y114173D01*
X332402Y114173D02*
Y120079D01*
X372441Y20866D02*
Y135039D01*
X322441Y20866D02*
Y135039D01*
Y20866D02*
X372441D01*
X322441Y135039D02*
X372441D01*
X338377Y47029D02*
X356677D01*
X362077Y32514D02*
Y36014D01*
X362477Y37914D02*
X367445Y32946D01*
X362477Y37914D02*
Y42514D01*
X338577Y27129D02*
X356877D01*
X409961Y114173D02*
X413110Y114173D01*
Y120079D01*
X383583Y114173D02*
X386339Y114173D01*
X383583Y114173D02*
Y120079D01*
X423622Y20866D02*
Y135039D01*
X373622Y20866D02*
Y135039D01*
Y20866D02*
X423622D01*
X373622Y135039D02*
X423622D01*
X389558Y47029D02*
X407858D01*
X413258Y32514D02*
Y36014D01*
X413658Y37914D02*
X418626Y32946D01*
X413658Y37914D02*
Y42514D01*
X389758Y27129D02*
X408058D01*
X461142Y114173D02*
X464291Y114173D01*
Y120079D01*
X434764Y114173D02*
X437520Y114173D01*
X434764Y114173D02*
Y120079D01*
X474803Y20866D02*
Y135039D01*
X424803Y20866D02*
Y135039D01*
Y20866D02*
X474803D01*
X424803Y135039D02*
X474803D01*
X440739Y47029D02*
X459039D01*
X464439Y32514D02*
Y36014D01*
X464839Y37914D02*
X469807Y32946D01*
X464839Y37914D02*
Y42514D01*
X440939Y27129D02*
X459239D01*
X512323Y114173D02*
X515472Y114173D01*
Y120079D01*
X485945Y114173D02*
X488701Y114173D01*
X485945Y114173D02*
Y120079D01*
X525984Y20866D02*
Y135039D01*
X475984Y20866D02*
Y135039D01*
Y20866D02*
X525984D01*
X475984Y135039D02*
X525984D01*
X491921Y47029D02*
X510220D01*
X515621Y32514D02*
Y36014D01*
X516020Y37914D02*
X520989Y32946D01*
X516020Y37914D02*
Y42514D01*
X492121Y27129D02*
X510421D01*
X563504Y114173D02*
X566653Y114173D01*
Y120079D01*
X537126Y114173D02*
X539882Y114173D01*
X537126Y114173D02*
Y120079D01*
X577165Y20866D02*
Y135039D01*
X527165Y20866D02*
Y135039D01*
Y20866D02*
X577165D01*
X527165Y135039D02*
X577165D01*
X543102Y47029D02*
X561402D01*
X566802Y32514D02*
Y36014D01*
X567202Y37914D02*
X572170Y32946D01*
X567202Y37914D02*
Y42514D01*
X543302Y27129D02*
X561602D01*
X108063Y71153D02*
X115937D01*
X108063Y52846D02*
X115937D01*
Y71153D01*
X108063Y52846D02*
Y71153D01*
X115453Y11811D02*
Y19685D01*
X97146Y11811D02*
Y19685D01*
Y11811D02*
X115453D01*
X97146Y19685D02*
X115453D01*
X165109Y23357D02*
Y30443D01*
Y23357D02*
X170128D01*
X165109Y30443D02*
X170128D01*
X173672D02*
X178691D01*
X173672Y23357D02*
X178691D01*
Y30443D01*
X179154Y14063D02*
Y21937D01*
X160846Y14063D02*
Y21937D01*
Y14063D02*
X179154D01*
X160846Y21937D02*
X179154D01*
X181102Y47638D02*
Y57480D01*
X179134Y49213D02*
Y58071D01*
Y66929D02*
Y76772D01*
X181102Y68504D02*
Y78347D01*
X183071Y68898D02*
Y79724D01*
X179035Y132283D02*
X206988D01*
Y85433D02*
Y132283D01*
X179035Y85433D02*
X206988D01*
X179035D02*
Y132283D01*
X53753Y92535D02*
Y96865D01*
X47847Y92535D02*
Y96865D01*
D52*
X74492Y43165D02*
G03*
X74492Y43165I-492J0D01*
G01*
D53*
X193008Y80100D02*
Y83661D01*
X191883Y82537D02*
X194882D01*
X192820Y79725D01*
Y83661D01*
X193570D02*
X192258D01*
X198819Y123782D02*
X198444Y123595D01*
X197882Y123032D01*
Y126969D01*
X198069Y123220D02*
Y126969D01*
X198819D02*
X197132D01*
X189773Y123782D02*
X189586Y123969D01*
X189773Y124157D01*
X189961Y123969D01*
Y123782D01*
X189773Y123407D01*
X189586Y123220D01*
X189023Y123032D01*
X188274D01*
X187711Y123220D01*
X187524Y123595D01*
Y124157D01*
X187711Y124532D01*
X188274Y124719D01*
X188836D01*
X188274Y123032D02*
X187899Y123220D01*
X187711Y123595D01*
Y124157D01*
X187899Y124532D01*
X188274Y124719D01*
X187899Y124907D01*
X187524Y125282D01*
X187337Y125656D01*
Y126219D01*
X187524Y126594D01*
X187711Y126781D01*
X188274Y126969D01*
X189023D01*
X189586Y126781D01*
X189773Y126594D01*
X189961Y126219D01*
Y126031D01*
X189773Y125844D01*
X189586Y126031D01*
X189773Y126219D01*
X187711Y125094D02*
X187524Y125656D01*
Y126219D01*
X187711Y126594D01*
X187899Y126781D01*
X188274Y126969D01*
D54*
X96001Y47563D02*
D03*
M02*
