M48
;Layer_Color=9474304
;FILE_FORMAT=2:5
INCH,LZ
;TYPE=PLATED
T1F00S00C0.01200
T2F00S00C0.02756
T3F00S00C0.03543
T4F00S00C0.03937
T5F00S00C0.04134
T6F00S00C0.05118
T7F00S00C0.05906
T8F00S00C0.09843
T9F00S00C0.11811
T10F00S00C0.12598
%
T01
X0653543Y0035433
X0665354Y0051181
Y0074803
Y0094488
Y0114173
X0570866Y0110236
X0566929Y0090551
X0555118Y0098425
X053937Y0090551
X0503937Y0094488
Y0106299
X0484252Y0094488
X0452756
Y0106299
X0433071Y0094488
X0401575Y0098425
Y0110236
X038189Y0098425
X0350394
Y0106299
X0334646Y0098425
X030315Y0110236
X0291339Y0102362
X0251969Y0110236
X0212598Y0082677
Y0047244
X0228346Y0043307
X0244094Y0027559
X0232283Y0003937
X02172Y00058
X0188976Y0011811
X0173228Y0003937
X0153543
X01471Y00375
X01536Y0055175
X0177165Y007874
X0133858Y0090551
X0090551Y0106299
X0066929
X0055118Y0082677
X0003937
Y0098425
Y011811
Y0133858
X0027559
X0106299
X0122047Y011811
X0141732Y0133858
X0169291Y0125984
X0192913Y0122047
X0220472Y0125984
X0240158
X0255906
X0622047Y0129921
X0645669
T02
X0023622Y0082677
Y0090551
Y0110236
Y011811
T03
X0151417Y0062992
X0161417
Y0072992
X0151417
Y0082992
X0161417
Y0092992
X0151417
Y0102992
X0161417
X022441Y0102362
Y0092362
Y0082362
Y0072362
Y0062362
Y0052362
X0234409
Y0062362
Y0072362
Y0082362
Y0092362
Y0102362
T04
X0599409Y0079724
Y009941
X0202756Y0062992
X0183071
X0125984Y0108268
X0106299
X0074Y0076
Y0066
Y0056
T05
X0069185Y0036
X0114815
T06
X0435039Y0027559
Y0047244
X0464567
Y0027559
X0486221
Y0047244
X0515748
Y0027559
X0537402
Y0047244
X0566929
Y0027559
X0413386
Y0047244
X0383858
Y0027559
X0362205
Y0047244
X0332677
Y0027559
X0311024
Y0047244
X0281496
Y0027559
Y0125984
X0311024
X0332677
X0362205
X0383858
X0413386
X0435039
X0464567
X0486221
X0515748
X0537402
X0566929
T07
X0629921Y0054173
Y0074173
Y0094173
Y0114173
X003937Y0055748
Y0035748
Y0015748
T08
X0452756Y0011811
X0503937
X0555118
X0401575
X0350394
X0299213
T09
X0606299Y0011811
T10
X065748Y0011811
X0248031
X0066929
X007874Y0125984
X0598425
M30
