G04 Layer_Color=8421504*
%FSLAX25Y25*%
%MOIN*%
G70*
G01*
G75*
%ADD10R,0.09055X0.11024*%
%ADD11R,0.09055X0.03937*%
%ADD12R,0.03937X0.04724*%
%ADD13R,0.05512X0.04724*%
%ADD14R,0.04724X0.05512*%
%ADD15R,0.01575X0.03937*%
%ADD16R,0.07874X0.01575*%
%ADD17R,0.03937X0.11811*%
%ADD18R,0.18898X0.20079*%
%ADD19R,0.06693X0.03740*%
%ADD27C,0.00500*%
D10*
X96000Y73449D02*
D03*
Y54551D02*
D03*
D11*
X125543Y17559D02*
D03*
Y27559D02*
D03*
X153543D02*
D03*
Y17559D02*
D03*
D12*
X154260Y36000D02*
D03*
X161740D02*
D03*
X168160Y26900D02*
D03*
X175640D02*
D03*
D13*
X112000Y67709D02*
D03*
Y56291D02*
D03*
D14*
X112008Y15748D02*
D03*
X100591D02*
D03*
X175709Y18000D02*
D03*
X164291D02*
D03*
D15*
X182677Y90945D02*
D03*
X203150D02*
D03*
D16*
X192913Y88189D02*
D03*
D17*
X183917Y124409D02*
D03*
X201909D02*
D03*
D18*
X192913Y99016D02*
D03*
D19*
X50800Y100212D02*
D03*
Y89188D02*
D03*
D27*
X-0Y-0D02*
Y137795D01*
X669291D01*
X669291Y137795D01*
Y-0D02*
Y137795D01*
X669291Y-0D02*
X669291Y-0D01*
X-0Y-0D02*
X669291D01*
M02*
