G04 Layer_Color=128*
%FSLAX25Y25*%
%MOIN*%
G70*
G01*
G75*
%ADD10R,0.09055X0.11024*%
%ADD12R,0.03937X0.04724*%
%ADD27C,0.00500*%
%ADD42R,0.04724X0.03150*%
%ADD43R,0.02953X0.02362*%
%ADD44R,0.04724X0.03937*%
%ADD45R,0.07087X0.09843*%
%ADD46O,0.07874X0.02402*%
%ADD47O,0.07874X0.02400*%
D10*
X649606Y96850D02*
D03*
Y115748D02*
D03*
D12*
X650377Y57648D02*
D03*
X642897D02*
D03*
X517260Y100500D02*
D03*
X524740D02*
D03*
X465760Y100700D02*
D03*
X473240D02*
D03*
X414760Y100500D02*
D03*
X422240D02*
D03*
X363760D02*
D03*
X371240D02*
D03*
X316260D02*
D03*
X323740D02*
D03*
X265260D02*
D03*
X272740D02*
D03*
X151760Y115000D02*
D03*
X159240D02*
D03*
X31860Y74700D02*
D03*
X39340D02*
D03*
X212940Y12100D02*
D03*
X205460D02*
D03*
X221460D02*
D03*
X228940D02*
D03*
X47047Y114173D02*
D03*
X39567D02*
D03*
X47047Y82677D02*
D03*
X39567D02*
D03*
X196140Y52200D02*
D03*
X188660D02*
D03*
X47047Y106299D02*
D03*
X39567D02*
D03*
D27*
X-0Y-0D02*
Y137795D01*
X669291D01*
X669291Y137795D01*
Y-0D02*
Y137795D01*
X669291Y-0D02*
X669291Y-0D01*
X-0Y-0D02*
X669291D01*
D42*
X651361Y69460D02*
D03*
X642700Y65720D02*
D03*
Y73200D02*
D03*
X555906Y120000D02*
D03*
X547244Y116260D02*
D03*
Y123740D02*
D03*
X504725Y120000D02*
D03*
X496063Y116260D02*
D03*
Y123740D02*
D03*
X453544Y120000D02*
D03*
X444882Y116260D02*
D03*
Y123740D02*
D03*
X402362Y120000D02*
D03*
X393701Y116260D02*
D03*
Y123740D02*
D03*
X352725Y120000D02*
D03*
X344063Y116260D02*
D03*
Y123740D02*
D03*
X302725Y120000D02*
D03*
X294063Y116260D02*
D03*
Y123740D02*
D03*
D43*
X531102Y108260D02*
D03*
Y115740D02*
D03*
X539764Y112000D02*
D03*
X479921Y108260D02*
D03*
Y115740D02*
D03*
X488583Y112000D02*
D03*
X428740Y108260D02*
D03*
Y115740D02*
D03*
X437402Y112000D02*
D03*
X377559Y108260D02*
D03*
Y115740D02*
D03*
X386221Y112000D02*
D03*
X330169Y108260D02*
D03*
Y115740D02*
D03*
X338831Y112000D02*
D03*
X279669Y108260D02*
D03*
Y115740D02*
D03*
X288331Y112000D02*
D03*
D44*
X525000Y115740D02*
D03*
Y108260D02*
D03*
X465500Y115740D02*
D03*
Y108260D02*
D03*
X517000D02*
D03*
Y115740D02*
D03*
X473500Y108260D02*
D03*
Y115740D02*
D03*
X422500D02*
D03*
Y108260D02*
D03*
X414500D02*
D03*
Y115740D02*
D03*
X371500D02*
D03*
Y108260D02*
D03*
X363500D02*
D03*
Y115740D02*
D03*
X323500D02*
D03*
Y108260D02*
D03*
X315500D02*
D03*
Y115740D02*
D03*
X273000D02*
D03*
Y108260D02*
D03*
X265000D02*
D03*
Y115740D02*
D03*
X84200Y66360D02*
D03*
Y73840D02*
D03*
X186600Y21960D02*
D03*
Y29440D02*
D03*
D45*
X55709Y125984D02*
D03*
X38780D02*
D03*
X55709Y94488D02*
D03*
X38780D02*
D03*
D46*
X220472Y19685D02*
D03*
X196850Y24685D02*
D03*
D47*
X220472D02*
D03*
Y29685D02*
D03*
Y34685D02*
D03*
X196850D02*
D03*
Y29685D02*
D03*
Y19685D02*
D03*
M02*
