G04 Layer_Physical_Order=2*
G04 Layer_Color=16711680*
%FSLAX25Y25*%
%MOIN*%
G70*
G01*
G75*
%ADD16R,0.03937X0.04724*%
%ADD19R,0.09055X0.11024*%
%ADD20C,0.01000*%
%ADD21C,0.02000*%
%ADD22C,0.04000*%
%ADD24C,0.03000*%
%ADD25C,0.06000*%
%ADD26C,0.11000*%
%ADD27C,0.00500*%
%ADD28C,0.10630*%
%ADD29R,0.10630X0.10630*%
%ADD30C,0.07087*%
%ADD31C,0.07874*%
%ADD32C,0.20472*%
%ADD33C,0.05906*%
%ADD34R,0.05906X0.05906*%
%ADD35C,0.06299*%
%ADD36R,0.06299X0.06299*%
%ADD37C,0.06102*%
%ADD38O,0.19685X0.15748*%
%ADD39R,0.05118X0.05118*%
%ADD40C,0.05118*%
%ADD41C,0.02400*%
%ADD42R,0.04724X0.03937*%
%ADD43O,0.07874X0.02400*%
%ADD44O,0.07874X0.02402*%
%ADD45R,0.07087X0.09843*%
%ADD46R,0.02953X0.02362*%
%ADD47R,0.04724X0.03150*%
%ADD48C,0.00800*%
%ADD49C,0.01500*%
%ADD50C,0.05906*%
G36*
X75521Y137795D02*
X75639Y136795D01*
X75257Y136704D01*
X73623Y136027D01*
X72115Y135103D01*
X70770Y133954D01*
X69622Y132609D01*
X68698Y131101D01*
X68021Y129467D01*
X67608Y127747D01*
X67509Y126484D01*
X89972D01*
X89872Y127747D01*
X89460Y129467D01*
X88783Y131101D01*
X87859Y132609D01*
X86710Y133954D01*
X85365Y135103D01*
X83857Y136027D01*
X82223Y136704D01*
X81841Y136795D01*
X81959Y137795D01*
X595205Y137795D01*
X595323Y136795D01*
X594942Y136704D01*
X593308Y136027D01*
X591800Y135103D01*
X590455Y133954D01*
X589307Y132609D01*
X588383Y131101D01*
X587706Y129467D01*
X587293Y127747D01*
X587194Y126484D01*
X609657D01*
X609557Y127747D01*
X609144Y129467D01*
X608468Y131101D01*
X607544Y132609D01*
X606395Y133954D01*
X605050Y135103D01*
X603542Y136027D01*
X601908Y136704D01*
X601527Y136795D01*
X601646Y137795D01*
X669291Y137795D01*
Y15030D01*
X668291Y14912D01*
X668200Y15294D01*
X667523Y16928D01*
X666599Y18436D01*
X665450Y19781D01*
X664105Y20929D01*
X662597Y21854D01*
X660963Y22530D01*
X659243Y22943D01*
X657980Y23043D01*
Y11811D01*
X657480D01*
Y11311D01*
X646249D01*
X646348Y10048D01*
X646761Y8328D01*
X647438Y6694D01*
X648362Y5186D01*
X649510Y3841D01*
X650855Y2693D01*
X652363Y1768D01*
X653997Y1092D01*
X654379Y1000D01*
X654261Y0D01*
X641732D01*
Y23622D01*
X582677Y82677D01*
Y82677D01*
X581006D01*
X580624Y83601D01*
X583849Y86826D01*
X609251D01*
X615021Y81057D01*
Y66300D01*
X615115Y65582D01*
X615392Y64913D01*
X615833Y64339D01*
X623150Y57022D01*
X623130Y56986D01*
X622712Y55607D01*
X622571Y54173D01*
X622712Y52739D01*
X623130Y51360D01*
X623810Y50090D01*
X624724Y48976D01*
X625838Y48062D01*
X627108Y47382D01*
X628487Y46964D01*
X629921Y46823D01*
X631355Y46964D01*
X632734Y47382D01*
X634005Y48062D01*
X635119Y48976D01*
X636033Y50090D01*
X636712Y51360D01*
X636724Y51399D01*
X639421D01*
X640139Y51494D01*
X640808Y51771D01*
X641383Y52212D01*
X642457Y53286D01*
X646865D01*
Y53511D01*
X647408Y54286D01*
X647865Y54286D01*
X649877D01*
Y57648D01*
Y61011D01*
X647865D01*
X647408Y61011D01*
X647305Y61159D01*
X647062Y62145D01*
X647062D01*
X647062Y62145D01*
Y66733D01*
X647999Y66885D01*
X648062Y66885D01*
X650861D01*
Y69460D01*
Y72035D01*
X648062D01*
X647999Y72035D01*
X647062Y72187D01*
Y76775D01*
X638338D01*
Y75974D01*
X637019D01*
X636712Y76986D01*
X636033Y78257D01*
X635119Y79371D01*
X634005Y80285D01*
X632734Y80964D01*
X631355Y81382D01*
X629921Y81524D01*
X628487Y81382D01*
X627108Y80964D01*
X627072Y80945D01*
X613056Y94961D01*
X612481Y95402D01*
X611812Y95679D01*
X611095Y95774D01*
X604718D01*
X604318Y96774D01*
X604810Y97962D01*
X605001Y99410D01*
X604810Y100856D01*
X604251Y102205D01*
X603363Y103363D01*
X602205Y104252D01*
X600856Y104810D01*
X599409Y105001D01*
X597962Y104810D01*
X596614Y104252D01*
X595562Y103444D01*
X595175D01*
X572872Y125748D01*
X572895Y125984D01*
X572780Y127148D01*
X572441Y128267D01*
X571889Y129299D01*
X571147Y130203D01*
X570244Y130945D01*
X569212Y131496D01*
X568093Y131835D01*
X566929Y131950D01*
X565765Y131835D01*
X564646Y131496D01*
X563615Y130945D01*
X562711Y130203D01*
X561969Y129299D01*
X561417Y128267D01*
X561078Y127148D01*
X560963Y125984D01*
X561078Y124820D01*
X561275Y124170D01*
X561091Y124003D01*
X560268Y123575D01*
X551607D01*
Y127315D01*
X547592D01*
X546962Y127946D01*
X546387Y128386D01*
X545718Y128664D01*
X545001Y128758D01*
X542651D01*
X542362Y129299D01*
X541620Y130203D01*
X540716Y130945D01*
X539685Y131496D01*
X538565Y131835D01*
X537402Y131950D01*
X536238Y131835D01*
X535119Y131496D01*
X534087Y130945D01*
X533183Y130203D01*
X532441Y129299D01*
X531890Y128267D01*
X531551Y127148D01*
X531436Y125984D01*
X531551Y124820D01*
X531890Y123701D01*
X532441Y122670D01*
X533183Y121766D01*
X534087Y121024D01*
X535119Y120473D01*
X536238Y120133D01*
X537402Y120018D01*
X538565Y120133D01*
X539685Y120473D01*
X540716Y121024D01*
X541620Y121766D01*
X541882Y122085D01*
X542882Y121727D01*
Y120166D01*
X542882D01*
Y119835D01*
X542882D01*
Y115821D01*
X542243Y115181D01*
X536287D01*
Y108819D01*
X543240D01*
Y109260D01*
X543702Y109321D01*
X544371Y109598D01*
X544945Y110039D01*
X547592Y112685D01*
X551607D01*
Y116426D01*
X560268D01*
Y117227D01*
X562100D01*
X562818Y117321D01*
X563487Y117598D01*
X564062Y118039D01*
X566121Y120098D01*
X566929Y120018D01*
X567166Y120042D01*
X590434Y96774D01*
X590185Y95963D01*
X590036Y95774D01*
X581700D01*
X580982Y95679D01*
X580313Y95402D01*
X579739Y94961D01*
X571351Y86574D01*
X508101D01*
X507718Y87498D01*
X516358Y96138D01*
X528709D01*
Y104291D01*
X529362D01*
Y105079D01*
X534579D01*
Y111441D01*
X529362D01*
Y112228D01*
X529202D01*
X528803Y112633D01*
X529295Y113559D01*
X530602D01*
Y115740D01*
Y117921D01*
X528875Y117921D01*
X528362Y118709D01*
X528113Y118709D01*
Y118709D01*
X525500D01*
Y115740D01*
X525000D01*
Y115240D01*
X521638D01*
X521638Y113346D01*
X521000Y112974D01*
X520362Y113346D01*
Y115240D01*
X513638D01*
Y113228D01*
X513638Y112772D01*
X512863Y112228D01*
X512638D01*
Y104291D01*
X513291D01*
Y99992D01*
X507054Y93755D01*
X506132Y94247D01*
X506180Y94488D01*
X506009Y95347D01*
X505523Y96074D01*
X504795Y96561D01*
X504437Y96632D01*
Y94488D01*
X503937D01*
Y93988D01*
X501793D01*
X501865Y93630D01*
X502351Y92902D01*
X503079Y92416D01*
X503937Y92245D01*
X504178Y92293D01*
X504671Y91371D01*
X502046Y88747D01*
X458574D01*
X458191Y89671D01*
X464858Y96338D01*
X477209D01*
Y104291D01*
X477862D01*
Y105079D01*
X483398D01*
Y111441D01*
X477862D01*
Y112228D01*
X477684D01*
X477629Y112285D01*
X477572Y112679D01*
X478455Y113559D01*
X479421D01*
Y115740D01*
Y117921D01*
X477862D01*
X477445Y117921D01*
X476862Y118680D01*
Y118709D01*
X474000D01*
Y115740D01*
X473500D01*
Y115240D01*
X470138D01*
X470138Y113346D01*
X469500Y112974D01*
X468862Y113346D01*
Y115240D01*
X462138D01*
Y113228D01*
X462138Y112772D01*
X461363Y112228D01*
X461138D01*
Y104291D01*
X461791D01*
Y100192D01*
X455965Y94366D01*
X455708Y94399D01*
X454945Y94760D01*
X454828Y95347D01*
X454342Y96074D01*
X453614Y96561D01*
X453256Y96632D01*
Y94488D01*
X452756D01*
Y93988D01*
X450612D01*
X450684Y93630D01*
X451170Y92902D01*
X451897Y92416D01*
X452484Y92299D01*
X452845Y91536D01*
X452878Y91279D01*
X452146Y90547D01*
X409574D01*
X409191Y91471D01*
X413858Y96138D01*
X426209D01*
Y104291D01*
X426862D01*
Y105079D01*
X432217D01*
Y111441D01*
X426862D01*
Y112228D01*
X426702D01*
X426303Y112633D01*
X426795Y113559D01*
X428240D01*
Y115740D01*
Y117921D01*
X426375Y117921D01*
X425862Y118709D01*
X425750Y118709D01*
X423000D01*
Y115740D01*
X422500D01*
Y115240D01*
X419138D01*
X419138Y113346D01*
X418500Y112974D01*
X417862Y113346D01*
Y115240D01*
X411138D01*
Y113228D01*
X411138Y112772D01*
X410363Y112228D01*
X410138D01*
Y104291D01*
X410791D01*
Y99992D01*
X403146Y92347D01*
X360374D01*
X359991Y93271D01*
X362858Y96138D01*
X375209D01*
Y104291D01*
X375862D01*
Y105079D01*
X381035D01*
Y111441D01*
X375862D01*
Y112228D01*
X375702D01*
X375304Y112633D01*
X375795Y113559D01*
X377059D01*
Y115740D01*
Y117921D01*
X375375Y117921D01*
X374862Y118709D01*
X374569Y118709D01*
Y118709D01*
X372000D01*
Y115740D01*
X371500D01*
Y115240D01*
X368138D01*
X368138Y113346D01*
X367500Y112974D01*
X366862Y113346D01*
Y115240D01*
X360138D01*
Y113228D01*
X360138Y112772D01*
X359363Y112228D01*
X359138D01*
Y104291D01*
X359791D01*
Y99992D01*
X353946Y94147D01*
X314674D01*
X314291Y95071D01*
X315358Y96138D01*
X327709D01*
Y104291D01*
X327862D01*
Y105079D01*
X333646D01*
Y111441D01*
X327862D01*
Y112228D01*
X327862D01*
X327545Y113190D01*
X327568Y113498D01*
X327693Y113559D01*
X327862Y113559D01*
X329669D01*
Y115740D01*
Y117921D01*
X327862D01*
X327693Y117921D01*
X326862Y118330D01*
Y118709D01*
X324000D01*
Y115740D01*
X323500D01*
Y115240D01*
X320138D01*
X320138Y113346D01*
X319500Y112974D01*
X318862Y113346D01*
Y115240D01*
X312138D01*
Y113228D01*
X312138Y112772D01*
X311363Y112228D01*
X311138D01*
Y104291D01*
X312291D01*
Y99992D01*
X308246Y95947D01*
X277630D01*
X276709Y96138D01*
Y104291D01*
X277362D01*
Y105079D01*
X283146D01*
Y111441D01*
X277362D01*
Y112228D01*
X277362D01*
X277045Y113190D01*
X277068Y113498D01*
X277193Y113559D01*
X277362Y113559D01*
X279169D01*
Y115740D01*
Y117921D01*
X277362D01*
X277193Y117921D01*
X276362Y118330D01*
Y118709D01*
X273500D01*
Y115740D01*
X273000D01*
Y115240D01*
X269638D01*
X269638Y113346D01*
X269000Y112974D01*
X268362Y113346D01*
Y115240D01*
X261638D01*
Y113228D01*
X261638Y112772D01*
X260863Y112228D01*
X260638D01*
Y104291D01*
X261291D01*
Y100457D01*
X239948D01*
X239286Y101456D01*
X239405Y102362D01*
X239235Y103655D01*
X238736Y104860D01*
X237942Y105894D01*
X236907Y106688D01*
X235702Y107187D01*
X234409Y107358D01*
X233117Y107187D01*
X231912Y106688D01*
X230877Y105894D01*
X230362Y105224D01*
X229362Y105563D01*
Y107315D01*
X219457D01*
Y97409D01*
X221209D01*
X221548Y96409D01*
X220877Y95894D01*
X220083Y94860D01*
X219584Y93655D01*
X219414Y92362D01*
X219584Y91069D01*
X220083Y89864D01*
X220877Y88830D01*
X221912Y88036D01*
X222232Y87903D01*
Y86821D01*
X221912Y86688D01*
X220877Y85895D01*
X220083Y84860D01*
X219584Y83655D01*
X219414Y82362D01*
X219584Y81069D01*
X220083Y79864D01*
X220877Y78830D01*
X221912Y78036D01*
X222232Y77903D01*
Y76821D01*
X221912Y76688D01*
X220877Y75894D01*
X220083Y74860D01*
X219584Y73655D01*
X219414Y72362D01*
X219584Y71069D01*
X220083Y69864D01*
X220877Y68830D01*
X221912Y68036D01*
X222232Y67903D01*
Y66821D01*
X221912Y66688D01*
X220877Y65895D01*
X220083Y64860D01*
X219584Y63655D01*
X219414Y62362D01*
X219584Y61069D01*
X220083Y59864D01*
X220877Y58830D01*
X221912Y58036D01*
X222232Y57903D01*
Y56821D01*
X221912Y56688D01*
X220877Y55895D01*
X220083Y54860D01*
X219584Y53655D01*
X219414Y52362D01*
X219584Y51069D01*
X220083Y49864D01*
X220877Y48830D01*
X221912Y48036D01*
X223116Y47537D01*
X224410Y47367D01*
X225702Y47537D01*
X226907Y48036D01*
X227942Y48830D01*
X228302Y48853D01*
X230876Y46279D01*
X231670Y45749D01*
X232607Y45562D01*
X237709D01*
X238646Y45749D01*
X239440Y46279D01*
X240607Y47447D01*
X241692Y47118D01*
X241709Y47032D01*
X227136Y32459D01*
X225500D01*
X225040Y33451D01*
X225044Y33471D01*
X225282Y33827D01*
X225353Y34185D01*
X215592D01*
X215663Y33827D01*
X215901Y33471D01*
X215905Y33451D01*
X215444Y32459D01*
X214985D01*
X214267Y32364D01*
X213598Y32087D01*
X213024Y31646D01*
X208873Y27496D01*
X207949Y27878D01*
Y35500D01*
X207755Y36476D01*
X207202Y37302D01*
X202802Y41702D01*
X201975Y42255D01*
X201000Y42449D01*
X185456D01*
X174849Y53056D01*
Y69300D01*
X174655Y70275D01*
X174102Y71102D01*
X165502Y79702D01*
X165437Y80096D01*
X165744Y80494D01*
X166243Y81699D01*
X166413Y82992D01*
X166243Y84285D01*
X165744Y85490D01*
X164950Y86524D01*
X163915Y87318D01*
X163595Y87451D01*
Y88533D01*
X163915Y88666D01*
X164950Y89460D01*
X165744Y90494D01*
X166243Y91699D01*
X166413Y92992D01*
X166243Y94285D01*
X165744Y95490D01*
X164950Y96525D01*
X163915Y97318D01*
X162710Y97817D01*
X161417Y97988D01*
X160124Y97817D01*
X158920Y97318D01*
X157885Y96525D01*
X157091Y95490D01*
X156592Y94285D01*
X156422Y92992D01*
X156592Y91699D01*
X157091Y90494D01*
X157885Y89460D01*
X158920Y88666D01*
X159240Y88533D01*
Y87451D01*
X158920Y87318D01*
X157885Y86524D01*
X157091Y85490D01*
X156958Y85170D01*
X155876D01*
X155744Y85490D01*
X154950Y86524D01*
X153915Y87318D01*
X152710Y87817D01*
X151417Y87988D01*
X150124Y87817D01*
X148920Y87318D01*
X147885Y86524D01*
X147091Y85490D01*
X146592Y84285D01*
X146422Y82992D01*
X146592Y81699D01*
X147091Y80494D01*
X147885Y79460D01*
X148920Y78666D01*
X149240Y78533D01*
Y77451D01*
X148920Y77318D01*
X147885Y76525D01*
X147091Y75490D01*
X146592Y74285D01*
X146422Y72992D01*
X146592Y71699D01*
X147091Y70494D01*
X147885Y69460D01*
X148920Y68666D01*
X149240Y68533D01*
Y67451D01*
X148920Y67318D01*
X147885Y66524D01*
X147091Y65490D01*
X146592Y64285D01*
X146422Y62992D01*
X146592Y61699D01*
X147091Y60494D01*
X147885Y59460D01*
X148920Y58666D01*
X150124Y58167D01*
X150593Y58105D01*
X151000Y57043D01*
X150805Y56789D01*
X150482Y56010D01*
X150372Y55175D01*
X150482Y54339D01*
X150805Y53561D01*
X151051Y53240D01*
Y45056D01*
X146666Y40670D01*
X146265Y40618D01*
X145486Y40295D01*
X144818Y39782D01*
X144305Y39114D01*
X143982Y38335D01*
X143872Y37500D01*
X143982Y36665D01*
X144305Y35886D01*
X144818Y35218D01*
X145486Y34705D01*
X146265Y34382D01*
X147100Y34272D01*
X147935Y34382D01*
X148714Y34705D01*
X149382Y35218D01*
X149895Y35886D01*
X150218Y36665D01*
X150270Y37066D01*
X155402Y42198D01*
X155955Y43025D01*
X156149Y44000D01*
Y52332D01*
X157149Y52746D01*
X182013Y27883D01*
X182238Y27732D01*
Y25472D01*
X182463D01*
X183238Y24928D01*
X183238Y24472D01*
Y22460D01*
X186600D01*
Y21960D01*
X187100D01*
Y18991D01*
X189962D01*
Y19039D01*
X190962Y19105D01*
X190996Y18850D01*
X191318Y18071D01*
X191831Y17403D01*
X192500Y16890D01*
X193278Y16567D01*
X194113Y16457D01*
X199587D01*
X200423Y16567D01*
X200558Y16623D01*
X201491Y15928D01*
Y7738D01*
X213457D01*
X214125Y6738D01*
X214082Y6635D01*
X213972Y5800D01*
X214082Y4965D01*
X214405Y4186D01*
X214918Y3518D01*
X215586Y3005D01*
X216365Y2682D01*
X217200Y2572D01*
X218035Y2682D01*
X218257Y2774D01*
X220000D01*
X220783Y2877D01*
X221513Y3179D01*
X222140Y3660D01*
X223599Y5120D01*
X223600Y5120D01*
X224080Y5747D01*
X224383Y6477D01*
X224486Y7260D01*
X225277Y7738D01*
X225428D01*
Y7963D01*
X225972Y8738D01*
X227911D01*
X228027Y8690D01*
X228440Y8636D01*
Y12100D01*
Y15564D01*
X228027Y15510D01*
X227911Y15462D01*
X225972D01*
X225849Y15637D01*
X225428Y16462D01*
X225491Y17402D01*
X226005Y18071D01*
X226327Y18849D01*
X226437Y19685D01*
X226327Y20521D01*
X226165Y20911D01*
X226699Y21911D01*
X226821D01*
X227538Y22006D01*
X228207Y22283D01*
X228782Y22724D01*
X247108Y41050D01*
X248031Y40667D01*
Y23082D01*
X246268Y22943D01*
X244549Y22530D01*
X242915Y21854D01*
X241407Y20929D01*
X240062Y19781D01*
X238913Y18436D01*
X237989Y16928D01*
X237452Y15630D01*
X229440D01*
Y12100D01*
Y8570D01*
X233990D01*
X234397Y8401D01*
X235311Y8281D01*
X237332D01*
X237989Y6694D01*
X238913Y5186D01*
X240062Y3841D01*
X241407Y2693D01*
X242915Y1768D01*
X244549Y1092D01*
X244931Y1000D01*
X244812Y0D01*
X141732D01*
X141732Y50489D01*
X101670Y90551D01*
X66929D01*
X58213Y81835D01*
X57574Y82177D01*
X55618D01*
Y80221D01*
X55960Y79582D01*
X47244Y70866D01*
X43309D01*
Y78315D01*
X43535D01*
Y78540D01*
X44079Y79315D01*
X44535Y79315D01*
X46547D01*
Y82677D01*
Y86039D01*
X44965D01*
X44266Y86691D01*
X44122Y87039D01*
X44199Y87487D01*
X44317Y87567D01*
X44323D01*
Y101409D01*
X44317D01*
X44199Y101489D01*
X44122Y101937D01*
X44266Y102285D01*
X44965Y102937D01*
X46547D01*
Y106299D01*
Y109661D01*
X44895D01*
X44594Y110211D01*
X44963Y110811D01*
X46547D01*
Y114173D01*
Y117535D01*
X44965D01*
X44266Y118188D01*
X44122Y118535D01*
X44199Y118983D01*
X44317Y119063D01*
X44323D01*
Y132905D01*
X33236D01*
Y121065D01*
X32236Y120512D01*
X31496Y120659D01*
X27413D01*
X26874Y121362D01*
X25921Y122093D01*
X24812Y122552D01*
X23622Y122709D01*
X22432Y122552D01*
X21323Y122093D01*
X20370Y121362D01*
X19640Y120409D01*
X19180Y119300D01*
X19024Y118110D01*
X19180Y116920D01*
X19640Y115811D01*
X19652Y115795D01*
X19159Y114795D01*
X19063D01*
Y105677D01*
X28181D01*
Y114795D01*
X28746Y115561D01*
X30440D01*
X33631Y112371D01*
X34458Y111818D01*
X35433Y111624D01*
X35598D01*
Y109811D01*
Y102410D01*
X35598Y101937D01*
X34817Y101409D01*
X33236D01*
Y89785D01*
X32312Y89403D01*
X29361Y92354D01*
X28534Y92906D01*
X27559Y93100D01*
X27413D01*
X26874Y93803D01*
X25921Y94533D01*
X24812Y94993D01*
X23622Y95150D01*
X22432Y94993D01*
X21323Y94533D01*
X20370Y93803D01*
X19640Y92850D01*
X19180Y91741D01*
X19024Y90551D01*
X19180Y89361D01*
X19640Y88252D01*
X19652Y88236D01*
X19159Y87236D01*
X19063D01*
Y78118D01*
X27915D01*
X28198Y78102D01*
X28891Y77419D01*
Y75200D01*
X31360D01*
Y78062D01*
X29158D01*
X28875Y78078D01*
X28181Y78762D01*
Y85018D01*
X29105Y85400D01*
X33631Y80875D01*
X34458Y80322D01*
X35433Y80128D01*
X35598D01*
Y79062D01*
X35372D01*
Y78837D01*
X34828Y78062D01*
X34372Y78062D01*
X32360D01*
Y74700D01*
X31860D01*
Y74200D01*
X28891D01*
Y71866D01*
X28891Y71338D01*
X28087Y70866D01*
X0D01*
X-0Y71866D01*
Y137088D01*
X707Y137795D01*
X75521Y137795D01*
D02*
G37*
%LPC*%
G36*
X435215Y93988D02*
X433571D01*
Y92345D01*
X433929Y92416D01*
X434657Y92902D01*
X435143Y93630D01*
X435215Y93988D01*
D02*
G37*
G36*
X432571D02*
X430927D01*
X430999Y93630D01*
X431485Y92902D01*
X432212Y92416D01*
X432571Y92345D01*
Y93988D01*
D02*
G37*
G36*
X486396D02*
X484752D01*
Y92345D01*
X485110Y92416D01*
X485838Y92902D01*
X486324Y93630D01*
X486396Y93988D01*
D02*
G37*
G36*
X483752D02*
X482108D01*
X482180Y93630D01*
X482666Y92902D01*
X483394Y92416D01*
X483752Y92345D01*
Y93988D01*
D02*
G37*
G36*
X539870Y92695D02*
Y91051D01*
X541514D01*
X541442Y91410D01*
X540956Y92137D01*
X540229Y92624D01*
X539870Y92695D01*
D02*
G37*
G36*
X538870D02*
X538512Y92624D01*
X537784Y92137D01*
X537298Y91410D01*
X537226Y91051D01*
X538870D01*
Y92695D01*
D02*
G37*
G36*
X567429D02*
Y91051D01*
X569073D01*
X569001Y91410D01*
X568515Y92137D01*
X567788Y92624D01*
X567429Y92695D01*
D02*
G37*
G36*
X566429D02*
X566071Y92624D01*
X565343Y92137D01*
X564857Y91410D01*
X564785Y91051D01*
X566429D01*
Y92695D01*
D02*
G37*
G36*
X664854Y93988D02*
X663211D01*
X663282Y93630D01*
X663768Y92902D01*
X664496Y92416D01*
X664854Y92345D01*
Y93988D01*
D02*
G37*
G36*
X60252Y100409D02*
X56209D01*
Y94988D01*
X60252D01*
Y100409D01*
D02*
G37*
G36*
X55209D02*
X51165D01*
Y94988D01*
X55209D01*
Y100409D01*
D02*
G37*
G36*
X433571Y96632D02*
Y94988D01*
X435215D01*
X435143Y95347D01*
X434657Y96074D01*
X433929Y96561D01*
X433571Y96632D01*
D02*
G37*
G36*
X432571D02*
X432212Y96561D01*
X431485Y96074D01*
X430999Y95347D01*
X430927Y94988D01*
X432571D01*
Y96632D01*
D02*
G37*
G36*
X150917Y96913D02*
X150385Y96843D01*
X149424Y96445D01*
X148598Y95811D01*
X147965Y94986D01*
X147566Y94024D01*
X147496Y93492D01*
X150917D01*
Y96913D01*
D02*
G37*
G36*
X667498Y93988D02*
X665854D01*
Y92345D01*
X666213Y92416D01*
X666940Y92902D01*
X667427Y93630D01*
X667498Y93988D01*
D02*
G37*
G36*
X629421Y100470D02*
X628683Y100397D01*
X627493Y100036D01*
X626396Y99449D01*
X625434Y98660D01*
X624645Y97699D01*
X624059Y96602D01*
X623698Y95411D01*
X623625Y94673D01*
X629421D01*
Y100470D01*
D02*
G37*
G36*
X151917Y96913D02*
Y93492D01*
X155338D01*
X155268Y94024D01*
X154870Y94986D01*
X154236Y95811D01*
X153411Y96445D01*
X152449Y96843D01*
X151917Y96913D01*
D02*
G37*
G36*
X136002Y90051D02*
X134358D01*
Y88407D01*
X134717Y88479D01*
X135444Y88965D01*
X135931Y89693D01*
X136002Y90051D01*
D02*
G37*
G36*
X133358D02*
X131715D01*
X131786Y89693D01*
X132272Y88965D01*
X133000Y88479D01*
X133358Y88407D01*
Y90051D01*
D02*
G37*
G36*
X541514D02*
X539870D01*
Y88407D01*
X540229Y88479D01*
X540956Y88965D01*
X541442Y89693D01*
X541514Y90051D01*
D02*
G37*
G36*
X538870D02*
X537226D01*
X537298Y89693D01*
X537784Y88965D01*
X538512Y88479D01*
X538870Y88407D01*
Y90051D01*
D02*
G37*
G36*
X629421Y93673D02*
X623625D01*
X623698Y92935D01*
X624059Y91745D01*
X624645Y90648D01*
X625434Y89686D01*
X626396Y88897D01*
X627493Y88311D01*
X628683Y87950D01*
X629421Y87877D01*
Y93673D01*
D02*
G37*
G36*
X55618Y84821D02*
Y83177D01*
X57262D01*
X57191Y83536D01*
X56704Y84263D01*
X55976Y84750D01*
X55618Y84821D01*
D02*
G37*
G36*
X54618D02*
X54260Y84750D01*
X53532Y84263D01*
X53046Y83536D01*
X52974Y83177D01*
X54618D01*
Y84821D01*
D02*
G37*
G36*
X213098D02*
Y83177D01*
X214742D01*
X214671Y83536D01*
X214184Y84263D01*
X213457Y84750D01*
X213098Y84821D01*
D02*
G37*
G36*
X212098D02*
X211740Y84750D01*
X211012Y84263D01*
X210526Y83536D01*
X210455Y83177D01*
X212098D01*
Y84821D01*
D02*
G37*
G36*
X655134Y96350D02*
X650106D01*
Y90339D01*
X655134D01*
Y96350D01*
D02*
G37*
G36*
X155338Y92492D02*
X151917D01*
Y89071D01*
X152449Y89141D01*
X153411Y89539D01*
X154236Y90173D01*
X154870Y90999D01*
X155268Y91960D01*
X155338Y92492D01*
D02*
G37*
G36*
X134358Y92695D02*
Y91051D01*
X136002D01*
X135931Y91410D01*
X135444Y92137D01*
X134717Y92624D01*
X134358Y92695D01*
D02*
G37*
G36*
X133358D02*
X133000Y92624D01*
X132272Y92137D01*
X131786Y91410D01*
X131715Y91051D01*
X133358D01*
Y92695D01*
D02*
G37*
G36*
X150917Y92492D02*
X147496D01*
X147566Y91960D01*
X147965Y90999D01*
X148598Y90173D01*
X149424Y89539D01*
X150385Y89141D01*
X150917Y89071D01*
Y92492D01*
D02*
G37*
G36*
X569073Y90051D02*
X567429D01*
Y88407D01*
X567788Y88479D01*
X568515Y88965D01*
X569001Y89693D01*
X569073Y90051D01*
D02*
G37*
G36*
X566429D02*
X564785D01*
X564857Y89693D01*
X565343Y88965D01*
X566071Y88479D01*
X566429Y88407D01*
Y90051D01*
D02*
G37*
G36*
X60252Y93988D02*
X56209D01*
Y88567D01*
X60252D01*
Y93988D01*
D02*
G37*
G36*
X55209D02*
X51165D01*
Y88567D01*
X55209D01*
Y93988D01*
D02*
G37*
G36*
X452256Y96632D02*
X451897Y96561D01*
X451170Y96074D01*
X450684Y95347D01*
X450612Y94988D01*
X452256D01*
Y96632D01*
D02*
G37*
G36*
X350894Y100569D02*
Y98925D01*
X352537D01*
X352466Y99284D01*
X351980Y100011D01*
X351252Y100498D01*
X350894Y100569D01*
D02*
G37*
G36*
X349894D02*
X349535Y100498D01*
X348808Y100011D01*
X348321Y99284D01*
X348250Y98925D01*
X349894D01*
Y100569D01*
D02*
G37*
G36*
X382390D02*
Y98925D01*
X384033D01*
X383962Y99284D01*
X383476Y100011D01*
X382748Y100498D01*
X382390Y100569D01*
D02*
G37*
G36*
X381390D02*
X381031Y100498D01*
X380304Y100011D01*
X379817Y99284D01*
X379746Y98925D01*
X381390D01*
Y100569D01*
D02*
G37*
G36*
X4437D02*
Y98925D01*
X6081D01*
X6009Y99284D01*
X5523Y100011D01*
X4795Y100498D01*
X4437Y100569D01*
D02*
G37*
G36*
X3437D02*
X3079Y100498D01*
X2351Y100011D01*
X1865Y99284D01*
X1793Y98925D01*
X3437D01*
Y100569D01*
D02*
G37*
G36*
X335146D02*
Y98925D01*
X336789D01*
X336718Y99284D01*
X336232Y100011D01*
X335504Y100498D01*
X335146Y100569D01*
D02*
G37*
G36*
X334146D02*
X333787Y100498D01*
X333060Y100011D01*
X332573Y99284D01*
X332502Y98925D01*
X334146D01*
Y100569D01*
D02*
G37*
G36*
X401075D02*
X400716Y100498D01*
X399989Y100011D01*
X399502Y99284D01*
X399431Y98925D01*
X401075D01*
Y100569D01*
D02*
G37*
G36*
X290839Y101862D02*
X289195D01*
X289266Y101504D01*
X289753Y100776D01*
X290480Y100290D01*
X290839Y100219D01*
Y101862D01*
D02*
G37*
G36*
X165338Y102492D02*
X161917D01*
Y99071D01*
X162449Y99141D01*
X163411Y99539D01*
X164236Y100173D01*
X164870Y100999D01*
X165268Y101960D01*
X165338Y102492D01*
D02*
G37*
G36*
X649106Y103362D02*
X644079D01*
Y100381D01*
X638250D01*
X638250Y100381D01*
X637337Y100260D01*
X636485Y99908D01*
X635754Y99347D01*
X635037Y98629D01*
X634408Y98660D01*
X633447Y99449D01*
X632350Y100036D01*
X631159Y100397D01*
X630421Y100470D01*
Y94173D01*
Y87877D01*
X631159Y87950D01*
X632350Y88311D01*
X633447Y88897D01*
X634408Y89686D01*
X635193Y90643D01*
X635573D01*
X636487Y90763D01*
X637338Y91116D01*
X638069Y91677D01*
X639713Y93320D01*
X644079D01*
Y90339D01*
X649106D01*
Y96850D01*
Y103362D01*
D02*
G37*
G36*
X293482Y101862D02*
X291839D01*
Y100219D01*
X292197Y100290D01*
X292925Y100776D01*
X293411Y101504D01*
X293482Y101862D01*
D02*
G37*
G36*
X554618Y100569D02*
X554260Y100498D01*
X553532Y100011D01*
X553046Y99284D01*
X552975Y98925D01*
X554618D01*
Y100569D01*
D02*
G37*
G36*
X402075D02*
Y98925D01*
X403718D01*
X403647Y99284D01*
X403161Y100011D01*
X402433Y100498D01*
X402075Y100569D01*
D02*
G37*
G36*
X160917Y102492D02*
X157496D01*
X157566Y101960D01*
X157965Y100999D01*
X158598Y100173D01*
X159424Y99539D01*
X160385Y99141D01*
X160917Y99071D01*
Y102492D01*
D02*
G37*
G36*
X555618Y100569D02*
Y98925D01*
X557262D01*
X557191Y99284D01*
X556704Y100011D01*
X555976Y100498D01*
X555618Y100569D01*
D02*
G37*
G36*
X655134Y103362D02*
X650106D01*
Y97350D01*
X655134D01*
Y103362D01*
D02*
G37*
G36*
X3437Y97925D02*
X1793D01*
X1865Y97567D01*
X2351Y96839D01*
X3079Y96353D01*
X3437Y96282D01*
Y97925D01*
D02*
G37*
G36*
X665854Y96632D02*
Y94988D01*
X667498D01*
X667427Y95347D01*
X666940Y96074D01*
X666213Y96561D01*
X665854Y96632D01*
D02*
G37*
G36*
X334146Y97925D02*
X332502D01*
X332573Y97567D01*
X333060Y96839D01*
X333787Y96353D01*
X334146Y96282D01*
Y97925D01*
D02*
G37*
G36*
X6081D02*
X4437D01*
Y96282D01*
X4795Y96353D01*
X5523Y96839D01*
X6009Y97567D01*
X6081Y97925D01*
D02*
G37*
G36*
X484752Y96632D02*
Y94988D01*
X486396D01*
X486324Y95347D01*
X485838Y96074D01*
X485110Y96561D01*
X484752Y96632D01*
D02*
G37*
G36*
X483752D02*
X483394Y96561D01*
X482666Y96074D01*
X482180Y95347D01*
X482108Y94988D01*
X483752D01*
Y96632D01*
D02*
G37*
G36*
X664854D02*
X664496Y96561D01*
X663768Y96074D01*
X663282Y95347D01*
X663211Y94988D01*
X664854D01*
Y96632D01*
D02*
G37*
G36*
X503437D02*
X503079Y96561D01*
X502351Y96074D01*
X501865Y95347D01*
X501793Y94988D01*
X503437D01*
Y96632D01*
D02*
G37*
G36*
X336789Y97925D02*
X335146D01*
Y96282D01*
X335504Y96353D01*
X336232Y96839D01*
X336718Y97567D01*
X336789Y97925D01*
D02*
G37*
G36*
X403718D02*
X402075D01*
Y96282D01*
X402433Y96353D01*
X403161Y96839D01*
X403647Y97567D01*
X403718Y97925D01*
D02*
G37*
G36*
X401075D02*
X399431D01*
X399502Y97567D01*
X399989Y96839D01*
X400716Y96353D01*
X401075Y96282D01*
Y97925D01*
D02*
G37*
G36*
X557262D02*
X555618D01*
Y96282D01*
X555976Y96353D01*
X556704Y96839D01*
X557191Y97567D01*
X557262Y97925D01*
D02*
G37*
G36*
X554618D02*
X552975D01*
X553046Y97567D01*
X553532Y96839D01*
X554260Y96353D01*
X554618Y96282D01*
Y97925D01*
D02*
G37*
G36*
X352537D02*
X350894D01*
Y96282D01*
X351252Y96353D01*
X351980Y96839D01*
X352466Y97567D01*
X352537Y97925D01*
D02*
G37*
G36*
X349894D02*
X348250D01*
X348321Y97567D01*
X348808Y96839D01*
X349535Y96353D01*
X349894Y96282D01*
Y97925D01*
D02*
G37*
G36*
X384033D02*
X382390D01*
Y96282D01*
X382748Y96353D01*
X383476Y96839D01*
X383962Y97567D01*
X384033Y97925D01*
D02*
G37*
G36*
X381390D02*
X379746D01*
X379817Y97567D01*
X380304Y96839D01*
X381031Y96353D01*
X381390Y96282D01*
Y97925D01*
D02*
G37*
G36*
X47547Y86039D02*
Y83177D01*
X50016D01*
Y86039D01*
X47547D01*
D02*
G37*
G36*
X655687Y34933D02*
X654043D01*
Y33289D01*
X654402Y33361D01*
X655129Y33847D01*
X655616Y34575D01*
X655687Y34933D01*
D02*
G37*
G36*
X653043D02*
X651400D01*
X651471Y34575D01*
X651957Y33847D01*
X652685Y33361D01*
X653043Y33289D01*
Y34933D01*
D02*
G37*
G36*
X223210Y36928D02*
X220972D01*
Y35185D01*
X225353D01*
X225282Y35543D01*
X224796Y36271D01*
X224068Y36757D01*
X223210Y36928D01*
D02*
G37*
G36*
X219972D02*
X217735D01*
X216877Y36757D01*
X216149Y36271D01*
X215663Y35543D01*
X215592Y35185D01*
X219972D01*
Y36928D01*
D02*
G37*
G36*
X246238Y27059D02*
X244595D01*
Y25415D01*
X244953Y25487D01*
X245681Y25973D01*
X246167Y26701D01*
X246238Y27059D01*
D02*
G37*
G36*
X243595D02*
X241951D01*
X242022Y26701D01*
X242508Y25973D01*
X243236Y25487D01*
X243595Y25415D01*
Y27059D01*
D02*
G37*
G36*
X244595Y29703D02*
Y28059D01*
X246238D01*
X246167Y28418D01*
X245681Y29145D01*
X244953Y29631D01*
X244595Y29703D01*
D02*
G37*
G36*
X243595D02*
X243236Y29631D01*
X242508Y29145D01*
X242022Y28418D01*
X241951Y28059D01*
X243595D01*
Y29703D01*
D02*
G37*
G36*
X653043Y37577D02*
X652685Y37505D01*
X651957Y37019D01*
X651471Y36292D01*
X651400Y35933D01*
X653043D01*
Y37577D01*
D02*
G37*
G36*
X212098Y46744D02*
X210455D01*
X210526Y46386D01*
X211012Y45658D01*
X211740Y45172D01*
X212098Y45101D01*
Y46744D01*
D02*
G37*
G36*
X228847Y45451D02*
Y43807D01*
X230490D01*
X230419Y44166D01*
X229933Y44893D01*
X229205Y45379D01*
X228847Y45451D01*
D02*
G37*
G36*
X212098Y49388D02*
X211740Y49316D01*
X211012Y48830D01*
X210526Y48103D01*
X210455Y47744D01*
X212098D01*
Y49388D01*
D02*
G37*
G36*
X214742Y46744D02*
X213098D01*
Y45101D01*
X213457Y45172D01*
X214184Y45658D01*
X214671Y46386D01*
X214742Y46744D01*
D02*
G37*
G36*
X227847Y42807D02*
X226203D01*
X226274Y42449D01*
X226760Y41721D01*
X227488Y41235D01*
X227847Y41164D01*
Y42807D01*
D02*
G37*
G36*
X654043Y37577D02*
Y35933D01*
X655687D01*
X655616Y36292D01*
X655129Y37019D01*
X654402Y37505D01*
X654043Y37577D01*
D02*
G37*
G36*
X227847Y45451D02*
X227488Y45379D01*
X226760Y44893D01*
X226274Y44166D01*
X226203Y43807D01*
X227847D01*
Y45451D01*
D02*
G37*
G36*
X230490Y42807D02*
X228847D01*
Y41164D01*
X229205Y41235D01*
X229933Y41721D01*
X230419Y42449D01*
X230490Y42807D01*
D02*
G37*
G36*
X186100Y21460D02*
X183238D01*
Y18991D01*
X186100D01*
Y21460D01*
D02*
G37*
G36*
X234427Y3437D02*
X232784D01*
Y1793D01*
X233142Y1865D01*
X233870Y2351D01*
X234356Y3079D01*
X234427Y3437D01*
D02*
G37*
G36*
X231784D02*
X230140D01*
X230211Y3079D01*
X230697Y2351D01*
X231425Y1865D01*
X231784Y1793D01*
Y3437D01*
D02*
G37*
G36*
X154043Y6081D02*
Y4437D01*
X155687D01*
X155616Y4795D01*
X155129Y5523D01*
X154402Y6009D01*
X154043Y6081D01*
D02*
G37*
G36*
X153043D02*
X152685Y6009D01*
X151957Y5523D01*
X151471Y4795D01*
X151400Y4437D01*
X153043D01*
Y6081D01*
D02*
G37*
G36*
X155687Y3437D02*
X154043D01*
Y1793D01*
X154402Y1865D01*
X155129Y2351D01*
X155616Y3079D01*
X155687Y3437D01*
D02*
G37*
G36*
X153043D02*
X151400D01*
X151471Y3079D01*
X151957Y2351D01*
X152685Y1865D01*
X153043Y1793D01*
Y3437D01*
D02*
G37*
G36*
X175372D02*
X173728D01*
Y1793D01*
X174087Y1865D01*
X174814Y2351D01*
X175301Y3079D01*
X175372Y3437D01*
D02*
G37*
G36*
X172728D02*
X171085D01*
X171156Y3079D01*
X171642Y2351D01*
X172370Y1865D01*
X172728Y1793D01*
Y3437D01*
D02*
G37*
G36*
Y6081D02*
X172370Y6009D01*
X171642Y5523D01*
X171156Y4795D01*
X171085Y4437D01*
X172728D01*
Y6081D01*
D02*
G37*
G36*
X188476Y13955D02*
X188118Y13883D01*
X187390Y13397D01*
X186904Y12669D01*
X186833Y12311D01*
X188476D01*
Y13955D01*
D02*
G37*
G36*
X191120Y11311D02*
X189476D01*
Y9667D01*
X189835Y9739D01*
X190562Y10225D01*
X191049Y10953D01*
X191120Y11311D01*
D02*
G37*
G36*
X656980Y23043D02*
X655717Y22943D01*
X653997Y22530D01*
X652363Y21854D01*
X650855Y20929D01*
X649510Y19781D01*
X648362Y18436D01*
X647438Y16928D01*
X646761Y15294D01*
X646348Y13574D01*
X646249Y12311D01*
X656980D01*
Y23043D01*
D02*
G37*
G36*
X189476Y13955D02*
Y12311D01*
X191120D01*
X191049Y12669D01*
X190562Y13397D01*
X189835Y13883D01*
X189476Y13955D01*
D02*
G37*
G36*
X231784Y6081D02*
X231425Y6009D01*
X230697Y5523D01*
X230211Y4795D01*
X230140Y4437D01*
X231784D01*
Y6081D01*
D02*
G37*
G36*
X173728D02*
Y4437D01*
X175372D01*
X175301Y4795D01*
X174814Y5523D01*
X174087Y6009D01*
X173728Y6081D01*
D02*
G37*
G36*
X188476Y11311D02*
X186833D01*
X186904Y10953D01*
X187390Y10225D01*
X188118Y9739D01*
X188476Y9667D01*
Y11311D01*
D02*
G37*
G36*
X232784Y6081D02*
Y4437D01*
X234427D01*
X234356Y4795D01*
X233870Y5523D01*
X233142Y6009D01*
X232784Y6081D01*
D02*
G37*
G36*
X213098Y49388D02*
Y47744D01*
X214742D01*
X214671Y48103D01*
X214184Y48830D01*
X213457Y49316D01*
X213098Y49388D01*
D02*
G37*
G36*
X176665Y80884D02*
X176307Y80813D01*
X175579Y80326D01*
X175093Y79599D01*
X175022Y79240D01*
X176665D01*
Y80884D01*
D02*
G37*
G36*
X179309Y78240D02*
X177665D01*
Y76596D01*
X178024Y76668D01*
X178752Y77154D01*
X179238Y77882D01*
X179309Y78240D01*
D02*
G37*
G36*
X50016Y82177D02*
X47547D01*
Y79315D01*
X50016D01*
Y82177D01*
D02*
G37*
G36*
X177665Y80884D02*
Y79240D01*
X179309D01*
X179238Y79599D01*
X178752Y80326D01*
X178024Y80813D01*
X177665Y80884D01*
D02*
G37*
G36*
X664854Y76947D02*
X664496Y76876D01*
X663768Y76389D01*
X663282Y75661D01*
X663211Y75303D01*
X664854D01*
Y76947D01*
D02*
G37*
G36*
X603926Y79224D02*
X599909D01*
Y75208D01*
X600596Y75298D01*
X601701Y75756D01*
X602650Y76484D01*
X603378Y77433D01*
X603836Y78538D01*
X603926Y79224D01*
D02*
G37*
G36*
X176665Y78240D02*
X175022D01*
X175093Y77882D01*
X175579Y77154D01*
X176307Y76668D01*
X176665Y76596D01*
Y78240D01*
D02*
G37*
G36*
X665854Y76947D02*
Y75303D01*
X667498D01*
X667427Y75661D01*
X666940Y76389D01*
X666213Y76876D01*
X665854Y76947D01*
D02*
G37*
G36*
X598910Y84241D02*
X598223Y84151D01*
X597118Y83693D01*
X596169Y82965D01*
X595441Y82016D01*
X594983Y80910D01*
X594893Y80224D01*
X598910D01*
Y84241D01*
D02*
G37*
G36*
X214742Y82177D02*
X213098D01*
Y80533D01*
X213457Y80605D01*
X214184Y81091D01*
X214671Y81819D01*
X214742Y82177D01*
D02*
G37*
G36*
X212098D02*
X210455D01*
X210526Y81819D01*
X211012Y81091D01*
X211740Y80605D01*
X212098Y80533D01*
Y82177D01*
D02*
G37*
G36*
X4437Y84821D02*
Y83177D01*
X6081D01*
X6009Y83536D01*
X5523Y84263D01*
X4795Y84750D01*
X4437Y84821D01*
D02*
G37*
G36*
X3437D02*
X3079Y84750D01*
X2351Y84263D01*
X1865Y83536D01*
X1793Y83177D01*
X3437D01*
Y84821D01*
D02*
G37*
G36*
Y82177D02*
X1793D01*
X1865Y81819D01*
X2351Y81091D01*
X3079Y80605D01*
X3437Y80533D01*
Y82177D01*
D02*
G37*
G36*
X599909Y84241D02*
Y80224D01*
X603926D01*
X603836Y80910D01*
X603378Y82016D01*
X602650Y82965D01*
X601701Y83693D01*
X600596Y84151D01*
X599909Y84241D01*
D02*
G37*
G36*
X54618Y82177D02*
X52974D01*
X53046Y81819D01*
X53532Y81091D01*
X54260Y80605D01*
X54618Y80533D01*
Y82177D01*
D02*
G37*
G36*
X6081D02*
X4437D01*
Y80533D01*
X4795Y80605D01*
X5523Y81091D01*
X6009Y81819D01*
X6081Y82177D01*
D02*
G37*
G36*
X598910Y79224D02*
X594893D01*
X594983Y78538D01*
X595441Y77433D01*
X596169Y76484D01*
X597118Y75756D01*
X598223Y75298D01*
X598910Y75208D01*
Y79224D01*
D02*
G37*
G36*
X665854Y53325D02*
Y51681D01*
X667498D01*
X667427Y52039D01*
X666940Y52767D01*
X666213Y53253D01*
X665854Y53325D01*
D02*
G37*
G36*
X664854D02*
X664496Y53253D01*
X663768Y52767D01*
X663282Y52039D01*
X663211Y51681D01*
X664854D01*
Y53325D01*
D02*
G37*
G36*
X653345Y57148D02*
X650877D01*
Y54286D01*
X653345D01*
Y57148D01*
D02*
G37*
G36*
X188160Y55562D02*
X185691D01*
Y52700D01*
X188160D01*
Y55562D01*
D02*
G37*
G36*
Y51700D02*
X185691D01*
Y48838D01*
X188160D01*
Y51700D01*
D02*
G37*
G36*
X202756Y68583D02*
X201309Y68393D01*
X199960Y67834D01*
X198802Y66946D01*
X197914Y65788D01*
X197355Y64439D01*
X197165Y62992D01*
X197355Y61545D01*
X197914Y60197D01*
X198802Y59039D01*
X199730Y58327D01*
Y56562D01*
X192172D01*
Y56337D01*
X191628Y55562D01*
X191172Y55562D01*
X189160D01*
Y52200D01*
Y48838D01*
X191172D01*
X191628Y48838D01*
X192172Y48063D01*
Y47838D01*
X200109D01*
Y49174D01*
X200800D01*
X201583Y49277D01*
X202313Y49580D01*
X202940Y50060D01*
X204895Y52016D01*
X204895Y52016D01*
X205376Y52643D01*
X205679Y53373D01*
X205782Y54156D01*
Y58327D01*
X206709Y59039D01*
X207598Y60197D01*
X208156Y61545D01*
X208347Y62992D01*
X208156Y64439D01*
X207598Y65788D01*
X206709Y66946D01*
X205552Y67834D01*
X204203Y68393D01*
X202756Y68583D01*
D02*
G37*
G36*
X667498Y50681D02*
X665854D01*
Y49038D01*
X666213Y49109D01*
X666940Y49595D01*
X667427Y50323D01*
X667498Y50681D01*
D02*
G37*
G36*
X664854D02*
X663211D01*
X663282Y50323D01*
X663768Y49595D01*
X664496Y49109D01*
X664854Y49038D01*
Y50681D01*
D02*
G37*
G36*
X650877Y61011D02*
Y58148D01*
X653345D01*
Y61011D01*
X650877D01*
D02*
G37*
G36*
X651861Y72035D02*
Y69960D01*
X654724D01*
Y72035D01*
X651861D01*
D02*
G37*
G36*
X654724Y68960D02*
X651861D01*
Y66885D01*
X654724D01*
Y68960D01*
D02*
G37*
G36*
X667498Y74303D02*
X665854D01*
Y72659D01*
X666213Y72731D01*
X666940Y73217D01*
X667427Y73945D01*
X667498Y74303D01*
D02*
G37*
G36*
X664854D02*
X663211D01*
X663282Y73945D01*
X663768Y73217D01*
X664496Y72731D01*
X664854Y72659D01*
Y74303D01*
D02*
G37*
G36*
X187588Y62492D02*
X183571D01*
Y58476D01*
X184257Y58566D01*
X185362Y59024D01*
X186311Y59752D01*
X187039Y60701D01*
X187497Y61806D01*
X187588Y62492D01*
D02*
G37*
G36*
X182571D02*
X178554D01*
X178645Y61806D01*
X179102Y60701D01*
X179831Y59752D01*
X180780Y59024D01*
X181885Y58566D01*
X182571Y58476D01*
Y62492D01*
D02*
G37*
G36*
X183571Y67509D02*
Y63492D01*
X187588D01*
X187497Y64178D01*
X187039Y65283D01*
X186311Y66232D01*
X185362Y66961D01*
X184257Y67418D01*
X183571Y67509D01*
D02*
G37*
G36*
X182571D02*
X181885Y67418D01*
X180780Y66961D01*
X179831Y66232D01*
X179102Y65283D01*
X178645Y64178D01*
X178554Y63492D01*
X182571D01*
Y67509D01*
D02*
G37*
G36*
X290839Y104506D02*
X290480Y104435D01*
X289753Y103948D01*
X289266Y103221D01*
X289195Y102862D01*
X290839D01*
Y104506D01*
D02*
G37*
G36*
X193413Y124191D02*
Y122547D01*
X195057D01*
X194986Y122906D01*
X194500Y123633D01*
X193772Y124120D01*
X193413Y124191D01*
D02*
G37*
G36*
X192413D02*
X192055Y124120D01*
X191327Y123633D01*
X190841Y122906D01*
X190770Y122547D01*
X192413D01*
Y124191D01*
D02*
G37*
G36*
X362205Y131950D02*
X361041Y131835D01*
X359922Y131496D01*
X358890Y130945D01*
X357986Y130203D01*
X357244Y129299D01*
X356693Y128267D01*
X356354Y127148D01*
X356239Y125984D01*
X356354Y124820D01*
X356532Y124234D01*
X355873Y123575D01*
X348425D01*
Y127315D01*
X339701D01*
Y126514D01*
X338591D01*
X338528Y127148D01*
X338189Y128267D01*
X337637Y129299D01*
X336896Y130203D01*
X335992Y130945D01*
X334960Y131496D01*
X333841Y131835D01*
X332677Y131950D01*
X331513Y131835D01*
X330394Y131496D01*
X329363Y130945D01*
X328459Y130203D01*
X327717Y129299D01*
X327166Y128267D01*
X326826Y127148D01*
X326711Y125984D01*
X326826Y124820D01*
X327166Y123701D01*
X327717Y122670D01*
X328459Y121766D01*
X329363Y121024D01*
X330394Y120473D01*
X331513Y120133D01*
X332677Y120018D01*
X333841Y120133D01*
X334960Y120473D01*
X335885Y120967D01*
X339221D01*
X339701Y120166D01*
Y119835D01*
X339701D01*
Y115181D01*
X335354D01*
Y108819D01*
X342307D01*
Y109226D01*
X342700D01*
X343418Y109321D01*
X344087Y109598D01*
X344661Y110039D01*
X346024Y111402D01*
X346465Y111976D01*
X346742Y112645D01*
X346748Y112685D01*
X348425D01*
Y116426D01*
X357087D01*
Y117383D01*
X357608Y117598D01*
X358182Y118039D01*
X359340Y119197D01*
X360138Y118580D01*
X360138Y117762D01*
Y116240D01*
X363000D01*
Y118709D01*
X361129D01*
X360266Y118709D01*
X359649Y119506D01*
X360454Y120311D01*
X361041Y120133D01*
X362205Y120018D01*
X363369Y120133D01*
X364488Y120473D01*
X365519Y121024D01*
X366423Y121766D01*
X367165Y122670D01*
X367716Y123701D01*
X368056Y124820D01*
X368170Y125984D01*
X368056Y127148D01*
X367716Y128267D01*
X367165Y129299D01*
X366423Y130203D01*
X365519Y130945D01*
X364488Y131496D01*
X363369Y131835D01*
X362205Y131950D01*
D02*
G37*
G36*
X311024D02*
X309860Y131835D01*
X308741Y131496D01*
X307709Y130945D01*
X306805Y130203D01*
X306063Y129299D01*
X305512Y128267D01*
X305172Y127148D01*
X305058Y125984D01*
X305172Y124820D01*
X305247Y124575D01*
X304505Y123575D01*
X298425D01*
Y127315D01*
X294411D01*
X293781Y127946D01*
X293206Y128386D01*
X292537Y128664D01*
X291820Y128758D01*
X286745D01*
X286456Y129299D01*
X285715Y130203D01*
X284810Y130945D01*
X283779Y131496D01*
X282660Y131835D01*
X281496Y131950D01*
X280332Y131835D01*
X279213Y131496D01*
X278182Y130945D01*
X277278Y130203D01*
X276536Y129299D01*
X275984Y128267D01*
X275645Y127148D01*
X275530Y125984D01*
X275645Y124820D01*
X275984Y123701D01*
X276536Y122670D01*
X277278Y121766D01*
X278182Y121024D01*
X279213Y120473D01*
X280332Y120133D01*
X281496Y120018D01*
X282660Y120133D01*
X283779Y120473D01*
X284810Y121024D01*
X285715Y121766D01*
X286456Y122670D01*
X286745Y123211D01*
X289701D01*
Y120166D01*
X289701D01*
Y119835D01*
X289701D01*
Y115181D01*
X284854D01*
Y108819D01*
X291807D01*
Y109226D01*
X292600D01*
X293318Y109321D01*
X293987Y109598D01*
X294561Y110039D01*
X296024Y111502D01*
X296465Y112076D01*
X296718Y112685D01*
X298425D01*
Y116426D01*
X307087D01*
Y117227D01*
X307200D01*
X307918Y117321D01*
X308587Y117598D01*
X309162Y118039D01*
X311154Y120031D01*
X312188Y120133D01*
X313307Y120473D01*
X314338Y121024D01*
X315242Y121766D01*
X315984Y122670D01*
X316535Y123701D01*
X316875Y124820D01*
X316989Y125984D01*
X316875Y127148D01*
X316535Y128267D01*
X315984Y129299D01*
X315242Y130203D01*
X314338Y130945D01*
X313307Y131496D01*
X312188Y131835D01*
X311024Y131950D01*
D02*
G37*
G36*
X60252Y125484D02*
X56209D01*
Y120063D01*
X60252D01*
Y125484D01*
D02*
G37*
G36*
X192413Y121547D02*
X190770D01*
X190841Y121189D01*
X191327Y120461D01*
X192055Y119975D01*
X192413Y119904D01*
Y121547D01*
D02*
G37*
G36*
X122547Y120254D02*
Y118610D01*
X124191D01*
X124120Y118969D01*
X123633Y119696D01*
X122906Y120183D01*
X122547Y120254D01*
D02*
G37*
G36*
X55209Y125484D02*
X51165D01*
Y120063D01*
X55209D01*
Y125484D01*
D02*
G37*
G36*
X195057Y121547D02*
X193413D01*
Y119904D01*
X193772Y119975D01*
X194500Y120461D01*
X194986Y121189D01*
X195057Y121547D01*
D02*
G37*
G36*
X222616Y125484D02*
X220972D01*
Y123841D01*
X221331Y123912D01*
X222059Y124398D01*
X222545Y125126D01*
X222616Y125484D01*
D02*
G37*
G36*
X219972D02*
X218329D01*
X218400Y125126D01*
X218886Y124398D01*
X219614Y123912D01*
X219972Y123841D01*
Y125484D01*
D02*
G37*
G36*
X242301D02*
X240657D01*
Y123841D01*
X241016Y123912D01*
X241744Y124398D01*
X242230Y125126D01*
X242301Y125484D01*
D02*
G37*
G36*
X239657D02*
X238014D01*
X238085Y125126D01*
X238571Y124398D01*
X239299Y123912D01*
X239657Y123841D01*
Y125484D01*
D02*
G37*
G36*
X171435D02*
X169791D01*
Y123841D01*
X170150Y123912D01*
X170877Y124398D01*
X171364Y125126D01*
X171435Y125484D01*
D02*
G37*
G36*
X464567Y131950D02*
X463403Y131835D01*
X462284Y131496D01*
X461252Y130945D01*
X460349Y130203D01*
X459607Y129299D01*
X459055Y128267D01*
X458716Y127148D01*
X458601Y125984D01*
X458716Y124820D01*
X458894Y124234D01*
X458704Y124044D01*
X457906Y123575D01*
Y123575D01*
X457906Y123575D01*
X449244D01*
Y127315D01*
X445230D01*
X444600Y127946D01*
X444025Y128386D01*
X443356Y128664D01*
X442638Y128758D01*
X440289D01*
X440000Y129299D01*
X439258Y130203D01*
X438354Y130945D01*
X437322Y131496D01*
X436203Y131835D01*
X435039Y131950D01*
X433876Y131835D01*
X432756Y131496D01*
X431725Y130945D01*
X430821Y130203D01*
X430079Y129299D01*
X429528Y128267D01*
X429188Y127148D01*
X429074Y125984D01*
X429188Y124820D01*
X429528Y123701D01*
X430079Y122670D01*
X430821Y121766D01*
X431725Y121024D01*
X432756Y120473D01*
X433876Y120133D01*
X435039Y120018D01*
X436203Y120133D01*
X437322Y120473D01*
X438354Y121024D01*
X439258Y121766D01*
X439520Y122085D01*
X440520Y121727D01*
Y120166D01*
X440520D01*
Y119835D01*
X440520D01*
Y115181D01*
X433925D01*
Y108819D01*
X440878D01*
Y109226D01*
X442600D01*
X443318Y109321D01*
X443987Y109598D01*
X444561Y110039D01*
X446843Y112321D01*
X447123Y112685D01*
X449244D01*
Y116426D01*
X457906D01*
Y117227D01*
X458583D01*
X459301Y117321D01*
X459970Y117598D01*
X460544Y118039D01*
X461138Y118632D01*
X462138Y118218D01*
X462138Y117912D01*
Y116240D01*
X465000D01*
Y118709D01*
X462954D01*
X462635Y118709D01*
X462281Y119565D01*
X462962Y120267D01*
X463403Y120133D01*
X464567Y120018D01*
X465731Y120133D01*
X466850Y120473D01*
X467881Y121024D01*
X468785Y121766D01*
X469527Y122670D01*
X470079Y123701D01*
X470418Y124820D01*
X470533Y125984D01*
X470418Y127148D01*
X470079Y128267D01*
X469527Y129299D01*
X468785Y130203D01*
X467881Y130945D01*
X466850Y131496D01*
X465731Y131835D01*
X464567Y131950D01*
D02*
G37*
G36*
X413386D02*
X412222Y131835D01*
X411103Y131496D01*
X410071Y130945D01*
X409167Y130203D01*
X408426Y129299D01*
X407874Y128267D01*
X407535Y127148D01*
X407420Y125984D01*
X407535Y124820D01*
X407713Y124234D01*
X407523Y124044D01*
X406725Y123575D01*
Y123575D01*
X406725Y123575D01*
X398063D01*
Y127315D01*
X394049D01*
X393419Y127946D01*
X392844Y128386D01*
X392175Y128664D01*
X391457Y128758D01*
X389108D01*
X388819Y129299D01*
X388077Y130203D01*
X387173Y130945D01*
X386141Y131496D01*
X385022Y131835D01*
X383858Y131950D01*
X382694Y131835D01*
X381575Y131496D01*
X380544Y130945D01*
X379640Y130203D01*
X378898Y129299D01*
X378347Y128267D01*
X378007Y127148D01*
X377892Y125984D01*
X378007Y124820D01*
X378347Y123701D01*
X378898Y122670D01*
X379640Y121766D01*
X380544Y121024D01*
X381575Y120473D01*
X382694Y120133D01*
X383858Y120018D01*
X385022Y120133D01*
X386141Y120473D01*
X387173Y121024D01*
X388077Y121766D01*
X388339Y122085D01*
X389339Y121727D01*
Y120166D01*
X389339D01*
Y119835D01*
X389339D01*
Y115821D01*
X388699Y115181D01*
X382744D01*
Y108819D01*
X389697D01*
Y109260D01*
X390159Y109321D01*
X390828Y109598D01*
X391402Y110039D01*
X394049Y112685D01*
X398063D01*
Y116426D01*
X406725D01*
Y117227D01*
X407402D01*
X408120Y117321D01*
X408789Y117598D01*
X409363Y118039D01*
X410212Y118888D01*
X410226Y118880D01*
X410226Y118880D01*
X411138Y118399D01*
X411138Y117837D01*
Y116240D01*
X414000D01*
Y118709D01*
X412082D01*
X411447Y118709D01*
X410959Y119634D01*
X411635Y120311D01*
X412222Y120133D01*
X413386Y120018D01*
X414550Y120133D01*
X415669Y120473D01*
X416700Y121024D01*
X417604Y121766D01*
X418346Y122670D01*
X418897Y123701D01*
X419237Y124820D01*
X419352Y125984D01*
X419237Y127148D01*
X418897Y128267D01*
X418346Y129299D01*
X417604Y130203D01*
X416700Y130945D01*
X415669Y131496D01*
X414550Y131835D01*
X413386Y131950D01*
D02*
G37*
G36*
X168791Y125484D02*
X167148D01*
X167219Y125126D01*
X167705Y124398D01*
X168433Y123912D01*
X168791Y123841D01*
Y125484D01*
D02*
G37*
G36*
X515748Y131950D02*
X514584Y131835D01*
X513465Y131496D01*
X512434Y130945D01*
X511530Y130203D01*
X510788Y129299D01*
X510236Y128267D01*
X509897Y127148D01*
X509782Y125984D01*
X509897Y124820D01*
X510075Y124234D01*
X509885Y124044D01*
X509087Y123575D01*
Y123575D01*
X509087Y123575D01*
X500425D01*
Y127315D01*
X496411D01*
X495781Y127946D01*
X495206Y128386D01*
X494537Y128664D01*
X493819Y128758D01*
X491470D01*
X491181Y129299D01*
X490439Y130203D01*
X489535Y130945D01*
X488504Y131496D01*
X487384Y131835D01*
X486221Y131950D01*
X485057Y131835D01*
X483938Y131496D01*
X482906Y130945D01*
X482002Y130203D01*
X481260Y129299D01*
X480709Y128267D01*
X480369Y127148D01*
X480255Y125984D01*
X480369Y124820D01*
X480709Y123701D01*
X481260Y122670D01*
X482002Y121766D01*
X482906Y121024D01*
X483938Y120473D01*
X485057Y120133D01*
X486221Y120018D01*
X487384Y120133D01*
X488504Y120473D01*
X489535Y121024D01*
X490439Y121766D01*
X490701Y122085D01*
X491701Y121727D01*
Y120166D01*
X491701D01*
Y119835D01*
X491701D01*
Y115821D01*
X491061Y115181D01*
X485106D01*
Y108819D01*
X492059D01*
Y109260D01*
X492521Y109321D01*
X493190Y109598D01*
X493764Y110039D01*
X496411Y112685D01*
X500425D01*
Y116426D01*
X509087D01*
Y117227D01*
X509764D01*
X510482Y117321D01*
X511151Y117598D01*
X511725Y118039D01*
X512809Y119123D01*
X513638Y118537D01*
X513638Y117780D01*
Y116240D01*
X516500D01*
Y118709D01*
X514622D01*
X513809Y118709D01*
X513224Y119537D01*
X513998Y120311D01*
X514584Y120133D01*
X515748Y120018D01*
X516912Y120133D01*
X518031Y120473D01*
X519062Y121024D01*
X519966Y121766D01*
X520708Y122670D01*
X521260Y123701D01*
X521599Y124820D01*
X521714Y125984D01*
X521599Y127148D01*
X521260Y128267D01*
X520708Y129299D01*
X519966Y130203D01*
X519062Y130945D01*
X518031Y131496D01*
X516912Y131835D01*
X515748Y131950D01*
D02*
G37*
G36*
X364000Y118709D02*
Y116240D01*
X366862D01*
Y118709D01*
X364000D01*
D02*
G37*
G36*
X323000D02*
X320138D01*
Y116240D01*
X323000D01*
Y118709D01*
D02*
G37*
G36*
X415000D02*
Y116240D01*
X417862D01*
Y118709D01*
X415000D01*
D02*
G37*
G36*
X371000D02*
X368138D01*
Y116240D01*
X371000D01*
Y118709D01*
D02*
G37*
G36*
X318862D02*
X316000D01*
Y116240D01*
X318862D01*
Y118709D01*
D02*
G37*
G36*
X268362D02*
X265500D01*
Y116240D01*
X268362D01*
Y118709D01*
D02*
G37*
G36*
X264500D02*
X261638D01*
Y116240D01*
X264500D01*
Y118709D01*
D02*
G37*
G36*
X315000D02*
X312138D01*
Y116240D01*
X315000D01*
Y118709D01*
D02*
G37*
G36*
X272500D02*
X269638D01*
Y116240D01*
X272500D01*
Y118709D01*
D02*
G37*
G36*
X3437Y120254D02*
X3079Y120183D01*
X2351Y119696D01*
X1865Y118969D01*
X1793Y118610D01*
X3437D01*
Y120254D01*
D02*
G37*
G36*
X656134Y123260D02*
X643079D01*
Y117703D01*
X637236D01*
Y121488D01*
X622606D01*
Y106858D01*
X637236D01*
Y110643D01*
X643079D01*
Y108236D01*
X656134D01*
Y123260D01*
D02*
G37*
G36*
X121547Y120254D02*
X121189Y120183D01*
X120461Y119696D01*
X119975Y118969D01*
X119904Y118610D01*
X121547D01*
Y120254D01*
D02*
G37*
G36*
X4437D02*
Y118610D01*
X6081D01*
X6009Y118969D01*
X5523Y119696D01*
X4795Y120183D01*
X4437Y120254D01*
D02*
G37*
G36*
X524500Y118709D02*
X521638D01*
Y116240D01*
X524500D01*
Y118709D01*
D02*
G37*
G36*
X466000D02*
Y116240D01*
X468862D01*
Y118709D01*
X466000D01*
D02*
G37*
G36*
X422000D02*
X419138D01*
Y116240D01*
X422000D01*
Y118709D01*
D02*
G37*
G36*
X517500D02*
Y116240D01*
X520362D01*
Y118709D01*
X517500D01*
D02*
G37*
G36*
X473000D02*
X470138D01*
Y116240D01*
X473000D01*
Y118709D01*
D02*
G37*
G36*
X105799Y133358D02*
X104156D01*
X104227Y133000D01*
X104713Y132272D01*
X105441Y131786D01*
X105799Y131715D01*
Y133358D01*
D02*
G37*
G36*
X29703D02*
X28059D01*
Y131715D01*
X28418Y131786D01*
X29145Y132272D01*
X29631Y133000D01*
X29703Y133358D01*
D02*
G37*
G36*
X141232D02*
X139589D01*
X139660Y133000D01*
X140146Y132272D01*
X140874Y131786D01*
X141232Y131715D01*
Y133358D01*
D02*
G37*
G36*
X108443D02*
X106799D01*
Y131715D01*
X107158Y131786D01*
X107885Y132272D01*
X108372Y133000D01*
X108443Y133358D01*
D02*
G37*
G36*
X27059D02*
X25415D01*
X25487Y133000D01*
X25973Y132272D01*
X26701Y131786D01*
X27059Y131715D01*
Y133358D01*
D02*
G37*
G36*
X646169Y132065D02*
Y130421D01*
X647813D01*
X647742Y130780D01*
X647255Y131507D01*
X646528Y131994D01*
X646169Y132065D01*
D02*
G37*
G36*
X645169D02*
X644811Y131994D01*
X644083Y131507D01*
X643597Y130780D01*
X643526Y130421D01*
X645169D01*
Y132065D01*
D02*
G37*
G36*
X6081Y133358D02*
X4437D01*
Y131715D01*
X4795Y131786D01*
X5523Y132272D01*
X6009Y133000D01*
X6081Y133358D01*
D02*
G37*
G36*
X3437D02*
X1793D01*
X1865Y133000D01*
X2351Y132272D01*
X3079Y131786D01*
X3437Y131715D01*
Y133358D01*
D02*
G37*
G36*
X106799Y136002D02*
Y134358D01*
X108443D01*
X108372Y134717D01*
X107885Y135444D01*
X107158Y135931D01*
X106799Y136002D01*
D02*
G37*
G36*
X105799D02*
X105441Y135931D01*
X104713Y135444D01*
X104227Y134717D01*
X104156Y134358D01*
X105799D01*
Y136002D01*
D02*
G37*
G36*
X142232D02*
Y134358D01*
X143876D01*
X143805Y134717D01*
X143318Y135444D01*
X142591Y135931D01*
X142232Y136002D01*
D02*
G37*
G36*
X141232D02*
X140874Y135931D01*
X140146Y135444D01*
X139660Y134717D01*
X139589Y134358D01*
X141232D01*
Y136002D01*
D02*
G37*
G36*
X28059D02*
Y134358D01*
X29703D01*
X29631Y134717D01*
X29145Y135444D01*
X28418Y135931D01*
X28059Y136002D01*
D02*
G37*
G36*
X3437D02*
X3079Y135931D01*
X2351Y135444D01*
X1865Y134717D01*
X1793Y134358D01*
X3437D01*
Y136002D01*
D02*
G37*
G36*
X143876Y133358D02*
X142232D01*
Y131715D01*
X142591Y131786D01*
X143318Y132272D01*
X143805Y133000D01*
X143876Y133358D01*
D02*
G37*
G36*
X27059Y136002D02*
X26701Y135931D01*
X25973Y135444D01*
X25487Y134717D01*
X25415Y134358D01*
X27059D01*
Y136002D01*
D02*
G37*
G36*
X4437D02*
Y134358D01*
X6081D01*
X6009Y134717D01*
X5523Y135444D01*
X4795Y135931D01*
X4437Y136002D01*
D02*
G37*
G36*
X219972Y128128D02*
X219614Y128057D01*
X218886Y127570D01*
X218400Y126843D01*
X218329Y126484D01*
X219972D01*
Y128128D01*
D02*
G37*
G36*
X169791D02*
Y126484D01*
X171435D01*
X171364Y126843D01*
X170877Y127570D01*
X170150Y128057D01*
X169791Y128128D01*
D02*
G37*
G36*
X239657D02*
X239299Y128057D01*
X238571Y127570D01*
X238085Y126843D01*
X238014Y126484D01*
X239657D01*
Y128128D01*
D02*
G37*
G36*
X220972D02*
Y126484D01*
X222616D01*
X222545Y126843D01*
X222059Y127570D01*
X221331Y128057D01*
X220972Y128128D01*
D02*
G37*
G36*
X168791D02*
X168433Y128057D01*
X167705Y127570D01*
X167219Y126843D01*
X167148Y126484D01*
X168791D01*
Y128128D01*
D02*
G37*
G36*
X258049Y125484D02*
X256405D01*
Y123841D01*
X256764Y123912D01*
X257492Y124398D01*
X257978Y125126D01*
X258049Y125484D01*
D02*
G37*
G36*
X255405D02*
X253762D01*
X253833Y125126D01*
X254319Y124398D01*
X255047Y123912D01*
X255405Y123841D01*
Y125484D01*
D02*
G37*
G36*
X60252Y131905D02*
X56209D01*
Y126484D01*
X60252D01*
Y131905D01*
D02*
G37*
G36*
X55209D02*
X51165D01*
Y126484D01*
X55209D01*
Y131905D01*
D02*
G37*
G36*
X647813Y129421D02*
X646169D01*
Y127778D01*
X646528Y127849D01*
X647255Y128335D01*
X647742Y129063D01*
X647813Y129421D01*
D02*
G37*
G36*
X645169D02*
X643526D01*
X643597Y129063D01*
X644083Y128335D01*
X644811Y127849D01*
X645169Y127778D01*
Y129421D01*
D02*
G37*
G36*
X622547Y132065D02*
Y130421D01*
X624191D01*
X624120Y130780D01*
X623633Y131507D01*
X622906Y131994D01*
X622547Y132065D01*
D02*
G37*
G36*
X621547D02*
X621189Y131994D01*
X620461Y131507D01*
X619975Y130780D01*
X619904Y130421D01*
X621547D01*
Y132065D01*
D02*
G37*
G36*
X624191Y129421D02*
X622547D01*
Y127778D01*
X622906Y127849D01*
X623633Y128335D01*
X624120Y129063D01*
X624191Y129421D01*
D02*
G37*
G36*
X255405Y128128D02*
X255047Y128057D01*
X254319Y127570D01*
X253833Y126843D01*
X253762Y126484D01*
X255405D01*
Y128128D01*
D02*
G37*
G36*
X240657D02*
Y126484D01*
X242301D01*
X242230Y126843D01*
X241744Y127570D01*
X241016Y128057D01*
X240657Y128128D01*
D02*
G37*
G36*
X621547Y129421D02*
X619904D01*
X619975Y129063D01*
X620461Y128335D01*
X621189Y127849D01*
X621547Y127778D01*
Y129421D01*
D02*
G37*
G36*
X256405Y128128D02*
Y126484D01*
X258049D01*
X257978Y126843D01*
X257492Y127570D01*
X256764Y128057D01*
X256405Y128128D01*
D02*
G37*
G36*
X452256Y108443D02*
X451897Y108372D01*
X451170Y107885D01*
X450684Y107158D01*
X450612Y106799D01*
X452256D01*
Y108443D01*
D02*
G37*
G36*
X350894D02*
Y106799D01*
X352537D01*
X352466Y107158D01*
X351980Y107885D01*
X351252Y108372D01*
X350894Y108443D01*
D02*
G37*
G36*
X503437D02*
X503079Y108372D01*
X502351Y107885D01*
X501865Y107158D01*
X501793Y106799D01*
X503437D01*
Y108443D01*
D02*
G37*
G36*
X453256D02*
Y106799D01*
X454900D01*
X454828Y107158D01*
X454342Y107885D01*
X453614Y108372D01*
X453256Y108443D01*
D02*
G37*
G36*
X349894D02*
X349535Y108372D01*
X348808Y107885D01*
X348321Y107158D01*
X348250Y106799D01*
X349894D01*
Y108443D01*
D02*
G37*
G36*
X67429D02*
Y106799D01*
X69073D01*
X69002Y107158D01*
X68515Y107885D01*
X67787Y108372D01*
X67429Y108443D01*
D02*
G37*
G36*
X66429D02*
X66071Y108372D01*
X65343Y107885D01*
X64857Y107158D01*
X64785Y106799D01*
X66429D01*
Y108443D01*
D02*
G37*
G36*
X91051D02*
Y106799D01*
X92695D01*
X92624Y107158D01*
X92137Y107885D01*
X91410Y108372D01*
X91051Y108443D01*
D02*
G37*
G36*
X90051D02*
X89693Y108372D01*
X88965Y107885D01*
X88479Y107158D01*
X88407Y106799D01*
X90051D01*
Y108443D01*
D02*
G37*
G36*
X403718Y109736D02*
X402075D01*
Y108093D01*
X402433Y108164D01*
X403161Y108650D01*
X403647Y109378D01*
X403718Y109736D01*
D02*
G37*
G36*
X401075D02*
X399431D01*
X399502Y109378D01*
X399989Y108650D01*
X400716Y108164D01*
X401075Y108093D01*
Y109736D01*
D02*
G37*
G36*
X573010D02*
X571366D01*
Y108093D01*
X571725Y108164D01*
X572452Y108650D01*
X572938Y109378D01*
X573010Y109736D01*
D02*
G37*
G36*
X570366D02*
X568722D01*
X568794Y109378D01*
X569280Y108650D01*
X570008Y108164D01*
X570366Y108093D01*
Y109736D01*
D02*
G37*
G36*
X305293D02*
X303650D01*
Y108093D01*
X304008Y108164D01*
X304736Y108650D01*
X305222Y109378D01*
X305293Y109736D01*
D02*
G37*
G36*
X251468D02*
X249825D01*
X249896Y109378D01*
X250382Y108650D01*
X251110Y108164D01*
X251468Y108093D01*
Y109736D01*
D02*
G37*
G36*
X504437Y108443D02*
Y106799D01*
X506081D01*
X506009Y107158D01*
X505523Y107885D01*
X504795Y108372D01*
X504437Y108443D01*
D02*
G37*
G36*
X302650Y109736D02*
X301006D01*
X301077Y109378D01*
X301564Y108650D01*
X302291Y108164D01*
X302650Y108093D01*
Y109736D01*
D02*
G37*
G36*
X254112D02*
X252468D01*
Y108093D01*
X252827Y108164D01*
X253555Y108650D01*
X254041Y109378D01*
X254112Y109736D01*
D02*
G37*
G36*
X66429Y105799D02*
X64785D01*
X64857Y105441D01*
X65343Y104713D01*
X66071Y104227D01*
X66429Y104156D01*
Y105799D01*
D02*
G37*
G36*
X161917Y106913D02*
Y103492D01*
X165338D01*
X165268Y104024D01*
X164870Y104986D01*
X164236Y105811D01*
X163411Y106445D01*
X162449Y106843D01*
X161917Y106913D01*
D02*
G37*
G36*
X90051Y105799D02*
X88407D01*
X88479Y105441D01*
X88965Y104713D01*
X89693Y104227D01*
X90051Y104156D01*
Y105799D01*
D02*
G37*
G36*
X69073D02*
X67429D01*
Y104156D01*
X67787Y104227D01*
X68515Y104713D01*
X69002Y105441D01*
X69073Y105799D01*
D02*
G37*
G36*
X160917Y106913D02*
X160385Y106843D01*
X159424Y106445D01*
X158598Y105811D01*
X157965Y104986D01*
X157566Y104024D01*
X157496Y103492D01*
X160917D01*
Y106913D01*
D02*
G37*
G36*
X50016Y105799D02*
X47547D01*
Y102937D01*
X50016D01*
Y105799D01*
D02*
G37*
G36*
X291839Y104506D02*
Y102862D01*
X293482D01*
X293411Y103221D01*
X292925Y103948D01*
X292197Y104435D01*
X291839Y104506D01*
D02*
G37*
G36*
X103515Y116047D02*
X102222Y115877D01*
X101018Y115378D01*
X99983Y114584D01*
X99189Y113549D01*
X98690Y112345D01*
X98520Y111052D01*
X98690Y109759D01*
X99189Y108554D01*
X99983Y107519D01*
X102767Y104735D01*
X103802Y103942D01*
X105006Y103443D01*
X105799Y103338D01*
Y108268D01*
X106299D01*
Y108768D01*
X111229D01*
X111125Y109561D01*
X110625Y110766D01*
X109832Y111800D01*
X107048Y114584D01*
X106013Y115378D01*
X104808Y115877D01*
X103515Y116047D01*
D02*
G37*
G36*
X111229Y107768D02*
X106799D01*
Y103338D01*
X107592Y103442D01*
X108797Y103942D01*
X109832Y104735D01*
X110625Y105770D01*
X111125Y106975D01*
X111229Y107768D01*
D02*
G37*
G36*
X506081Y105799D02*
X504437D01*
Y104156D01*
X504795Y104227D01*
X505523Y104713D01*
X506009Y105441D01*
X506081Y105799D01*
D02*
G37*
G36*
X503437D02*
X501793D01*
X501865Y105441D01*
X502351Y104713D01*
X503079Y104227D01*
X503437Y104156D01*
Y105799D01*
D02*
G37*
G36*
X47547Y109661D02*
Y106799D01*
X50016D01*
Y109661D01*
X47547D01*
D02*
G37*
G36*
X155728Y119362D02*
X147791D01*
Y110638D01*
X148734D01*
Y107176D01*
X147885Y106525D01*
X147883Y106522D01*
X136659D01*
X132418Y110764D01*
X131686Y111325D01*
X130835Y111678D01*
X130301Y111748D01*
X129938Y112221D01*
X128780Y113110D01*
X127431Y113668D01*
X125984Y113859D01*
X124537Y113668D01*
X123189Y113110D01*
X122031Y112221D01*
X121142Y111063D01*
X120584Y109715D01*
X120393Y108268D01*
X120584Y106821D01*
X121142Y105472D01*
X122031Y104314D01*
X123189Y103426D01*
X124537Y102867D01*
X125984Y102677D01*
X127431Y102867D01*
X128780Y103426D01*
X129341Y103856D01*
X132701Y100496D01*
X133432Y99935D01*
X134283Y99582D01*
X135197Y99462D01*
X147883D01*
X147885Y99460D01*
X148920Y98666D01*
X150124Y98167D01*
X151417Y97997D01*
X152710Y98167D01*
X153915Y98666D01*
X154950Y99460D01*
X155744Y100494D01*
X156243Y101699D01*
X156413Y102992D01*
X156243Y104285D01*
X155744Y105490D01*
X154950Y106525D01*
X154786Y106650D01*
Y110638D01*
X155728D01*
Y110863D01*
X156272Y111638D01*
X156728Y111638D01*
X158740D01*
Y115000D01*
Y118362D01*
X156728D01*
X156272Y118362D01*
X155728Y119137D01*
Y119362D01*
D02*
G37*
G36*
X454900Y105799D02*
X453256D01*
Y104156D01*
X453614Y104227D01*
X454342Y104713D01*
X454828Y105441D01*
X454900Y105799D01*
D02*
G37*
G36*
X349894D02*
X348250D01*
X348321Y105441D01*
X348808Y104713D01*
X349535Y104227D01*
X349894Y104156D01*
Y105799D01*
D02*
G37*
G36*
X92695D02*
X91051D01*
Y104156D01*
X91410Y104227D01*
X92137Y104713D01*
X92624Y105441D01*
X92695Y105799D01*
D02*
G37*
G36*
X452256D02*
X450612D01*
X450684Y105441D01*
X451170Y104713D01*
X451897Y104227D01*
X452256Y104156D01*
Y105799D01*
D02*
G37*
G36*
X352537D02*
X350894D01*
Y104156D01*
X351252Y104227D01*
X351980Y104713D01*
X352466Y105441D01*
X352537Y105799D01*
D02*
G37*
G36*
X609657Y125484D02*
X598925D01*
Y114753D01*
X600188Y114852D01*
X601908Y115265D01*
X603542Y115942D01*
X605050Y116866D01*
X606395Y118015D01*
X607544Y119359D01*
X608468Y120867D01*
X609144Y122501D01*
X609557Y124221D01*
X609657Y125484D01*
D02*
G37*
G36*
X597925D02*
X587194D01*
X587293Y124221D01*
X587706Y122501D01*
X588383Y120867D01*
X589307Y119359D01*
X590455Y118015D01*
X591800Y116866D01*
X593308Y115942D01*
X594942Y115265D01*
X596662Y114852D01*
X597925Y114753D01*
Y125484D01*
D02*
G37*
G36*
X3437Y117610D02*
X1793D01*
X1865Y117252D01*
X2351Y116524D01*
X3079Y116038D01*
X3437Y115967D01*
Y117610D01*
D02*
G37*
G36*
X159740Y118362D02*
Y115500D01*
X162209D01*
Y118362D01*
X159740D01*
D02*
G37*
G36*
X89972Y125484D02*
X79240D01*
Y114753D01*
X80503Y114852D01*
X82223Y115265D01*
X83857Y115942D01*
X85365Y116866D01*
X86710Y118015D01*
X87859Y119359D01*
X88783Y120867D01*
X89460Y122501D01*
X89872Y124221D01*
X89972Y125484D01*
D02*
G37*
G36*
X664854Y116317D02*
X664496Y116246D01*
X663768Y115759D01*
X663282Y115032D01*
X663211Y114673D01*
X664854D01*
Y116317D01*
D02*
G37*
G36*
X47547Y117535D02*
Y114673D01*
X50016D01*
Y117535D01*
X47547D01*
D02*
G37*
G36*
X78240Y125484D02*
X67509D01*
X67608Y124221D01*
X68021Y122501D01*
X68698Y120867D01*
X69622Y119359D01*
X70770Y118015D01*
X72115Y116866D01*
X73623Y115942D01*
X75257Y115265D01*
X76977Y114852D01*
X78240Y114753D01*
Y125484D01*
D02*
G37*
G36*
X665854Y116317D02*
Y114673D01*
X667498D01*
X667427Y115032D01*
X666940Y115759D01*
X666213Y116246D01*
X665854Y116317D01*
D02*
G37*
G36*
X429240Y117921D02*
Y116240D01*
X431216D01*
Y117921D01*
X429240D01*
D02*
G37*
G36*
X378059D02*
Y116240D01*
X380035D01*
Y117921D01*
X378059D01*
D02*
G37*
G36*
X531602D02*
Y116240D01*
X533579D01*
Y117921D01*
X531602D01*
D02*
G37*
G36*
X480421D02*
Y116240D01*
X482398D01*
Y117921D01*
X480421D01*
D02*
G37*
G36*
X330669D02*
Y116240D01*
X332646D01*
Y117921D01*
X330669D01*
D02*
G37*
G36*
X121547Y117610D02*
X119904D01*
X119975Y117252D01*
X120461Y116524D01*
X121189Y116038D01*
X121547Y115967D01*
Y117610D01*
D02*
G37*
G36*
X6081D02*
X4437D01*
Y115967D01*
X4795Y116038D01*
X5523Y116524D01*
X6009Y117252D01*
X6081Y117610D01*
D02*
G37*
G36*
X280169Y117921D02*
Y116240D01*
X282146D01*
Y117921D01*
X280169D01*
D02*
G37*
G36*
X124191Y117610D02*
X122547D01*
Y115967D01*
X122906Y116038D01*
X123633Y116524D01*
X124120Y117252D01*
X124191Y117610D01*
D02*
G37*
G36*
X570366Y112380D02*
X570008Y112309D01*
X569280Y111822D01*
X568794Y111095D01*
X568722Y110736D01*
X570366D01*
Y112380D01*
D02*
G37*
G36*
X402075D02*
Y110736D01*
X403718D01*
X403647Y111095D01*
X403161Y111822D01*
X402433Y112309D01*
X402075Y112380D01*
D02*
G37*
G36*
X50016Y113673D02*
X47547D01*
Y110811D01*
X50016D01*
Y113673D01*
D02*
G37*
G36*
X571366Y112380D02*
Y110736D01*
X573010D01*
X572938Y111095D01*
X572452Y111822D01*
X571725Y112309D01*
X571366Y112380D01*
D02*
G37*
G36*
X401075D02*
X400716Y112309D01*
X399989Y111822D01*
X399502Y111095D01*
X399431Y110736D01*
X401075D01*
Y112380D01*
D02*
G37*
G36*
X252468D02*
Y110736D01*
X254112D01*
X254041Y111095D01*
X253555Y111822D01*
X252827Y112309D01*
X252468Y112380D01*
D02*
G37*
G36*
X251468D02*
X251110Y112309D01*
X250382Y111822D01*
X249896Y111095D01*
X249825Y110736D01*
X251468D01*
Y112380D01*
D02*
G37*
G36*
X303650D02*
Y110736D01*
X305293D01*
X305222Y111095D01*
X304736Y111822D01*
X304008Y112309D01*
X303650Y112380D01*
D02*
G37*
G36*
X302650D02*
X302291Y112309D01*
X301564Y111822D01*
X301077Y111095D01*
X301006Y110736D01*
X302650D01*
Y112380D01*
D02*
G37*
G36*
X282146Y115240D02*
X280169D01*
Y113559D01*
X282146D01*
Y115240D01*
D02*
G37*
G36*
X380035D02*
X378059D01*
Y113559D01*
X380035D01*
Y115240D01*
D02*
G37*
G36*
X482398D02*
X480421D01*
Y113559D01*
X482398D01*
Y115240D01*
D02*
G37*
G36*
X332646D02*
X330669D01*
Y113559D01*
X332646D01*
Y115240D01*
D02*
G37*
G36*
X533579D02*
X531602D01*
Y113559D01*
X533579D01*
Y115240D01*
D02*
G37*
G36*
X664854Y113673D02*
X663211D01*
X663282Y113315D01*
X663768Y112587D01*
X664496Y112101D01*
X664854Y112030D01*
Y113673D01*
D02*
G37*
G36*
X162209Y114500D02*
X159740D01*
Y111638D01*
X162209D01*
Y114500D01*
D02*
G37*
G36*
X431216Y115240D02*
X429240D01*
Y113559D01*
X431216D01*
Y115240D01*
D02*
G37*
G36*
X667498Y113673D02*
X665854D01*
Y112030D01*
X666213Y112101D01*
X666940Y112587D01*
X667427Y113315D01*
X667498Y113673D01*
D02*
G37*
%LPD*%
D16*
X39567Y106299D02*
D03*
X47047D02*
D03*
X188660Y52200D02*
D03*
X196140D02*
D03*
X39567Y82677D02*
D03*
X47047D02*
D03*
X39567Y114173D02*
D03*
X47047D02*
D03*
X228940Y12100D02*
D03*
X221460D02*
D03*
X205460D02*
D03*
X212940D02*
D03*
X39340Y74700D02*
D03*
X31860D02*
D03*
X159240Y115000D02*
D03*
X151760D02*
D03*
X272740Y100500D02*
D03*
X265260D02*
D03*
X323740D02*
D03*
X316260D02*
D03*
X371240D02*
D03*
X363760D02*
D03*
X422240D02*
D03*
X414760D02*
D03*
X473240Y100700D02*
D03*
X465760D02*
D03*
X524740Y100500D02*
D03*
X517260D02*
D03*
X642897Y57648D02*
D03*
X650377D02*
D03*
D19*
X649606Y115748D02*
D03*
Y96850D02*
D03*
D20*
X147100Y37500D02*
X153600Y44000D01*
Y55175D01*
X183815Y29685D02*
X196850D01*
X151417Y62083D02*
X183815Y29685D01*
X151417Y62083D02*
Y62992D01*
X74000Y76000D02*
X76900D01*
X79060Y73840D01*
X84200D01*
X74360Y66360D02*
X84200D01*
X23622Y118110D02*
X31496D01*
X35433Y114173D01*
X37992D01*
X38780Y114961D01*
X35433Y82677D02*
X39567D01*
X27559Y90551D02*
X35433Y82677D01*
X23622Y90551D02*
X27559D01*
X39567Y74803D02*
Y82677D01*
X38780Y83465D02*
X39567Y82677D01*
X38780Y83465D02*
Y94488D01*
Y114961D02*
X39567Y114173D01*
X38780Y114961D02*
Y125984D01*
X39567Y106299D02*
Y114173D01*
X205400Y23500D02*
Y35500D01*
X201585Y19685D02*
X205400Y23500D01*
X196850Y19685D02*
X201585D01*
X184400Y39900D02*
X201000D01*
X172300Y52000D02*
X184400Y39900D01*
X172300Y52000D02*
Y69300D01*
X163700Y77900D02*
X172300Y69300D01*
X201000Y39900D02*
X205400Y35500D01*
X156509Y77900D02*
X163700D01*
X151417Y82992D02*
X156509Y77900D01*
X196850Y24685D02*
Y29685D01*
D21*
X217200Y5800D02*
X220000D01*
X221460Y7260D01*
Y12100D01*
X212940D02*
X221460D01*
X202756Y54156D02*
Y62992D01*
X200800Y52200D02*
X202756Y54156D01*
X196140Y52200D02*
X200800D01*
X151760Y103335D02*
Y115000D01*
X272740Y100500D02*
X273000Y100760D01*
D22*
X593504Y99410D02*
X599409D01*
X566929Y125984D02*
X593504Y99410D01*
D24*
X235311Y11811D02*
X248031D01*
X228940Y12100D02*
X247743D01*
X638250Y96850D02*
X649606D01*
X635573Y94173D02*
X638250Y96850D01*
X629921Y94173D02*
X635573D01*
X629921Y114173D02*
X648032D01*
X135197Y102992D02*
X151417D01*
X129921Y108268D02*
X135197Y102992D01*
X125984Y108268D02*
X129921D01*
D25*
X69185Y36000D02*
X74000Y40815D01*
X68933Y35748D02*
X69185Y36000D01*
X74000Y40815D02*
Y56000D01*
X39370Y35748D02*
X68933D01*
X68200Y76000D02*
X74000D01*
X47948Y55748D02*
X68200Y76000D01*
X39370Y55748D02*
X47948D01*
D26*
X606299Y11811D02*
Y16701D01*
X575756Y47244D02*
X606299Y16701D01*
X566929Y47244D02*
X575756D01*
X537402D02*
X566929D01*
X515748D02*
X537402D01*
X486221D02*
X515748D01*
X464567D02*
X486221D01*
X435039D02*
X464567D01*
X413386D02*
X435039D01*
X383858D02*
X413386D01*
X362205D02*
X383858D01*
X332677D02*
X362205D01*
X311024D02*
X332677D01*
X281496D02*
X311024D01*
X537402Y27559D02*
X566929D01*
X555118Y11811D02*
Y26441D01*
X486221Y27559D02*
X515748D01*
X503937Y11811D02*
Y25622D01*
X435039Y27559D02*
X464567D01*
X452756Y11811D02*
Y25803D01*
X383858Y27559D02*
X413386D01*
X401575Y11811D02*
Y25984D01*
X332677Y27559D02*
X362205D01*
X350394Y11811D02*
Y25965D01*
X281496Y27559D02*
X311024D01*
X299213Y11811D02*
Y26946D01*
D27*
X-0Y-0D02*
X669291D01*
X669291Y-0D01*
Y137795D01*
X669291Y137795D02*
X669291Y137795D01*
X-0Y137795D02*
X669291D01*
X-0Y-0D02*
Y137795D01*
D28*
X629921Y54173D02*
D03*
Y74173D02*
D03*
Y94173D02*
D03*
X39370Y55748D02*
D03*
Y15748D02*
D03*
Y35748D02*
D03*
D29*
X629921Y114173D02*
D03*
D30*
X183071Y62992D02*
D03*
X202756D02*
D03*
X599409Y79724D02*
D03*
Y99410D02*
D03*
X125984Y108268D02*
D03*
X106299D02*
D03*
D31*
X566929Y125984D02*
D03*
X537402Y27559D02*
D03*
Y125984D02*
D03*
X566929Y47244D02*
D03*
X537402D02*
D03*
X566929Y27559D02*
D03*
X515748Y125984D02*
D03*
X486221Y27559D02*
D03*
Y125984D02*
D03*
X515748Y47244D02*
D03*
X486221D02*
D03*
X515748Y27559D02*
D03*
X464567Y125984D02*
D03*
X435039Y27559D02*
D03*
Y125984D02*
D03*
X464567Y47244D02*
D03*
X435039D02*
D03*
X464567Y27559D02*
D03*
X413386Y125984D02*
D03*
X383858Y27559D02*
D03*
Y125984D02*
D03*
X413386Y47244D02*
D03*
X383858D02*
D03*
X413386Y27559D02*
D03*
X362205Y125984D02*
D03*
X332677Y27559D02*
D03*
Y125984D02*
D03*
X362205Y47244D02*
D03*
X332677D02*
D03*
X362205Y27559D02*
D03*
X311024Y125984D02*
D03*
X281496Y27559D02*
D03*
Y125984D02*
D03*
X311024Y47244D02*
D03*
X281496D02*
D03*
X311024Y27559D02*
D03*
D32*
X66929Y11811D02*
D03*
X657480D02*
D03*
X78740Y125984D02*
D03*
X248031Y11811D02*
D03*
X598425Y125984D02*
D03*
D33*
X151417Y102992D02*
D03*
X161417D02*
D03*
X151417Y92992D02*
D03*
X161417D02*
D03*
X151417Y82992D02*
D03*
X161417D02*
D03*
X151417Y72992D02*
D03*
X161417D02*
D03*
X151417Y62992D02*
D03*
X234409Y102362D02*
D03*
X224410Y92362D02*
D03*
X234409D02*
D03*
X224410Y82362D02*
D03*
X234409D02*
D03*
X224410Y72362D02*
D03*
X234409D02*
D03*
X224410Y62362D02*
D03*
X234409D02*
D03*
X224410Y52362D02*
D03*
X234409D02*
D03*
D34*
X161417Y62992D02*
D03*
X224410Y102362D02*
D03*
D35*
X74000Y76000D02*
D03*
Y66000D02*
D03*
D36*
Y56000D02*
D03*
D37*
X114815Y36000D02*
D03*
X69185D02*
D03*
D38*
X299213Y11811D02*
D03*
X606299D02*
D03*
X555118D02*
D03*
X401575D02*
D03*
X350394D02*
D03*
X503937D02*
D03*
X452756D02*
D03*
D39*
X23622Y82677D02*
D03*
Y110236D02*
D03*
D40*
Y90551D02*
D03*
Y118110D02*
D03*
D41*
X188976Y11811D02*
D03*
X232283Y3937D02*
D03*
X244094Y27559D02*
D03*
X55118Y82677D02*
D03*
X192913Y122047D02*
D03*
X169291Y125984D02*
D03*
X177165Y78740D02*
D03*
X212598Y47244D02*
D03*
X653543Y35433D02*
D03*
X665354Y51181D02*
D03*
Y74803D02*
D03*
Y94488D02*
D03*
Y114173D02*
D03*
X645669Y129921D02*
D03*
X622047D02*
D03*
X503937Y94488D02*
D03*
X566929Y90551D02*
D03*
X350394Y98425D02*
D03*
X401575D02*
D03*
X452756Y94488D02*
D03*
X251969Y110236D02*
D03*
X220472Y125984D02*
D03*
X240158D02*
D03*
X255906D02*
D03*
X212598Y82677D02*
D03*
X228346Y43307D02*
D03*
X122047Y118110D02*
D03*
X133858Y90551D02*
D03*
X66929Y106299D02*
D03*
X90551D02*
D03*
X141732Y133858D02*
D03*
X106299D02*
D03*
X27559D02*
D03*
X173228Y3937D02*
D03*
X153543D02*
D03*
X3937Y82677D02*
D03*
Y98425D02*
D03*
Y118110D02*
D03*
Y133858D02*
D03*
X147100Y37500D02*
D03*
X153600Y55175D02*
D03*
X217200Y5800D02*
D03*
X291339Y102362D02*
D03*
X303150Y110236D02*
D03*
X334646Y98425D02*
D03*
X350394Y106299D02*
D03*
X381890Y98425D02*
D03*
X401575Y110236D02*
D03*
X433071Y94488D02*
D03*
X452756Y106299D02*
D03*
X484252Y94488D02*
D03*
X503937Y106299D02*
D03*
X539370Y90551D02*
D03*
X555118Y98425D02*
D03*
X570866Y110236D02*
D03*
D42*
X186600Y29440D02*
D03*
Y21960D02*
D03*
X84200Y73840D02*
D03*
Y66360D02*
D03*
X265000Y115740D02*
D03*
Y108260D02*
D03*
X273000D02*
D03*
Y115740D02*
D03*
X315500D02*
D03*
Y108260D02*
D03*
X323500D02*
D03*
Y115740D02*
D03*
X363500D02*
D03*
Y108260D02*
D03*
X371500D02*
D03*
Y115740D02*
D03*
X414500D02*
D03*
Y108260D02*
D03*
X422500D02*
D03*
Y115740D02*
D03*
X473500D02*
D03*
Y108260D02*
D03*
X517000Y115740D02*
D03*
Y108260D02*
D03*
X465500D02*
D03*
Y115740D02*
D03*
X525000Y108260D02*
D03*
Y115740D02*
D03*
D43*
X196850Y19685D02*
D03*
Y29685D02*
D03*
Y34685D02*
D03*
X220472D02*
D03*
Y29685D02*
D03*
Y24685D02*
D03*
D44*
X196850D02*
D03*
X220472Y19685D02*
D03*
D45*
X38780Y94488D02*
D03*
X55709D02*
D03*
X38780Y125984D02*
D03*
X55709D02*
D03*
D46*
X288331Y112000D02*
D03*
X279669Y115740D02*
D03*
Y108260D02*
D03*
X338831Y112000D02*
D03*
X330169Y115740D02*
D03*
Y108260D02*
D03*
X386221Y112000D02*
D03*
X377559Y115740D02*
D03*
Y108260D02*
D03*
X437402Y112000D02*
D03*
X428740Y115740D02*
D03*
Y108260D02*
D03*
X488583Y112000D02*
D03*
X479921Y115740D02*
D03*
Y108260D02*
D03*
X539764Y112000D02*
D03*
X531102Y115740D02*
D03*
Y108260D02*
D03*
D47*
X294063Y123740D02*
D03*
Y116260D02*
D03*
X302725Y120000D02*
D03*
X344063Y123740D02*
D03*
Y116260D02*
D03*
X352725Y120000D02*
D03*
X393701Y123740D02*
D03*
Y116260D02*
D03*
X402362Y120000D02*
D03*
X444882Y123740D02*
D03*
Y116260D02*
D03*
X453544Y120000D02*
D03*
X496063Y123740D02*
D03*
Y116260D02*
D03*
X504725Y120000D02*
D03*
X547244Y123740D02*
D03*
Y116260D02*
D03*
X555906Y120000D02*
D03*
X642700Y73200D02*
D03*
Y65720D02*
D03*
X651361Y69460D02*
D03*
D48*
X241800Y52100D02*
Y65900D01*
X237109Y58009D02*
X239900Y60800D01*
Y67000D01*
X237709Y48009D02*
X241800Y52100D01*
X232607Y68009D02*
X237109D01*
X228972Y87800D02*
X247454D01*
X232607Y78009D02*
X240209D01*
X232607Y58009D02*
X237109D01*
X232607Y48009D02*
X237709D01*
X186928Y34685D02*
X196850D01*
X170400Y51213D02*
Y64100D01*
Y51213D02*
X186928Y34685D01*
X166500Y68000D02*
X170400Y64100D01*
X156409Y68000D02*
X166500D01*
X151417Y72992D02*
X156409Y68000D01*
X228762Y98009D02*
X262769D01*
X224410Y102362D02*
X228762Y98009D01*
X262769D02*
X265260Y100500D01*
X228254Y52362D02*
X232607Y48009D01*
X224410Y52362D02*
X228254D01*
Y62362D02*
X232607Y58009D01*
X224410Y62362D02*
X228254D01*
Y72362D02*
X232607Y68009D01*
X224410Y72362D02*
X228254D01*
Y82362D02*
X232607Y78009D01*
X224410Y82362D02*
X228254D01*
X224410Y92362D02*
X228972Y87800D01*
X247454D02*
X253154Y93500D01*
X240209Y78009D02*
X253900Y91700D01*
X237109Y68009D02*
X259000Y89900D01*
X239900Y67000D02*
X261000Y88100D01*
X241800Y65900D02*
X262200Y86300D01*
X253154Y93500D02*
X309260D01*
X316260Y100500D01*
X253900Y91700D02*
X354960D01*
X363760Y100500D01*
X259000Y89900D02*
X404160D01*
X414760Y100500D01*
X261000Y88100D02*
X453160D01*
X465760Y100700D01*
X262200Y86300D02*
X503060D01*
X517260Y100500D01*
D49*
X220472Y29685D02*
X228285D01*
X220472Y24685D02*
X226821D01*
X629921Y74173D02*
X630895Y73200D01*
X642700D01*
Y57452D02*
Y65720D01*
X639421Y54173D02*
X642700Y57452D01*
X629921Y54173D02*
X639421D01*
X582700Y89600D02*
X610400D01*
X617795Y82205D01*
Y66300D02*
Y82205D01*
X611095Y93000D02*
X629921Y74173D01*
X581700Y93000D02*
X611095D01*
X617795Y66300D02*
X629921Y54173D01*
X220472Y19685D02*
X221460Y18698D01*
Y12100D02*
Y18698D01*
X208500Y23200D02*
X214985Y29685D01*
X208500Y15140D02*
Y23200D01*
X205460Y12100D02*
X208500Y15140D01*
X214985Y29685D02*
X220472D01*
X444882Y116260D02*
Y123740D01*
Y114282D02*
Y116260D01*
X442600Y112000D02*
X444882Y114282D01*
X437402Y112000D02*
X442600D01*
X338831D02*
X342700D01*
X344063Y113363D02*
Y116260D01*
X342700Y112000D02*
X344063Y113363D01*
X294063Y113463D02*
Y116260D01*
X292600Y112000D02*
X294063Y113463D01*
X288331Y112000D02*
X292600D01*
X273000Y100760D02*
Y108260D01*
X279669D01*
X265000D02*
X273000D01*
X537402Y125984D02*
X545001D01*
X547244Y123740D01*
Y116260D02*
Y123740D01*
X542984Y112000D02*
X547244Y116260D01*
X539764Y112000D02*
X542984D01*
X525000Y100760D02*
Y108260D01*
X531102D01*
X517000D02*
X525000D01*
X486221Y125984D02*
X493819D01*
X496063Y123740D01*
Y116260D02*
Y123740D01*
X491803Y112000D02*
X496063Y116260D01*
X488583Y112000D02*
X491803D01*
X473500Y108260D02*
X479921D01*
X465500D02*
X473500D01*
X473240Y100700D02*
Y108000D01*
X383858Y125984D02*
X391457D01*
X393701Y123740D01*
Y116260D02*
Y123740D01*
X389441Y112000D02*
X393701Y116260D01*
X386221Y112000D02*
X389441D01*
X371500Y108260D02*
X377559D01*
X371500Y100760D02*
Y108260D01*
X363500D02*
X371500D01*
X323500Y100740D02*
Y108260D01*
X330169D01*
X315500D02*
X323500D01*
X344063Y116260D02*
Y123740D01*
X334921D02*
X344063D01*
X332677Y125984D02*
X334921Y123740D01*
X294063Y116260D02*
Y123740D01*
X291820Y125984D02*
X294063Y123740D01*
X281496Y125984D02*
X291820D01*
X311024Y123824D02*
Y125984D01*
X307200Y120000D02*
X311024Y123824D01*
X302725Y120000D02*
X307200D01*
X352725D02*
X356221D01*
X362205Y125984D01*
X402362Y120000D02*
X407402D01*
X413386Y125984D01*
X566929Y124829D02*
Y125984D01*
X562100Y120000D02*
X566929Y124829D01*
X555906Y120000D02*
X562100D01*
X509764D02*
X515748Y125984D01*
X504725Y120000D02*
X509764D01*
X422500Y100760D02*
Y108260D01*
X428740D01*
X414500D02*
X422500D01*
X458583Y120000D02*
X464567Y125984D01*
X453544Y120000D02*
X458583D01*
X442638Y125984D02*
X444882Y123740D01*
X435039Y125984D02*
X442638D01*
X574400Y81300D02*
X582700Y89600D01*
X572500Y83800D02*
X581700Y93000D01*
X266665Y83800D02*
X572500D01*
X267700Y81300D02*
X574400D01*
X245100Y62235D02*
X266665Y83800D01*
X226821Y24685D02*
X247600Y45465D01*
Y61200D01*
X267700Y81300D01*
X228285Y29685D02*
X245100Y46500D01*
Y62235D01*
D50*
X103515Y111052D02*
X106299Y108268D01*
M02*
