G04 Layer_Color=16711935*
%FSLAX25Y25*%
%MOIN*%
G70*
G01*
G75*
%ADD27C,0.00500*%
%ADD61R,0.04737X0.05524*%
%ADD64R,0.09855X0.11824*%
%ADD65C,0.11430*%
%ADD66R,0.11430X0.11430*%
%ADD67C,0.07887*%
%ADD68C,0.08674*%
%ADD69C,0.21272*%
%ADD70C,0.06706*%
%ADD71R,0.06706X0.06706*%
%ADD72C,0.07099*%
%ADD73R,0.07099X0.07099*%
%ADD74C,0.06902*%
%ADD75O,0.20485X0.16548*%
%ADD76R,0.05918X0.05918*%
%ADD77C,0.05918*%
%ADD78C,0.03937*%
%ADD79R,0.05524X0.04737*%
%ADD80O,0.08674X0.03200*%
%ADD81O,0.08674X0.03202*%
%ADD82R,0.07887X0.10642*%
%ADD83R,0.03753X0.03162*%
%ADD84R,0.05524X0.03950*%
%ADD85C,0.11800*%
D27*
X-0Y-0D02*
X669291D01*
X669291Y-0D01*
Y137795D01*
X669291Y137795D02*
X669291Y137795D01*
X-0Y137795D02*
X669291D01*
X-0Y-0D02*
Y137795D01*
D61*
X39567Y106299D02*
D03*
X47047D02*
D03*
X188660Y52200D02*
D03*
X196140D02*
D03*
X39567Y82677D02*
D03*
X47047D02*
D03*
X39567Y114173D02*
D03*
X47047D02*
D03*
X228940Y12100D02*
D03*
X221460D02*
D03*
X205460D02*
D03*
X212940D02*
D03*
X39340Y74700D02*
D03*
X31860D02*
D03*
X159240Y115000D02*
D03*
X151760D02*
D03*
X272740Y100500D02*
D03*
X265260D02*
D03*
X323740D02*
D03*
X316260D02*
D03*
X371240D02*
D03*
X363760D02*
D03*
X422240D02*
D03*
X414760D02*
D03*
X473240Y100700D02*
D03*
X465760D02*
D03*
X524740Y100500D02*
D03*
X517260D02*
D03*
X642897Y57648D02*
D03*
X650377D02*
D03*
D64*
X649606Y115748D02*
D03*
Y96850D02*
D03*
D65*
X629921Y54173D02*
D03*
Y74173D02*
D03*
Y94173D02*
D03*
X39370Y55748D02*
D03*
Y15748D02*
D03*
Y35748D02*
D03*
D66*
X629921Y114173D02*
D03*
D67*
X183071Y62992D02*
D03*
X202756D02*
D03*
X599409Y79724D02*
D03*
Y99410D02*
D03*
X125984Y108268D02*
D03*
X106299D02*
D03*
D68*
X566929Y125984D02*
D03*
X537402Y27559D02*
D03*
Y125984D02*
D03*
X566929Y47244D02*
D03*
X537402D02*
D03*
X566929Y27559D02*
D03*
X515748Y125984D02*
D03*
X486221Y27559D02*
D03*
Y125984D02*
D03*
X515748Y47244D02*
D03*
X486221D02*
D03*
X515748Y27559D02*
D03*
X464567Y125984D02*
D03*
X435039Y27559D02*
D03*
Y125984D02*
D03*
X464567Y47244D02*
D03*
X435039D02*
D03*
X464567Y27559D02*
D03*
X413386Y125984D02*
D03*
X383858Y27559D02*
D03*
Y125984D02*
D03*
X413386Y47244D02*
D03*
X383858D02*
D03*
X413386Y27559D02*
D03*
X362205Y125984D02*
D03*
X332677Y27559D02*
D03*
Y125984D02*
D03*
X362205Y47244D02*
D03*
X332677D02*
D03*
X362205Y27559D02*
D03*
X311024Y125984D02*
D03*
X281496Y27559D02*
D03*
Y125984D02*
D03*
X311024Y47244D02*
D03*
X281496D02*
D03*
X311024Y27559D02*
D03*
D69*
X66929Y11811D02*
D03*
X657480D02*
D03*
X78740Y125984D02*
D03*
X248031Y11811D02*
D03*
X598425Y125984D02*
D03*
D70*
X151417Y102992D02*
D03*
X161417D02*
D03*
X151417Y92992D02*
D03*
X161417D02*
D03*
X151417Y82992D02*
D03*
X161417D02*
D03*
X151417Y72992D02*
D03*
X161417D02*
D03*
X151417Y62992D02*
D03*
X234409Y102362D02*
D03*
X224410Y92362D02*
D03*
X234409D02*
D03*
X224410Y82362D02*
D03*
X234409D02*
D03*
X224410Y72362D02*
D03*
X234409D02*
D03*
X224410Y62362D02*
D03*
X234409D02*
D03*
X224410Y52362D02*
D03*
X234409D02*
D03*
D71*
X161417Y62992D02*
D03*
X224410Y102362D02*
D03*
D72*
X74000Y76000D02*
D03*
Y66000D02*
D03*
D73*
Y56000D02*
D03*
D74*
X114815Y36000D02*
D03*
X69185D02*
D03*
D75*
X299213Y11811D02*
D03*
X606299D02*
D03*
X555118D02*
D03*
X401575D02*
D03*
X350394D02*
D03*
X503937D02*
D03*
X452756D02*
D03*
D76*
X23622Y82677D02*
D03*
Y110236D02*
D03*
D77*
Y90551D02*
D03*
Y118110D02*
D03*
D78*
X202677Y62992D02*
X205461Y60208D01*
X180287Y65776D02*
X183071Y62992D01*
X599409Y99331D02*
X602193Y102115D01*
X596626Y76941D02*
X599409Y79724D01*
X103515Y111052D02*
X106299Y108268D01*
X125906D02*
X128689Y105484D01*
D79*
X186600Y29440D02*
D03*
Y21960D02*
D03*
X84200Y73840D02*
D03*
Y66360D02*
D03*
X265000Y115740D02*
D03*
Y108260D02*
D03*
X273000D02*
D03*
Y115740D02*
D03*
X315500D02*
D03*
Y108260D02*
D03*
X323500D02*
D03*
Y115740D02*
D03*
X363500D02*
D03*
Y108260D02*
D03*
X371500D02*
D03*
Y115740D02*
D03*
X414500D02*
D03*
Y108260D02*
D03*
X422500D02*
D03*
Y115740D02*
D03*
X473500D02*
D03*
Y108260D02*
D03*
X517000Y115740D02*
D03*
Y108260D02*
D03*
X465500D02*
D03*
Y115740D02*
D03*
X525000Y108260D02*
D03*
Y115740D02*
D03*
D80*
X196850Y19685D02*
D03*
Y29685D02*
D03*
Y34685D02*
D03*
X220472D02*
D03*
Y29685D02*
D03*
Y24685D02*
D03*
D81*
X196850D02*
D03*
X220472Y19685D02*
D03*
D82*
X38780Y94488D02*
D03*
X55709D02*
D03*
X38780Y125984D02*
D03*
X55709D02*
D03*
D83*
X288331Y112000D02*
D03*
X279669Y115740D02*
D03*
Y108260D02*
D03*
X338831Y112000D02*
D03*
X330169Y115740D02*
D03*
Y108260D02*
D03*
X386221Y112000D02*
D03*
X377559Y115740D02*
D03*
Y108260D02*
D03*
X437402Y112000D02*
D03*
X428740Y115740D02*
D03*
Y108260D02*
D03*
X488583Y112000D02*
D03*
X479921Y115740D02*
D03*
Y108260D02*
D03*
X539764Y112000D02*
D03*
X531102Y115740D02*
D03*
Y108260D02*
D03*
D84*
X294063Y123740D02*
D03*
Y116260D02*
D03*
X302725Y120000D02*
D03*
X344063Y123740D02*
D03*
Y116260D02*
D03*
X352725Y120000D02*
D03*
X393701Y123740D02*
D03*
Y116260D02*
D03*
X402362Y120000D02*
D03*
X444882Y123740D02*
D03*
Y116260D02*
D03*
X453544Y120000D02*
D03*
X496063Y123740D02*
D03*
Y116260D02*
D03*
X504725Y120000D02*
D03*
X547244Y123740D02*
D03*
Y116260D02*
D03*
X555906Y120000D02*
D03*
X642700Y73200D02*
D03*
Y65720D02*
D03*
X651361Y69460D02*
D03*
D85*
X606299Y11811D02*
Y16701D01*
X575756Y47244D02*
X606299Y16701D01*
X566929Y47244D02*
X575756D01*
X537402D02*
X566929D01*
X515748D02*
X537402D01*
X486221D02*
X515748D01*
X464567D02*
X486221D01*
X435039D02*
X464567D01*
X413386D02*
X435039D01*
X383858D02*
X413386D01*
X362205D02*
X383858D01*
X332677D02*
X362205D01*
X311024D02*
X332677D01*
X281496D02*
X311024D01*
X537402Y27559D02*
X566929D01*
X555118Y11811D02*
Y26441D01*
X486221Y27559D02*
X515748D01*
X503937Y11811D02*
Y25622D01*
X435039Y27559D02*
X464567D01*
X452756Y11811D02*
Y25803D01*
X383858Y27559D02*
X413386D01*
X401575Y11811D02*
Y25984D01*
X332677Y27559D02*
X362205D01*
X350394Y11811D02*
Y25965D01*
X281496Y27559D02*
X311024D01*
X299213Y11811D02*
Y26946D01*
M02*
