G04 Layer_Color=8421504*
%FSLAX25Y25*%
%MOIN*%
G70*
G01*
G75*
%ADD10R,0.06693X0.03740*%
%ADD11R,0.18898X0.20079*%
%ADD12R,0.03937X0.11811*%
%ADD13R,0.07874X0.01575*%
%ADD14R,0.01575X0.03937*%
%ADD15R,0.04724X0.05512*%
%ADD16R,0.03937X0.04724*%
%ADD17R,0.05512X0.04724*%
%ADD18R,0.09055X0.03937*%
%ADD19R,0.09055X0.11024*%
%ADD27C,0.00500*%
D10*
X50800Y89188D02*
D03*
Y100212D02*
D03*
D11*
X192913Y99016D02*
D03*
D12*
X201909Y124409D02*
D03*
X183917D02*
D03*
D13*
X192913Y88189D02*
D03*
D14*
X203150Y90945D02*
D03*
X182677D02*
D03*
D15*
X164291Y18000D02*
D03*
X175709D02*
D03*
X100591Y15748D02*
D03*
X112008D02*
D03*
D16*
X175640Y26900D02*
D03*
X168160D02*
D03*
X161740Y36000D02*
D03*
X154260D02*
D03*
D17*
X112000Y56291D02*
D03*
Y67709D02*
D03*
D18*
X153543Y17559D02*
D03*
Y27559D02*
D03*
X125543D02*
D03*
Y17559D02*
D03*
D19*
X96000Y54551D02*
D03*
Y73449D02*
D03*
D27*
X-0Y-0D02*
X669291D01*
X669291Y-0D01*
Y137795D01*
X669291Y137795D02*
X669291Y137795D01*
X-0Y137795D02*
X669291D01*
X-0Y-0D02*
Y137795D01*
M02*
