G04 Layer_Color=13278208*
%FSLAX25Y25*%
%MOIN*%
G70*
G01*
G75*
%ADD21C,0.01000*%
%ADD27C,0.00500*%
%ADD51C,0.00787*%
%ADD52C,0.00984*%
%ADD54R,0.17323X0.01378*%
%ADD86C,0.01969*%
D21*
X30994Y118484D02*
Y133484D01*
Y118484D02*
X42244D01*
Y133484D02*
X62244D01*
Y118484D02*
Y133484D01*
X42344Y118484D02*
X62244D01*
X30994Y133484D02*
X42244D01*
X30994Y86988D02*
Y101988D01*
Y86988D02*
X42244D01*
Y101988D02*
X62244D01*
Y86988D02*
Y101988D01*
X42344Y86988D02*
X62244D01*
X30994Y101988D02*
X42244D01*
X510998Y85999D02*
X511998Y84999D01*
Y83000D01*
X510998Y82000D01*
X507000D01*
X506000Y83000D01*
Y84999D01*
X507000Y85999D01*
X510998Y87998D02*
X511998Y88998D01*
Y90997D01*
X510998Y91997D01*
X509999D01*
X508999Y90997D01*
Y89997D01*
Y90997D01*
X507999Y91997D01*
X507000D01*
X506000Y90997D01*
Y88998D01*
X507000Y87998D01*
X511998Y97995D02*
X510998Y95995D01*
X508999Y93996D01*
X507000D01*
X506000Y94996D01*
Y96995D01*
X507000Y97995D01*
X507999D01*
X508999Y96995D01*
Y93996D01*
X474998Y83999D02*
X475998Y82999D01*
Y81000D01*
X474998Y80000D01*
X471000D01*
X470000Y81000D01*
Y82999D01*
X471000Y83999D01*
X474998Y85998D02*
X475998Y86998D01*
Y88997D01*
X474998Y89997D01*
X473999D01*
X472999Y88997D01*
Y87997D01*
Y88997D01*
X471999Y89997D01*
X471000D01*
X470000Y88997D01*
Y86998D01*
X471000Y85998D01*
X475998Y95995D02*
Y91996D01*
X472999D01*
X473999Y93995D01*
Y94995D01*
X472999Y95995D01*
X471000D01*
X470000Y94995D01*
Y92996D01*
X471000Y91996D01*
X408998Y83999D02*
X409998Y82999D01*
Y81000D01*
X408998Y80000D01*
X405000D01*
X404000Y81000D01*
Y82999D01*
X405000Y83999D01*
X408998Y85998D02*
X409998Y86998D01*
Y88997D01*
X408998Y89997D01*
X407999D01*
X406999Y88997D01*
Y87997D01*
Y88997D01*
X405999Y89997D01*
X405000D01*
X404000Y88997D01*
Y86998D01*
X405000Y85998D01*
X404000Y94995D02*
X409998D01*
X406999Y91996D01*
Y95995D01*
X356998Y85999D02*
X357998Y84999D01*
Y83000D01*
X356998Y82000D01*
X353000D01*
X352000Y83000D01*
Y84999D01*
X353000Y85999D01*
X356998Y87998D02*
X357998Y88998D01*
Y90997D01*
X356998Y91997D01*
X355999D01*
X354999Y90997D01*
Y89997D01*
Y90997D01*
X353999Y91997D01*
X353000D01*
X352000Y90997D01*
Y88998D01*
X353000Y87998D01*
X356998Y93996D02*
X357998Y94996D01*
Y96995D01*
X356998Y97995D01*
X355999D01*
X354999Y96995D01*
Y95995D01*
Y96995D01*
X353999Y97995D01*
X353000D01*
X352000Y96995D01*
Y94996D01*
X353000Y93996D01*
X310998Y85999D02*
X311998Y84999D01*
Y83000D01*
X310998Y82000D01*
X307000D01*
X306000Y83000D01*
Y84999D01*
X307000Y85999D01*
X310998Y87998D02*
X311998Y88998D01*
Y90997D01*
X310998Y91997D01*
X309999D01*
X308999Y90997D01*
Y89997D01*
Y90997D01*
X307999Y91997D01*
X307000D01*
X306000Y90997D01*
Y88998D01*
X307000Y87998D01*
X306000Y97995D02*
Y93996D01*
X309999Y97995D01*
X310998D01*
X311998Y96995D01*
Y94996D01*
X310998Y93996D01*
X264998Y85999D02*
X265998Y84999D01*
Y83000D01*
X264998Y82000D01*
X261000D01*
X260000Y83000D01*
Y84999D01*
X261000Y85999D01*
X264998Y87998D02*
X265998Y88998D01*
Y90997D01*
X264998Y91997D01*
X263999D01*
X262999Y90997D01*
Y89997D01*
Y90997D01*
X261999Y91997D01*
X261000D01*
X260000Y90997D01*
Y88998D01*
X261000Y87998D01*
X260000Y93996D02*
Y95995D01*
Y94996D01*
X265998D01*
X264998Y93996D01*
X85999Y55002D02*
X84999Y54002D01*
X83000D01*
X82000Y55002D01*
Y59000D01*
X83000Y60000D01*
X84999D01*
X85999Y59000D01*
X87998D02*
X88998Y60000D01*
X90997D01*
X91997Y59000D01*
Y55002D01*
X90997Y54002D01*
X88998D01*
X87998Y55002D01*
Y56001D01*
X88998Y57001D01*
X91997D01*
X18000Y124002D02*
Y130000D01*
X20999D01*
X21999Y129000D01*
Y125002D01*
X20999Y124002D01*
X18000D01*
X26997Y130000D02*
Y124002D01*
X23998Y127001D01*
X27997D01*
X18000Y90002D02*
Y96000D01*
X20999D01*
X21999Y95000D01*
Y91002D01*
X20999Y90002D01*
X18000D01*
X23998Y91002D02*
X24998Y90002D01*
X26997D01*
X27997Y91002D01*
Y92001D01*
X26997Y93001D01*
X25997D01*
X26997D01*
X27997Y94001D01*
Y95000D01*
X26997Y96000D01*
X24998D01*
X23998Y95000D01*
X235999Y23002D02*
X234999Y22002D01*
X233000D01*
X232000Y23002D01*
Y27000D01*
X233000Y28000D01*
X234999D01*
X235999Y27000D01*
X237998Y28000D02*
X239997D01*
X238998D01*
Y22002D01*
X237998Y23002D01*
X15999Y73002D02*
X14999Y72002D01*
X13000D01*
X12000Y73002D01*
Y77000D01*
X13000Y78000D01*
X14999D01*
X15999Y77000D01*
X17998Y78000D02*
X19997D01*
X18998D01*
Y72002D01*
X17998Y73002D01*
X22996Y77000D02*
X23996Y78000D01*
X25995D01*
X26995Y77000D01*
Y73002D01*
X25995Y72002D01*
X23996D01*
X22996Y73002D01*
Y74001D01*
X23996Y75001D01*
X26995D01*
X57999Y105002D02*
X56999Y104002D01*
X55000D01*
X54000Y105002D01*
Y109000D01*
X55000Y110000D01*
X56999D01*
X57999Y109000D01*
X63997Y110000D02*
X59998D01*
X63997Y106001D01*
Y105002D01*
X62997Y104002D01*
X60998D01*
X59998Y105002D01*
X65996D02*
X66996Y104002D01*
X68995D01*
X69995Y105002D01*
Y109000D01*
X68995Y110000D01*
X66996D01*
X65996Y109000D01*
Y105002D01*
X151999Y121002D02*
X150999Y120002D01*
X149000D01*
X148000Y121002D01*
Y125000D01*
X149000Y126000D01*
X150999D01*
X151999Y125000D01*
X157997Y126000D02*
X153998D01*
X157997Y122001D01*
Y121002D01*
X156997Y120002D01*
X154998D01*
X153998Y121002D01*
X159996Y120002D02*
X163995D01*
Y121002D01*
X159996Y125000D01*
Y126000D01*
X440000Y106002D02*
Y112000D01*
X442999D01*
X443999Y111000D01*
Y107002D01*
X442999Y106002D01*
X440000D01*
X449997Y112000D02*
X445998D01*
X449997Y108001D01*
Y107002D01*
X448997Y106002D01*
X446998D01*
X445998Y107002D01*
X454995Y112000D02*
Y106002D01*
X451996Y109001D01*
X455995D01*
X292000Y104002D02*
Y110000D01*
X294999D01*
X295999Y109000D01*
Y105002D01*
X294999Y104002D01*
X292000D01*
X301997Y110000D02*
X297998D01*
X301997Y106001D01*
Y105002D01*
X300997Y104002D01*
X298998D01*
X297998Y105002D01*
X303996Y110000D02*
X305995D01*
X304996D01*
Y104002D01*
X303996Y105002D01*
X492000Y106002D02*
Y112000D01*
X494999D01*
X495999Y111000D01*
Y107002D01*
X494999Y106002D01*
X492000D01*
X501997Y112000D02*
X497998D01*
X501997Y108001D01*
Y107002D01*
X500997Y106002D01*
X498998D01*
X497998Y107002D01*
X507995Y106002D02*
X503996D01*
Y109001D01*
X505996Y108001D01*
X506995D01*
X507995Y109001D01*
Y111000D01*
X506995Y112000D01*
X504996D01*
X503996Y111000D01*
X340000Y106002D02*
Y112000D01*
X342999D01*
X343999Y111000D01*
Y107002D01*
X342999Y106002D01*
X340000D01*
X349997Y112000D02*
X345998D01*
X349997Y108001D01*
Y107002D01*
X348997Y106002D01*
X346998D01*
X345998Y107002D01*
X355995Y112000D02*
X351996D01*
X355995Y108001D01*
Y107002D01*
X354995Y106002D01*
X352996D01*
X351996Y107002D01*
X390000Y104002D02*
Y110000D01*
X392999D01*
X393999Y109000D01*
Y105002D01*
X392999Y104002D01*
X390000D01*
X399997Y110000D02*
X395998D01*
X399997Y106001D01*
Y105002D01*
X398997Y104002D01*
X396998D01*
X395998Y105002D01*
X401996D02*
X402996Y104002D01*
X404995D01*
X405995Y105002D01*
Y106001D01*
X404995Y107001D01*
X403996D01*
X404995D01*
X405995Y108001D01*
Y109000D01*
X404995Y110000D01*
X402996D01*
X401996Y109000D01*
X546000Y106002D02*
Y112000D01*
X548999D01*
X549999Y111000D01*
Y107002D01*
X548999Y106002D01*
X546000D01*
X555997Y112000D02*
X551998D01*
X555997Y108001D01*
Y107002D01*
X554997Y106002D01*
X552998D01*
X551998Y107002D01*
X561995Y106002D02*
X559996Y107002D01*
X557996Y109001D01*
Y111000D01*
X558996Y112000D01*
X560995D01*
X561995Y111000D01*
Y110001D01*
X560995Y109001D01*
X557996D01*
X642000Y128002D02*
Y134000D01*
X644999D01*
X645999Y133000D01*
Y129002D01*
X644999Y128002D01*
X642000D01*
X647998Y134000D02*
X649997D01*
X648998D01*
Y128002D01*
X647998Y129002D01*
X656995Y134000D02*
X652996D01*
X656995Y130001D01*
Y129002D01*
X655996Y128002D01*
X653996D01*
X652996Y129002D01*
X433999Y103000D02*
Y99002D01*
X432999Y98002D01*
X431000D01*
X430000Y99002D01*
Y103000D01*
X431000Y104000D01*
X432999D01*
X431999Y102001D02*
X433999Y104000D01*
X432999D02*
X433999Y103000D01*
X438997Y104000D02*
Y98002D01*
X435998Y101001D01*
X439997D01*
X283999Y101000D02*
Y97002D01*
X282999Y96002D01*
X281000D01*
X280000Y97002D01*
Y101000D01*
X281000Y102000D01*
X282999D01*
X281999Y100001D02*
X283999Y102000D01*
X282999D02*
X283999Y101000D01*
X285998Y102000D02*
X287997D01*
X286998D01*
Y96002D01*
X285998Y97002D01*
X483999Y103000D02*
Y99002D01*
X482999Y98002D01*
X481000D01*
X480000Y99002D01*
Y103000D01*
X481000Y104000D01*
X482999D01*
X481999Y102001D02*
X483999Y104000D01*
X482999D02*
X483999Y103000D01*
X489997Y98002D02*
X485998D01*
Y101001D01*
X487997Y100001D01*
X488997D01*
X489997Y101001D01*
Y103000D01*
X488997Y104000D01*
X486998D01*
X485998Y103000D01*
X335999Y101000D02*
Y97002D01*
X334999Y96002D01*
X333000D01*
X332000Y97002D01*
Y101000D01*
X333000Y102000D01*
X334999D01*
X333999Y100001D02*
X335999Y102000D01*
X334999D02*
X335999Y101000D01*
X341997Y102000D02*
X337998D01*
X341997Y98001D01*
Y97002D01*
X340997Y96002D01*
X338998D01*
X337998Y97002D01*
X381999Y101000D02*
Y97002D01*
X380999Y96002D01*
X379000D01*
X378000Y97002D01*
Y101000D01*
X379000Y102000D01*
X380999D01*
X379999Y100001D02*
X381999Y102000D01*
X380999D02*
X381999Y101000D01*
X383998Y97002D02*
X384998Y96002D01*
X386997D01*
X387997Y97002D01*
Y98001D01*
X386997Y99001D01*
X385997D01*
X386997D01*
X387997Y100001D01*
Y101000D01*
X386997Y102000D01*
X384998D01*
X383998Y101000D01*
X535999Y103000D02*
Y99002D01*
X534999Y98002D01*
X533000D01*
X532000Y99002D01*
Y103000D01*
X533000Y104000D01*
X534999D01*
X533999Y102001D02*
X535999Y104000D01*
X534999D02*
X535999Y103000D01*
X541997Y98002D02*
X539997Y99002D01*
X537998Y101001D01*
Y103000D01*
X538998Y104000D01*
X540997D01*
X541997Y103000D01*
Y102001D01*
X540997Y101001D01*
X537998D01*
X460000Y80000D02*
X465998D01*
Y82999D01*
X464998Y83999D01*
X462999D01*
X461999Y82999D01*
Y80000D01*
Y81999D02*
X460000Y83999D01*
X465998Y89997D02*
Y85998D01*
X462999D01*
X463999Y87997D01*
Y88997D01*
X462999Y89997D01*
X461000D01*
X460000Y88997D01*
Y86998D01*
X461000Y85998D01*
X514000Y82000D02*
X519998D01*
Y84999D01*
X518998Y85999D01*
X516999D01*
X515999Y84999D01*
Y82000D01*
Y83999D02*
X514000Y85999D01*
X519998Y91997D02*
X518998Y89997D01*
X516999Y87998D01*
X515000D01*
X514000Y88998D01*
Y90997D01*
X515000Y91997D01*
X515999D01*
X516999Y90997D01*
Y87998D01*
X404000Y78000D02*
Y72002D01*
X406999D01*
X407999Y73002D01*
Y75001D01*
X406999Y76001D01*
X404000D01*
X405999D02*
X407999Y78000D01*
X413997D02*
X409998D01*
X413997Y74001D01*
Y73002D01*
X412997Y72002D01*
X410998D01*
X409998Y73002D01*
X415996Y78000D02*
X417996D01*
X416996D01*
Y72002D01*
X415996Y73002D01*
X262000Y80000D02*
Y74002D01*
X264999D01*
X265999Y75002D01*
Y77001D01*
X264999Y78001D01*
X262000D01*
X263999D02*
X265999Y80000D01*
X271997D02*
X267998D01*
X271997Y76001D01*
Y75002D01*
X270997Y74002D01*
X268998D01*
X267998Y75002D01*
X277995Y80000D02*
X273996D01*
X277995Y76001D01*
Y75002D01*
X276995Y74002D01*
X274996D01*
X273996Y75002D01*
X460000Y78000D02*
Y72002D01*
X462999D01*
X463999Y73002D01*
Y75001D01*
X462999Y76001D01*
X460000D01*
X461999D02*
X463999Y78000D01*
X469997D02*
X465998D01*
X469997Y74001D01*
Y73002D01*
X468997Y72002D01*
X466998D01*
X465998Y73002D01*
X475995Y72002D02*
X471996D01*
Y75001D01*
X473995Y74001D01*
X474995D01*
X475995Y75001D01*
Y77000D01*
X474995Y78000D01*
X472996D01*
X471996Y77000D01*
X306000Y80000D02*
Y74002D01*
X308999D01*
X309999Y75002D01*
Y77001D01*
X308999Y78001D01*
X306000D01*
X307999D02*
X309999Y80000D01*
X315997D02*
X311998D01*
X315997Y76001D01*
Y75002D01*
X314997Y74002D01*
X312998D01*
X311998Y75002D01*
X321995Y74002D02*
X319995Y75002D01*
X317996Y77001D01*
Y79000D01*
X318996Y80000D01*
X320995D01*
X321995Y79000D01*
Y78001D01*
X320995Y77001D01*
X317996D01*
X352000Y80000D02*
Y74002D01*
X354999D01*
X355999Y75002D01*
Y77001D01*
X354999Y78001D01*
X352000D01*
X353999D02*
X355999Y80000D01*
X361997D02*
X357998D01*
X361997Y76001D01*
Y75002D01*
X360997Y74002D01*
X358998D01*
X357998Y75002D01*
X363996Y79000D02*
X364996Y80000D01*
X366995D01*
X367995Y79000D01*
Y75002D01*
X366995Y74002D01*
X364996D01*
X363996Y75002D01*
Y76001D01*
X364996Y77001D01*
X367995D01*
X508000Y78000D02*
Y72002D01*
X510999D01*
X511999Y73002D01*
Y75001D01*
X510999Y76001D01*
X508000D01*
X509999D02*
X511999Y78000D01*
X513998Y73002D02*
X514998Y72002D01*
X516997D01*
X517997Y73002D01*
Y74001D01*
X516997Y75001D01*
X515997D01*
X516997D01*
X517997Y76001D01*
Y77000D01*
X516997Y78000D01*
X514998D01*
X513998Y77000D01*
X519996Y73002D02*
X520996Y72002D01*
X522995D01*
X523995Y73002D01*
Y77000D01*
X522995Y78000D01*
X520996D01*
X519996Y77000D01*
Y73002D01*
X198000Y40002D02*
Y45000D01*
X199000Y46000D01*
X200999D01*
X201999Y45000D01*
Y40002D01*
X203998Y46000D02*
X205997D01*
X204998D01*
Y40002D01*
X203998Y41002D01*
X270000Y84000D02*
X275998D01*
Y86999D01*
X274998Y87999D01*
X272999D01*
X271999Y86999D01*
Y84000D01*
Y85999D02*
X270000Y87999D01*
Y89998D02*
Y91997D01*
Y90998D01*
X275998D01*
X274998Y89998D01*
X316000Y82000D02*
X321998D01*
Y84999D01*
X320998Y85999D01*
X318999D01*
X317999Y84999D01*
Y82000D01*
Y83999D02*
X316000Y85999D01*
Y91997D02*
Y87998D01*
X319999Y91997D01*
X320998D01*
X321998Y90997D01*
Y88998D01*
X320998Y87998D01*
X360000Y82000D02*
X365998D01*
Y84999D01*
X364998Y85999D01*
X362999D01*
X361999Y84999D01*
Y82000D01*
Y83999D02*
X360000Y85999D01*
X364998Y87998D02*
X365998Y88998D01*
Y90997D01*
X364998Y91997D01*
X363999D01*
X362999Y90997D01*
Y89997D01*
Y90997D01*
X361999Y91997D01*
X361000D01*
X360000Y90997D01*
Y88998D01*
X361000Y87998D01*
X412000Y80000D02*
X417998D01*
Y82999D01*
X416998Y83999D01*
X414999D01*
X413999Y82999D01*
Y80000D01*
Y81999D02*
X412000Y83999D01*
Y88997D02*
X417998D01*
X414999Y85998D01*
Y89997D01*
X168000Y26000D02*
Y20002D01*
X170999D01*
X171999Y21002D01*
Y23001D01*
X170999Y24001D01*
X168000D01*
X169999D02*
X171999Y26000D01*
X173998Y21002D02*
X174998Y20002D01*
X176997D01*
X177997Y21002D01*
Y22001D01*
X176997Y23001D01*
X177997Y24001D01*
Y25000D01*
X176997Y26000D01*
X174998D01*
X173998Y25000D01*
Y24001D01*
X174998Y23001D01*
X173998Y22001D01*
Y21002D01*
X174998Y23001D02*
X176997D01*
X189999Y59002D02*
X188999Y58002D01*
X187000D01*
X186000Y59002D01*
Y63000D01*
X187000Y64000D01*
X188999D01*
X189999Y63000D01*
X195997Y58002D02*
X193997Y59002D01*
X191998Y61001D01*
Y63000D01*
X192998Y64000D01*
X194997D01*
X195997Y63000D01*
Y62001D01*
X194997Y61001D01*
X191998D01*
X658000Y66002D02*
Y72000D01*
X660999D01*
X661999Y71000D01*
Y67002D01*
X660999Y66002D01*
X658000D01*
X663998Y72000D02*
X665997D01*
X664998D01*
Y66002D01*
X663998Y67002D01*
X658000Y60000D02*
Y54002D01*
X660999D01*
X661999Y55002D01*
Y57001D01*
X660999Y58001D01*
X658000D01*
X659999D02*
X661999Y60000D01*
X663998Y54002D02*
X667997D01*
Y55002D01*
X663998Y59000D01*
Y60000D01*
X52000Y84000D02*
Y78002D01*
X54999D01*
X55999Y79002D01*
Y81001D01*
X54999Y82001D01*
X52000D01*
X53999D02*
X55999Y84000D01*
X57998Y79002D02*
X58998Y78002D01*
X60997D01*
X61997Y79002D01*
Y80001D01*
X60997Y81001D01*
X59997D01*
X60997D01*
X61997Y82001D01*
Y83000D01*
X60997Y84000D01*
X58998D01*
X57998Y83000D01*
X67995Y84000D02*
X63996D01*
X67995Y80001D01*
Y79002D01*
X66995Y78002D01*
X64996D01*
X63996Y79002D01*
X18000Y116000D02*
Y110002D01*
X20999D01*
X21999Y111002D01*
Y113001D01*
X20999Y114001D01*
X18000D01*
X19999D02*
X21999Y116000D01*
X23998Y111002D02*
X24998Y110002D01*
X26997D01*
X27997Y111002D01*
Y112001D01*
X26997Y113001D01*
X25997D01*
X26997D01*
X27997Y114001D01*
Y115000D01*
X26997Y116000D01*
X24998D01*
X23998Y115000D01*
X29996Y111002D02*
X30996Y110002D01*
X32995D01*
X33995Y111002D01*
Y112001D01*
X32995Y113001D01*
X31995D01*
X32995D01*
X33995Y114001D01*
Y115000D01*
X32995Y116000D01*
X30996D01*
X29996Y115000D01*
X188000Y12000D02*
Y6002D01*
X190999D01*
X191999Y7002D01*
Y9001D01*
X190999Y10001D01*
X188000D01*
X189999D02*
X191999Y12000D01*
X193998Y11000D02*
X194998Y12000D01*
X196997D01*
X197997Y11000D01*
Y7002D01*
X196997Y6002D01*
X194998D01*
X193998Y7002D01*
Y8001D01*
X194998Y9001D01*
X197997D01*
D27*
X-0Y-0D02*
Y137795D01*
X669291D01*
X669291Y137795D01*
Y-0D02*
Y137795D01*
X669291Y-0D02*
X669291Y-0D01*
X-0Y-0D02*
X669291D01*
D51*
X610236Y125984D02*
G03*
X610236Y125984I-11811J0D01*
G01*
X259842Y11811D02*
G03*
X259842Y11811I-11811J0D01*
G01*
X90551Y125984D02*
G03*
X90551Y125984I-11811J0D01*
G01*
X669291Y11811D02*
G03*
X669291Y11811I-11811J0D01*
G01*
X78740D02*
G03*
X78740Y11811I-11811J0D01*
G01*
X639845Y54105D02*
X653428D01*
X639845Y61192D02*
X653428D01*
Y54105D02*
Y61192D01*
X639845Y54105D02*
Y61192D01*
X647944Y75956D02*
X652444D01*
Y72960D02*
Y75956D01*
Y62964D02*
Y65960D01*
X647944Y62964D02*
X652444D01*
X640945Y90354D02*
X658268D01*
X640945Y122244D02*
X658268D01*
X640945Y90354D02*
Y123425D01*
X658268D01*
Y90354D02*
Y123425D01*
X552488Y126496D02*
X556988D01*
Y123500D02*
Y126496D01*
Y113504D02*
Y116500D01*
X552488Y113504D02*
X556988D01*
X534252Y106095D02*
X538189D01*
Y109244D01*
X534252Y117905D02*
X538189D01*
Y114756D02*
Y117905D01*
X528543Y105209D02*
Y118791D01*
X521457Y105209D02*
Y118791D01*
X528543D01*
X521457Y105209D02*
X528543D01*
X514209Y104043D02*
X527791D01*
X514209Y96957D02*
X527791D01*
X514209D02*
Y104043D01*
X527791Y96957D02*
Y104043D01*
X501307Y126496D02*
X505807D01*
Y123500D02*
Y126496D01*
Y113504D02*
Y116500D01*
X501307Y113504D02*
X505807D01*
X483071Y106095D02*
X487008D01*
Y109244D01*
X483071Y117905D02*
X487008D01*
Y114756D02*
Y117905D01*
X469043Y105209D02*
Y118791D01*
X461957Y105209D02*
Y118791D01*
X469043D01*
X461957Y105209D02*
X469043D01*
X462709Y104243D02*
X476291D01*
X462709Y97157D02*
X476291D01*
X462709D02*
Y104243D01*
X476291Y97157D02*
Y104243D01*
X450126Y126496D02*
X454626D01*
Y123500D02*
Y126496D01*
Y113504D02*
Y116500D01*
X450126Y113504D02*
X454626D01*
X411709Y104043D02*
X425291D01*
X411709Y96957D02*
X425291D01*
X411709D02*
Y104043D01*
X425291Y96957D02*
Y104043D01*
X431890Y106095D02*
X435827D01*
Y109244D01*
X431890Y117905D02*
X435827D01*
Y114756D02*
Y117905D01*
X398945Y126496D02*
X403445D01*
Y123500D02*
Y126496D01*
Y113504D02*
Y116500D01*
X398945Y113504D02*
X403445D01*
X380709Y106095D02*
X384646D01*
Y109244D01*
X380709Y117905D02*
X384646D01*
Y114756D02*
Y117905D01*
X360709Y104043D02*
X374291D01*
X360709Y96957D02*
X374291D01*
X360709D02*
Y104043D01*
X374291Y96957D02*
Y104043D01*
X349307Y126496D02*
X353807D01*
Y123500D02*
Y126496D01*
Y113504D02*
Y116500D01*
X349307Y113504D02*
X353807D01*
X333319Y106095D02*
X337256D01*
Y109244D01*
X333319Y117905D02*
X337256D01*
Y114756D02*
Y117905D01*
X313209Y104043D02*
X326791D01*
X313209Y96957D02*
X326791D01*
X313209D02*
Y104043D01*
X326791Y96957D02*
Y104043D01*
X299307Y126496D02*
X303807D01*
Y123500D02*
Y126496D01*
Y113504D02*
Y116500D01*
X299307Y113504D02*
X303807D01*
X282819Y106095D02*
X286756D01*
Y109244D01*
X282819Y117905D02*
X286756D01*
Y114756D02*
Y117905D01*
X262209Y104043D02*
X275791D01*
X262209Y96957D02*
X275791D01*
X262209D02*
Y104043D01*
X275791Y96957D02*
Y104043D01*
X148709Y111457D02*
Y118543D01*
X153728D01*
X148709Y111457D02*
X153728D01*
X157272D02*
X162291D01*
X157272Y118543D02*
X162291D01*
Y111457D02*
Y118543D01*
X28809Y71157D02*
Y78243D01*
X33828D01*
X28809Y71157D02*
X33828D01*
X37372D02*
X42391D01*
X37372Y78243D02*
X42391D01*
Y71157D02*
Y78243D01*
X513457Y105209D02*
X520543D01*
X513457D02*
Y110228D01*
X520543Y105209D02*
Y110228D01*
Y113772D02*
Y118791D01*
X513457Y113772D02*
Y118791D01*
X520543D01*
X469957Y105209D02*
X477043D01*
X469957D02*
Y110228D01*
X477043Y105209D02*
Y110228D01*
Y113772D02*
Y118791D01*
X469957Y113772D02*
Y118791D01*
X477043D01*
X426043Y105209D02*
Y118791D01*
X418957Y105209D02*
Y118791D01*
X426043D01*
X418957Y105209D02*
X426043D01*
X410957D02*
X418043D01*
X410957D02*
Y110228D01*
X418043Y105209D02*
Y110228D01*
Y113772D02*
Y118791D01*
X410957Y113772D02*
Y118791D01*
X418043D01*
X375043Y105209D02*
Y118791D01*
X367957Y105209D02*
Y118791D01*
X375043D01*
X367957Y105209D02*
X375043D01*
X359957D02*
X367043D01*
X359957D02*
Y110228D01*
X367043Y105209D02*
Y110228D01*
Y113772D02*
Y118791D01*
X359957Y113772D02*
Y118791D01*
X367043D01*
X327043Y105209D02*
Y118791D01*
X319957Y105209D02*
Y118791D01*
X327043D01*
X319957Y105209D02*
X327043D01*
X311957D02*
X319043D01*
X311957D02*
Y110228D01*
X319043Y105209D02*
Y110228D01*
Y113772D02*
Y118791D01*
X311957Y113772D02*
Y118791D01*
X319043D01*
X276543Y105209D02*
Y118791D01*
X269457Y105209D02*
Y118791D01*
X276543D01*
X269457Y105209D02*
X276543D01*
X261457D02*
X268543D01*
X261457D02*
Y110228D01*
X268543Y105209D02*
Y110228D01*
Y113772D02*
Y118791D01*
X261457Y113772D02*
Y118791D01*
X268543D01*
X32564Y118871D02*
Y133471D01*
X33244Y118484D02*
Y133184D01*
X31844Y118684D02*
Y133384D01*
X32564Y87375D02*
Y101974D01*
X33244Y86988D02*
Y101688D01*
X31844Y87188D02*
Y101888D01*
X80657Y63309D02*
X87743D01*
X80657D02*
Y68328D01*
X87743Y63309D02*
Y68328D01*
Y71872D02*
Y76891D01*
X80657Y71872D02*
Y76891D01*
X87743D01*
X215991Y8557D02*
Y15643D01*
X202409Y8557D02*
Y15643D01*
Y8557D02*
X215991D01*
X202409Y15643D02*
X215991D01*
X201969Y37441D02*
X215354D01*
X201969Y16929D02*
Y37441D01*
X215354Y16929D02*
Y37441D01*
X201969Y16929D02*
X215354D01*
X218409Y8557D02*
Y15643D01*
X223428D01*
X218409Y8557D02*
X223428D01*
X226972D02*
X231991D01*
X226972Y15643D02*
X231991D01*
Y8557D02*
Y15643D01*
X183057Y18909D02*
X190143D01*
X183057Y32491D02*
X190143D01*
X183057Y18909D02*
Y32491D01*
X190143Y18909D02*
Y32491D01*
X36516Y110630D02*
X50098D01*
X36516Y117717D02*
X50098D01*
Y110630D02*
Y117717D01*
X36516Y110630D02*
Y117717D01*
Y79134D02*
X50098D01*
X36516Y86221D02*
X50098D01*
Y79134D02*
Y86221D01*
X36516Y79134D02*
Y86221D01*
X199191Y48657D02*
Y55743D01*
X194172D02*
X199191D01*
X194172Y48657D02*
X199191D01*
X185609D02*
X190628D01*
X185609Y55743D02*
X190628D01*
X185609Y48657D02*
Y55743D01*
X50098Y102756D02*
Y109843D01*
X45079Y102756D02*
X50098D01*
X45079Y109843D02*
X50098D01*
X36516D02*
X41535D01*
X36516Y102756D02*
X41535D01*
X36516D02*
Y109843D01*
D52*
X531595Y104913D02*
G03*
X531595Y104913I-492J0D01*
G01*
X480413D02*
G03*
X480413Y104913I-492J0D01*
G01*
X429232D02*
G03*
X429232Y104913I-492J0D01*
G01*
X378051D02*
G03*
X378051Y104913I-492J0D01*
G01*
X330661D02*
G03*
X330661Y104913I-492J0D01*
G01*
X280161D02*
G03*
X280161Y104913I-492J0D01*
G01*
D54*
X649606Y122736D02*
D03*
D86*
X197835Y15551D02*
G03*
X197835Y15551I-984J0D01*
G01*
M02*
