M48
;Layer_Color=9474304
;FILE_FORMAT=2:5
INCH,LZ
;TYPE=PLATED
T1F00S00C0.01200
T2F00S00C0.01800
T3F00S00C0.03150
T4F00S00C0.03937
T5F00S00C0.04134
T6F00S00C0.04724
T7F00S00C0.05118
T8F00S00C0.05906
T9F00S00C0.09843
T10F00S00C0.11811
;TYPE=NON_PLATED
T11F00S00C0.15748
%
T01
X-0007874Y0007874
Y0023622
Y003937
X-0015748Y0033465
X-0007874Y0055118
Y0074803
Y0098425
X-0098425Y0108268
X-0102362Y0088583
X-0114173Y0096457
X-0129921Y0088583
X-0165354Y009252
Y0104331
X-0185039Y009252
X-0216535
Y0104331
X-0236221Y009252
X-0267717Y0096457
Y0108268
X-0287402Y0096457
X-0318898
Y0104331
X-0334646Y0096457
X-0366142Y0108268
X-0377953Y0100394
X-0429134Y0090551
X-0426Y00679
X-04242Y00647
X-04203Y00692
Y00727
X-04308Y00626
X-04333Y00602
X-04351Y00198
X-0458661Y0031496
X-0466535
X-0474409
X-04745Y00369
X-04702Y00401
X-04714Y00448
X-0482283Y0033465
X-05178Y00438
X-0515748Y0070866
X-05
Y0086614
X-0519685
X-05374Y00883
X-05334Y00971
X-0519685Y0106299
X-0507874Y0098425
X-0492126Y0106299
X-0498032Y0002953
X-0508858
X-0519685
X-0529528
X-053937
X-05489Y00058
X-0541339Y0017717
X-0622047Y0007874
Y0027559
Y0047244
X-0507874Y0114173
Y0129921
X-0492126
Y0122047
X-0070866Y0129921
X-0047244Y0127953
X-0023622
X-0007874Y0122047
T02
X-04465Y00145
X-04266Y00224
X-04515Y00546
X-04821Y00838
X-04376Y01319
T03
X-0527559Y0014173
X-0519685
Y0022047
X-0527559
X-0511811
X-0503937
X-0496063
X-0488189
X-0480315
X-0472441
X-0464567
X-0456693
Y0014173
X-0464567
X-0472441
X-0480315
X-0488189
X-0496063
X-0503937
X-0511811
T04
X-0069882Y0077756
Y0097441
X-05803Y01001
Y01101
Y00901
T05
X-05535Y0076885
Y0122515
T06
X-0551181Y0062756
X-0562992Y0059055
X-0574803
Y0047244
X-0562992
X-0586614
X-0598425
Y0059055
X-0586614
X-0610236Y0062756
T07
X-0234252Y0025591
Y0045276
X-0204724
Y0025591
X-0183071
Y0045276
X-0153543
Y0025591
X-013189
Y0045276
X-0102362
Y0025591
X-0255906
Y0045276
X-0285433
Y0025591
X-0307087
Y0045276
X-0336614
Y0025591
X-0358268
Y0045276
X-0387795
Y0025591
Y0124016
X-0358268
X-0336614
X-0307087
X-0285433
X-0255906
X-0234252
X-0204724
X-0183071
X-0153543
X-013189
X-0102362
T08
X-00409Y00443
Y00643
Y00843
Y01043
T09
X-0216535Y0009843
X-0165354
X-0114173
X-0267717
X-0318898
X-0370079
T10
X-0062992Y0009843
T11
X-0019685Y-0011811
X-0614173
M30
