%FSLAX25Y25*%
%MOIN*%
G70*
G01*
G75*
G04 Layer_Color=8421504*
%ADD10C,0.03937*%
%ADD11R,0.07874X0.11024*%
%ADD12C,0.03937*%
%ADD13R,0.03937X0.09055*%
%ADD14R,0.09055X0.11024*%
%ADD15R,0.04724X0.03937*%
%ADD16R,0.03937X0.04724*%
%ADD17R,0.04724X0.05512*%
%ADD18R,0.06693X0.03740*%
%ADD19R,0.09843X0.07087*%
%ADD20C,0.03000*%
%ADD21C,0.00800*%
%ADD22C,0.06000*%
%ADD23C,0.04000*%
%ADD24C,0.01000*%
%ADD25C,0.02000*%
%ADD26C,0.11000*%
%ADD27C,0.00500*%
%ADD28C,0.01969*%
%ADD29R,0.06693X0.06693*%
%ADD30C,0.06693*%
%ADD31O,0.19685X0.15748*%
%ADD32C,0.06102*%
%ADD33R,0.06299X0.06299*%
%ADD34C,0.06299*%
%ADD35C,0.07087*%
%ADD36C,0.07874*%
%ADD37C,0.10630*%
%ADD38R,0.10630X0.10630*%
%ADD39R,0.05118X0.05118*%
%ADD40C,0.05118*%
%ADD41C,0.03600*%
%ADD42C,0.02400*%
%ADD43R,0.05512X0.04724*%
%ADD44R,0.01575X0.03937*%
%ADD45R,0.07874X0.01575*%
%ADD46R,0.03937X0.11811*%
%ADD47R,0.18898X0.20079*%
%ADD48R,0.04724X0.03150*%
%ADD49R,0.02953X0.02362*%
%ADD50R,0.03740X0.06693*%
%ADD51O,0.07874X0.02402*%
%ADD52O,0.07874X0.02400*%
%ADD53C,0.01500*%
%ADD54C,0.00787*%
%ADD55C,0.00984*%
%ADD56C,0.11811*%
%ADD57R,0.17323X0.01378*%
D11*
X-430100Y105400D02*
D03*
X-407659D02*
D03*
X-407559Y119800D02*
D03*
X-430000D02*
D03*
D12*
X-582677Y-11811D02*
D03*
D13*
X-537500Y76000D02*
D03*
X-527500D02*
D03*
Y48000D02*
D03*
X-537500D02*
D03*
D14*
X-22400Y85451D02*
D03*
Y104349D02*
D03*
X-602100Y86051D02*
D03*
Y104949D02*
D03*
D15*
X-462000Y37520D02*
D03*
Y45000D02*
D03*
D16*
X-517600Y55100D02*
D03*
X-510120D02*
D03*
D17*
X-526091Y36800D02*
D03*
X-537509D02*
D03*
D18*
X-556200Y21888D02*
D03*
Y32912D02*
D03*
D19*
X-573600Y12835D02*
D03*
Y29765D02*
D03*
X-599000Y12835D02*
D03*
Y29765D02*
D03*
D27*
X-629921Y0D02*
Y135827D01*
X-0Y0D02*
X0Y0D01*
X-629921Y135827D02*
X0D01*
Y0D02*
Y135827D01*
X-629921Y0D02*
X-0D01*
M02*
