G04 Layer_Color=8388736*
%FSLAX25Y25*%
%MOIN*%
G70*
G01*
G75*
%ADD27C,0.00500*%
%ADD55R,0.07493X0.04540*%
%ADD56R,0.19698X0.20879*%
%ADD57R,0.04737X0.12611*%
%ADD58R,0.08674X0.02375*%
%ADD59R,0.02375X0.04737*%
%ADD60R,0.05524X0.06312*%
%ADD61R,0.04737X0.05524*%
%ADD62R,0.06312X0.05524*%
%ADD63R,0.09855X0.04737*%
%ADD64R,0.09855X0.11824*%
%ADD65C,0.11430*%
%ADD66R,0.11430X0.11430*%
%ADD67C,0.07887*%
%ADD68C,0.08674*%
%ADD69C,0.21272*%
%ADD70C,0.06706*%
%ADD71R,0.06706X0.06706*%
%ADD72C,0.07099*%
%ADD73R,0.07099X0.07099*%
%ADD74C,0.06902*%
%ADD75O,0.20485X0.16548*%
%ADD76R,0.05918X0.05918*%
%ADD77C,0.05918*%
D27*
X-0Y-0D02*
X669291D01*
X669291Y-0D01*
Y137795D01*
X669291Y137795D02*
X669291Y137795D01*
X-0Y137795D02*
X669291D01*
X-0Y-0D02*
Y137795D01*
D55*
X50800Y89188D02*
D03*
Y100212D02*
D03*
D56*
X192913Y99016D02*
D03*
D57*
X201909Y124409D02*
D03*
X183917D02*
D03*
D58*
X192913Y88189D02*
D03*
D59*
X203150Y90945D02*
D03*
X182677D02*
D03*
D60*
X164291Y18000D02*
D03*
X175709D02*
D03*
X100591Y15748D02*
D03*
X112008D02*
D03*
D61*
X175640Y26900D02*
D03*
X168160D02*
D03*
X161740Y36000D02*
D03*
X154260D02*
D03*
D62*
X112000Y56291D02*
D03*
Y67709D02*
D03*
D63*
X153543Y17559D02*
D03*
Y27559D02*
D03*
X125543D02*
D03*
Y17559D02*
D03*
D64*
X96000Y54551D02*
D03*
Y73449D02*
D03*
D65*
X629921Y54173D02*
D03*
Y74173D02*
D03*
Y94173D02*
D03*
X39370Y55748D02*
D03*
Y15748D02*
D03*
Y35748D02*
D03*
D66*
X629921Y114173D02*
D03*
D67*
X183071Y62992D02*
D03*
X202756D02*
D03*
X599409Y79724D02*
D03*
Y99410D02*
D03*
X125984Y108268D02*
D03*
X106299D02*
D03*
D68*
X566929Y125984D02*
D03*
X537402Y27559D02*
D03*
Y125984D02*
D03*
X566929Y47244D02*
D03*
X537402D02*
D03*
X566929Y27559D02*
D03*
X515748Y125984D02*
D03*
X486221Y27559D02*
D03*
Y125984D02*
D03*
X515748Y47244D02*
D03*
X486221D02*
D03*
X515748Y27559D02*
D03*
X464567Y125984D02*
D03*
X435039Y27559D02*
D03*
Y125984D02*
D03*
X464567Y47244D02*
D03*
X435039D02*
D03*
X464567Y27559D02*
D03*
X413386Y125984D02*
D03*
X383858Y27559D02*
D03*
Y125984D02*
D03*
X413386Y47244D02*
D03*
X383858D02*
D03*
X413386Y27559D02*
D03*
X362205Y125984D02*
D03*
X332677Y27559D02*
D03*
Y125984D02*
D03*
X362205Y47244D02*
D03*
X332677D02*
D03*
X362205Y27559D02*
D03*
X311024Y125984D02*
D03*
X281496Y27559D02*
D03*
Y125984D02*
D03*
X311024Y47244D02*
D03*
X281496D02*
D03*
X311024Y27559D02*
D03*
D69*
X66929Y11811D02*
D03*
X657480D02*
D03*
X78740Y125984D02*
D03*
X248031Y11811D02*
D03*
X598425Y125984D02*
D03*
D70*
X151417Y102992D02*
D03*
X161417D02*
D03*
X151417Y92992D02*
D03*
X161417D02*
D03*
X151417Y82992D02*
D03*
X161417D02*
D03*
X151417Y72992D02*
D03*
X161417D02*
D03*
X151417Y62992D02*
D03*
X234409Y102362D02*
D03*
X224410Y92362D02*
D03*
X234409D02*
D03*
X224410Y82362D02*
D03*
X234409D02*
D03*
X224410Y72362D02*
D03*
X234409D02*
D03*
X224410Y62362D02*
D03*
X234409D02*
D03*
X224410Y52362D02*
D03*
X234409D02*
D03*
D71*
X161417Y62992D02*
D03*
X224410Y102362D02*
D03*
D72*
X74000Y76000D02*
D03*
Y66000D02*
D03*
D73*
Y56000D02*
D03*
D74*
X114815Y36000D02*
D03*
X69185D02*
D03*
D75*
X299213Y11811D02*
D03*
X606299D02*
D03*
X555118D02*
D03*
X401575D02*
D03*
X350394D02*
D03*
X503937D02*
D03*
X452756D02*
D03*
D76*
X23622Y82677D02*
D03*
Y110236D02*
D03*
D77*
Y90551D02*
D03*
Y118110D02*
D03*
M02*
